G04 ================== begin FILE IDENTIFICATION RECORD ==================*
G04 Layout Name:  D:/docs/KSK_02v6/pcb/KSK_02v6.brd*
G04 Film Name:    IN1_PWR*
G04 File Format:  Gerber RS274X*
G04 File Origin:  Cadence Allegro 16.6-2015-S105*
G04 Origin Date:  Thu Aug 30 09:01:53 2018*
G04 *
G04 Layer:  ETCH/IN1_PWR*
G04 Layer:  PIN/IN1_PWR*
G04 Layer:  VIA CLASS/IN1_PWR*
G04 *
G04 Offset:    (0.000 0.000)*
G04 Mirror:    No*
G04 Mode:      Positive*
G04 Rotation:  0*
G04 FullContactRelief:  No*
G04 UndefLineWidth:     0.000*
G04 ================== end FILE IDENTIFICATION RECORD ====================*
%FSLAX34Y34*MOMM*%
%IR0*IPPOS*OFA0.00000B0.00000*MIA0B0*SFA1.00000B1.00000*%
%ADD10C,4.*%
%ADD16C,4.1*%
%ADD15C,2.4*%
%ADD14C,1.5*%
%ADD18C,3.4*%
%ADD12C,1.7*%
%ADD17C,7.2*%
%ADD11R,1.7X1.7*%
%ADD13C,.8*%
%ADD19C,.35*%
%ADD22C,2.004*%
%ADD20C,1.304*%
%ADD21C,2.158*%
%ADD23C,1.958*%
G75*
%LPD*%
G75*
G36*
G01X-822410Y-968150D02*
G02X-833130Y-967630I-3J110701D01*
G02X-833600Y-967460I95J998D01*
G01X-834070Y-967130D01*
X-834230Y-966960D01*
X-834290Y-966860D01*
G03X-844640Y-965420I-5712J-3141D01*
G02X-845570Y-965700I-717J697D01*
G02X-893310Y-942460I23169J108249D01*
G02X-893660Y-941580I643J765D01*
G01X-893650Y-941470D01*
X-893640Y-941420D01*
G03X-901900Y-933760I-6363J1422D01*
G01X-901910D01*
G02X-902900Y-933510I-285J958D01*
G01X-912480Y-923930D01*
G02X-914710Y-921630I78380J78225D01*
G02X-914900Y-920550I729J685D01*
G01X-914180Y-918870D01*
G02X-914070Y-918670I923J-378D01*
G02X-913310Y-918260I809J-591D01*
G02X-913260I25J-1000D01*
G01X-861480D01*
G03X-860480Y-917260I0J1000D01*
G01Y-895220D01*
G03X-861480Y-894220I-1000J0D01*
G01X-864310D01*
G02X-865260Y-893530I1J1000D01*
G01X-865950Y-891410D01*
X-865750Y-890790D01*
X-865480Y-890600D01*
G03X-867410Y-869950I-7019J9759D01*
G02X-867960Y-869270I424J906D01*
G02X-867990Y-869040I968J243D01*
G01Y-867240D01*
G02X-867960Y-867010I998J-13D01*
G02X-867410Y-866330I974J-226D01*
G03Y-844550I-5090J10890D01*
G02X-867960Y-843870I424J906D01*
G02X-867990Y-843640I968J243D01*
G01Y-841840D01*
G02X-867960Y-841610I998J-13D01*
G02X-867410Y-840930I974J-226D01*
G03Y-819150I-5090J10890D01*
G02X-867960Y-818470I424J906D01*
G02X-867990Y-818240I968J243D01*
G01Y-816440D01*
G02X-867960Y-816210I998J-13D01*
G02X-867410Y-815530I974J-226D01*
G03Y-793750I-5090J10890D01*
G02X-867960Y-793070I424J906D01*
G02X-867990Y-792840I968J243D01*
G01Y-791040D01*
G02X-867960Y-790810I998J-13D01*
G02X-867410Y-790130I974J-226D01*
G03Y-768350I-5090J10890D01*
G02X-867960Y-767670I424J906D01*
G02X-867990Y-767440I968J243D01*
G01Y-765640D01*
G02X-867960Y-765410I998J-13D01*
G02X-867410Y-764730I974J-226D01*
G03Y-742950I-5090J10890D01*
G02X-867960Y-742270I424J906D01*
G02X-867990Y-742040I968J243D01*
G01Y-740240D01*
G02X-867960Y-740010I998J-13D01*
G02X-867410Y-739330I974J-226D01*
G03Y-717550I-5090J10890D01*
G02X-867960Y-716870I424J906D01*
G02X-867990Y-716640I968J243D01*
G01Y-714840D01*
G02X-867960Y-714610I998J-13D01*
G02X-867410Y-713930I974J-226D01*
G03X-865480Y-693280I-5089J10891D01*
G01X-865750Y-693090D01*
X-865950Y-692470D01*
X-865260Y-690350D01*
G02X-864310Y-689660I951J-310D01*
G01X-861480D01*
G03X-860480Y-688660I0J1000D01*
G01Y-666620D01*
G03X-861480Y-665620I-1000J0D01*
G01X-864310D01*
G02X-865260Y-664930I1J1000D01*
G01X-865950Y-662810D01*
X-865750Y-662190D01*
X-865480Y-662000D01*
G03X-867410Y-641350I-7019J9759D01*
G02X-867960Y-640670I424J906D01*
G02X-867990Y-640440I968J243D01*
G01Y-638640D01*
G02X-867960Y-638410I998J-13D01*
G02X-867410Y-637730I974J-226D01*
G03Y-615950I-5090J10890D01*
G02X-867960Y-615270I424J906D01*
G02X-867990Y-615040I968J243D01*
G01Y-613240D01*
G02X-867960Y-613010I998J-13D01*
G02X-867410Y-612330I974J-226D01*
G03Y-590550I-5090J10890D01*
G02X-867960Y-589870I424J906D01*
G02X-867990Y-589640I968J243D01*
G01Y-587840D01*
G02X-867960Y-587610I998J-13D01*
G02X-867410Y-586930I974J-226D01*
G03Y-565150I-5090J10890D01*
G02X-867960Y-564470I424J906D01*
G02X-867990Y-564240I968J243D01*
G01Y-562440D01*
G02X-867960Y-562210I998J-13D01*
G02X-867410Y-561530I974J-226D01*
G03Y-539750I-5090J10890D01*
G02X-867960Y-539070I424J906D01*
G02X-867990Y-538840I968J243D01*
G01Y-537040D01*
G02X-867960Y-536810I998J-13D01*
G02X-867410Y-536130I974J-226D01*
G03Y-514350I-5090J10890D01*
G02X-867960Y-513670I424J906D01*
G02X-867990Y-513440I968J243D01*
G01Y-511640D01*
G02X-867960Y-511410I998J-13D01*
G02X-867410Y-510730I974J-226D01*
G03Y-488950I-5090J10890D01*
G02X-867960Y-488270I424J906D01*
G02X-867990Y-488040I968J243D01*
G01Y-486240D01*
G02X-867960Y-486010I998J-13D01*
G02X-867410Y-485330I974J-226D01*
G03Y-463550I-5090J10890D01*
G02X-867960Y-462870I424J906D01*
G02X-867990Y-462640I968J243D01*
G01Y-460840D01*
G02X-867960Y-460610I998J-13D01*
G02X-867410Y-459930I974J-226D01*
G03X-865480Y-439280I-5089J10891D01*
G01X-865750Y-439090D01*
X-865950Y-438470D01*
X-865260Y-436350D01*
G02X-864310Y-435660I951J-310D01*
G01X-861480D01*
G03X-860480Y-434660I0J1000D01*
G01Y-412620D01*
G03X-861480Y-411620I-1000J0D01*
G01X-864310D01*
G02X-865260Y-410930I1J1000D01*
G01X-865950Y-408810D01*
X-865750Y-408190D01*
X-865480Y-408000D01*
G03X-867410Y-387350I-7019J9759D01*
G02X-867960Y-386670I424J906D01*
G02X-867990Y-386440I968J243D01*
G01Y-384640D01*
G02X-867960Y-384410I998J-13D01*
G02X-867410Y-383730I974J-226D01*
G03Y-361950I-5090J10890D01*
G02X-867960Y-361270I424J906D01*
G02X-867990Y-361040I968J243D01*
G01Y-359240D01*
G02X-867960Y-359010I998J-13D01*
G02X-867410Y-358330I974J-226D01*
G03Y-336550I-5090J10890D01*
G02X-867960Y-335870I424J906D01*
G02X-867990Y-335640I968J243D01*
G01Y-333840D01*
G02X-867960Y-333610I998J-13D01*
G02X-867410Y-332930I974J-226D01*
G03Y-311150I-5090J10890D01*
G02X-867960Y-310470I424J906D01*
G02X-867990Y-310240I968J243D01*
G01Y-308440D01*
G02X-867960Y-308210I998J-13D01*
G02X-867410Y-307530I974J-226D01*
G03Y-285750I-5090J10890D01*
G02X-867960Y-285070I424J906D01*
G02X-867990Y-284840I968J243D01*
G01Y-283040D01*
G02X-867960Y-282810I998J-13D01*
G02X-867410Y-282130I974J-226D01*
G03Y-260350I-5090J10890D01*
G02X-867960Y-259670I424J906D01*
G02X-867990Y-259440I968J243D01*
G01Y-257640D01*
G02X-867960Y-257410I998J-13D01*
G02X-867410Y-256730I974J-226D01*
G03Y-234950I-5090J10890D01*
G02X-867960Y-234270I424J906D01*
G02X-867990Y-234040I968J243D01*
G01Y-232240D01*
G02X-867960Y-232010I998J-13D01*
G02X-867410Y-231330I974J-226D01*
G03Y-209550I-5090J10890D01*
G02X-867960Y-208870I424J906D01*
G02X-867990Y-208640I968J243D01*
G01Y-206840D01*
G02X-867960Y-206610I998J-13D01*
G02X-867410Y-205930I974J-226D01*
G03X-865480Y-185280I-5089J10891D01*
G01X-865750Y-185090D01*
X-865950Y-184470D01*
X-865260Y-182350D01*
G02X-864310Y-181660I951J-310D01*
G01X-861480D01*
G03X-860480Y-180660I0J1000D01*
G01Y-158620D01*
G03X-861480Y-157620I-1000J0D01*
G01X-864310D01*
G02X-865260Y-156930I1J1000D01*
G01X-865950Y-154810D01*
X-865750Y-154190D01*
X-865480Y-154000D01*
G03X-883390Y-139150I-7021J9758D01*
G02X-884070Y-139700I-906J424D01*
G02X-884300Y-139730I-243J968D01*
G01X-886100D01*
G02X-886330Y-139700I13J998D01*
G02X-887010Y-139150I226J974D01*
G03X-908790I-10890J-5090D01*
G02X-909470Y-139700I-906J424D01*
G02X-909700Y-139730I-243J968D01*
G01X-911500D01*
G02X-911730Y-139700I13J998D01*
G02X-912410Y-139150I226J974D01*
G03X-930320Y-154000I-10889J-5092D01*
G01X-930050Y-154190D01*
X-929850Y-154810D01*
X-930540Y-156930D01*
G02X-931490Y-157620I-951J310D01*
G01X-934320D01*
G03X-935320Y-158620I0J-1000D01*
G01Y-180660D01*
G03X-934320Y-181660I1000J0D01*
G01X-931490D01*
G02X-930540Y-182350I-1J-1000D01*
G01X-929850Y-184470D01*
X-930050Y-185090D01*
X-930320Y-185280D01*
G03X-928390Y-205930I7019J-9759D01*
G02X-927840Y-206610I-424J-906D01*
G02X-927810Y-206840I-968J-243D01*
G01Y-208640D01*
G02X-927840Y-208870I-998J13D01*
G02X-928390Y-209550I-974J226D01*
G03Y-231330I5090J-10890D01*
G02X-927840Y-232010I-424J-906D01*
G02X-927810Y-232240I-968J-243D01*
G01Y-234040D01*
G02X-927840Y-234270I-998J13D01*
G02X-928390Y-234950I-974J226D01*
G03Y-256730I5090J-10890D01*
G02X-927840Y-257410I-424J-906D01*
G02X-927810Y-257640I-968J-243D01*
G01Y-259440D01*
G02X-927840Y-259670I-998J13D01*
G02X-928390Y-260350I-974J226D01*
G03Y-282130I5090J-10890D01*
G02X-927840Y-282810I-424J-906D01*
G02X-927810Y-283040I-968J-243D01*
G01Y-284840D01*
G02X-927840Y-285070I-998J13D01*
G02X-928390Y-285750I-974J226D01*
G03Y-307530I5090J-10890D01*
G02X-927840Y-308210I-424J-906D01*
G02X-927810Y-308440I-968J-243D01*
G01Y-310240D01*
G02X-927840Y-310470I-998J13D01*
G02X-928390Y-311150I-974J226D01*
G03Y-332930I5090J-10890D01*
G02X-927840Y-333610I-424J-906D01*
G02X-927810Y-333840I-968J-243D01*
G01Y-335640D01*
G02X-927840Y-335870I-998J13D01*
G02X-928390Y-336550I-974J226D01*
G03Y-358330I5090J-10890D01*
G02X-927840Y-359010I-424J-906D01*
G02X-927810Y-359240I-968J-243D01*
G01Y-361040D01*
G02X-927840Y-361270I-998J13D01*
G02X-928390Y-361950I-974J226D01*
G03Y-383730I5090J-10890D01*
G02X-927840Y-384410I-424J-906D01*
G02X-927810Y-384640I-968J-243D01*
G01Y-386440D01*
G02X-927840Y-386670I-998J13D01*
G02X-928390Y-387350I-974J226D01*
G03X-930320Y-408000I5089J-10891D01*
G01X-930050Y-408190D01*
X-929850Y-408810D01*
X-930540Y-410930D01*
G02X-931490Y-411620I-951J310D01*
G01X-934320D01*
G03X-935320Y-412620I0J-1000D01*
G01Y-434660D01*
G03X-934320Y-435660I1000J0D01*
G01X-931490D01*
G02X-930540Y-436350I-1J-1000D01*
G01X-929850Y-438470D01*
X-930050Y-439090D01*
X-930320Y-439280D01*
G03X-928390Y-459930I7019J-9759D01*
G02X-927840Y-460610I-424J-906D01*
G02X-927810Y-460840I-968J-243D01*
G01Y-462640D01*
G02X-927840Y-462870I-998J13D01*
G02X-928390Y-463550I-974J226D01*
G03Y-485330I5090J-10890D01*
G02X-927840Y-486010I-424J-906D01*
G02X-927810Y-486240I-968J-243D01*
G01Y-488040D01*
G02X-927840Y-488270I-998J13D01*
G02X-928390Y-488950I-974J226D01*
G03Y-510730I5090J-10890D01*
G02X-927840Y-511410I-424J-906D01*
G02X-927810Y-511640I-968J-243D01*
G01Y-513440D01*
G02X-927840Y-513670I-998J13D01*
G02X-928390Y-514350I-974J226D01*
G03Y-536130I5090J-10890D01*
G02X-927840Y-536810I-424J-906D01*
G02X-927810Y-537040I-968J-243D01*
G01Y-538840D01*
G02X-927840Y-539070I-998J13D01*
G02X-928390Y-539750I-974J226D01*
G03Y-561530I5090J-10890D01*
G02X-927840Y-562210I-424J-906D01*
G02X-927810Y-562440I-968J-243D01*
G01Y-564240D01*
G02X-927840Y-564470I-998J13D01*
G02X-928390Y-565150I-974J226D01*
G03Y-586930I5090J-10890D01*
G02X-927840Y-587610I-424J-906D01*
G02X-927810Y-587840I-968J-243D01*
G01Y-589640D01*
G02X-927840Y-589870I-998J13D01*
G02X-928390Y-590550I-974J226D01*
G03Y-612330I5090J-10890D01*
G02X-927840Y-613010I-424J-906D01*
G02X-927810Y-613240I-968J-243D01*
G01Y-615040D01*
G02X-927840Y-615270I-998J13D01*
G02X-928390Y-615950I-974J226D01*
G03Y-637730I5090J-10890D01*
G02X-927840Y-638410I-424J-906D01*
G02X-927810Y-638640I-968J-243D01*
G01Y-640440D01*
G02X-927840Y-640670I-998J13D01*
G02X-928390Y-641350I-974J226D01*
G03X-930320Y-662000I5089J-10891D01*
G01X-930050Y-662190D01*
X-929850Y-662810D01*
X-930540Y-664930D01*
G02X-931490Y-665620I-951J310D01*
G01X-934320D01*
G03X-935320Y-666620I0J-1000D01*
G01Y-688660D01*
G03X-934320Y-689660I1000J0D01*
G01X-931490D01*
G02X-930540Y-690350I-1J-1000D01*
G01X-929850Y-692470D01*
X-930050Y-693090D01*
X-930320Y-693280D01*
G03X-928390Y-713930I7019J-9759D01*
G02X-927840Y-714610I-424J-906D01*
G02X-927810Y-714840I-968J-243D01*
G01Y-716640D01*
G02X-927840Y-716870I-998J13D01*
G02X-928390Y-717550I-974J226D01*
G03Y-739330I5090J-10890D01*
G02X-927840Y-740010I-424J-906D01*
G02X-927810Y-740240I-968J-243D01*
G01Y-742040D01*
G02X-927840Y-742270I-998J13D01*
G02X-928390Y-742950I-974J226D01*
G03Y-764730I5090J-10890D01*
G02X-927840Y-765410I-424J-906D01*
G02X-927810Y-765640I-968J-243D01*
G01Y-767440D01*
G02X-927840Y-767670I-998J13D01*
G02X-928390Y-768350I-974J226D01*
G03Y-790130I5090J-10890D01*
G02X-927840Y-790810I-424J-906D01*
G02X-927810Y-791040I-968J-243D01*
G01Y-792840D01*
G02X-927840Y-793070I-998J13D01*
G02X-928390Y-793750I-974J226D01*
G03Y-815530I5090J-10890D01*
G02X-927840Y-816210I-424J-906D01*
G02X-927810Y-816440I-968J-243D01*
G01Y-818240D01*
G02X-927840Y-818470I-998J13D01*
G02X-928390Y-819150I-974J226D01*
G03Y-840930I5090J-10890D01*
G02X-927840Y-841610I-424J-906D01*
G02X-927810Y-841840I-968J-243D01*
G01Y-843640D01*
G02X-927840Y-843870I-998J13D01*
G02X-928390Y-844550I-974J226D01*
G03Y-866330I5090J-10890D01*
G02X-927840Y-867010I-424J-906D01*
G02X-927810Y-867240I-968J-243D01*
G01Y-869040D01*
G02X-927840Y-869270I-998J13D01*
G02X-928390Y-869950I-974J226D01*
G03X-930320Y-890600I5089J-10891D01*
G01X-930050Y-890790D01*
X-929850Y-891410D01*
X-930540Y-893530D01*
G02X-931490Y-894220I-951J310D01*
G01X-933050D01*
G02X-933950Y-893650I3J1000D01*
G02X-944570Y-854100I99792J47997D01*
G02X-944540Y-853760I996J83D01*
G01X-944440Y-853400D01*
X-944380Y-853290D01*
G03X-944710Y-846190I-5622J3296D01*
G02X-944900Y-845600I810J586D01*
G01Y-744480D01*
G02X-944890Y-744320I1001J18D01*
G01X-944850Y-744090D01*
X-944800Y-743940D01*
X-944710Y-743810D01*
G03Y-736190I-5290J3810D01*
G02X-944900Y-735600I810J586D01*
G01Y-634480D01*
G02X-944890Y-634320I1001J18D01*
G01X-944850Y-634090D01*
X-944800Y-633940D01*
X-944710Y-633810D01*
G03Y-626190I-5290J3810D01*
G02X-944900Y-625600I810J586D01*
G01Y-524480D01*
G02X-944890Y-524320I1001J18D01*
G01X-944850Y-524090D01*
X-944800Y-523940D01*
X-944710Y-523810D01*
G03Y-516190I-5290J3810D01*
G02X-944900Y-515600I810J586D01*
G01Y-414480D01*
G02X-944890Y-414320I1001J18D01*
G01X-944850Y-414090D01*
X-944800Y-413940D01*
X-944710Y-413810D01*
G03Y-406190I-5290J3810D01*
G02X-944900Y-405600I810J586D01*
G01Y-304480D01*
G02X-944890Y-304320I1001J18D01*
G01X-944850Y-304090D01*
X-944800Y-303940D01*
X-944710Y-303810D01*
G03Y-296190I-5290J3810D01*
G02X-944900Y-295600I810J586D01*
G01Y-194480D01*
G02X-944890Y-194320I1001J18D01*
G01X-944850Y-194090D01*
X-944800Y-193940D01*
X-944710Y-193810D01*
G03Y-186190I-5290J3810D01*
G02X-944900Y-185600I810J586D01*
G01Y-115650D01*
G02X-939900Y-110650I5000J0D01*
G01X-934490D01*
G02X-934000Y-110780I-3J-1000D01*
G01X-933990D01*
G02X-933630Y-111140I-505J-865D01*
G01X-932750Y-112630D01*
G02X-932740Y-113610I-867J-499D01*
G01Y-113620D01*
G03X-914330Y-112850I9440J-5222D01*
G01X-914410Y-112730D01*
X-914510Y-112400D01*
G02X-914450Y-111670I955J289D01*
G01X-914230Y-111210D01*
G02X-913330Y-110650I898J-440D01*
G01X-912400D01*
G03X-907400Y-105650I0J5000D01*
G01Y-96600D01*
G02X-906890Y-95720I1002J7D01*
G01X-906880D01*
G03Y-84280I-3120J5720D01*
G01X-906890D01*
G02X-907400Y-83400I492J873D01*
G01Y-30650D01*
G03X-912400Y-25650I-5000J0D01*
G01X-939900D01*
G02X-944900Y-20650I0J5000D01*
G01Y75520D01*
G02X-944890Y75680I1001J18D01*
G01X-944850Y75910D01*
X-944800Y76060D01*
X-944710Y76190D01*
G03Y83810I-5290J3810D01*
G02X-944900Y84400I810J586D01*
G01Y185520D01*
G02X-944890Y185680I1001J18D01*
G01X-944850Y185910D01*
X-944800Y186060D01*
X-944710Y186190D01*
G03Y193810I-5290J3810D01*
G02X-944900Y194400I810J586D01*
G01Y295520D01*
G02X-944890Y295680I1001J18D01*
G01X-944850Y295910D01*
X-944800Y296060D01*
X-944710Y296190D01*
G03Y303810I-5290J3810D01*
G02X-944900Y304400I810J586D01*
G01Y405520D01*
G02X-944890Y405680I1001J18D01*
G01X-944850Y405910D01*
X-944800Y406060D01*
X-944710Y406190D01*
G03Y413810I-5290J3810D01*
G02X-944900Y414400I810J586D01*
G01Y515520D01*
G02X-944890Y515680I1001J18D01*
G01X-944850Y515910D01*
X-944800Y516060D01*
X-944710Y516190D01*
G03Y523810I-5290J3810D01*
G02X-944900Y524400I810J586D01*
G01Y625520D01*
G02X-944890Y625680I1001J18D01*
G01X-944850Y625910D01*
X-944800Y626060D01*
X-944710Y626190D01*
G03Y633810I-5290J3810D01*
G02X-944900Y634400I810J586D01*
G01Y733420D01*
G02X-944880Y733630I1000J11D01*
G01X-944820Y733930D01*
X-944730Y734120D01*
X-944580Y734260D01*
G03Y743880I-4400J4810D01*
G02X-944900Y744610I680J733D01*
G01Y843420D01*
G02X-944880Y843630I1000J11D01*
G01X-944820Y843930D01*
X-944730Y844120D01*
X-944580Y844260D01*
G03Y853880I-4400J4810D01*
G02X-944900Y854610I680J733D01*
G01Y953420D01*
G02X-944880Y953630I1000J11D01*
G01X-944820Y953930D01*
X-944730Y954120D01*
X-944580Y954260D01*
G03Y963880I-4400J4810D01*
G02X-944900Y964610I680J733D01*
G01Y1063420D01*
G02X-944880Y1063630I1000J11D01*
G01X-944820Y1063930D01*
X-944730Y1064120D01*
X-944580Y1064260D01*
G03Y1073880I-4400J4810D01*
G02X-944900Y1074610I680J733D01*
G01Y1173420D01*
G02X-944880Y1173630I1000J11D01*
G01X-944820Y1173930D01*
X-944730Y1174120D01*
X-944580Y1174260D01*
G03X-943910Y1183170I-4400J4811D01*
G01X-944010Y1183300D01*
X-944160Y1183710D01*
G02X-944210Y1184240I934J355D01*
G02X-904900Y1216850I39310J-7388D01*
G01X-876520D01*
G02X-876050Y1216730I-5J-1000D01*
G01X-875540Y1216460D01*
X-875380Y1216310D01*
X-875310Y1216220D01*
G03X-864690I5310J3780D01*
G01X-864620Y1216310D01*
X-864460Y1216460D01*
X-863950Y1216730D01*
G02X-863480Y1216850I475J-880D01*
G01X-766520D01*
G02X-766050Y1216730I-5J-1000D01*
G01X-765540Y1216460D01*
X-765380Y1216310D01*
X-765310Y1216220D01*
G03X-754690I5310J3780D01*
G01X-754620Y1216310D01*
X-754460Y1216460D01*
X-753950Y1216730D01*
G02X-753480Y1216850I475J-880D01*
G01X-656520D01*
G02X-656050Y1216730I-5J-1000D01*
G01X-655540Y1216460D01*
X-655380Y1216310D01*
X-655310Y1216220D01*
G03X-644690I5310J3780D01*
G01X-644620Y1216310D01*
X-644460Y1216460D01*
X-643950Y1216730D01*
G02X-643480Y1216850I475J-880D01*
G01X-546520D01*
G02X-546050Y1216730I-5J-1000D01*
G01X-545540Y1216460D01*
X-545380Y1216310D01*
X-545310Y1216220D01*
G03X-534690I5310J3780D01*
G01X-534620Y1216310D01*
X-534460Y1216460D01*
X-533950Y1216730D01*
G02X-533480Y1216850I475J-880D01*
G01X-436520D01*
G02X-436050Y1216730I-5J-1000D01*
G01X-435540Y1216460D01*
X-435380Y1216310D01*
X-435310Y1216220D01*
G03X-424690I5310J3780D01*
G01X-424620Y1216310D01*
X-424460Y1216460D01*
X-423950Y1216730D01*
G02X-423480Y1216850I475J-880D01*
G01X-377400D01*
G02X-337400Y1176850I0J-40000D01*
G01Y1083600D01*
G02X-337840Y1082770I-1000J-2D01*
G02X-337880Y1082740I-617J781D01*
G01X-339340Y1081850D01*
G02X-339820Y1081710I-511J861D01*
G01X-340090Y1081700D01*
G03X-340320Y1060480I-5759J-10549D01*
G02X-339820Y1060590I458J-889D01*
G01X-339560Y1060580D01*
X-337880Y1059560D01*
G02X-337840Y1059530I-577J-811D01*
G02X-337400Y1058700I-560J-828D01*
G01Y1032800D01*
G02X-337840Y1031970I-1000J-2D01*
G02X-337880Y1031940I-617J781D01*
G01X-339340Y1031050D01*
G02X-339820Y1030910I-511J861D01*
G01X-340090Y1030900D01*
G03X-340320Y1009680I-5759J-10549D01*
G02X-339820Y1009790I458J-889D01*
G01X-339560Y1009780D01*
X-337880Y1008760D01*
G02X-337840Y1008730I-577J-811D01*
G02X-337400Y1007900I-560J-828D01*
G01Y982000D01*
G02X-337840Y981170I-1000J-2D01*
G02X-337880Y981140I-617J781D01*
G01X-339340Y980250D01*
G02X-339820Y980110I-511J861D01*
G01X-340090Y980100D01*
G03X-340320Y958880I-5759J-10549D01*
G02X-339820Y958990I458J-889D01*
G01X-339560Y958980D01*
X-337880Y957960D01*
G02X-337840Y957930I-577J-811D01*
G02X-337400Y957100I-560J-828D01*
G01Y931200D01*
G02X-337840Y930370I-1000J-2D01*
G02X-337880Y930340I-617J781D01*
G01X-339340Y929450D01*
G02X-339820Y929310I-511J861D01*
G01X-340090Y929300D01*
G03X-340320Y908080I-5759J-10549D01*
G02X-339820Y908190I458J-889D01*
G01X-339560Y908180D01*
X-337880Y907160D01*
G02X-337840Y907130I-577J-811D01*
G02X-337400Y906300I-560J-828D01*
G01Y880400D01*
G02X-337840Y879570I-1000J-2D01*
G02X-337880Y879540I-617J781D01*
G01X-339340Y878650D01*
G02X-339820Y878510I-511J861D01*
G01X-340090Y878500D01*
G03X-340320Y857280I-5759J-10549D01*
G02X-339820Y857390I458J-889D01*
G01X-339560Y857380D01*
X-337880Y856360D01*
G02X-337840Y856330I-577J-811D01*
G02X-337400Y855500I-560J-828D01*
G01Y829600D01*
G02X-337840Y828770I-1000J-2D01*
G02X-337880Y828740I-617J781D01*
G01X-339340Y827850D01*
G02X-339820Y827710I-511J861D01*
G01X-340090Y827700D01*
G03X-340320Y806480I-5759J-10549D01*
G02X-339820Y806590I458J-889D01*
G01X-339560Y806580D01*
X-337880Y805560D01*
G02X-337840Y805530I-577J-811D01*
G02X-337400Y804700I-560J-828D01*
G01Y778800D01*
G02X-337840Y777970I-1000J-2D01*
G02X-337880Y777940I-617J781D01*
G01X-339340Y777050D01*
G02X-339820Y776910I-511J861D01*
G01X-340090Y776900D01*
G03X-340320Y755680I-5759J-10549D01*
G02X-339820Y755790I458J-889D01*
G01X-339560Y755780D01*
X-337880Y754760D01*
G02X-337840Y754730I-577J-811D01*
G02X-337400Y753900I-560J-828D01*
G01Y728000D01*
G02X-337840Y727170I-1000J-2D01*
G02X-337880Y727140I-617J781D01*
G01X-339340Y726250D01*
G02X-339820Y726110I-511J861D01*
G01X-340090Y726100D01*
G03X-340320Y704880I-5759J-10549D01*
G02X-339820Y704990I458J-889D01*
G01X-339560Y704980D01*
X-337880Y703960D01*
G02X-337840Y703930I-577J-811D01*
G02X-337400Y703100I-560J-828D01*
G01Y677200D01*
G02X-337840Y676370I-1000J-2D01*
G02X-337880Y676340I-617J781D01*
G01X-339340Y675450D01*
G02X-339820Y675310I-511J861D01*
G01X-340090Y675300D01*
G03X-340320Y654080I-5759J-10549D01*
G02X-339820Y654190I458J-889D01*
G01X-339560Y654180D01*
X-337880Y653160D01*
G02X-337840Y653130I-577J-811D01*
G02X-337400Y652300I-560J-828D01*
G01Y626400D01*
G02X-337840Y625570I-1000J-2D01*
G02X-337880Y625540I-617J781D01*
G01X-339340Y624650D01*
G02X-339820Y624510I-511J861D01*
G01X-340090Y624500D01*
G03X-340320Y603280I-5759J-10549D01*
G02X-339820Y603390I458J-889D01*
G01X-339560Y603380D01*
X-337880Y602360D01*
G02X-337840Y602330I-577J-811D01*
G02X-337400Y601500I-560J-828D01*
G01Y575600D01*
G02X-337840Y574770I-1000J-2D01*
G02X-337880Y574740I-617J781D01*
G01X-339340Y573850D01*
G02X-339820Y573710I-511J861D01*
G01X-340090Y573700D01*
G03X-340320Y552480I-5759J-10549D01*
G02X-339820Y552590I458J-889D01*
G01X-339560Y552580D01*
X-337880Y551560D01*
G02X-337840Y551530I-577J-811D01*
G02X-337400Y550700I-560J-828D01*
G01Y524800D01*
G02X-337840Y523970I-1000J-2D01*
G02X-337880Y523940I-617J781D01*
G01X-339340Y523050D01*
G02X-339820Y522910I-511J861D01*
G01X-340090Y522900D01*
G03X-340320Y501680I-5759J-10549D01*
G02X-339820Y501790I458J-889D01*
G01X-339560Y501780D01*
X-337880Y500760D01*
G02X-337840Y500730I-577J-811D01*
G02X-337400Y499900I-560J-828D01*
G01Y474000D01*
G02X-337840Y473170I-1000J-2D01*
G02X-337880Y473140I-617J781D01*
G01X-339340Y472250D01*
G02X-339820Y472110I-511J861D01*
G01X-340090Y472100D01*
G03X-340320Y450880I-5759J-10549D01*
G02X-339820Y450990I458J-889D01*
G01X-339560Y450980D01*
X-337880Y449960D01*
G02X-337840Y449930I-577J-811D01*
G02X-337400Y449100I-560J-828D01*
G01Y423200D01*
G02X-337840Y422370I-1000J-2D01*
G02X-337880Y422340I-617J781D01*
G01X-339340Y421450D01*
G02X-339820Y421310I-511J861D01*
G01X-340090Y421300D01*
G03X-340320Y400080I-5759J-10549D01*
G02X-339820Y400190I458J-889D01*
G01X-339560Y400180D01*
X-337880Y399160D01*
G02X-337840Y399130I-577J-811D01*
G02X-337400Y398300I-560J-828D01*
G01Y372400D01*
G02X-337840Y371570I-1000J-2D01*
G02X-337880Y371540I-617J781D01*
G01X-339340Y370650D01*
G02X-339820Y370510I-511J861D01*
G01X-340090Y370500D01*
G03X-340320Y349280I-5759J-10549D01*
G02X-339820Y349390I458J-889D01*
G01X-339560Y349380D01*
X-337880Y348360D01*
G02X-337840Y348330I-577J-811D01*
G02X-337400Y347500I-560J-828D01*
G01Y321600D01*
G02X-337840Y320770I-1000J-2D01*
G02X-337880Y320740I-617J781D01*
G01X-339340Y319850D01*
G02X-339820Y319710I-511J861D01*
G01X-340090Y319700D01*
G03X-340320Y298480I-5759J-10549D01*
G02X-339820Y298590I458J-889D01*
G01X-339560Y298580D01*
X-337880Y297560D01*
G02X-337840Y297530I-577J-811D01*
G02X-337400Y296700I-560J-828D01*
G01Y171850D01*
G02X-377400Y131850I-40000J0D01*
G01X-443050D01*
G02X-443970Y132470I5J1000D01*
G03X-456030I-6030J-2470D01*
G02X-456950Y131850I-925J380D01*
G01X-553050D01*
G02X-553970Y132470I5J1000D01*
G03X-566030I-6030J-2470D01*
G02X-566950Y131850I-925J380D01*
G01X-642420D01*
G03X-660910Y128930I0J-60003D01*
G01X-661130Y128860D01*
X-661580Y128920D01*
X-663250Y130020D01*
X-663490Y130400D01*
X-663510Y130630D01*
G03X-674590Y125370I-6490J-630D01*
G01X-674430Y125210D01*
X-674280Y124790D01*
X-674470Y123010D01*
G02X-674610Y122580I-997J87D01*
G01X-674730Y122400D01*
X-674920Y122270D01*
X-674930Y122260D01*
G03X-702400Y71850I32519J-50410D01*
G01Y21430D01*
X-702690Y20950D01*
X-702950Y20820D01*
G03Y9180I2950J-5820D01*
G01X-702690Y9050D01*
X-702400Y8570D01*
Y-25700D01*
G02X-703270Y-26690I-1000J2D01*
G03Y-39610I870J-6460D01*
G02X-702400Y-40600I-130J-992D01*
G01Y-81070D01*
X-702690Y-81550D01*
X-702950Y-81680D01*
G03Y-93320I2950J-5820D01*
G01X-702690Y-93450D01*
X-702400Y-93930D01*
Y-127300D01*
G02X-703270Y-128290I-1000J2D01*
G03Y-141210I870J-6460D01*
G02X-702400Y-142200I-130J-992D01*
G01Y-181070D01*
X-702690Y-181550D01*
X-702950Y-181680D01*
G03Y-193320I2950J-5820D01*
G01X-702690Y-193450D01*
X-702400Y-193930D01*
Y-228900D01*
G02X-703270Y-229890I-1000J2D01*
G03Y-242810I870J-6460D01*
G02X-702400Y-243800I-130J-992D01*
G01Y-283570D01*
X-702690Y-284050D01*
X-702950Y-284180D01*
G03Y-295820I2950J-5820D01*
G01X-702690Y-295950D01*
X-702400Y-296430D01*
Y-330500D01*
G02X-703270Y-331490I-1000J2D01*
G03Y-344410I870J-6460D01*
G02X-702400Y-345400I-130J-992D01*
G01Y-383570D01*
X-702690Y-384050D01*
X-702950Y-384180D01*
G03Y-395820I2950J-5820D01*
G01X-702690Y-395950D01*
X-702400Y-396430D01*
Y-432100D01*
G02X-703270Y-433090I-1000J2D01*
G03Y-446010I870J-6460D01*
G02X-702400Y-447000I-130J-992D01*
G01Y-487670D01*
G02X-702460Y-488000I-999J11D01*
G01X-702620Y-488450D01*
X-702710Y-488580D01*
G03Y-496420I5210J-3920D01*
G01X-702620Y-496550D01*
X-702460Y-497000D01*
G02X-702400Y-497330I-939J-341D01*
G01Y-533700D01*
G02X-703270Y-534690I-1000J2D01*
G03Y-547610I870J-6460D01*
G02X-702400Y-548600I-130J-992D01*
G01Y-588570D01*
X-702690Y-589050D01*
X-702950Y-589180D01*
G03Y-600820I2950J-5820D01*
G01X-702690Y-600950D01*
X-702400Y-601430D01*
Y-635300D01*
G02X-703270Y-636290I-1000J2D01*
G03Y-649210I870J-6460D01*
G02X-702400Y-650200I-130J-992D01*
G01Y-693020D01*
X-702690Y-693500D01*
X-702950Y-693630D01*
G03Y-705270I2950J-5820D01*
G01X-702690Y-705400D01*
X-702400Y-705880D01*
Y-736900D01*
G02X-703270Y-737890I-1000J2D01*
G03X-702990Y-750840I877J-6459D01*
G02X-702860Y-750860I-87J-997D01*
G02X-702090Y-751740I-227J-975D01*
G03X-694960Y-774590I59690J6088D01*
G01X-694900Y-774700D01*
X-694850Y-774880D01*
G02X-694880Y-775470I-971J-246D01*
G01X-695010Y-775810D01*
X-695110Y-775940D01*
G03X-687710Y-786110I5103J-4064D01*
G01X-687520Y-786040D01*
X-687130Y-786050D01*
X-686510Y-786320D01*
X-686370Y-786470D01*
G03X-642400Y-805650I43970J40810D01*
G01X-633520D01*
G02X-633070Y-805760I-6J-998D01*
G01X-633040Y-805770D01*
X-633030D01*
G03X-626970I3030J5770D01*
G01X-626960D01*
X-626930Y-805760D01*
G02X-626480Y-805650I456J-888D01*
G01X-573520D01*
G02X-573070Y-805760I-6J-998D01*
G01X-573040Y-805770D01*
X-573030D01*
G03X-566970I3030J5770D01*
G01X-566960D01*
X-566930Y-805760D01*
G02X-566480Y-805650I456J-888D01*
G01X-562400D01*
G02X-524090Y-834140I0J-40002D01*
G02X-524380Y-835170I-958J-286D01*
G03X-522950Y-845820I4379J-4833D01*
G01X-522690Y-845950D01*
X-522400Y-846430D01*
Y-923570D01*
X-522690Y-924050D01*
X-522950Y-924180D01*
G03X-523680Y-935380I2949J-5816D01*
G02X-523260Y-936420I-560J-831D01*
G02X-562400Y-968150I-39140J8275D01*
G01X-634800D01*
G02X-635650Y-967680I-2J1000D01*
G01X-636550Y-966260D01*
G02X-636710Y-965780I839J546D01*
G01X-636720Y-965530D01*
X-636610Y-965290D01*
Y-965280D01*
G03X-648390I-5890J2780D01*
G01Y-965290D01*
X-648380Y-965300D01*
G02X-648290Y-965780I-911J-419D01*
G01X-648310Y-966040D01*
X-649350Y-967680D01*
X-649490Y-967900D01*
X-649930Y-968150D01*
X-686850D01*
G02X-687780Y-967520I-1J1000D01*
G01X-688590Y-965510D01*
X-688470Y-964930D01*
X-688240Y-964710D01*
G03X-697260I-4510J4710D01*
G01X-697030Y-964930D01*
X-696910Y-965510D01*
X-697720Y-967520D01*
G02X-698650Y-968150I-929J370D01*
G01X-728050D01*
G02X-728970Y-967530I5J1000D01*
G03X-741030I-6030J-2470D01*
G02X-741950Y-968150I-925J380D01*
G01X-822410D01*
G37*
G36*
G01X-461500Y-776700D02*
G02X-466500Y-771700I0J5000D01*
G01Y-756300D01*
G02X-461500Y-751300I5000J0D01*
G01X-427050D01*
G03X-422050Y-746300I0J5000D01*
G01Y-711850D01*
G03X-427050Y-706850I-5000J0D01*
G01X-453770D01*
G02X-454590Y-706410I8J998D01*
G01X-455670Y-704840D01*
X-455720Y-704350D01*
X-455630Y-704120D01*
G03X-463840Y-695580I-6070J2381D01*
G01X-464080Y-695660D01*
X-464550Y-695600D01*
X-466080Y-694510D01*
G02X-466500Y-693690I580J815D01*
G01Y-692800D01*
G02X-461500Y-687800I5000J0D01*
G01X-376250D01*
G02X-371250Y-692800I0J-5000D01*
G01Y-739950D01*
G02X-376250Y-744950I-5000J0D01*
G01X-385300D01*
G03X-390300Y-749950I0J-5000D01*
G01Y-771700D01*
G02X-395300Y-776700I-5000J0D01*
G01X-461500D01*
G37*
G36*
G01Y-675100D02*
G02X-466500Y-670100I0J5000D01*
G01Y-654700D01*
G02X-461500Y-649700I5000J0D01*
G01X-427050D01*
G03X-422050Y-644700I0J5000D01*
G01Y-610250D01*
G03X-427050Y-605250I-5000J0D01*
G01X-453770D01*
G02X-454590Y-604810I8J998D01*
G01X-455670Y-603240D01*
X-455720Y-602750D01*
X-455630Y-602520D01*
G03X-463840Y-593980I-6070J2381D01*
G01X-464080Y-594060D01*
X-464550Y-594000D01*
X-466080Y-592910D01*
G02X-466500Y-592090I580J815D01*
G01Y-591200D01*
G02X-461500Y-586200I5000J0D01*
G01X-376250D01*
G02X-371250Y-591200I0J-5000D01*
G01Y-638350D01*
G02X-376250Y-643350I-5000J0D01*
G01X-385300D01*
G03X-390300Y-648350I0J-5000D01*
G01Y-670100D01*
G02X-395300Y-675100I-5000J0D01*
G01X-461500D01*
G37*
G36*
G01Y-573500D02*
G02X-466500Y-568500I0J5000D01*
G01Y-553100D01*
G02X-461500Y-548100I5000J0D01*
G01X-427050D01*
G03X-422050Y-543100I0J5000D01*
G01Y-508650D01*
G03X-427050Y-503650I-5000J0D01*
G01X-453770D01*
G02X-454590Y-503210I8J998D01*
G01X-455670Y-501640D01*
X-455720Y-501150D01*
X-455630Y-500920D01*
G03X-463840Y-492380I-6070J2381D01*
G01X-464080Y-492460D01*
X-464550Y-492400D01*
X-466080Y-491310D01*
G02X-466500Y-490490I580J815D01*
G01Y-489600D01*
G02X-461500Y-484600I5000J0D01*
G01X-376250D01*
G02X-371250Y-489600I0J-5000D01*
G01Y-536750D01*
G02X-376250Y-541750I-5000J0D01*
G01X-385300D01*
G03X-390300Y-546750I0J-5000D01*
G01Y-568500D01*
G02X-395300Y-573500I-5000J0D01*
G01X-461500D01*
G37*
G36*
G01Y-471900D02*
G02X-466500Y-466900I0J5000D01*
G01Y-451500D01*
G02X-461500Y-446500I5000J0D01*
G01X-427050D01*
G03X-422050Y-441500I0J5000D01*
G01Y-407050D01*
G03X-427050Y-402050I-5000J0D01*
G01X-453770D01*
G02X-454590Y-401610I8J998D01*
G01X-455670Y-400040D01*
X-455720Y-399550D01*
X-455630Y-399320D01*
G03X-463840Y-390780I-6070J2381D01*
G01X-464080Y-390860D01*
X-464550Y-390800D01*
X-466080Y-389710D01*
G02X-466500Y-388890I580J815D01*
G01Y-388000D01*
G02X-461500Y-383000I5000J0D01*
G01X-376250D01*
G02X-371250Y-388000I0J-5000D01*
G01Y-435150D01*
G02X-376250Y-440150I-5000J0D01*
G01X-385300D01*
G03X-390300Y-445150I0J-5000D01*
G01Y-466900D01*
G02X-395300Y-471900I-5000J0D01*
G01X-461500D01*
G37*
G36*
G01Y-370300D02*
G02X-466500Y-365300I0J5000D01*
G01Y-349900D01*
G02X-461500Y-344900I5000J0D01*
G01X-427050D01*
G03X-422050Y-339900I0J5000D01*
G01Y-305450D01*
G03X-427050Y-300450I-5000J0D01*
G01X-453770D01*
G02X-454590Y-300010I8J998D01*
G01X-455670Y-298440D01*
X-455720Y-297950D01*
X-455630Y-297720D01*
G03X-463840Y-289180I-6070J2381D01*
G01X-464080Y-289260D01*
X-464550Y-289200D01*
X-466080Y-288110D01*
G02X-466500Y-287290I580J815D01*
G01Y-286400D01*
G02X-461500Y-281400I5000J0D01*
G01X-376250D01*
G02X-371250Y-286400I0J-5000D01*
G01Y-333550D01*
G02X-376250Y-338550I-5000J0D01*
G01X-385300D01*
G03X-390300Y-343550I0J-5000D01*
G01Y-365300D01*
G02X-395300Y-370300I-5000J0D01*
G01X-461500D01*
G37*
G36*
G01Y-268700D02*
G02X-466500Y-263700I0J5000D01*
G01Y-248300D01*
G02X-461500Y-243300I5000J0D01*
G01X-427050D01*
G03X-422050Y-238300I0J5000D01*
G01Y-203850D01*
G03X-427050Y-198850I-5000J0D01*
G01X-453770D01*
G02X-454590Y-198410I8J998D01*
G01X-455670Y-196840D01*
X-455720Y-196350D01*
X-455630Y-196120D01*
G03X-463840Y-187580I-6070J2381D01*
G01X-464080Y-187660D01*
X-464550Y-187600D01*
X-466080Y-186510D01*
G02X-466500Y-185690I580J815D01*
G01Y-184800D01*
G02X-461500Y-179800I5000J0D01*
G01X-376250D01*
G02X-371250Y-184800I0J-5000D01*
G01Y-231950D01*
G02X-376250Y-236950I-5000J0D01*
G01X-385300D01*
G03X-390300Y-241950I0J-5000D01*
G01Y-263700D01*
G02X-395300Y-268700I-5000J0D01*
G01X-461500D01*
G37*
G36*
G01Y-167100D02*
G02X-466500Y-162100I0J5000D01*
G01Y-146700D01*
G02X-461500Y-141700I5000J0D01*
G01X-427050D01*
G03X-422050Y-136700I0J5000D01*
G01Y-102250D01*
G03X-427050Y-97250I-5000J0D01*
G01X-453770D01*
G02X-454590Y-96810I8J998D01*
G01X-455670Y-95240D01*
X-455720Y-94750D01*
X-455630Y-94520D01*
G03X-463840Y-85980I-6070J2381D01*
G01X-464080Y-86060D01*
X-464550Y-86000D01*
X-466080Y-84910D01*
G02X-466500Y-84090I580J815D01*
G01Y-83200D01*
G02X-461500Y-78200I5000J0D01*
G01X-376250D01*
G02X-371250Y-83200I0J-5000D01*
G01Y-130350D01*
G02X-376250Y-135350I-5000J0D01*
G01X-385300D01*
G03X-390300Y-140350I0J-5000D01*
G01Y-162100D01*
G02X-395300Y-167100I-5000J0D01*
G01X-461500D01*
G37*
G36*
G01Y-65500D02*
G02X-466500Y-60500I0J5000D01*
G01Y-45100D01*
G02X-461500Y-40100I5000J0D01*
G01X-427050D01*
G03X-422050Y-35100I0J5000D01*
G01Y-650D01*
G03X-427050Y4350I-5000J0D01*
G01X-453770D01*
G02X-454590Y4790I8J998D01*
G01X-455670Y6360D01*
X-455720Y6850D01*
X-455630Y7080D01*
G03X-463840Y15620I-6070J2381D01*
G01X-464080Y15540D01*
X-464550Y15600D01*
X-466080Y16690D01*
G02X-466500Y17510I580J815D01*
G01Y18400D01*
G02X-461500Y23400I5000J0D01*
G01X-376250D01*
G02X-371250Y18400I0J-5000D01*
G01Y-28750D01*
G02X-376250Y-33750I-5000J0D01*
G01X-385300D01*
G03X-390300Y-38750I0J-5000D01*
G01Y-60500D01*
G02X-395300Y-65500I-5000J0D01*
G01X-461500D01*
G37*
G36*
G01X-287350Y-713200D02*
X-296400D01*
G03X-301400Y-718200I0J-5000D01*
G01Y-752650D01*
G03X-296400Y-757650I5000J0D01*
G01X-249250D01*
G02X-244250Y-762650I0J-5000D01*
G01Y-771700D01*
G02X-249250Y-776700I-5000J0D01*
G01X-334500D01*
G02X-339500Y-771700I0J5000D01*
G01Y-762650D01*
G03X-344500Y-757650I-5000J0D01*
G01X-353830D01*
G02X-358830Y-752650I0J5000D01*
G01X-358680Y-718180D01*
G02X-353680Y-713200I4999J-20D01*
G01X-338150D01*
G03X-333150Y-708200I0J5000D01*
G01Y-692900D01*
G02X-328160Y-687900I5000J0D01*
G01X-287360Y-687830D01*
G02X-282350Y-692830I10J-5000D01*
G01Y-708200D01*
G02X-287350Y-713200I-5000J0D01*
G37*
G36*
G01Y-611600D02*
X-296400D01*
G03X-301400Y-616600I0J-5000D01*
G01Y-651050D01*
G03X-296400Y-656050I5000J0D01*
G01X-249250D01*
G02X-244250Y-661050I0J-5000D01*
G01Y-670100D01*
G02X-249250Y-675100I-5000J0D01*
G01X-334500D01*
G02X-339500Y-670100I0J5000D01*
G01Y-661050D01*
G03X-344500Y-656050I-5000J0D01*
G01X-353830D01*
G02X-358830Y-651050I0J5000D01*
G01X-358680Y-616580D01*
G02X-353680Y-611600I4999J-20D01*
G01X-338150D01*
G03X-333150Y-606600I0J5000D01*
G01Y-591300D01*
G02X-328160Y-586300I5000J0D01*
G01X-287360Y-586230D01*
G02X-282350Y-591230I10J-5000D01*
G01Y-606600D01*
G02X-287350Y-611600I-5000J0D01*
G37*
G36*
G01Y-510000D02*
X-296400D01*
G03X-301400Y-515000I0J-5000D01*
G01Y-549450D01*
G03X-296400Y-554450I5000J0D01*
G01X-249250D01*
G02X-244250Y-559450I0J-5000D01*
G01Y-568500D01*
G02X-249250Y-573500I-5000J0D01*
G01X-334500D01*
G02X-339500Y-568500I0J5000D01*
G01Y-559450D01*
G03X-344500Y-554450I-5000J0D01*
G01X-353830D01*
G02X-358830Y-549450I0J5000D01*
G01X-358680Y-514980D01*
G02X-353680Y-510000I4999J-20D01*
G01X-338150D01*
G03X-333150Y-505000I0J5000D01*
G01Y-489700D01*
G02X-328160Y-484700I5000J0D01*
G01X-287360Y-484630D01*
G02X-282350Y-489630I10J-5000D01*
G01Y-505000D01*
G02X-287350Y-510000I-5000J0D01*
G37*
G36*
G01Y-408400D02*
X-296400D01*
G03X-301400Y-413400I0J-5000D01*
G01Y-447850D01*
G03X-296400Y-452850I5000J0D01*
G01X-249250D01*
G02X-244250Y-457850I0J-5000D01*
G01Y-466900D01*
G02X-249250Y-471900I-5000J0D01*
G01X-334500D01*
G02X-339500Y-466900I0J5000D01*
G01Y-457850D01*
G03X-344500Y-452850I-5000J0D01*
G01X-353830D01*
G02X-358830Y-447850I0J5000D01*
G01X-358680Y-413380D01*
G02X-353680Y-408400I4999J-20D01*
G01X-338150D01*
G03X-333150Y-403400I0J5000D01*
G01Y-388100D01*
G02X-328160Y-383100I5000J0D01*
G01X-287360Y-383030D01*
G02X-282350Y-388030I10J-5000D01*
G01Y-403400D01*
G02X-287350Y-408400I-5000J0D01*
G37*
G36*
G01Y-306800D02*
X-296400D01*
G03X-301400Y-311800I0J-5000D01*
G01Y-346250D01*
G03X-296400Y-351250I5000J0D01*
G01X-249250D01*
G02X-244250Y-356250I0J-5000D01*
G01Y-365300D01*
G02X-249250Y-370300I-5000J0D01*
G01X-334500D01*
G02X-339500Y-365300I0J5000D01*
G01Y-356250D01*
G03X-344500Y-351250I-5000J0D01*
G01X-353830D01*
G02X-358830Y-346250I0J5000D01*
G01X-358680Y-311780D01*
G02X-353680Y-306800I4999J-20D01*
G01X-338150D01*
G03X-333150Y-301800I0J5000D01*
G01Y-286500D01*
G02X-328160Y-281500I5000J0D01*
G01X-287360Y-281430D01*
G02X-282350Y-286430I10J-5000D01*
G01Y-301800D01*
G02X-287350Y-306800I-5000J0D01*
G37*
G36*
G01Y-205200D02*
X-296400D01*
G03X-301400Y-210200I0J-5000D01*
G01Y-244650D01*
G03X-296400Y-249650I5000J0D01*
G01X-249250D01*
G02X-244250Y-254650I0J-5000D01*
G01Y-263700D01*
G02X-249250Y-268700I-5000J0D01*
G01X-334500D01*
G02X-339500Y-263700I0J5000D01*
G01Y-254650D01*
G03X-344500Y-249650I-5000J0D01*
G01X-353830D01*
G02X-358830Y-244650I0J5000D01*
G01X-358680Y-210180D01*
G02X-353680Y-205200I4999J-20D01*
G01X-338150D01*
G03X-333150Y-200200I0J5000D01*
G01Y-184900D01*
G02X-328160Y-179900I5000J0D01*
G01X-287360Y-179830D01*
G02X-282350Y-184830I10J-5000D01*
G01Y-200200D01*
G02X-287350Y-205200I-5000J0D01*
G37*
G36*
G01X-298650Y-190100D02*
Y-222600D01*
G02X-308650Y-232600I-10000J0D01*
G01X-336150D01*
G02X-346150Y-222600I0J10000D01*
G01Y-190100D01*
G02X-336150Y-180100I10000J0D01*
G01X-308650D01*
G02X-298650Y-190100I0J-10000D01*
G37*
G36*
G01X-287350Y-103600D02*
X-296400D01*
G03X-301400Y-108600I0J-5000D01*
G01Y-143050D01*
G03X-296400Y-148050I5000J0D01*
G01X-249250D01*
G02X-244250Y-153050I0J-5000D01*
G01Y-162100D01*
G02X-249250Y-167100I-5000J0D01*
G01X-334500D01*
G02X-339500Y-162100I0J5000D01*
G01Y-153050D01*
G03X-344500Y-148050I-5000J0D01*
G01X-353830D01*
G02X-358830Y-143050I0J5000D01*
G01X-358680Y-108580D01*
G02X-353680Y-103600I4999J-20D01*
G01X-338150D01*
G03X-333150Y-98600I0J5000D01*
G01Y-83300D01*
G02X-328160Y-78300I5000J0D01*
G01X-287360Y-78230D01*
G02X-282350Y-83230I10J-5000D01*
G01Y-98600D01*
G02X-287350Y-103600I-5000J0D01*
G37*
G36*
G01Y-2000D02*
X-296400D01*
G03X-301400Y-7000I0J-5000D01*
G01Y-41450D01*
G03X-296400Y-46450I5000J0D01*
G01X-249250D01*
G02X-244250Y-51450I0J-5000D01*
G01Y-60500D01*
G02X-249250Y-65500I-5000J0D01*
G01X-334500D01*
G02X-339500Y-60500I0J5000D01*
G01Y-51450D01*
G03X-344500Y-46450I-5000J0D01*
G01X-353830D01*
G02X-358830Y-41450I0J5000D01*
G01X-358680Y-6980D01*
G02X-353680Y-2000I4999J-20D01*
G01X-338150D01*
G03X-333150Y3000I0J5000D01*
G01Y18300D01*
G02X-328160Y23300I5000J0D01*
G01X-287360Y23370D01*
G02X-282350Y18370I10J-5000D01*
G01Y3000D01*
G02X-287350Y-2000I-5000J0D01*
G37*
G36*
G01X-41000Y-777200D02*
X-213000D01*
G02X-218000Y-772200I0J5000D01*
G01Y-692200D01*
G02X-213000Y-687200I5000J0D01*
G01X-41000D01*
G02X-36000Y-692200I0J-5000D01*
G01Y-702200D01*
G02X-41000Y-707200I-5000J0D01*
G01X-157000D01*
G03X-162000Y-712200I0J-5000D01*
G01Y-752200D01*
G03X-157000Y-757200I5000J0D01*
G01X-41000D01*
G02X-36000Y-762200I0J-5000D01*
G01Y-772200D01*
G02X-41000Y-777200I-5000J0D01*
G37*
G36*
G01Y-675600D02*
X-213000D01*
G02X-218000Y-670600I0J5000D01*
G01Y-590600D01*
G02X-213000Y-585600I5000J0D01*
G01X-41000D01*
G02X-36000Y-590600I0J-5000D01*
G01Y-600600D01*
G02X-41000Y-605600I-5000J0D01*
G01X-157000D01*
G03X-162000Y-610600I0J-5000D01*
G01Y-650600D01*
G03X-157000Y-655600I5000J0D01*
G01X-41000D01*
G02X-36000Y-660600I0J-5000D01*
G01Y-670600D01*
G02X-41000Y-675600I-5000J0D01*
G37*
G36*
G01Y-574000D02*
X-213000D01*
G02X-218000Y-569000I0J5000D01*
G01Y-489000D01*
G02X-213000Y-484000I5000J0D01*
G01X-41000D01*
G02X-36000Y-489000I0J-5000D01*
G01Y-499000D01*
G02X-41000Y-504000I-5000J0D01*
G01X-157000D01*
G03X-162000Y-509000I0J-5000D01*
G01Y-549000D01*
G03X-157000Y-554000I5000J0D01*
G01X-41000D01*
G02X-36000Y-559000I0J-5000D01*
G01Y-569000D01*
G02X-41000Y-574000I-5000J0D01*
G37*
G36*
G01Y-472400D02*
X-213000D01*
G02X-218000Y-467400I0J5000D01*
G01Y-387400D01*
G02X-213000Y-382400I5000J0D01*
G01X-41000D01*
G02X-36000Y-387400I0J-5000D01*
G01Y-397400D01*
G02X-41000Y-402400I-5000J0D01*
G01X-157000D01*
G03X-162000Y-407400I0J-5000D01*
G01Y-447400D01*
G03X-157000Y-452400I5000J0D01*
G01X-41000D01*
G02X-36000Y-457400I0J-5000D01*
G01Y-467400D01*
G02X-41000Y-472400I-5000J0D01*
G37*
G36*
G01Y-370800D02*
X-213000D01*
G02X-218000Y-365800I0J5000D01*
G01Y-285800D01*
G02X-213000Y-280800I5000J0D01*
G01X-41000D01*
G02X-36000Y-285800I0J-5000D01*
G01Y-295800D01*
G02X-41000Y-300800I-5000J0D01*
G01X-157000D01*
G03X-162000Y-305800I0J-5000D01*
G01Y-345800D01*
G03X-157000Y-350800I5000J0D01*
G01X-41000D01*
G02X-36000Y-355800I0J-5000D01*
G01Y-365800D01*
G02X-41000Y-370800I-5000J0D01*
G37*
G36*
G01Y-269200D02*
X-213000D01*
G02X-218000Y-264200I0J5000D01*
G01Y-184200D01*
G02X-213000Y-179200I5000J0D01*
G01X-41000D01*
G02X-36000Y-184200I0J-5000D01*
G01Y-194200D01*
G02X-41000Y-199200I-5000J0D01*
G01X-157000D01*
G03X-162000Y-204200I0J-5000D01*
G01Y-244200D01*
G03X-157000Y-249200I5000J0D01*
G01X-41000D01*
G02X-36000Y-254200I0J-5000D01*
G01Y-264200D01*
G02X-41000Y-269200I-5000J0D01*
G37*
G36*
G01Y-167600D02*
X-213000D01*
G02X-218000Y-162600I0J5000D01*
G01Y-82600D01*
G02X-213000Y-77600I5000J0D01*
G01X-41000D01*
G02X-36000Y-82600I0J-5000D01*
G01Y-92600D01*
G02X-41000Y-97600I-5000J0D01*
G01X-157000D01*
G03X-162000Y-102600I0J-5000D01*
G01Y-142600D01*
G03X-157000Y-147600I5000J0D01*
G01X-41000D01*
G02X-36000Y-152600I0J-5000D01*
G01Y-162600D01*
G02X-41000Y-167600I-5000J0D01*
G37*
G36*
G01Y-66000D02*
X-213000D01*
G02X-218000Y-61000I0J5000D01*
G01Y19000D01*
G02X-213000Y24000I5000J0D01*
G01X-41000D01*
G02X-36000Y19000I0J-5000D01*
G01Y9000D01*
G02X-41000Y4000I-5000J0D01*
G01X-157000D01*
G03X-162000Y-1000I0J-5000D01*
G01Y-41000D01*
G03X-157000Y-46000I5000J0D01*
G01X-41000D01*
G02X-36000Y-51000I0J-5000D01*
G01Y-61000D01*
G02X-41000Y-66000I-5000J0D01*
G37*
G36*
G01X32020Y-719280D02*
G03Y-703120I-32020J8080D01*
G01X32000Y-703000D01*
Y-668600D01*
X32020Y-668480D01*
G03Y-652320I-32020J8080D01*
G01X32000Y-652200D01*
Y-617800D01*
X32020Y-617680D01*
G03Y-601520I-32020J8080D01*
G01X32000Y-601400D01*
Y-567000D01*
X32020Y-566880D01*
G03Y-550720I-32020J8080D01*
G01X32000Y-550600D01*
Y-516200D01*
X32020Y-516080D01*
G03Y-499920I-32020J8080D01*
G01X32000Y-499800D01*
Y-465400D01*
X32020Y-465280D01*
G03Y-449120I-32020J8080D01*
G01X32000Y-449000D01*
Y-414600D01*
X32020Y-414480D01*
G03Y-398320I-32020J8080D01*
G01X32000Y-398200D01*
Y-363800D01*
X32020Y-363680D01*
G03Y-347520I-32020J8080D01*
G01X32000Y-347400D01*
Y-313000D01*
X32020Y-312880D01*
G03Y-296720I-32020J8080D01*
G01X32000Y-296600D01*
Y-262200D01*
X32020Y-262080D01*
G03Y-245920I-32020J8080D01*
G01X32000Y-245800D01*
Y-211400D01*
X32020Y-211280D01*
G03Y-195120I-32020J8080D01*
G01X32000Y-195000D01*
Y-160600D01*
X32020Y-160480D01*
G03Y-144320I-32020J8080D01*
G01X32000Y-144200D01*
Y-109800D01*
X32020Y-109680D01*
G03Y-93520I-32020J8080D01*
G01X32000Y-93400D01*
Y-59000D01*
X32020Y-58880D01*
G03Y-42720I-32020J8080D01*
G01X32000Y-42600D01*
Y-8200D01*
X32020Y-8080D01*
G03Y8080I-32020J8080D01*
G01X32000Y8200D01*
Y92960D01*
G03X7000Y117960I-25000J0D01*
G01X-10000Y117970D01*
G02X-40000Y148000I32J30032D01*
G01Y151000D01*
G03X-50000Y161000I-10000J0D01*
G01X-80000D01*
G02X-90000Y171000I0J10000D01*
G01Y183010D01*
G02X-80000Y193000I9997J-7D01*
G01X7000Y192960D01*
G03X32000Y217960I0J25000D01*
G01Y301800D01*
X32020Y301920D01*
G03Y318080I-32020J8080D01*
G01X32000Y318200D01*
Y352600D01*
X32020Y352720D01*
G03Y368880I-32020J8080D01*
G01X32000Y369000D01*
Y403400D01*
X32020Y403520D01*
G03Y419680I-32020J8080D01*
G01X32000Y419800D01*
Y454200D01*
X32020Y454320D01*
G03Y470480I-32020J8080D01*
G01X32000Y470600D01*
Y505000D01*
X32020Y505120D01*
G03Y521280I-32020J8080D01*
G01X32000Y521400D01*
Y555800D01*
X32020Y555920D01*
G03Y572080I-32020J8080D01*
G01X32000Y572200D01*
Y606600D01*
X32020Y606720D01*
G03Y622880I-32020J8080D01*
G01X32000Y623000D01*
Y657400D01*
X32020Y657520D01*
G03Y673680I-32020J8080D01*
G01X32000Y673800D01*
Y708200D01*
X32020Y708320D01*
G03Y724480I-32020J8080D01*
G01X32000Y724600D01*
Y759000D01*
X32020Y759120D01*
G03Y775280I-32020J8080D01*
G01X32000Y775400D01*
Y809800D01*
X32020Y809920D01*
G03Y826080I-32020J8080D01*
G01X32000Y826200D01*
Y860600D01*
X32020Y860720D01*
G03Y876880I-32020J8080D01*
G01X32000Y877000D01*
Y911400D01*
X32020Y911520D01*
G03Y927680I-32020J8080D01*
G01X32000Y927800D01*
Y962200D01*
X32020Y962320D01*
G03Y978480I-32020J8080D01*
G01X32000Y978600D01*
Y1013000D01*
X32020Y1013120D01*
G03Y1029280I-32020J8080D01*
G01X32000Y1029400D01*
Y1063800D01*
X32020Y1063920D01*
G03Y1080080I-32020J8080D01*
G01X32000Y1080200D01*
Y1225460D01*
G03X22000Y1235460I-10000J0D01*
G01X-3000D01*
G02X-8000Y1240460I0J5000D01*
G01Y1290460D01*
G02X-3000Y1295460I5000J0D01*
G01X42000D01*
G02X47000Y1290460I0J-5000D01*
G01Y-982040D01*
G02X42000Y-987040I-5000J0D01*
G01X-85500D01*
G02X-90500Y-982040I0J5000D01*
G01Y-927040D01*
G02X-78000Y-914540I12500J0D01*
G01X7000D01*
G03X32000Y-889540I0J25000D01*
G01Y-770200D01*
X32020Y-770080D01*
G03Y-753920I-32020J8080D01*
G01X32000Y-753800D01*
Y-719400D01*
X32020Y-719280D01*
G37*
G36*
G01X-148000Y-738220D02*
Y-726200D01*
G02X-143000Y-721200I5000J0D01*
G01X-41000D01*
G02X-36000Y-726200I0J-5000D01*
G01Y-738110D01*
G02X-41000Y-743110I-5005J5D01*
G01X-143000Y-743210D01*
G02X-148000Y-738220I-8J4992D01*
G37*
G36*
G01Y-636620D02*
Y-624600D01*
G02X-143000Y-619600I5000J0D01*
G01X-41000D01*
G02X-36000Y-624600I0J-5000D01*
G01Y-636510D01*
G02X-41000Y-641510I-5005J5D01*
G01X-143000Y-641610D01*
G02X-148000Y-636620I-8J4992D01*
G37*
G36*
G01Y-535020D02*
Y-523000D01*
G02X-143000Y-518000I5000J0D01*
G01X-41000D01*
G02X-36000Y-523000I0J-5000D01*
G01Y-534910D01*
G02X-41000Y-539910I-5005J5D01*
G01X-143000Y-540010D01*
G02X-148000Y-535020I-8J4992D01*
G37*
G36*
G01Y-433420D02*
Y-421400D01*
G02X-143000Y-416400I5000J0D01*
G01X-41000D01*
G02X-36000Y-421400I0J-5000D01*
G01Y-433310D01*
G02X-41000Y-438310I-5005J5D01*
G01X-143000Y-438410D01*
G02X-148000Y-433420I-8J4992D01*
G37*
G36*
G01Y-331820D02*
Y-319800D01*
G02X-143000Y-314800I5000J0D01*
G01X-41000D01*
G02X-36000Y-319800I0J-5000D01*
G01Y-331710D01*
G02X-41000Y-336710I-5005J5D01*
G01X-143000Y-336810D01*
G02X-148000Y-331820I-8J4992D01*
G37*
G36*
G01Y-230220D02*
Y-218200D01*
G02X-143000Y-213200I5000J0D01*
G01X-41000D01*
G02X-36000Y-218200I0J-5000D01*
G01Y-230110D01*
G02X-41000Y-235110I-5005J5D01*
G01X-143000Y-235210D01*
G02X-148000Y-230220I-8J4992D01*
G37*
G36*
G01Y-128620D02*
Y-116600D01*
G02X-143000Y-111600I5000J0D01*
G01X-41000D01*
G02X-36000Y-116600I0J-5000D01*
G01Y-128510D01*
G02X-41000Y-133510I-5005J5D01*
G01X-143000Y-133610D01*
G02X-148000Y-128620I-8J4992D01*
G37*
G36*
G01Y-27020D02*
Y-15000D01*
G02X-143000Y-10000I5000J0D01*
G01X-41000D01*
G02X-36000Y-15000I0J-5000D01*
G01Y-26910D01*
G02X-41000Y-31910I-5005J5D01*
G01X-143000Y-32010D01*
G02X-148000Y-27020I-8J4992D01*
G37*
%LPC*%
G75*
G36*
G01X-729910Y324910D02*
G02Y335090I-10890J5090D01*
G03X-726290I1810J848D01*
G02Y324910I10890J-5090D01*
G03X-729910I-1810J-848D01*
G37*
G36*
G01X-491660Y593760D02*
G02Y599940I-5740J3090D01*
G03X-488140I1760J952D01*
G02Y593760I5740J-3090D01*
G03X-491660I-1760J-952D01*
G37*
G36*
G01X-699790Y340790D02*
X-680210D01*
G02X-679210Y339790I0J-1000D01*
G01Y320210D01*
G02X-680210Y319210I-1000J0D01*
G01X-699790D01*
G02X-700790Y320210I0J1000D01*
G01Y339790D01*
G02X-699790Y340790I1000J0D01*
G37*
G36*
G01X-735370Y-890590D02*
G03Y-893410I1419J-1410D01*
G02X-744630I-4630J-4590D01*
G03Y-890590I-1419J1410D01*
G02X-735370I4630J4590D01*
G37*
G54D22*
X-63500Y-971550D03*
G54D20*
X-352400Y1141850D03*
X-374910Y1109250D03*
X-352400Y1041850D03*
Y941850D03*
X-380000Y870000D03*
X-352400Y841850D03*
Y791850D03*
Y741850D03*
Y586850D03*
Y536850D03*
X-370000Y390000D03*
X-352400Y331850D03*
X-350000Y277500D03*
X-430000Y1140000D03*
Y1040000D03*
X-390000Y980000D03*
X-430000Y930000D03*
Y820000D03*
X-390000Y770000D03*
X-392500Y705000D03*
X-425790Y476250D03*
Y379600D03*
X-450000Y360000D03*
Y310000D03*
Y240000D03*
X-479850Y831160D03*
Y805720D03*
Y754840D03*
X-479200Y780280D03*
X-502110Y672160D03*
X-479850Y691240D03*
X-502110Y653080D03*
X-479850Y668980D03*
X-508000Y630050D03*
X-477400Y611850D03*
X-524370Y586300D03*
X-458720Y585170D03*
X-489390Y471820D03*
X-512400Y451850D03*
X-540000Y1140000D03*
Y1070000D03*
Y960000D03*
X-550000Y860000D03*
X-581610Y675340D03*
X-580000Y630000D03*
X-603870Y554500D03*
Y525880D03*
X-542400Y571850D03*
X-603870Y497260D03*
X-600690Y436840D03*
X-560000Y390000D03*
X-575000Y415000D03*
X-560000Y310000D03*
Y240000D03*
X-589180Y-900730D03*
X-550000Y-860000D03*
Y-910000D03*
X-650000Y1140000D03*
Y1070000D03*
Y960000D03*
Y850000D03*
X-661110Y688060D03*
X-644630Y630820D03*
X-638850Y554500D03*
Y497260D03*
X-633620Y455920D03*
X-680000Y490000D03*
X-652400Y476850D03*
X-640000Y430000D03*
X-670000Y390000D03*
Y310000D03*
Y240000D03*
X-645210Y-851060D03*
X-660000Y-830000D03*
X-654750Y-895580D03*
X-760000Y1140000D03*
Y1070000D03*
Y960000D03*
Y850000D03*
X-724710Y611740D03*
X-717500Y630000D03*
X-750120Y551350D03*
X-756510Y525880D03*
X-750000Y450000D03*
X-735000Y505000D03*
X-750000Y380000D03*
X-760000Y310000D03*
Y240000D03*
X-744900Y69350D03*
X-760000Y130000D03*
X-730000Y85000D03*
X-714900Y-10650D03*
X-760000Y30000D03*
X-744900Y-22650D03*
X-735000Y-67500D03*
X-744900Y-124250D03*
X-714900Y-112250D03*
X-744900Y-225850D03*
X-714900Y-213850D03*
X-735000Y-170000D03*
X-714900Y-315450D03*
X-735000Y-270000D03*
X-744900Y-327450D03*
X-735000Y-372500D03*
X-744900Y-429050D03*
X-714900Y-417050D03*
X-744900Y-530650D03*
X-714900Y-518650D03*
X-735000Y-475000D03*
X-714900Y-620250D03*
X-735000Y-575000D03*
X-744900Y-632250D03*
X-735000Y-677500D03*
X-744900Y-733850D03*
X-714900Y-721850D03*
X-750000Y-780000D03*
X-756440Y-826980D03*
X-696090Y-886040D03*
X-747500Y-912500D03*
Y-932500D03*
Y-952500D03*
X-790000Y422500D03*
X-830000Y-520000D03*
X-790000Y-630000D03*
X-780000Y-650000D03*
X-800000Y-740000D03*
X-792500Y-817500D03*
X-835000D03*
X-810000Y-860000D03*
X-766000Y-914000D03*
X-800000D03*
X-781950Y-933740D03*
X-870000Y1140000D03*
Y1070000D03*
Y960000D03*
Y850000D03*
X-895000Y730000D03*
X-870000Y735000D03*
Y630000D03*
Y520000D03*
Y410000D03*
Y300000D03*
X-880000Y230000D03*
X-902500Y215000D03*
X-880000Y82500D03*
X-900000Y62500D03*
X-880000Y100000D03*
X-900000Y115000D03*
X-880000Y45000D03*
X-870000Y-90000D03*
Y-30000D03*
X-850000Y-410000D03*
X-840000Y-560000D03*
X-850000Y-790000D03*
Y-850000D03*
X-350000Y170000D03*
G54D21*
X-897900Y-118840D03*
X-872500D03*
G54D23*
X-78000Y-927040D03*
Y172960D03*
%LPD*%
G75*
G54D10*
X-948700Y-957040D03*
Y-68040D03*
G54D11*
X-923300Y-906240D03*
Y-677640D03*
Y-423640D03*
Y-169640D03*
X-897900Y-906240D03*
X-872500D03*
X-897900Y-677640D03*
X-872500D03*
X-897900Y-423640D03*
X-872500D03*
X-897900Y-169640D03*
X-872500D03*
X-690000Y330000D03*
X-247650Y-698500D03*
X-279400Y-762000D03*
Y-660400D03*
Y-558800D03*
X-247650Y-596900D03*
Y-495300D03*
Y-393700D03*
X-279400Y-457200D03*
Y-355600D03*
Y-254000D03*
X-247650Y-292100D03*
Y-190500D03*
Y-88900D03*
X-279400Y-152400D03*
Y-50800D03*
X-247650Y12700D03*
G54D12*
X-923300Y-880840D03*
Y-855440D03*
Y-830040D03*
Y-804640D03*
Y-779240D03*
Y-753840D03*
Y-728440D03*
Y-703040D03*
Y-652240D03*
Y-626840D03*
Y-601440D03*
Y-576040D03*
Y-550640D03*
Y-525240D03*
Y-499840D03*
Y-474440D03*
Y-449040D03*
Y-398240D03*
Y-372840D03*
Y-347440D03*
Y-322040D03*
Y-296640D03*
Y-271240D03*
Y-245840D03*
Y-220440D03*
Y-195040D03*
Y-144240D03*
Y-118840D03*
X-897900Y-880840D03*
Y-855440D03*
X-872500Y-880840D03*
Y-855440D03*
X-897900Y-830040D03*
Y-804640D03*
Y-779240D03*
X-872500Y-830040D03*
Y-804640D03*
Y-779240D03*
X-897900Y-753840D03*
Y-728440D03*
Y-703040D03*
X-872500Y-753840D03*
Y-728440D03*
Y-703040D03*
X-897900Y-652240D03*
Y-626840D03*
X-872500Y-652240D03*
Y-626840D03*
X-897900Y-601440D03*
Y-576040D03*
Y-550640D03*
X-872500Y-601440D03*
Y-576040D03*
Y-550640D03*
X-897900Y-525240D03*
Y-499840D03*
Y-474440D03*
X-872500Y-525240D03*
Y-499840D03*
Y-474440D03*
X-897900Y-449040D03*
Y-398240D03*
X-872500Y-449040D03*
Y-398240D03*
X-897900Y-372840D03*
Y-347440D03*
Y-322040D03*
X-872500Y-372840D03*
Y-347440D03*
Y-322040D03*
X-897900Y-296640D03*
Y-271240D03*
Y-245840D03*
X-872500Y-296640D03*
Y-271240D03*
Y-245840D03*
X-897900Y-220440D03*
Y-195040D03*
X-872500Y-220440D03*
Y-195040D03*
X-897900Y-144240D03*
Y-118840D03*
X-872500Y-144240D03*
Y-118840D03*
X-740800Y330000D03*
X-715400D03*
X-387400Y-731850D03*
Y-630250D03*
Y-528650D03*
Y-427050D03*
Y-325450D03*
Y-223850D03*
Y-122250D03*
Y-20650D03*
X-337400Y-731850D03*
Y-630250D03*
Y-528650D03*
Y-427050D03*
Y-325450D03*
Y-223850D03*
Y-122250D03*
Y-20650D03*
X-345850Y359950D03*
Y309150D03*
Y410750D03*
Y512350D03*
Y461550D03*
Y563150D03*
Y664750D03*
Y613950D03*
Y715550D03*
Y817150D03*
Y766350D03*
Y867950D03*
Y969550D03*
Y918750D03*
Y1020350D03*
Y1071150D03*
X-247650Y-723900D03*
X-279400Y-736600D03*
X-247650Y-622300D03*
X-279400Y-635000D03*
X-247650Y-520700D03*
X-279400Y-533400D03*
X-247650Y-419100D03*
X-279400Y-431800D03*
X-247650Y-317500D03*
X-279400Y-330200D03*
X-247650Y-215900D03*
X-279400Y-228600D03*
X-247650Y-114300D03*
X-279400Y-127000D03*
X-247650Y-12700D03*
X-279400Y-25400D03*
X-295050Y359950D03*
X-269650D03*
X-244250D03*
Y309150D03*
X-269650D03*
X-295050D03*
X-244250Y410750D03*
X-269650D03*
X-295050D03*
X-244250Y512350D03*
X-269650D03*
X-295050D03*
Y461550D03*
X-269650D03*
X-244250D03*
X-295050Y563150D03*
X-269650D03*
X-244250D03*
X-295050Y664750D03*
X-269650D03*
X-244250D03*
Y613950D03*
X-269650D03*
X-295050D03*
X-244250Y715550D03*
X-269650D03*
X-295050D03*
X-244250Y817150D03*
X-269650D03*
X-295050D03*
Y766350D03*
X-269650D03*
X-244250D03*
X-295050Y867950D03*
X-269650D03*
X-244250D03*
X-295050Y969550D03*
X-269650D03*
X-244250D03*
Y918750D03*
X-269650D03*
X-295050D03*
X-244250Y1020350D03*
X-269650D03*
X-295050D03*
Y1071150D03*
X-269650D03*
X-244250D03*
X-186700Y-732250D03*
Y-630650D03*
Y-529050D03*
Y-427450D03*
Y-325850D03*
Y-224250D03*
Y-122650D03*
Y-21050D03*
X-136700Y-732250D03*
Y-630650D03*
Y-529050D03*
Y-427450D03*
Y-325850D03*
Y-224250D03*
Y-122650D03*
Y-21050D03*
G54D13*
X-950000Y-850000D03*
Y-740000D03*
Y-630000D03*
Y-520000D03*
Y-410000D03*
Y-300000D03*
Y-190000D03*
Y-110000D03*
Y-30000D03*
Y80000D03*
Y190000D03*
Y300000D03*
Y410000D03*
Y520000D03*
Y630000D03*
X-948980Y739070D03*
Y849070D03*
Y959070D03*
Y1069070D03*
Y1179070D03*
X-900000Y-940000D03*
X-840000Y-970000D03*
X-850000Y-850000D03*
Y-790000D03*
X-840000Y-560000D03*
X-850000Y-410000D03*
X-870000Y-30000D03*
X-910000Y-90000D03*
X-870000D03*
X-880000Y45000D03*
X-900000Y16980D03*
X-880000Y0D03*
X-900000Y115000D03*
X-880000Y100000D03*
X-900000Y62500D03*
X-880000Y82500D03*
X-899850Y143850D03*
X-901750Y185250D03*
X-880000Y164000D03*
X-902500Y215000D03*
X-880000Y230000D03*
X-870000Y300000D03*
Y410000D03*
Y520000D03*
Y630000D03*
Y735000D03*
X-895000Y730000D03*
X-878850Y680200D03*
X-870000Y850000D03*
Y960000D03*
Y1070000D03*
Y1140000D03*
Y1220000D03*
X-781950Y-933740D03*
X-766000Y-914000D03*
X-810000Y-860000D03*
X-800000Y-914000D03*
X-835000Y-817500D03*
X-792500D03*
X-800000Y-740000D03*
X-780000Y-650000D03*
X-790000Y-630000D03*
X-764150Y-689270D03*
X-830000Y-520000D03*
X-790000Y422500D03*
X-747500Y-952500D03*
Y-932500D03*
X-735000Y-970000D03*
X-692750Y-960000D03*
X-740000Y-898000D03*
X-747500Y-912500D03*
X-740000Y-886000D03*
X-696090Y-886040D03*
X-690000Y-780000D03*
X-750000D03*
X-756440Y-826980D03*
X-724640Y-814260D03*
X-744900Y-733850D03*
Y-714350D03*
X-714900Y-721850D03*
X-702400Y-744350D03*
X-735000Y-677500D03*
X-700000Y-699450D03*
X-744900Y-632250D03*
X-702400Y-642750D03*
X-735000Y-575000D03*
X-700000Y-595000D03*
X-744900Y-612750D03*
X-714900Y-620250D03*
X-735000Y-475000D03*
X-697500Y-492500D03*
X-744900Y-530650D03*
Y-511150D03*
X-714900Y-518650D03*
X-702400Y-541150D03*
X-744900Y-429050D03*
Y-409550D03*
X-714900Y-417050D03*
X-702400Y-439550D03*
X-735000Y-372500D03*
X-700000Y-390000D03*
X-744900Y-327450D03*
X-702400Y-337950D03*
X-735000Y-270000D03*
X-700000Y-290000D03*
X-744900Y-307950D03*
X-714900Y-315450D03*
X-735000Y-170000D03*
X-700000Y-187500D03*
X-744900Y-225850D03*
Y-206350D03*
X-714900Y-213850D03*
X-702400Y-236350D03*
X-744900Y-124250D03*
Y-104750D03*
X-714900Y-112250D03*
X-702400Y-134750D03*
X-735000Y-67500D03*
X-700000Y-87500D03*
X-744900Y-22650D03*
X-702400Y-33150D03*
X-700000Y15000D03*
X-760000Y30000D03*
X-744900Y41850D03*
Y-3150D03*
X-714900Y-10650D03*
X-730000Y85000D03*
X-760000Y130000D03*
X-744900Y69350D03*
X-760000Y240000D03*
Y310000D03*
X-750000Y380000D03*
Y450000D03*
X-735000Y505000D03*
X-756510Y525880D03*
X-750120Y551350D03*
X-717500Y630000D03*
X-724710Y611740D03*
X-699270Y630820D03*
X-760000Y850000D03*
Y960000D03*
Y1070000D03*
Y1140000D03*
Y1220000D03*
X-642500Y-962500D03*
X-654750Y-895580D03*
X-638850Y-927380D03*
X-660000Y-830000D03*
X-630000Y-800000D03*
X-645210Y-851060D03*
X-670000Y130000D03*
Y240000D03*
Y310000D03*
Y390000D03*
X-640000Y430000D03*
X-652400Y476850D03*
X-680000Y490000D03*
X-633620Y455920D03*
X-638850Y497260D03*
X-668620Y511130D03*
X-638850Y554500D03*
X-644630Y630820D03*
X-664290Y605380D03*
X-661110Y688060D03*
X-650000Y850000D03*
Y960000D03*
Y1070000D03*
Y1140000D03*
Y1220000D03*
X-550000Y-910000D03*
Y-860000D03*
X-589180Y-900730D03*
X-570000Y-800000D03*
X-546100Y-838200D03*
X-591700Y-751740D03*
X-597510Y-735250D03*
X-591700Y-650140D03*
X-597510Y-633650D03*
X-599700Y-691740D03*
X-591700Y-548540D03*
X-599700Y-590140D03*
X-597510Y-532050D03*
X-599700Y-488540D03*
X-591700Y-446940D03*
X-597510Y-430450D03*
X-591700Y-345340D03*
X-597510Y-328850D03*
X-599700Y-386940D03*
X-591700Y-243740D03*
X-599700Y-285340D03*
X-597510Y-227250D03*
X-599700Y-183740D03*
X-597510Y-125650D03*
X-591700Y-142140D03*
Y-40540D03*
X-597510Y-24050D03*
X-599700Y-82140D03*
Y19460D03*
X-560000Y130000D03*
Y240000D03*
Y310000D03*
X-575000Y415000D03*
X-560000Y390000D03*
X-600690Y436840D03*
X-603870Y497260D03*
X-558220Y452740D03*
X-542400Y571850D03*
X-603870Y525880D03*
Y554500D03*
X-580000Y630000D03*
X-581610Y675340D03*
X-550000Y860000D03*
X-540000Y960000D03*
Y1070000D03*
Y1140000D03*
Y1220000D03*
X-520000Y-930000D03*
Y-840000D03*
X-461700Y-701740D03*
X-513700Y-713740D03*
X-501700Y-773740D03*
Y-672140D03*
X-461700Y-600140D03*
X-513700Y-612140D03*
X-501700Y-570540D03*
X-461700Y-498540D03*
X-513700Y-510540D03*
X-461700Y-396940D03*
X-513700Y-408940D03*
X-501700Y-468940D03*
Y-367340D03*
X-461700Y-295340D03*
X-513700Y-307340D03*
X-501700Y-265740D03*
X-461700Y-193740D03*
X-513700Y-205740D03*
X-461700Y-92140D03*
X-513700Y-104140D03*
X-501700Y-164140D03*
Y-62540D03*
X-513700Y-2540D03*
X-461700Y9460D03*
X-512400Y451850D03*
X-489390Y471820D03*
X-458720Y585170D03*
X-524370Y586300D03*
X-467130Y548140D03*
Y560860D03*
X-477400Y611850D03*
X-482400Y596850D03*
X-497400D03*
X-508000Y630050D03*
X-479850Y668980D03*
X-502110Y653080D03*
X-479850Y691240D03*
X-502110Y672160D03*
X-479200Y780280D03*
X-479850Y754840D03*
Y805720D03*
Y831160D03*
X-450000Y130000D03*
Y240000D03*
Y360000D03*
Y310000D03*
X-425790Y379600D03*
Y476250D03*
X-392500Y705000D03*
X-390000Y770000D03*
X-430000Y820000D03*
Y930000D03*
X-390000Y980000D03*
X-430000Y1040000D03*
X-430400Y1109250D03*
X-430000Y1140000D03*
Y1220000D03*
X-361700Y-763740D03*
Y-662140D03*
Y-560540D03*
Y-458940D03*
Y-357340D03*
Y-255740D03*
Y-154140D03*
Y-52540D03*
X-350000Y170000D03*
Y277500D03*
X-352400Y331850D03*
X-370000Y390000D03*
X-352400Y536850D03*
Y586850D03*
Y741850D03*
Y791850D03*
X-380000Y870000D03*
X-352400Y841850D03*
Y941850D03*
Y1041850D03*
X-374910Y1109250D03*
X-352400Y1141850D03*
X-22800Y135660D03*
X-3000Y127460D03*
X-31000Y155460D03*
X-22800Y175260D03*
X-3000Y183460D03*
X16800Y135660D03*
Y175260D03*
X25000Y155460D03*
G54D14*
X-78000Y-927040D03*
Y-827040D03*
Y72960D03*
Y172960D03*
G54D15*
X-100000Y360800D03*
Y310000D03*
Y411600D03*
Y513200D03*
Y462400D03*
Y564000D03*
Y665600D03*
Y614800D03*
Y716400D03*
Y818000D03*
Y767200D03*
Y868800D03*
Y970400D03*
Y919600D03*
Y1021200D03*
Y1072000D03*
X0Y-711200D03*
Y-762000D03*
Y-660400D03*
Y-558800D03*
Y-609600D03*
Y-508000D03*
Y-406400D03*
Y-457200D03*
Y-355600D03*
Y-254000D03*
Y-304800D03*
Y-203200D03*
Y-101600D03*
Y-152400D03*
Y-50800D03*
Y0D03*
Y360800D03*
Y310000D03*
Y411600D03*
Y513200D03*
Y462400D03*
Y564000D03*
Y665600D03*
Y614800D03*
Y716400D03*
Y818000D03*
Y767200D03*
Y868800D03*
Y970400D03*
Y919600D03*
Y1021200D03*
Y1072000D03*
G54D16*
X16300Y-957040D03*
Y1265460D03*
G54D17*
X-3000Y155460D03*
G54D18*
X25000Y-812800D03*
Y50800D03*
G54D19*
G01X-923300Y-130630D02*
Y-118840D01*
G01X-935090D02*
X-923300D01*
G01D02*
X-911510D01*
G01X-897900Y-130630D02*
Y-118840D01*
G01D02*
Y-107050D01*
G01X-909690Y-118840D02*
X-897900D01*
G01D02*
X-886110D01*
G01X-872500Y-130630D02*
Y-118840D01*
G01D02*
Y-107050D01*
G01X-884290Y-118840D02*
X-872500D01*
G01D02*
X-860710D01*
G01X-690000Y318210D02*
Y330000D01*
G01D02*
Y341790D01*
G01X-701790Y330000D02*
X-690000D01*
G01D02*
X-678210D01*
G01X-88290Y-927040D02*
X-78000D01*
G01X-88290Y172960D02*
X-78000D01*
G01Y-937330D02*
Y-927040D01*
G01D02*
Y-916750D01*
G01Y-927040D02*
X-67710D01*
G01X-78000Y162670D02*
Y172960D01*
G01D02*
Y183250D01*
G01Y172960D02*
X-67710D01*
M02*
