G04 ================== begin FILE IDENTIFICATION RECORD ==================*
G04 Layout Name:  D:/docs/KSK_02v6/pcb/KSK_02v6.brd*
G04 Film Name:    IN2_GND*
G04 File Format:  Gerber RS274X*
G04 File Origin:  Cadence Allegro 16.6-2015-S105*
G04 Origin Date:  Thu Aug 30 09:01:53 2018*
G04 *
G04 Layer:  ETCH/IN2_GND*
G04 Layer:  PIN/IN2_GND*
G04 Layer:  VIA CLASS/IN2_GND*
G04 *
G04 Offset:    (0.000 0.000)*
G04 Mirror:    No*
G04 Mode:      Positive*
G04 Rotation:  0*
G04 FullContactRelief:  No*
G04 UndefLineWidth:     0.000*
G04 ================== end FILE IDENTIFICATION RECORD ====================*
%FSLAX34Y34*MOMM*%
%IR0*IPPOS*OFA0.00000B0.00000*MIA0B0*SFA1.00000B1.00000*%
%ADD10C,4.*%
%ADD16C,4.1*%
%ADD15C,2.4*%
%ADD14C,1.5*%
%ADD18C,3.4*%
%ADD12C,1.7*%
%ADD17C,7.2*%
%ADD11R,1.7X1.7*%
%ADD13C,.8*%
%ADD19C,.35*%
%ADD23C,2.004*%
%ADD21C,1.304*%
%ADD20C,2.404*%
%ADD22C,2.158*%
%ADD24C,1.958*%
G75*
%LPD*%
G75*
G36*
G01X-939060Y-905430D02*
G02X-954900Y-845650I104898J59784D01*
G01Y-105650D01*
G02X-949900Y-100650I5000J0D01*
G01X-922400D01*
G03X-917400Y-95650I0J5000D01*
G01Y-40650D01*
G03X-922400Y-35650I-5000J0D01*
G01X-949900D01*
G02X-954900Y-30650I0J5000D01*
G01Y1176850D01*
G02X-904900Y1226850I50000J0D01*
G01X-377400D01*
G02X-327400Y1176850I0J-50000D01*
G01Y171850D01*
G02X-377400Y121850I-50000J0D01*
G01X-642400D01*
G03X-692400Y71850I0J-50000D01*
G01Y-745650D01*
G03X-642400Y-795650I50000J0D01*
G01X-562400D01*
G02X-512400Y-845650I0J-50000D01*
G01Y-928150D01*
G02X-562400Y-978150I-50000J0D01*
G01X-822410D01*
G02X-907760Y-942790I6J120701D01*
G01X-919550Y-931000D01*
G02X-928470Y-921030I85383J85366D01*
G01X-928200Y-920460D01*
X-927420Y-918830D01*
G02X-926520Y-918260I903J-430D01*
G01X-912280D01*
G03X-911280Y-917260I0J1000D01*
G01Y-895220D01*
G03X-912280Y-894220I-1000J0D01*
G01X-915110D01*
G02X-916060Y-893530I1J1000D01*
G01X-916750Y-891410D01*
X-916550Y-890790D01*
X-916280Y-890600D01*
G03X-918210Y-869950I-7019J9759D01*
G02X-918760Y-869270I424J906D01*
G02X-918790Y-869040I968J243D01*
G01Y-867240D01*
G02X-918760Y-867010I998J-13D01*
G02X-918210Y-866330I974J-226D01*
G03Y-844550I-5090J10890D01*
G02X-918760Y-843870I424J906D01*
G02X-918790Y-843640I968J243D01*
G01Y-841840D01*
G02X-918760Y-841610I998J-13D01*
G02X-918210Y-840930I974J-226D01*
G03Y-819150I-5090J10890D01*
G02X-918760Y-818470I424J906D01*
G02X-918790Y-818240I968J243D01*
G01Y-816440D01*
G02X-918760Y-816210I998J-13D01*
G02X-918210Y-815530I974J-226D01*
G03Y-793750I-5090J10890D01*
G02X-918760Y-793070I424J906D01*
G02X-918790Y-792840I968J243D01*
G01Y-791040D01*
G02X-918760Y-790810I998J-13D01*
G02X-918210Y-790130I974J-226D01*
G03Y-768350I-5090J10890D01*
G02X-918760Y-767670I424J906D01*
G02X-918790Y-767440I968J243D01*
G01Y-765640D01*
G02X-918760Y-765410I998J-13D01*
G02X-918210Y-764730I974J-226D01*
G03Y-742950I-5090J10890D01*
G02X-918760Y-742270I424J906D01*
G02X-918790Y-742040I968J243D01*
G01Y-740240D01*
G02X-918760Y-740010I998J-13D01*
G02X-918210Y-739330I974J-226D01*
G03Y-717550I-5090J10890D01*
G02X-918760Y-716870I424J906D01*
G02X-918790Y-716640I968J243D01*
G01Y-714840D01*
G02X-918760Y-714610I998J-13D01*
G02X-918210Y-713930I974J-226D01*
G03X-916280Y-693280I-5089J10891D01*
G01X-916550Y-693090D01*
X-916750Y-692470D01*
X-916060Y-690350D01*
G02X-915110Y-689660I951J-310D01*
G01X-912280D01*
G03X-911280Y-688660I0J1000D01*
G01Y-666620D01*
G03X-912280Y-665620I-1000J0D01*
G01X-915110D01*
G02X-916060Y-664930I1J1000D01*
G01X-916750Y-662810D01*
X-916550Y-662190D01*
X-916280Y-662000D01*
G03X-918210Y-641350I-7019J9759D01*
G02X-918760Y-640670I424J906D01*
G02X-918790Y-640440I968J243D01*
G01Y-638640D01*
G02X-918760Y-638410I998J-13D01*
G02X-918210Y-637730I974J-226D01*
G03Y-615950I-5090J10890D01*
G02X-918760Y-615270I424J906D01*
G02X-918790Y-615040I968J243D01*
G01Y-613240D01*
G02X-918760Y-613010I998J-13D01*
G02X-918210Y-612330I974J-226D01*
G03Y-590550I-5090J10890D01*
G02X-918760Y-589870I424J906D01*
G02X-918790Y-589640I968J243D01*
G01Y-587840D01*
G02X-918760Y-587610I998J-13D01*
G02X-918210Y-586930I974J-226D01*
G03Y-565150I-5090J10890D01*
G02X-918760Y-564470I424J906D01*
G02X-918790Y-564240I968J243D01*
G01Y-562440D01*
G02X-918760Y-562210I998J-13D01*
G02X-918210Y-561530I974J-226D01*
G03Y-539750I-5090J10890D01*
G02X-918760Y-539070I424J906D01*
G02X-918790Y-538840I968J243D01*
G01Y-537040D01*
G02X-918760Y-536810I998J-13D01*
G02X-918210Y-536130I974J-226D01*
G03Y-514350I-5090J10890D01*
G02X-918760Y-513670I424J906D01*
G02X-918790Y-513440I968J243D01*
G01Y-511640D01*
G02X-918760Y-511410I998J-13D01*
G02X-918210Y-510730I974J-226D01*
G03Y-488950I-5090J10890D01*
G02X-918760Y-488270I424J906D01*
G02X-918790Y-488040I968J243D01*
G01Y-486240D01*
G02X-918760Y-486010I998J-13D01*
G02X-918210Y-485330I974J-226D01*
G03Y-463550I-5090J10890D01*
G02X-918760Y-462870I424J906D01*
G02X-918790Y-462640I968J243D01*
G01Y-460840D01*
G02X-918760Y-460610I998J-13D01*
G02X-918210Y-459930I974J-226D01*
G03X-916280Y-439280I-5089J10891D01*
G01X-916550Y-439090D01*
X-916750Y-438470D01*
X-916060Y-436350D01*
G02X-915110Y-435660I951J-310D01*
G01X-912280D01*
G03X-911280Y-434660I0J1000D01*
G01Y-412620D01*
G03X-912280Y-411620I-1000J0D01*
G01X-915110D01*
G02X-916060Y-410930I1J1000D01*
G01X-916750Y-408810D01*
X-916550Y-408190D01*
X-916280Y-408000D01*
G03X-918210Y-387350I-7019J9759D01*
G02X-918760Y-386670I424J906D01*
G02X-918790Y-386440I968J243D01*
G01Y-384640D01*
G02X-918760Y-384410I998J-13D01*
G02X-918210Y-383730I974J-226D01*
G03Y-361950I-5090J10890D01*
G02X-918760Y-361270I424J906D01*
G02X-918790Y-361040I968J243D01*
G01Y-359240D01*
G02X-918760Y-359010I998J-13D01*
G02X-918210Y-358330I974J-226D01*
G03Y-336550I-5090J10890D01*
G02X-918760Y-335870I424J906D01*
G02X-918790Y-335640I968J243D01*
G01Y-333840D01*
G02X-918760Y-333610I998J-13D01*
G02X-918210Y-332930I974J-226D01*
G03Y-311150I-5090J10890D01*
G02X-918760Y-310470I424J906D01*
G02X-918790Y-310240I968J243D01*
G01Y-308440D01*
G02X-918760Y-308210I998J-13D01*
G02X-918210Y-307530I974J-226D01*
G03Y-285750I-5090J10890D01*
G02X-918760Y-285070I424J906D01*
G02X-918790Y-284840I968J243D01*
G01Y-283040D01*
G02X-918760Y-282810I998J-13D01*
G02X-918210Y-282130I974J-226D01*
G03Y-260350I-5090J10890D01*
G02X-918760Y-259670I424J906D01*
G02X-918790Y-259440I968J243D01*
G01Y-257640D01*
G02X-918760Y-257410I998J-13D01*
G02X-918210Y-256730I974J-226D01*
G03Y-234950I-5090J10890D01*
G02X-918760Y-234270I424J906D01*
G02X-918790Y-234040I968J243D01*
G01Y-232240D01*
G02X-918760Y-232010I998J-13D01*
G02X-918210Y-231330I974J-226D01*
G03Y-209550I-5090J10890D01*
G02X-918760Y-208870I424J906D01*
G02X-918790Y-208640I968J243D01*
G01Y-206840D01*
G02X-918760Y-206610I998J-13D01*
G02X-918210Y-205930I974J-226D01*
G03X-916280Y-185280I-5089J10891D01*
G01X-916550Y-185090D01*
X-916750Y-184470D01*
X-916060Y-182350D01*
G02X-915110Y-181660I951J-310D01*
G01X-912280D01*
G03X-911280Y-180660I0J1000D01*
G01Y-158620D01*
G03X-912280Y-157620I-1000J0D01*
G01X-934320D01*
G03X-935320Y-158620I0J-1000D01*
G01Y-180660D01*
G03X-934320Y-181660I1000J0D01*
G01X-931490D01*
G02X-930540Y-182350I-1J-1000D01*
G01X-929850Y-184470D01*
X-930050Y-185090D01*
X-930320Y-185280D01*
G03X-928390Y-205930I7019J-9759D01*
G02X-927840Y-206610I-424J-906D01*
G02X-927810Y-206840I-968J-243D01*
G01Y-208640D01*
G02X-927840Y-208870I-998J13D01*
G02X-928390Y-209550I-974J226D01*
G03Y-231330I5090J-10890D01*
G02X-927840Y-232010I-424J-906D01*
G02X-927810Y-232240I-968J-243D01*
G01Y-234040D01*
G02X-927840Y-234270I-998J13D01*
G02X-928390Y-234950I-974J226D01*
G03Y-256730I5090J-10890D01*
G02X-927840Y-257410I-424J-906D01*
G02X-927810Y-257640I-968J-243D01*
G01Y-259440D01*
G02X-927840Y-259670I-998J13D01*
G02X-928390Y-260350I-974J226D01*
G03Y-282130I5090J-10890D01*
G02X-927840Y-282810I-424J-906D01*
G02X-927810Y-283040I-968J-243D01*
G01Y-284840D01*
G02X-927840Y-285070I-998J13D01*
G02X-928390Y-285750I-974J226D01*
G03Y-307530I5090J-10890D01*
G02X-927840Y-308210I-424J-906D01*
G02X-927810Y-308440I-968J-243D01*
G01Y-310240D01*
G02X-927840Y-310470I-998J13D01*
G02X-928390Y-311150I-974J226D01*
G03Y-332930I5090J-10890D01*
G02X-927840Y-333610I-424J-906D01*
G02X-927810Y-333840I-968J-243D01*
G01Y-335640D01*
G02X-927840Y-335870I-998J13D01*
G02X-928390Y-336550I-974J226D01*
G03Y-358330I5090J-10890D01*
G02X-927840Y-359010I-424J-906D01*
G02X-927810Y-359240I-968J-243D01*
G01Y-361040D01*
G02X-927840Y-361270I-998J13D01*
G02X-928390Y-361950I-974J226D01*
G03Y-383730I5090J-10890D01*
G02X-927840Y-384410I-424J-906D01*
G02X-927810Y-384640I-968J-243D01*
G01Y-386440D01*
G02X-927840Y-386670I-998J13D01*
G02X-928390Y-387350I-974J226D01*
G03X-930320Y-408000I5089J-10891D01*
G01X-930050Y-408190D01*
X-929850Y-408810D01*
X-930540Y-410930D01*
G02X-931490Y-411620I-951J310D01*
G01X-934320D01*
G03X-935320Y-412620I0J-1000D01*
G01Y-434660D01*
G03X-934320Y-435660I1000J0D01*
G01X-931490D01*
G02X-930540Y-436350I-1J-1000D01*
G01X-929850Y-438470D01*
X-930050Y-439090D01*
X-930320Y-439280D01*
G03X-928390Y-459930I7019J-9759D01*
G02X-927840Y-460610I-424J-906D01*
G02X-927810Y-460840I-968J-243D01*
G01Y-462640D01*
G02X-927840Y-462870I-998J13D01*
G02X-928390Y-463550I-974J226D01*
G03Y-485330I5090J-10890D01*
G02X-927840Y-486010I-424J-906D01*
G02X-927810Y-486240I-968J-243D01*
G01Y-488040D01*
G02X-927840Y-488270I-998J13D01*
G02X-928390Y-488950I-974J226D01*
G03Y-510730I5090J-10890D01*
G02X-927840Y-511410I-424J-906D01*
G02X-927810Y-511640I-968J-243D01*
G01Y-513440D01*
G02X-927840Y-513670I-998J13D01*
G02X-928390Y-514350I-974J226D01*
G03Y-536130I5090J-10890D01*
G02X-927840Y-536810I-424J-906D01*
G02X-927810Y-537040I-968J-243D01*
G01Y-538840D01*
G02X-927840Y-539070I-998J13D01*
G02X-928390Y-539750I-974J226D01*
G03Y-561530I5090J-10890D01*
G02X-927840Y-562210I-424J-906D01*
G02X-927810Y-562440I-968J-243D01*
G01Y-564240D01*
G02X-927840Y-564470I-998J13D01*
G02X-928390Y-565150I-974J226D01*
G03Y-586930I5090J-10890D01*
G02X-927840Y-587610I-424J-906D01*
G02X-927810Y-587840I-968J-243D01*
G01Y-589640D01*
G02X-927840Y-589870I-998J13D01*
G02X-928390Y-590550I-974J226D01*
G03Y-612330I5090J-10890D01*
G02X-927840Y-613010I-424J-906D01*
G02X-927810Y-613240I-968J-243D01*
G01Y-615040D01*
G02X-927840Y-615270I-998J13D01*
G02X-928390Y-615950I-974J226D01*
G03Y-637730I5090J-10890D01*
G02X-927840Y-638410I-424J-906D01*
G02X-927810Y-638640I-968J-243D01*
G01Y-640440D01*
G02X-927840Y-640670I-998J13D01*
G02X-928390Y-641350I-974J226D01*
G03X-930320Y-662000I5089J-10891D01*
G01X-930050Y-662190D01*
X-929850Y-662810D01*
X-930540Y-664930D01*
G02X-931490Y-665620I-951J310D01*
G01X-934320D01*
G03X-935320Y-666620I0J-1000D01*
G01Y-688660D01*
G03X-934320Y-689660I1000J0D01*
G01X-931490D01*
G02X-930540Y-690350I-1J-1000D01*
G01X-929850Y-692470D01*
X-930050Y-693090D01*
X-930320Y-693280D01*
G03X-928390Y-713930I7019J-9759D01*
G02X-927840Y-714610I-424J-906D01*
G02X-927810Y-714840I-968J-243D01*
G01Y-716640D01*
G02X-927840Y-716870I-998J13D01*
G02X-928390Y-717550I-974J226D01*
G03Y-739330I5090J-10890D01*
G02X-927840Y-740010I-424J-906D01*
G02X-927810Y-740240I-968J-243D01*
G01Y-742040D01*
G02X-927840Y-742270I-998J13D01*
G02X-928390Y-742950I-974J226D01*
G03Y-764730I5090J-10890D01*
G02X-927840Y-765410I-424J-906D01*
G02X-927810Y-765640I-968J-243D01*
G01Y-767440D01*
G02X-927840Y-767670I-998J13D01*
G02X-928390Y-768350I-974J226D01*
G03Y-790130I5090J-10890D01*
G02X-927840Y-790810I-424J-906D01*
G02X-927810Y-791040I-968J-243D01*
G01Y-792840D01*
G02X-927840Y-793070I-998J13D01*
G02X-928390Y-793750I-974J226D01*
G03Y-815530I5090J-10890D01*
G02X-927840Y-816210I-424J-906D01*
G02X-927810Y-816440I-968J-243D01*
G01Y-818240D01*
G02X-927840Y-818470I-998J13D01*
G02X-928390Y-819150I-974J226D01*
G03Y-840930I5090J-10890D01*
G02X-927840Y-841610I-424J-906D01*
G02X-927810Y-841840I-968J-243D01*
G01Y-843640D01*
G02X-927840Y-843870I-998J13D01*
G02X-928390Y-844550I-974J226D01*
G03Y-866330I5090J-10890D01*
G02X-927840Y-867010I-424J-906D01*
G02X-927810Y-867240I-968J-243D01*
G01Y-869040D01*
G02X-927840Y-869270I-998J13D01*
G02X-928390Y-869950I-974J226D01*
G03X-930320Y-890600I5089J-10891D01*
G01X-930050Y-890790D01*
X-929850Y-891410D01*
X-930540Y-893530D01*
G02X-931490Y-894220I-951J310D01*
G01X-934320D01*
G03X-935320Y-895220I0J-1000D01*
G01Y-904430D01*
G02X-936060Y-905400I-1000J-4D01*
G01X-937930Y-905900D01*
G02X-939040Y-905460I-259J967D01*
G02X-939060Y-905430I820J568D01*
G37*
G36*
G01X-371250Y-739950D02*
G02X-376250Y-744950I-5000J0D01*
G01X-391650D01*
G03X-396650Y-749950I0J-5000D01*
G01Y-771700D01*
G02X-401650Y-776700I-5000J0D01*
G01X-455150D01*
G02X-460150Y-771700I0J5000D01*
G01Y-749950D01*
G02X-455150Y-744950I5000J0D01*
G01X-420700D01*
G03X-415700Y-739950I0J5000D01*
G01Y-718200D01*
G03X-420700Y-713200I-5000J0D01*
G01X-467850D01*
G02X-472850Y-708200I0J5000D01*
G01Y-692800D01*
G02X-467850Y-687800I5000J0D01*
G01X-376250D01*
G02X-371250Y-692800I0J-5000D01*
G01Y-739950D01*
G37*
G36*
G01Y-638350D02*
G02X-376250Y-643350I-5000J0D01*
G01X-391650D01*
G03X-396650Y-648350I0J-5000D01*
G01Y-670100D01*
G02X-401650Y-675100I-5000J0D01*
G01X-455150D01*
G02X-460150Y-670100I0J5000D01*
G01Y-648350D01*
G02X-455150Y-643350I5000J0D01*
G01X-420700D01*
G03X-415700Y-638350I0J5000D01*
G01Y-616600D01*
G03X-420700Y-611600I-5000J0D01*
G01X-467850D01*
G02X-472850Y-606600I0J5000D01*
G01Y-591200D01*
G02X-467850Y-586200I5000J0D01*
G01X-376250D01*
G02X-371250Y-591200I0J-5000D01*
G01Y-638350D01*
G37*
G36*
G01Y-536750D02*
G02X-376250Y-541750I-5000J0D01*
G01X-391650D01*
G03X-396650Y-546750I0J-5000D01*
G01Y-568500D01*
G02X-401650Y-573500I-5000J0D01*
G01X-455150D01*
G02X-460150Y-568500I0J5000D01*
G01Y-546750D01*
G02X-455150Y-541750I5000J0D01*
G01X-420700D01*
G03X-415700Y-536750I0J5000D01*
G01Y-515000D01*
G03X-420700Y-510000I-5000J0D01*
G01X-467850D01*
G02X-472850Y-505000I0J5000D01*
G01Y-489600D01*
G02X-467850Y-484600I5000J0D01*
G01X-376250D01*
G02X-371250Y-489600I0J-5000D01*
G01Y-536750D01*
G37*
G36*
G01Y-435150D02*
G02X-376250Y-440150I-5000J0D01*
G01X-391650D01*
G03X-396650Y-445150I0J-5000D01*
G01Y-466900D01*
G02X-401650Y-471900I-5000J0D01*
G01X-455150D01*
G02X-460150Y-466900I0J5000D01*
G01Y-445150D01*
G02X-455150Y-440150I5000J0D01*
G01X-420700D01*
G03X-415700Y-435150I0J5000D01*
G01Y-413400D01*
G03X-420700Y-408400I-5000J0D01*
G01X-467850D01*
G02X-472850Y-403400I0J5000D01*
G01Y-388000D01*
G02X-467850Y-383000I5000J0D01*
G01X-376250D01*
G02X-371250Y-388000I0J-5000D01*
G01Y-435150D01*
G37*
G36*
G01Y-333550D02*
G02X-376250Y-338550I-5000J0D01*
G01X-391650D01*
G03X-396650Y-343550I0J-5000D01*
G01Y-365300D01*
G02X-401650Y-370300I-5000J0D01*
G01X-455150D01*
G02X-460150Y-365300I0J5000D01*
G01Y-343550D01*
G02X-455150Y-338550I5000J0D01*
G01X-420700D01*
G03X-415700Y-333550I0J5000D01*
G01Y-311800D01*
G03X-420700Y-306800I-5000J0D01*
G01X-467850D01*
G02X-472850Y-301800I0J5000D01*
G01Y-286400D01*
G02X-467850Y-281400I5000J0D01*
G01X-376250D01*
G02X-371250Y-286400I0J-5000D01*
G01Y-333550D01*
G37*
G36*
G01Y-231950D02*
G02X-376250Y-236950I-5000J0D01*
G01X-391650D01*
G03X-396650Y-241950I0J-5000D01*
G01Y-263700D01*
G02X-401650Y-268700I-5000J0D01*
G01X-455150D01*
G02X-460150Y-263700I0J5000D01*
G01Y-241950D01*
G02X-455150Y-236950I5000J0D01*
G01X-420700D01*
G03X-415700Y-231950I0J5000D01*
G01Y-210200D01*
G03X-420700Y-205200I-5000J0D01*
G01X-467850D01*
G02X-472850Y-200200I0J5000D01*
G01Y-184800D01*
G02X-467850Y-179800I5000J0D01*
G01X-376250D01*
G02X-371250Y-184800I0J-5000D01*
G01Y-231950D01*
G37*
G36*
G01Y-130350D02*
G02X-376250Y-135350I-5000J0D01*
G01X-391650D01*
G03X-396650Y-140350I0J-5000D01*
G01Y-162100D01*
G02X-401650Y-167100I-5000J0D01*
G01X-455150D01*
G02X-460150Y-162100I0J5000D01*
G01Y-140350D01*
G02X-455150Y-135350I5000J0D01*
G01X-420700D01*
G03X-415700Y-130350I0J5000D01*
G01Y-108600D01*
G03X-420700Y-103600I-5000J0D01*
G01X-467850D01*
G02X-472850Y-98600I0J5000D01*
G01Y-83200D01*
G02X-467850Y-78200I5000J0D01*
G01X-376250D01*
G02X-371250Y-83200I0J-5000D01*
G01Y-130350D01*
G37*
G36*
G01Y-28750D02*
G02X-376250Y-33750I-5000J0D01*
G01X-391650D01*
G03X-396650Y-38750I0J-5000D01*
G01Y-60500D01*
G02X-401650Y-65500I-5000J0D01*
G01X-455150D01*
G02X-460150Y-60500I0J5000D01*
G01Y-38750D01*
G02X-455150Y-33750I5000J0D01*
G01X-420700D01*
G03X-415700Y-28750I0J5000D01*
G01Y-7000D01*
G03X-420700Y-2000I-5000J0D01*
G01X-467850D01*
G02X-472850Y3000I0J5000D01*
G01Y18400D01*
G02X-467850Y23400I5000J0D01*
G01X-376250D01*
G02X-371250Y18400I0J-5000D01*
G01Y-28750D01*
G37*
G36*
G01X-281000Y-713200D02*
X-302750D01*
G03X-307750Y-718200I0J-5000D01*
G01Y-752650D01*
G03X-302750Y-757650I5000J0D01*
G01X-242900D01*
G02X-237900Y-762650I0J-5000D01*
G01Y-771700D01*
G02X-242900Y-776700I-5000J0D01*
G01X-328150D01*
G02X-333150Y-771700I0J5000D01*
G01Y-756300D01*
G03X-338150Y-751300I-5000J0D01*
G01X-353570D01*
G02X-358570Y-746300I1J5001D01*
G01X-358550Y-711850D01*
G02X-353550Y-706850I4999J1D01*
G01X-344500D01*
G03X-339500Y-701850I0J5000D01*
G01Y-692810D01*
G02X-334490Y-687800I5000J10D01*
G01X-281000Y-687810D01*
G02X-276000Y-692810I0J-5000D01*
G01Y-708200D01*
G02X-281000Y-713200I-5000J0D01*
G37*
G36*
G01Y-611600D02*
X-302750D01*
G03X-307750Y-616600I0J-5000D01*
G01Y-651050D01*
G03X-302750Y-656050I5000J0D01*
G01X-242900D01*
G02X-237900Y-661050I0J-5000D01*
G01Y-670100D01*
G02X-242900Y-675100I-5000J0D01*
G01X-328150D01*
G02X-333150Y-670100I0J5000D01*
G01Y-654700D01*
G03X-338150Y-649700I-5000J0D01*
G01X-353570D01*
G02X-358570Y-644700I1J5001D01*
G01X-358550Y-610250D01*
G02X-353550Y-605250I4999J1D01*
G01X-344500D01*
G03X-339500Y-600250I0J5000D01*
G01Y-591210D01*
G02X-334490Y-586200I5000J10D01*
G01X-281000Y-586210D01*
G02X-276000Y-591210I0J-5000D01*
G01Y-606600D01*
G02X-281000Y-611600I-5000J0D01*
G37*
G36*
G01Y-510000D02*
X-302750D01*
G03X-307750Y-515000I0J-5000D01*
G01Y-549450D01*
G03X-302750Y-554450I5000J0D01*
G01X-242900D01*
G02X-237900Y-559450I0J-5000D01*
G01Y-568500D01*
G02X-242900Y-573500I-5000J0D01*
G01X-328150D01*
G02X-333150Y-568500I0J5000D01*
G01Y-553100D01*
G03X-338150Y-548100I-5000J0D01*
G01X-353570D01*
G02X-358570Y-543100I1J5001D01*
G01X-358550Y-508650D01*
G02X-353550Y-503650I4999J1D01*
G01X-344500D01*
G03X-339500Y-498650I0J5000D01*
G01Y-489610D01*
G02X-334490Y-484600I5000J10D01*
G01X-281000Y-484610D01*
G02X-276000Y-489610I0J-5000D01*
G01Y-505000D01*
G02X-281000Y-510000I-5000J0D01*
G37*
G36*
G01Y-408400D02*
X-302750D01*
G03X-307750Y-413400I0J-5000D01*
G01Y-447850D01*
G03X-302750Y-452850I5000J0D01*
G01X-242900D01*
G02X-237900Y-457850I0J-5000D01*
G01Y-466900D01*
G02X-242900Y-471900I-5000J0D01*
G01X-328150D01*
G02X-333150Y-466900I0J5000D01*
G01Y-451500D01*
G03X-338150Y-446500I-5000J0D01*
G01X-353570D01*
G02X-358570Y-441500I1J5001D01*
G01X-358550Y-407050D01*
G02X-353550Y-402050I4999J1D01*
G01X-344500D01*
G03X-339500Y-397050I0J5000D01*
G01Y-388010D01*
G02X-334490Y-383000I5000J10D01*
G01X-281000Y-383010D01*
G02X-276000Y-388010I0J-5000D01*
G01Y-403400D01*
G02X-281000Y-408400I-5000J0D01*
G37*
G36*
G01Y-306800D02*
X-302750D01*
G03X-307750Y-311800I0J-5000D01*
G01Y-346250D01*
G03X-302750Y-351250I5000J0D01*
G01X-242900D01*
G02X-237900Y-356250I0J-5000D01*
G01Y-365300D01*
G02X-242900Y-370300I-5000J0D01*
G01X-328150D01*
G02X-333150Y-365300I0J5000D01*
G01Y-349900D01*
G03X-338150Y-344900I-5000J0D01*
G01X-353570D01*
G02X-358570Y-339900I1J5001D01*
G01X-358550Y-305450D01*
G02X-353550Y-300450I4999J1D01*
G01X-344500D01*
G03X-339500Y-295450I0J5000D01*
G01Y-286410D01*
G02X-334490Y-281400I5000J10D01*
G01X-281000Y-281410D01*
G02X-276000Y-286410I0J-5000D01*
G01Y-301800D01*
G02X-281000Y-306800I-5000J0D01*
G37*
G36*
G01Y-205200D02*
X-302750D01*
G03X-307750Y-210200I0J-5000D01*
G01Y-244650D01*
G03X-302750Y-249650I5000J0D01*
G01X-242900D01*
G02X-237900Y-254650I0J-5000D01*
G01Y-263700D01*
G02X-242900Y-268700I-5000J0D01*
G01X-328150D01*
G02X-333150Y-263700I0J5000D01*
G01Y-248300D01*
G03X-338150Y-243300I-5000J0D01*
G01X-353570D01*
G02X-358570Y-238300I1J5001D01*
G01X-358550Y-203850D01*
G02X-353550Y-198850I4999J1D01*
G01X-344500D01*
G03X-339500Y-193850I0J5000D01*
G01Y-184810D01*
G02X-334490Y-179800I5000J10D01*
G01X-281000Y-179810D01*
G02X-276000Y-184810I0J-5000D01*
G01Y-200200D01*
G02X-281000Y-205200I-5000J0D01*
G37*
G36*
G01Y-103600D02*
X-302750D01*
G03X-307750Y-108600I0J-5000D01*
G01Y-143050D01*
G03X-302750Y-148050I5000J0D01*
G01X-242900D01*
G02X-237900Y-153050I0J-5000D01*
G01Y-162100D01*
G02X-242900Y-167100I-5000J0D01*
G01X-328150D01*
G02X-333150Y-162100I0J5000D01*
G01Y-146700D01*
G03X-338150Y-141700I-5000J0D01*
G01X-353570D01*
G02X-358570Y-136700I1J5001D01*
G01X-358550Y-102250D01*
G02X-353550Y-97250I4999J1D01*
G01X-344500D01*
G03X-339500Y-92250I0J5000D01*
G01Y-83210D01*
G02X-334490Y-78200I5000J10D01*
G01X-281000Y-78210D01*
G02X-276000Y-83210I0J-5000D01*
G01Y-98600D01*
G02X-281000Y-103600I-5000J0D01*
G37*
G36*
G01Y-2000D02*
X-302750D01*
G03X-307750Y-7000I0J-5000D01*
G01Y-41450D01*
G03X-302750Y-46450I5000J0D01*
G01X-242900D01*
G02X-237900Y-51450I0J-5000D01*
G01Y-60500D01*
G02X-242900Y-65500I-5000J0D01*
G01X-328150D01*
G02X-333150Y-60500I0J5000D01*
G01Y-45100D01*
G03X-338150Y-40100I-5000J0D01*
G01X-353570D01*
G02X-358570Y-35100I1J5001D01*
G01X-358550Y-650D01*
G02X-353550Y4350I4999J1D01*
G01X-344500D01*
G03X-339500Y9350I0J5000D01*
G01Y18390D01*
G02X-334490Y23400I5000J10D01*
G01X-281000Y23390D01*
G02X-276000Y18390I0J-5000D01*
G01Y3000D01*
G02X-281000Y-2000I-5000J0D01*
G37*
G36*
G01X-251950Y-687800D02*
X-109550D01*
G02X-104550Y-692800I0J-5000D01*
G01Y-738200D01*
G02X-109550Y-743200I-5000J0D01*
G01X-156700D01*
G02X-161700Y-738200I0J5000D01*
G01Y-711850D01*
G03X-166700Y-706850I-5000J0D01*
G01X-251950D01*
G02X-256950Y-701850I0J5000D01*
G01Y-692800D01*
G02X-251950Y-687800I5000J0D01*
G37*
G36*
G01Y-586200D02*
X-109550D01*
G02X-104550Y-591200I0J-5000D01*
G01Y-636600D01*
G02X-109550Y-641600I-5000J0D01*
G01X-156700D01*
G02X-161700Y-636600I0J5000D01*
G01Y-610250D01*
G03X-166700Y-605250I-5000J0D01*
G01X-251950D01*
G02X-256950Y-600250I0J5000D01*
G01Y-591200D01*
G02X-251950Y-586200I5000J0D01*
G37*
G36*
G01Y-484600D02*
X-109550D01*
G02X-104550Y-489600I0J-5000D01*
G01Y-535000D01*
G02X-109550Y-540000I-5000J0D01*
G01X-156700D01*
G02X-161700Y-535000I0J5000D01*
G01Y-508650D01*
G03X-166700Y-503650I-5000J0D01*
G01X-251950D01*
G02X-256950Y-498650I0J5000D01*
G01Y-489600D01*
G02X-251950Y-484600I5000J0D01*
G37*
G36*
G01Y-383000D02*
X-109550D01*
G02X-104550Y-388000I0J-5000D01*
G01Y-433400D01*
G02X-109550Y-438400I-5000J0D01*
G01X-156700D01*
G02X-161700Y-433400I0J5000D01*
G01Y-407050D01*
G03X-166700Y-402050I-5000J0D01*
G01X-251950D01*
G02X-256950Y-397050I0J5000D01*
G01Y-388000D01*
G02X-251950Y-383000I5000J0D01*
G37*
G36*
G01Y-281400D02*
X-109550D01*
G02X-104550Y-286400I0J-5000D01*
G01Y-331800D01*
G02X-109550Y-336800I-5000J0D01*
G01X-156700D01*
G02X-161700Y-331800I0J5000D01*
G01Y-305450D01*
G03X-166700Y-300450I-5000J0D01*
G01X-251950D01*
G02X-256950Y-295450I0J5000D01*
G01Y-286400D01*
G02X-251950Y-281400I5000J0D01*
G37*
G36*
G01Y-179800D02*
X-109550D01*
G02X-104550Y-184800I0J-5000D01*
G01Y-230200D01*
G02X-109550Y-235200I-5000J0D01*
G01X-156700D01*
G02X-161700Y-230200I0J5000D01*
G01Y-203850D01*
G03X-166700Y-198850I-5000J0D01*
G01X-251950D01*
G02X-256950Y-193850I0J5000D01*
G01Y-184800D01*
G02X-251950Y-179800I5000J0D01*
G37*
G36*
G01Y-78200D02*
X-109550D01*
G02X-104550Y-83200I0J-5000D01*
G01Y-128600D01*
G02X-109550Y-133600I-5000J0D01*
G01X-156700D01*
G02X-161700Y-128600I0J5000D01*
G01Y-102250D01*
G03X-166700Y-97250I-5000J0D01*
G01X-251950D01*
G02X-256950Y-92250I0J5000D01*
G01Y-83200D01*
G02X-251950Y-78200I5000J0D01*
G37*
G36*
G01Y23400D02*
X-109550D01*
G02X-104550Y18400I0J-5000D01*
G01Y-27000D01*
G02X-109550Y-32000I-5000J0D01*
G01X-156700D01*
G02X-161700Y-27000I0J5000D01*
G01Y-650D01*
G03X-166700Y4350I-5000J0D01*
G01X-251950D01*
G02X-256950Y9350I0J5000D01*
G01Y18400D01*
G02X-251950Y23400I5000J0D01*
G37*
G36*
G01X-37000Y-687200D02*
G02X-32000Y-692200I0J-5000D01*
G01Y-772200D01*
G02X-37000Y-777200I-5000J0D01*
G01X-171000Y-777210D01*
X-181000D01*
X-219000Y-777190D01*
G02X-224000Y-772190I1J5001D01*
G01Y-726200D01*
G02X-219000Y-721200I5000J0D01*
G01X-181000D01*
G02X-176000Y-726200I0J-5000D01*
G01Y-752200D01*
G03X-171000Y-757200I5000J0D01*
G01X-95000D01*
G03X-90000Y-752200I0J5000D01*
G01Y-692200D01*
G02X-85000Y-687200I5000J0D01*
G01X-37000D01*
G37*
G36*
G01Y-585600D02*
G02X-32000Y-590600I0J-5000D01*
G01Y-670600D01*
G02X-37000Y-675600I-5000J0D01*
G01X-171000Y-675610D01*
X-181000D01*
X-219000Y-675590D01*
G02X-224000Y-670590I1J5001D01*
G01Y-624600D01*
G02X-219000Y-619600I5000J0D01*
G01X-181000D01*
G02X-176000Y-624600I0J-5000D01*
G01Y-650600D01*
G03X-171000Y-655600I5000J0D01*
G01X-95000D01*
G03X-90000Y-650600I0J5000D01*
G01Y-590600D01*
G02X-85000Y-585600I5000J0D01*
G01X-37000D01*
G37*
G36*
G01Y-484000D02*
G02X-32000Y-489000I0J-5000D01*
G01Y-569000D01*
G02X-37000Y-574000I-5000J0D01*
G01X-171000Y-574010D01*
X-181000D01*
X-219000Y-573990D01*
G02X-224000Y-568990I1J5001D01*
G01Y-523000D01*
G02X-219000Y-518000I5000J0D01*
G01X-181000D01*
G02X-176000Y-523000I0J-5000D01*
G01Y-549000D01*
G03X-171000Y-554000I5000J0D01*
G01X-95000D01*
G03X-90000Y-549000I0J5000D01*
G01Y-489000D01*
G02X-85000Y-484000I5000J0D01*
G01X-37000D01*
G37*
G36*
G01Y-382400D02*
G02X-32000Y-387400I0J-5000D01*
G01Y-467400D01*
G02X-37000Y-472400I-5000J0D01*
G01X-171000Y-472410D01*
X-181000D01*
X-219000Y-472390D01*
G02X-224000Y-467390I1J5001D01*
G01Y-421400D01*
G02X-219000Y-416400I5000J0D01*
G01X-181000D01*
G02X-176000Y-421400I0J-5000D01*
G01Y-447400D01*
G03X-171000Y-452400I5000J0D01*
G01X-95000D01*
G03X-90000Y-447400I0J5000D01*
G01Y-387400D01*
G02X-85000Y-382400I5000J0D01*
G01X-37000D01*
G37*
G36*
G01Y-280800D02*
G02X-32000Y-285800I0J-5000D01*
G01Y-365800D01*
G02X-37000Y-370800I-5000J0D01*
G01X-171000Y-370810D01*
X-181000D01*
X-219000Y-370790D01*
G02X-224000Y-365790I1J5001D01*
G01Y-319800D01*
G02X-219000Y-314800I5000J0D01*
G01X-181000D01*
G02X-176000Y-319800I0J-5000D01*
G01Y-345800D01*
G03X-171000Y-350800I5000J0D01*
G01X-95000D01*
G03X-90000Y-345800I0J5000D01*
G01Y-285800D01*
G02X-85000Y-280800I5000J0D01*
G01X-37000D01*
G37*
G36*
G01Y-179200D02*
G02X-32000Y-184200I0J-5000D01*
G01Y-264200D01*
G02X-37000Y-269200I-5000J0D01*
G01X-171000Y-269210D01*
X-181000D01*
X-219000Y-269190D01*
G02X-224000Y-264190I1J5001D01*
G01Y-218200D01*
G02X-219000Y-213200I5000J0D01*
G01X-181000D01*
G02X-176000Y-218200I0J-5000D01*
G01Y-244200D01*
G03X-171000Y-249200I5000J0D01*
G01X-95000D01*
G03X-90000Y-244200I0J5000D01*
G01Y-184200D01*
G02X-85000Y-179200I5000J0D01*
G01X-37000D01*
G37*
G36*
G01Y-77600D02*
G02X-32000Y-82600I0J-5000D01*
G01Y-162600D01*
G02X-37000Y-167600I-5000J0D01*
G01X-171000Y-167610D01*
X-181000D01*
X-219000Y-167590D01*
G02X-224000Y-162590I1J5001D01*
G01Y-116600D01*
G02X-219000Y-111600I5000J0D01*
G01X-181000D01*
G02X-176000Y-116600I0J-5000D01*
G01Y-142600D01*
G03X-171000Y-147600I5000J0D01*
G01X-95000D01*
G03X-90000Y-142600I0J5000D01*
G01Y-82600D01*
G02X-85000Y-77600I5000J0D01*
G01X-37000D01*
G37*
G36*
G01Y24000D02*
G02X-32000Y19000I0J-5000D01*
G01Y-61000D01*
G02X-37000Y-66000I-5000J0D01*
G01X-171000Y-66010D01*
X-181000D01*
X-219000Y-65990D01*
G02X-224000Y-60990I1J5001D01*
G01Y-15000D01*
G02X-219000Y-10000I5000J0D01*
G01X-181000D01*
G02X-176000Y-15000I0J-5000D01*
G01Y-41000D01*
G03X-171000Y-46000I5000J0D01*
G01X-95000D01*
G03X-90000Y-41000I0J5000D01*
G01Y19000D01*
G02X-85000Y24000I5000J0D01*
G01X-37000D01*
G37*
G36*
G01X32020Y-719280D02*
G03Y-703120I-32020J8080D01*
G01X32000Y-703000D01*
Y-668600D01*
X32020Y-668480D01*
G03Y-652320I-32020J8080D01*
G01X32000Y-652200D01*
Y-617800D01*
X32020Y-617680D01*
G03Y-601520I-32020J8080D01*
G01X32000Y-601400D01*
Y-567000D01*
X32020Y-566880D01*
G03Y-550720I-32020J8080D01*
G01X32000Y-550600D01*
Y-516200D01*
X32020Y-516080D01*
G03Y-499920I-32020J8080D01*
G01X32000Y-499800D01*
Y-465400D01*
X32020Y-465280D01*
G03Y-449120I-32020J8080D01*
G01X32000Y-449000D01*
Y-414600D01*
X32020Y-414480D01*
G03Y-398320I-32020J8080D01*
G01X32000Y-398200D01*
Y-363800D01*
X32020Y-363680D01*
G03Y-347520I-32020J8080D01*
G01X32000Y-347400D01*
Y-313000D01*
X32020Y-312880D01*
G03Y-296720I-32020J8080D01*
G01X32000Y-296600D01*
Y-262200D01*
X32020Y-262080D01*
G03Y-245920I-32020J8080D01*
G01X32000Y-245800D01*
Y-211400D01*
X32020Y-211280D01*
G03Y-195120I-32020J8080D01*
G01X32000Y-195000D01*
Y-160600D01*
X32020Y-160480D01*
G03Y-144320I-32020J8080D01*
G01X32000Y-144200D01*
Y-109800D01*
X32020Y-109680D01*
G03Y-93520I-32020J8080D01*
G01X32000Y-93400D01*
Y-59000D01*
X32020Y-58880D01*
G03Y-42720I-32020J8080D01*
G01X32000Y-42600D01*
Y-8200D01*
X32020Y-8080D01*
G03Y8080I-32020J8080D01*
G01X32000Y8200D01*
Y92960D01*
G03X7000Y117960I-25000J0D01*
G01X-10000Y117970D01*
G02X-40000Y148000I32J30032D01*
G01Y151000D01*
G03X-50000Y161000I-10000J0D01*
G01X-80000D01*
G02X-90000Y171000I0J10000D01*
G01Y183010D01*
G02X-80000Y193000I9997J-7D01*
G01X7000Y192960D01*
G03X32000Y217960I0J25000D01*
G01Y301800D01*
X32020Y301920D01*
G03Y318080I-32020J8080D01*
G01X32000Y318200D01*
Y352600D01*
X32020Y352720D01*
G03Y368880I-32020J8080D01*
G01X32000Y369000D01*
Y403400D01*
X32020Y403520D01*
G03Y419680I-32020J8080D01*
G01X32000Y419800D01*
Y454200D01*
X32020Y454320D01*
G03Y470480I-32020J8080D01*
G01X32000Y470600D01*
Y505000D01*
X32020Y505120D01*
G03Y521280I-32020J8080D01*
G01X32000Y521400D01*
Y555800D01*
X32020Y555920D01*
G03Y572080I-32020J8080D01*
G01X32000Y572200D01*
Y606600D01*
X32020Y606720D01*
G03Y622880I-32020J8080D01*
G01X32000Y623000D01*
Y657400D01*
X32020Y657520D01*
G03Y673680I-32020J8080D01*
G01X32000Y673800D01*
Y708200D01*
X32020Y708320D01*
G03Y724480I-32020J8080D01*
G01X32000Y724600D01*
Y759000D01*
X32020Y759120D01*
G03Y775280I-32020J8080D01*
G01X32000Y775400D01*
Y809800D01*
X32020Y809920D01*
G03Y826080I-32020J8080D01*
G01X32000Y826200D01*
Y860600D01*
X32020Y860720D01*
G03Y876880I-32020J8080D01*
G01X32000Y877000D01*
Y911400D01*
X32020Y911520D01*
G03Y927680I-32020J8080D01*
G01X32000Y927800D01*
Y962200D01*
X32020Y962320D01*
G03Y978480I-32020J8080D01*
G01X32000Y978600D01*
Y1013000D01*
X32020Y1013120D01*
G03Y1029280I-32020J8080D01*
G01X32000Y1029400D01*
Y1063800D01*
X32020Y1063920D01*
G03Y1080080I-32020J8080D01*
G01X32000Y1080200D01*
Y1225460D01*
G03X22000Y1235460I-10000J0D01*
G01X-3000D01*
G02X-8000Y1240460I0J5000D01*
G01Y1290460D01*
G02X-3000Y1295460I5000J0D01*
G01X42000D01*
G02X47000Y1290460I0J-5000D01*
G01Y-982040D01*
G02X42000Y-987040I-5000J0D01*
G01X-85500D01*
G02X-90500Y-982040I0J5000D01*
G01Y-927040D01*
G02X-78000Y-914540I12500J0D01*
G01X7000D01*
G03X32000Y-889540I0J25000D01*
G01Y-770200D01*
X32020Y-770080D01*
G03Y-753920I-32020J8080D01*
G01X32000Y-753800D01*
Y-719400D01*
X32020Y-719280D01*
G37*
%LPC*%
G75*
G36*
G01X-861480Y-918260D02*
X-883520D01*
G02X-884520Y-917260I0J1000D01*
G01Y-895220D01*
G02X-883520Y-894220I1000J0D01*
G01X-880690D01*
G03X-879740Y-893530I0J999D01*
G01X-879050Y-891400D01*
X-879250Y-890790D01*
X-879520Y-890600D01*
G02X-877590Y-869950I7019J9759D01*
G03X-877010Y-869050I-421J908D01*
G01Y-867230D01*
G03X-877590Y-866330I-1001J-8D01*
G02Y-844550I5090J10890D01*
G03X-877010Y-843650I-421J908D01*
G01Y-841830D01*
G03X-877590Y-840930I-1001J-8D01*
G02Y-819150I5090J10890D01*
G03X-877010Y-818250I-421J908D01*
G01Y-816430D01*
G03X-877590Y-815530I-1001J-8D01*
G02Y-793750I5090J10890D01*
G03X-877010Y-792850I-421J908D01*
G01Y-791030D01*
G03X-877590Y-790130I-1001J-8D01*
G02Y-768350I5090J10890D01*
G03X-877010Y-767450I-421J908D01*
G01Y-765630D01*
G03X-877590Y-764730I-1001J-8D01*
G02Y-742950I5090J10890D01*
G03X-877010Y-742050I-421J908D01*
G01Y-740230D01*
G03X-877590Y-739330I-1001J-8D01*
G02Y-717550I5090J10890D01*
G03X-877010Y-716650I-421J908D01*
G01Y-714830D01*
G03X-877590Y-713930I-1001J-8D01*
G02X-879520Y-693280I5089J10891D01*
G01X-879250Y-693090D01*
X-879050Y-692480D01*
X-879740Y-690350D01*
G03X-880690Y-689660I-950J-309D01*
G01X-883520D01*
G02X-884520Y-688660I0J1000D01*
G01Y-666620D01*
G02X-883520Y-665620I1000J0D01*
G01X-880690D01*
G03X-879740Y-664930I0J999D01*
G01X-879050Y-662800D01*
X-879250Y-662190D01*
X-879520Y-662000D01*
G02X-877590Y-641350I7019J9759D01*
G03X-877010Y-640450I-421J908D01*
G01Y-638630D01*
G03X-877590Y-637730I-1001J-8D01*
G02Y-615950I5090J10890D01*
G03X-877010Y-615050I-421J908D01*
G01Y-613230D01*
G03X-877590Y-612330I-1001J-8D01*
G02Y-590550I5090J10890D01*
G03X-877010Y-589650I-421J908D01*
G01Y-587830D01*
G03X-877590Y-586930I-1001J-8D01*
G02Y-565150I5090J10890D01*
G03X-877010Y-564250I-421J908D01*
G01Y-562430D01*
G03X-877590Y-561530I-1001J-8D01*
G02Y-539750I5090J10890D01*
G03X-877010Y-538850I-421J908D01*
G01Y-537030D01*
G03X-877590Y-536130I-1001J-8D01*
G02Y-514350I5090J10890D01*
G03X-877010Y-513450I-421J908D01*
G01Y-511630D01*
G03X-877590Y-510730I-1001J-8D01*
G02Y-488950I5090J10890D01*
G03X-877010Y-488050I-421J908D01*
G01Y-486230D01*
G03X-877590Y-485330I-1001J-8D01*
G02Y-463550I5090J10890D01*
G03X-877010Y-462650I-421J908D01*
G01Y-460830D01*
G03X-877590Y-459930I-1001J-8D01*
G02X-879520Y-439280I5089J10891D01*
G01X-879250Y-439090D01*
X-879050Y-438480D01*
X-879740Y-436350D01*
G03X-880690Y-435660I-950J-309D01*
G01X-883520D01*
G02X-884520Y-434660I0J1000D01*
G01Y-412620D01*
G02X-883520Y-411620I1000J0D01*
G01X-880690D01*
G03X-879740Y-410930I0J999D01*
G01X-879050Y-408800D01*
X-879250Y-408190D01*
X-879520Y-408000D01*
G02X-877590Y-387350I7019J9759D01*
G03X-877010Y-386450I-421J908D01*
G01Y-384630D01*
G03X-877590Y-383730I-1001J-8D01*
G02Y-361950I5090J10890D01*
G03X-877010Y-361050I-421J908D01*
G01Y-359230D01*
G03X-877590Y-358330I-1001J-8D01*
G02Y-336550I5090J10890D01*
G03X-877010Y-335650I-421J908D01*
G01Y-333830D01*
G03X-877590Y-332930I-1001J-8D01*
G02Y-311150I5090J10890D01*
G03X-877010Y-310250I-421J908D01*
G01Y-308430D01*
G03X-877590Y-307530I-1001J-8D01*
G02Y-285750I5090J10890D01*
G03X-877010Y-284850I-421J908D01*
G01Y-283030D01*
G03X-877590Y-282130I-1001J-8D01*
G02Y-260350I5090J10890D01*
G03X-877010Y-259450I-421J908D01*
G01Y-257630D01*
G03X-877590Y-256730I-1001J-8D01*
G02Y-234950I5090J10890D01*
G03X-877010Y-234050I-421J908D01*
G01Y-232230D01*
G03X-877590Y-231330I-1001J-8D01*
G02Y-209550I5090J10890D01*
G03X-877010Y-208650I-421J908D01*
G01Y-206830D01*
G03X-877590Y-205930I-1001J-8D01*
G02X-879520Y-185280I5089J10891D01*
G01X-879250Y-185090D01*
X-879050Y-184480D01*
X-879740Y-182350D01*
G03X-880690Y-181660I-950J-309D01*
G01X-883520D01*
G02X-884520Y-180660I0J1000D01*
G01Y-158620D01*
G02X-883520Y-157620I1000J0D01*
G01X-861480D01*
G02X-860480Y-158620I0J-1000D01*
G01Y-180660D01*
G02X-861480Y-181660I-1000J0D01*
G01X-864310D01*
G03X-865260Y-182350I0J-999D01*
G01X-865950Y-184480D01*
X-865750Y-185090D01*
X-865480Y-185280D01*
G02X-867410Y-205930I-7019J-9759D01*
G03X-867990Y-206830I421J-908D01*
G01Y-208650D01*
G03X-867410Y-209550I1001J8D01*
G02Y-231330I-5090J-10890D01*
G03X-867990Y-232230I421J-908D01*
G01Y-234050D01*
G03X-867410Y-234950I1001J8D01*
G02Y-256730I-5090J-10890D01*
G03X-867990Y-257630I421J-908D01*
G01Y-259450D01*
G03X-867410Y-260350I1001J8D01*
G02Y-282130I-5090J-10890D01*
G03X-867990Y-283030I421J-908D01*
G01Y-284850D01*
G03X-867410Y-285750I1001J8D01*
G02Y-307530I-5090J-10890D01*
G03X-867990Y-308430I421J-908D01*
G01Y-310250D01*
G03X-867410Y-311150I1001J8D01*
G02Y-332930I-5090J-10890D01*
G03X-867990Y-333830I421J-908D01*
G01Y-335650D01*
G03X-867410Y-336550I1001J8D01*
G02Y-358330I-5090J-10890D01*
G03X-867990Y-359230I421J-908D01*
G01Y-361050D01*
G03X-867410Y-361950I1001J8D01*
G02Y-383730I-5090J-10890D01*
G03X-867990Y-384630I421J-908D01*
G01Y-386450D01*
G03X-867410Y-387350I1001J8D01*
G02X-865480Y-408000I-5089J-10891D01*
G01X-865750Y-408190D01*
X-865950Y-408800D01*
X-865260Y-410930D01*
G03X-864310Y-411620I950J309D01*
G01X-861480D01*
G02X-860480Y-412620I0J-1000D01*
G01Y-434660D01*
G02X-861480Y-435660I-1000J0D01*
G01X-864310D01*
G03X-865260Y-436350I0J-999D01*
G01X-865950Y-438480D01*
X-865750Y-439090D01*
X-865480Y-439280D01*
G02X-867410Y-459930I-7019J-9759D01*
G03X-867990Y-460830I421J-908D01*
G01Y-462650D01*
G03X-867410Y-463550I1001J8D01*
G02Y-485330I-5090J-10890D01*
G03X-867990Y-486230I421J-908D01*
G01Y-488050D01*
G03X-867410Y-488950I1001J8D01*
G02Y-510730I-5090J-10890D01*
G03X-867990Y-511630I421J-908D01*
G01Y-513450D01*
G03X-867410Y-514350I1001J8D01*
G02Y-536130I-5090J-10890D01*
G03X-867990Y-537030I421J-908D01*
G01Y-538850D01*
G03X-867410Y-539750I1001J8D01*
G02Y-561530I-5090J-10890D01*
G03X-867990Y-562430I421J-908D01*
G01Y-564250D01*
G03X-867410Y-565150I1001J8D01*
G02Y-586930I-5090J-10890D01*
G03X-867990Y-587830I421J-908D01*
G01Y-589650D01*
G03X-867410Y-590550I1001J8D01*
G02Y-612330I-5090J-10890D01*
G03X-867990Y-613230I421J-908D01*
G01Y-615050D01*
G03X-867410Y-615950I1001J8D01*
G02Y-637730I-5090J-10890D01*
G03X-867990Y-638630I421J-908D01*
G01Y-640450D01*
G03X-867410Y-641350I1001J8D01*
G02X-865480Y-662000I-5089J-10891D01*
G01X-865750Y-662190D01*
X-865950Y-662800D01*
X-865260Y-664930D01*
G03X-864310Y-665620I950J309D01*
G01X-861480D01*
G02X-860480Y-666620I0J-1000D01*
G01Y-688660D01*
G02X-861480Y-689660I-1000J0D01*
G01X-864310D01*
G03X-865260Y-690350I0J-999D01*
G01X-865950Y-692480D01*
X-865750Y-693090D01*
X-865480Y-693280D01*
G02X-867410Y-713930I-7019J-9759D01*
G03X-867990Y-714830I421J-908D01*
G01Y-716650D01*
G03X-867410Y-717550I1001J8D01*
G02Y-739330I-5090J-10890D01*
G03X-867990Y-740230I421J-908D01*
G01Y-742050D01*
G03X-867410Y-742950I1001J8D01*
G02Y-764730I-5090J-10890D01*
G03X-867990Y-765630I421J-908D01*
G01Y-767450D01*
G03X-867410Y-768350I1001J8D01*
G02Y-790130I-5090J-10890D01*
G03X-867990Y-791030I421J-908D01*
G01Y-792850D01*
G03X-867410Y-793750I1001J8D01*
G02Y-815530I-5090J-10890D01*
G03X-867990Y-816430I421J-908D01*
G01Y-818250D01*
G03X-867410Y-819150I1001J8D01*
G02Y-840930I-5090J-10890D01*
G03X-867990Y-841830I421J-908D01*
G01Y-843650D01*
G03X-867410Y-844550I1001J8D01*
G02Y-866330I-5090J-10890D01*
G03X-867990Y-867230I421J-908D01*
G01Y-869050D01*
G03X-867410Y-869950I1001J8D01*
G02X-865480Y-890600I-5089J-10891D01*
G01X-865750Y-890790D01*
X-865950Y-891400D01*
X-865260Y-893530D01*
G03X-864310Y-894220I950J309D01*
G01X-861480D01*
G02X-860480Y-895220I0J-1000D01*
G01Y-917260D01*
G02X-861480Y-918260I-1000J0D01*
G37*
G36*
G01X-912410Y-123930D02*
G02Y-113750I-10890J5090D01*
G03X-911510Y-114330I908J421D01*
G01X-909690D01*
G03X-908790Y-113750I-8J1001D01*
G02X-887010I10890J-5090D01*
G03X-886110Y-114330I908J421D01*
G01X-884290D01*
G03X-883390Y-113750I-8J1001D01*
G02Y-123930I10890J-5090D01*
G03X-884290Y-123350I-908J-421D01*
G01X-886110D01*
G03X-887010Y-123930I8J-1001D01*
G02X-908790I-10890J5090D01*
G03X-909690Y-123350I-908J-421D01*
G01X-911510D01*
G03X-912410Y-123930I8J-1001D01*
G37*
G36*
G01X-705450Y323250D02*
X-705640Y322980D01*
G02Y337020I-9760J7020D01*
G01X-705450Y336750D01*
X-704840Y336550D01*
X-702710Y337240D01*
G03X-702020Y338190I-309J950D01*
G01Y341020D01*
G02X-701020Y342020I1000J0D01*
G01X-678980D01*
G02X-677980Y341020I0J-1000D01*
G01Y318980D01*
G02X-678980Y317980I-1000J0D01*
G01X-701020D01*
G02X-702020Y318980I0J1000D01*
G01Y321810D01*
G03X-702710Y322760I-999J0D01*
G01X-704840Y323450D01*
X-705450Y323250D01*
G37*
G36*
G01X-907690Y-158850D02*
X-888110D01*
G02X-887110Y-159850I0J-1000D01*
G01Y-179430D01*
G02X-888110Y-180430I-1000J0D01*
G01X-907690D01*
G02X-908690Y-179430I0J1000D01*
G01Y-159850D01*
G02X-907690Y-158850I1000J0D01*
G37*
G36*
G01Y-412850D02*
X-888110D01*
G02X-887110Y-413850I0J-1000D01*
G01Y-433430D01*
G02X-888110Y-434430I-1000J0D01*
G01X-907690D01*
G02X-908690Y-433430I0J1000D01*
G01Y-413850D01*
G02X-907690Y-412850I1000J0D01*
G37*
G36*
G01Y-666850D02*
X-888110D01*
G02X-887110Y-667850I0J-1000D01*
G01Y-687430D01*
G02X-888110Y-688430I-1000J0D01*
G01X-907690D01*
G02X-908690Y-687430I0J1000D01*
G01Y-667850D01*
G02X-907690Y-666850I1000J0D01*
G37*
G36*
G01Y-895450D02*
X-888110D01*
G02X-887110Y-896450I0J-1000D01*
G01Y-916030D01*
G02X-888110Y-917030I-1000J0D01*
G01X-907690D01*
G02X-908690Y-916030I0J1000D01*
G01Y-896450D01*
G02X-907690Y-895450I1000J0D01*
G37*
G36*
G01X-462790Y555990D02*
G03Y553010I1329J-1490D01*
G02X-471470I-4340J-4870D01*
G03Y555990I-1329J1490D01*
G02X-462790I4340J4870D01*
G37*
G54D23*
X-63500Y-971550D03*
G54D21*
X-430400Y1109250D03*
X-425790Y476250D03*
X-479850Y831160D03*
Y805720D03*
Y754840D03*
X-479200Y780280D03*
X-502110Y672160D03*
X-479850Y691240D03*
X-502110Y653080D03*
X-479850Y668980D03*
X-603870Y554500D03*
Y525880D03*
X-558220Y452740D03*
X-603870Y497260D03*
X-546100Y-838200D03*
X-664290Y605380D03*
X-638850Y554500D03*
X-668620Y511130D03*
X-638850Y497260D03*
X-645210Y-851060D03*
X-638850Y-927380D03*
X-654750Y-895580D03*
X-699270Y630820D03*
X-744900Y41850D03*
X-714900Y-10650D03*
X-744900Y-3150D03*
X-702400Y-33150D03*
X-744900Y-104750D03*
X-702400Y-134750D03*
X-714900Y-112250D03*
X-744900Y-206350D03*
X-702400Y-236350D03*
X-714900Y-213850D03*
X-744900Y-307950D03*
X-714900Y-315450D03*
X-702400Y-337950D03*
X-744900Y-409550D03*
X-702400Y-439550D03*
X-714900Y-417050D03*
X-744900Y-511150D03*
X-702400Y-541150D03*
X-714900Y-518650D03*
X-744900Y-612750D03*
X-714900Y-620250D03*
X-702400Y-642750D03*
X-744900Y-714350D03*
X-702400Y-744350D03*
X-714900Y-721850D03*
X-724640Y-814260D03*
X-696090Y-886040D03*
X-740000Y-898000D03*
X-764150Y-689270D03*
X-878850Y680200D03*
X-880000Y164000D03*
X-901750Y185250D03*
X-899850Y143850D03*
X-880000Y0D03*
X-900000Y16980D03*
X-461700Y-701740D03*
Y-600140D03*
Y-498540D03*
Y-396940D03*
Y-295340D03*
Y-193740D03*
Y-92140D03*
Y9460D03*
G54D20*
X-345850Y1071150D03*
Y1020350D03*
Y918750D03*
Y969550D03*
Y867950D03*
Y766350D03*
Y817150D03*
Y715550D03*
Y613950D03*
Y664750D03*
Y563150D03*
Y461550D03*
Y512350D03*
Y410750D03*
Y309150D03*
Y359950D03*
G54D22*
X-740800Y330000D03*
X-897900Y-144240D03*
X-872500D03*
X-897900Y-220440D03*
Y-195040D03*
Y-296640D03*
Y-271240D03*
Y-245840D03*
Y-372840D03*
Y-347440D03*
Y-322040D03*
Y-449040D03*
Y-398240D03*
Y-525240D03*
Y-499840D03*
Y-474440D03*
Y-601440D03*
Y-576040D03*
Y-550640D03*
Y-652240D03*
Y-626840D03*
Y-753840D03*
Y-728440D03*
Y-703040D03*
Y-830040D03*
Y-804640D03*
Y-779240D03*
Y-880840D03*
Y-855440D03*
X-923300Y-144240D03*
G54D24*
X-78000Y-927040D03*
Y172960D03*
%LPD*%
G75*
G54D10*
X-948700Y-957040D03*
Y-68040D03*
G54D11*
X-923300Y-906240D03*
Y-677640D03*
Y-423640D03*
Y-169640D03*
X-897900Y-906240D03*
X-872500D03*
X-897900Y-677640D03*
X-872500D03*
X-897900Y-423640D03*
X-872500D03*
X-897900Y-169640D03*
X-872500D03*
X-690000Y330000D03*
X-247650Y-698500D03*
X-279400Y-762000D03*
Y-660400D03*
Y-558800D03*
X-247650Y-596900D03*
Y-495300D03*
Y-393700D03*
X-279400Y-457200D03*
Y-355600D03*
Y-254000D03*
X-247650Y-292100D03*
Y-190500D03*
Y-88900D03*
X-279400Y-152400D03*
Y-50800D03*
X-247650Y12700D03*
G54D12*
X-923300Y-880840D03*
Y-855440D03*
Y-830040D03*
Y-804640D03*
Y-779240D03*
Y-753840D03*
Y-728440D03*
Y-703040D03*
Y-652240D03*
Y-626840D03*
Y-601440D03*
Y-576040D03*
Y-550640D03*
Y-525240D03*
Y-499840D03*
Y-474440D03*
Y-449040D03*
Y-398240D03*
Y-372840D03*
Y-347440D03*
Y-322040D03*
Y-296640D03*
Y-271240D03*
Y-245840D03*
Y-220440D03*
Y-195040D03*
Y-144240D03*
Y-118840D03*
X-897900Y-880840D03*
Y-855440D03*
X-872500Y-880840D03*
Y-855440D03*
X-897900Y-830040D03*
Y-804640D03*
Y-779240D03*
X-872500Y-830040D03*
Y-804640D03*
Y-779240D03*
X-897900Y-753840D03*
Y-728440D03*
Y-703040D03*
X-872500Y-753840D03*
Y-728440D03*
Y-703040D03*
X-897900Y-652240D03*
Y-626840D03*
X-872500Y-652240D03*
Y-626840D03*
X-897900Y-601440D03*
Y-576040D03*
Y-550640D03*
X-872500Y-601440D03*
Y-576040D03*
Y-550640D03*
X-897900Y-525240D03*
Y-499840D03*
Y-474440D03*
X-872500Y-525240D03*
Y-499840D03*
Y-474440D03*
X-897900Y-449040D03*
Y-398240D03*
X-872500Y-449040D03*
Y-398240D03*
X-897900Y-372840D03*
Y-347440D03*
Y-322040D03*
X-872500Y-372840D03*
Y-347440D03*
Y-322040D03*
X-897900Y-296640D03*
Y-271240D03*
Y-245840D03*
X-872500Y-296640D03*
Y-271240D03*
Y-245840D03*
X-897900Y-220440D03*
Y-195040D03*
X-872500Y-220440D03*
Y-195040D03*
X-897900Y-144240D03*
Y-118840D03*
X-872500Y-144240D03*
Y-118840D03*
X-740800Y330000D03*
X-715400D03*
X-387400Y-731850D03*
Y-630250D03*
Y-528650D03*
Y-427050D03*
Y-325450D03*
Y-223850D03*
Y-122250D03*
Y-20650D03*
X-337400Y-731850D03*
Y-630250D03*
Y-528650D03*
Y-427050D03*
Y-325450D03*
Y-223850D03*
Y-122250D03*
Y-20650D03*
X-345850Y359950D03*
Y309150D03*
Y410750D03*
Y512350D03*
Y461550D03*
Y563150D03*
Y664750D03*
Y613950D03*
Y715550D03*
Y817150D03*
Y766350D03*
Y867950D03*
Y969550D03*
Y918750D03*
Y1020350D03*
Y1071150D03*
X-247650Y-723900D03*
X-279400Y-736600D03*
X-247650Y-622300D03*
X-279400Y-635000D03*
X-247650Y-520700D03*
X-279400Y-533400D03*
X-247650Y-419100D03*
X-279400Y-431800D03*
X-247650Y-317500D03*
X-279400Y-330200D03*
X-247650Y-215900D03*
X-279400Y-228600D03*
X-247650Y-114300D03*
X-279400Y-127000D03*
X-247650Y-12700D03*
X-279400Y-25400D03*
X-295050Y359950D03*
X-269650D03*
X-244250D03*
Y309150D03*
X-269650D03*
X-295050D03*
X-244250Y410750D03*
X-269650D03*
X-295050D03*
X-244250Y512350D03*
X-269650D03*
X-295050D03*
Y461550D03*
X-269650D03*
X-244250D03*
X-295050Y563150D03*
X-269650D03*
X-244250D03*
X-295050Y664750D03*
X-269650D03*
X-244250D03*
Y613950D03*
X-269650D03*
X-295050D03*
X-244250Y715550D03*
X-269650D03*
X-295050D03*
X-244250Y817150D03*
X-269650D03*
X-295050D03*
Y766350D03*
X-269650D03*
X-244250D03*
X-295050Y867950D03*
X-269650D03*
X-244250D03*
X-295050Y969550D03*
X-269650D03*
X-244250D03*
Y918750D03*
X-269650D03*
X-295050D03*
X-244250Y1020350D03*
X-269650D03*
X-295050D03*
Y1071150D03*
X-269650D03*
X-244250D03*
X-186700Y-732250D03*
Y-630650D03*
Y-529050D03*
Y-427450D03*
Y-325850D03*
Y-224250D03*
Y-122650D03*
Y-21050D03*
X-136700Y-732250D03*
Y-630650D03*
Y-529050D03*
Y-427450D03*
Y-325850D03*
Y-224250D03*
Y-122650D03*
Y-21050D03*
G54D13*
X-950000Y-850000D03*
Y-740000D03*
Y-630000D03*
Y-520000D03*
Y-410000D03*
Y-300000D03*
Y-190000D03*
Y-110000D03*
Y-30000D03*
Y80000D03*
Y190000D03*
Y300000D03*
Y410000D03*
Y520000D03*
Y630000D03*
X-948980Y739070D03*
Y849070D03*
Y959070D03*
Y1069070D03*
Y1179070D03*
X-900000Y-940000D03*
X-840000Y-970000D03*
X-850000Y-850000D03*
Y-790000D03*
X-840000Y-560000D03*
X-850000Y-410000D03*
X-870000Y-30000D03*
X-910000Y-90000D03*
X-870000D03*
X-880000Y45000D03*
X-900000Y16980D03*
X-880000Y0D03*
X-900000Y115000D03*
X-880000Y100000D03*
X-900000Y62500D03*
X-880000Y82500D03*
X-899850Y143850D03*
X-901750Y185250D03*
X-880000Y164000D03*
X-902500Y215000D03*
X-880000Y230000D03*
X-870000Y300000D03*
Y410000D03*
Y520000D03*
Y630000D03*
Y735000D03*
X-895000Y730000D03*
X-878850Y680200D03*
X-870000Y850000D03*
Y960000D03*
Y1070000D03*
Y1140000D03*
Y1220000D03*
X-781950Y-933740D03*
X-766000Y-914000D03*
X-810000Y-860000D03*
X-800000Y-914000D03*
X-835000Y-817500D03*
X-792500D03*
X-800000Y-740000D03*
X-780000Y-650000D03*
X-790000Y-630000D03*
X-764150Y-689270D03*
X-830000Y-520000D03*
X-790000Y422500D03*
X-747500Y-952500D03*
Y-932500D03*
X-735000Y-970000D03*
X-692750Y-960000D03*
X-740000Y-898000D03*
X-747500Y-912500D03*
X-740000Y-886000D03*
X-696090Y-886040D03*
X-690000Y-780000D03*
X-750000D03*
X-756440Y-826980D03*
X-724640Y-814260D03*
X-744900Y-733850D03*
Y-714350D03*
X-714900Y-721850D03*
X-702400Y-744350D03*
X-735000Y-677500D03*
X-700000Y-699450D03*
X-744900Y-632250D03*
X-702400Y-642750D03*
X-735000Y-575000D03*
X-700000Y-595000D03*
X-744900Y-612750D03*
X-714900Y-620250D03*
X-735000Y-475000D03*
X-697500Y-492500D03*
X-744900Y-530650D03*
Y-511150D03*
X-714900Y-518650D03*
X-702400Y-541150D03*
X-744900Y-429050D03*
Y-409550D03*
X-714900Y-417050D03*
X-702400Y-439550D03*
X-735000Y-372500D03*
X-700000Y-390000D03*
X-744900Y-327450D03*
X-702400Y-337950D03*
X-735000Y-270000D03*
X-700000Y-290000D03*
X-744900Y-307950D03*
X-714900Y-315450D03*
X-735000Y-170000D03*
X-700000Y-187500D03*
X-744900Y-225850D03*
Y-206350D03*
X-714900Y-213850D03*
X-702400Y-236350D03*
X-744900Y-124250D03*
Y-104750D03*
X-714900Y-112250D03*
X-702400Y-134750D03*
X-735000Y-67500D03*
X-700000Y-87500D03*
X-744900Y-22650D03*
X-702400Y-33150D03*
X-700000Y15000D03*
X-760000Y30000D03*
X-744900Y41850D03*
Y-3150D03*
X-714900Y-10650D03*
X-730000Y85000D03*
X-760000Y130000D03*
X-744900Y69350D03*
X-760000Y240000D03*
Y310000D03*
X-750000Y380000D03*
Y450000D03*
X-735000Y505000D03*
X-756510Y525880D03*
X-750120Y551350D03*
X-717500Y630000D03*
X-724710Y611740D03*
X-699270Y630820D03*
X-760000Y850000D03*
Y960000D03*
Y1070000D03*
Y1140000D03*
Y1220000D03*
X-642500Y-962500D03*
X-654750Y-895580D03*
X-638850Y-927380D03*
X-660000Y-830000D03*
X-630000Y-800000D03*
X-645210Y-851060D03*
X-670000Y130000D03*
Y240000D03*
Y310000D03*
Y390000D03*
X-640000Y430000D03*
X-652400Y476850D03*
X-680000Y490000D03*
X-633620Y455920D03*
X-638850Y497260D03*
X-668620Y511130D03*
X-638850Y554500D03*
X-644630Y630820D03*
X-664290Y605380D03*
X-661110Y688060D03*
X-650000Y850000D03*
Y960000D03*
Y1070000D03*
Y1140000D03*
Y1220000D03*
X-550000Y-910000D03*
Y-860000D03*
X-589180Y-900730D03*
X-570000Y-800000D03*
X-546100Y-838200D03*
X-591700Y-751740D03*
X-597510Y-735250D03*
X-591700Y-650140D03*
X-597510Y-633650D03*
X-599700Y-691740D03*
X-591700Y-548540D03*
X-599700Y-590140D03*
X-597510Y-532050D03*
X-599700Y-488540D03*
X-591700Y-446940D03*
X-597510Y-430450D03*
X-591700Y-345340D03*
X-597510Y-328850D03*
X-599700Y-386940D03*
X-591700Y-243740D03*
X-599700Y-285340D03*
X-597510Y-227250D03*
X-599700Y-183740D03*
X-597510Y-125650D03*
X-591700Y-142140D03*
Y-40540D03*
X-597510Y-24050D03*
X-599700Y-82140D03*
Y19460D03*
X-560000Y130000D03*
Y240000D03*
Y310000D03*
X-575000Y415000D03*
X-560000Y390000D03*
X-600690Y436840D03*
X-603870Y497260D03*
X-558220Y452740D03*
X-542400Y571850D03*
X-603870Y525880D03*
Y554500D03*
X-580000Y630000D03*
X-581610Y675340D03*
X-550000Y860000D03*
X-540000Y960000D03*
Y1070000D03*
Y1140000D03*
Y1220000D03*
X-520000Y-930000D03*
Y-840000D03*
X-461700Y-701740D03*
X-513700Y-713740D03*
X-501700Y-773740D03*
Y-672140D03*
X-461700Y-600140D03*
X-513700Y-612140D03*
X-501700Y-570540D03*
X-461700Y-498540D03*
X-513700Y-510540D03*
X-461700Y-396940D03*
X-513700Y-408940D03*
X-501700Y-468940D03*
Y-367340D03*
X-461700Y-295340D03*
X-513700Y-307340D03*
X-501700Y-265740D03*
X-461700Y-193740D03*
X-513700Y-205740D03*
X-461700Y-92140D03*
X-513700Y-104140D03*
X-501700Y-164140D03*
Y-62540D03*
X-513700Y-2540D03*
X-461700Y9460D03*
X-512400Y451850D03*
X-489390Y471820D03*
X-458720Y585170D03*
X-524370Y586300D03*
X-467130Y548140D03*
Y560860D03*
X-477400Y611850D03*
X-482400Y596850D03*
X-497400D03*
X-508000Y630050D03*
X-479850Y668980D03*
X-502110Y653080D03*
X-479850Y691240D03*
X-502110Y672160D03*
X-479200Y780280D03*
X-479850Y754840D03*
Y805720D03*
Y831160D03*
X-450000Y130000D03*
Y240000D03*
Y360000D03*
Y310000D03*
X-425790Y379600D03*
Y476250D03*
X-392500Y705000D03*
X-390000Y770000D03*
X-430000Y820000D03*
Y930000D03*
X-390000Y980000D03*
X-430000Y1040000D03*
X-430400Y1109250D03*
X-430000Y1140000D03*
Y1220000D03*
X-361700Y-763740D03*
Y-662140D03*
Y-560540D03*
Y-458940D03*
Y-357340D03*
Y-255740D03*
Y-154140D03*
Y-52540D03*
X-350000Y170000D03*
Y277500D03*
X-352400Y331850D03*
X-370000Y390000D03*
X-352400Y536850D03*
Y586850D03*
Y741850D03*
Y791850D03*
X-380000Y870000D03*
X-352400Y841850D03*
Y941850D03*
Y1041850D03*
X-374910Y1109250D03*
X-352400Y1141850D03*
X-22800Y135660D03*
X-3000Y127460D03*
X-31000Y155460D03*
X-22800Y175260D03*
X-3000Y183460D03*
X16800Y135660D03*
Y175260D03*
X25000Y155460D03*
G54D14*
X-78000Y-927040D03*
Y-827040D03*
Y72960D03*
Y172960D03*
G54D15*
X-100000Y360800D03*
Y310000D03*
Y411600D03*
Y513200D03*
Y462400D03*
Y564000D03*
Y665600D03*
Y614800D03*
Y716400D03*
Y818000D03*
Y767200D03*
Y868800D03*
Y970400D03*
Y919600D03*
Y1021200D03*
Y1072000D03*
X0Y-711200D03*
Y-762000D03*
Y-660400D03*
Y-558800D03*
Y-609600D03*
Y-508000D03*
Y-406400D03*
Y-457200D03*
Y-355600D03*
Y-254000D03*
Y-304800D03*
Y-203200D03*
Y-101600D03*
Y-152400D03*
Y-50800D03*
Y0D03*
Y360800D03*
Y310000D03*
Y411600D03*
Y513200D03*
Y462400D03*
Y564000D03*
Y665600D03*
Y614800D03*
Y716400D03*
Y818000D03*
Y767200D03*
Y868800D03*
Y970400D03*
Y919600D03*
Y1021200D03*
Y1072000D03*
G54D16*
X16300Y-957040D03*
Y1265460D03*
G54D17*
X-3000Y155460D03*
G54D18*
X25000Y-812800D03*
Y50800D03*
G54D19*
G01X-923300Y-156030D02*
Y-144240D01*
G01D02*
Y-132450D01*
G01X-935090Y-144240D02*
X-923300D01*
G01D02*
X-911510D01*
G01X-897900Y-918030D02*
Y-906240D01*
G01D02*
Y-894450D01*
G01X-909690Y-906240D02*
X-897900D01*
G01D02*
X-886110D01*
G01X-897900Y-892630D02*
Y-880840D01*
G01D02*
Y-869050D01*
G01X-909690Y-880840D02*
X-897900D01*
G01D02*
X-886110D01*
G01X-897900Y-867230D02*
Y-855440D01*
G01D02*
Y-843650D01*
G01X-909690Y-855440D02*
X-897900D01*
G01D02*
X-886110D01*
G01X-897900Y-841830D02*
Y-830040D01*
G01D02*
Y-818250D01*
G01X-909690Y-830040D02*
X-897900D01*
G01D02*
X-886110D01*
G01X-897900Y-816430D02*
Y-804640D01*
G01D02*
Y-792850D01*
G01X-909690Y-804640D02*
X-897900D01*
G01D02*
X-886110D01*
G01X-897900Y-791030D02*
Y-779240D01*
G01D02*
Y-767450D01*
G01X-909690Y-779240D02*
X-897900D01*
G01D02*
X-886110D01*
G01X-897900Y-765630D02*
Y-753840D01*
G01D02*
Y-742050D01*
G01X-909690Y-753840D02*
X-897900D01*
G01D02*
X-886110D01*
G01X-897900Y-740230D02*
Y-728440D01*
G01D02*
Y-716650D01*
G01X-909690Y-728440D02*
X-897900D01*
G01D02*
X-886110D01*
G01X-897900Y-714830D02*
Y-703040D01*
G01D02*
Y-691250D01*
G01X-909690Y-703040D02*
X-897900D01*
G01D02*
X-886110D01*
G01X-897900Y-689430D02*
Y-677640D01*
G01D02*
Y-665850D01*
G01X-909690Y-677640D02*
X-897900D01*
G01D02*
X-886110D01*
G01X-897900Y-664030D02*
Y-652240D01*
G01D02*
Y-640450D01*
G01X-909690Y-652240D02*
X-897900D01*
G01D02*
X-886110D01*
G01X-897900Y-638630D02*
Y-626840D01*
G01D02*
Y-615050D01*
G01X-909690Y-626840D02*
X-897900D01*
G01D02*
X-886110D01*
G01X-897900Y-613230D02*
Y-601440D01*
G01D02*
Y-589650D01*
G01X-909690Y-601440D02*
X-897900D01*
G01D02*
X-886110D01*
G01X-897900Y-587830D02*
Y-576040D01*
G01D02*
Y-564250D01*
G01X-909690Y-576040D02*
X-897900D01*
G01D02*
X-886110D01*
G01X-897900Y-562430D02*
Y-550640D01*
G01D02*
Y-538850D01*
G01X-909690Y-550640D02*
X-897900D01*
G01D02*
X-886110D01*
G01X-897900Y-537030D02*
Y-525240D01*
G01D02*
Y-513450D01*
G01X-909690Y-525240D02*
X-897900D01*
G01D02*
X-886110D01*
G01X-897900Y-511630D02*
Y-499840D01*
G01D02*
Y-488050D01*
G01X-909690Y-499840D02*
X-897900D01*
G01D02*
X-886110D01*
G01X-897900Y-486230D02*
Y-474440D01*
G01D02*
Y-462650D01*
G01X-909690Y-474440D02*
X-897900D01*
G01D02*
X-886110D01*
G01X-897900Y-460830D02*
Y-449040D01*
G01D02*
Y-437250D01*
G01X-909690Y-449040D02*
X-897900D01*
G01D02*
X-886110D01*
G01X-897900Y-435430D02*
Y-423640D01*
G01D02*
Y-411850D01*
G01X-909690Y-423640D02*
X-897900D01*
G01D02*
X-886110D01*
G01X-897900Y-410030D02*
Y-398240D01*
G01D02*
Y-386450D01*
G01X-909690Y-398240D02*
X-897900D01*
G01D02*
X-886110D01*
G01X-897900Y-384630D02*
Y-372840D01*
G01D02*
Y-361050D01*
G01X-909690Y-372840D02*
X-897900D01*
G01D02*
X-886110D01*
G01X-897900Y-359230D02*
Y-347440D01*
G01D02*
Y-335650D01*
G01X-909690Y-347440D02*
X-897900D01*
G01D02*
X-886110D01*
G01X-897900Y-333830D02*
Y-322040D01*
G01D02*
Y-310250D01*
G01X-909690Y-322040D02*
X-897900D01*
G01D02*
X-886110D01*
G01X-897900Y-308430D02*
Y-296640D01*
G01D02*
Y-284850D01*
G01X-909690Y-296640D02*
X-897900D01*
G01D02*
X-886110D01*
G01X-897900Y-283030D02*
Y-271240D01*
G01D02*
Y-259450D01*
G01X-909690Y-271240D02*
X-897900D01*
G01D02*
X-886110D01*
G01X-897900Y-257630D02*
Y-245840D01*
G01D02*
Y-234050D01*
G01X-909690Y-245840D02*
X-897900D01*
G01D02*
X-886110D01*
G01X-897900Y-232230D02*
Y-220440D01*
G01D02*
Y-208650D01*
G01X-909690Y-220440D02*
X-897900D01*
G01D02*
X-886110D01*
G01X-897900Y-206830D02*
Y-195040D01*
G01D02*
Y-183250D01*
G01X-909690Y-195040D02*
X-897900D01*
G01D02*
X-886110D01*
G01X-897900Y-181430D02*
Y-169640D01*
G01D02*
Y-157850D01*
G01X-909690Y-169640D02*
X-897900D01*
G01D02*
X-886110D01*
G01X-897900Y-156030D02*
Y-144240D01*
G01D02*
Y-132450D01*
G01X-909690Y-144240D02*
X-897900D01*
G01D02*
X-886110D01*
G01X-872500Y-156030D02*
Y-144240D01*
G01D02*
Y-132450D01*
G01X-884290Y-144240D02*
X-872500D01*
G01D02*
X-860710D01*
G01X-740800Y318210D02*
Y330000D01*
G01D02*
Y341790D01*
G01X-752590Y330000D02*
X-740800D01*
G01D02*
X-729010D01*
G01X-88290Y-927040D02*
X-78000D01*
G01X-88290Y172960D02*
X-78000D01*
G01Y-937330D02*
Y-927040D01*
G01D02*
Y-916750D01*
G01Y-927040D02*
X-67710D01*
G01X-78000Y162670D02*
Y172960D01*
G01D02*
Y183250D01*
G01Y172960D02*
X-67710D01*
M02*
