M48
METRIC,TZ
T01C.4
T02C.8
T03C1.
T04C1.7
T05C2.4
T06C2.7
T07C3.
T08C3.2
;LEADER: 12 
;HEADER: 
;CODE  : ASCII 
;FILE  : KSK_02v6-1-4.drl for  ... layers TOP and BOTTOM
;DESIGN: KSK_02v6.brd
;T01 Holesize 1. = 0.400000 Tolerance = +0.000000/-0.000000 PLATED MM Quantity = 308
;T02 Holesize 2. = 0.800000 Tolerance = +0.000000/-0.000000 PLATED MM Quantity = 4
;T03 Holesize 3. = 1.000000 Tolerance = +0.000000/-0.000000 PLATED MM Quantity = 227
;T04 Holesize 4. = 1.700000 Tolerance = +0.000000/-0.000000 PLATED MM Quantity = 48
;T05 Holesize 5. = 2.400000 Tolerance = +0.000000/-0.000000 PLATED MM Quantity = 2
;T06 Holesize 6. = 2.700000 Tolerance = +0.000000/-0.000000 PLATED MM Quantity = 2
;T07 Holesize 7. = 3.000000 Tolerance = +0.100000/-0.100000 PLATED MM Quantity = 2
;T08 Holesize 8. = 3.200000 Tolerance = +0.000000/-0.000000 PLATED MM Quantity = 1
%
G90
T01
X-591700Y-142140
X-714900Y-10650
X-702400Y-33150
Y-744350
X-714900Y-721850
X-702400Y-642750
X-714900Y-620250
X-702400Y-541150
X-714900Y-518650
X-702400Y-439550
X-714900Y-417050
X-702400Y-337950
X-714900Y-315450
X-702400Y-236350
X-714900Y-213850
X-702400Y-134750
X-714900Y-112250
X-599700Y19460
Y-691740
Y-590140
R05Y101600
X-361700Y-52540
X-501700Y-62540
X-361700Y-763740
X-501700Y-773740
X-361700Y-662140
X-501700Y-672140
X-361700Y-560540
X-501700Y-570540
X-361700Y-458940
X-501700Y-468940
X-361700Y-357340
X-501700Y-367340
X-361700Y-255740
X-501700Y-265740
X-361700Y-154140
X-501700Y-164140
X-597510Y-24050
Y-735250
Y-633650
Y-532050
X-502110Y653080
X-597510Y-430450
R03Y101600
X-479850Y831160
X-502110Y672160
X-764150Y-689270
X-880000Y164000
Y0
X-546100Y-838200
X-744900Y-104750
Y-511150
Y-409550
Y-307950
Y-612750
Y-714350
Y-206350
X-638850Y-927380
X-724640Y-814260
X-664290Y605380
X-668620Y511130
X-558220Y452740
X-878850Y680200
X-430400Y1109250
X-699270Y630820
X-744900Y-3150
Y41850
X-467130Y560860
Y548140
X-900000Y16980
X-901750Y185250
X-899850Y143850
X-479850Y691240
X-696090Y-886040
X-645210Y-851060
X-479850Y805720
Y754840
X-479200Y780280
X-603870Y497260
Y554500
X-638850Y497260
Y554500
X-603870Y525880
X-479850Y668980
X-740000Y-886000
X-792500Y-817500
X-744900Y-124250
Y-530650
Y-429050
Y-327450
Y-632250
Y-733850
Y-225850
X-747500Y-912500
X-692750Y-960000
X-508000Y630050
X-589180Y-900730
X-642500Y-972500
X-757500Y-825000
X-724710Y611740
X-750120Y551350
X-735000Y505000
X-756510Y525880
X-600690Y436840
X-661110Y688060
X-895000Y730000
X-644630Y630820
X-524370Y586300
X-497400Y596850
X-458720Y585170
X-425790Y379600
X-489390Y471820
X-633620Y455920
X-581610Y675340
X-744900Y-22650
Y69350
X-374910Y1109250
X-782500Y-935000
X-840000Y-970000
X-705000Y-972500
X-900000Y-940000
X-800000Y-914000
X-797500Y-872500
X-850000Y-790000
Y-850000
X-800000Y-740000
X-750000Y-795000
X-690000Y-780000
X-630000Y-800000
X-570000
X-660000Y-830000
X-520000Y-840000
X-550000Y-860000
Y-910000
X-520000Y-930000
X-700000Y-699450
X-790000Y-630000
X-840000Y-560000
X-830000Y-520000
X-870000Y-90000
X-910000
X-950000Y-30000
X-870000
X-950000Y-850000
R06Y110000
Y-110000
Y80000
Y190000
Y300000
X-760000Y1070000
X-650000
X-760000Y960000
X-650000
X-640000Y430000
X-950000Y410000
R02Y110000
X-880000Y82500
X-870000Y300000
R03Y110000
Y735000
X-880000Y230000
X-948980Y739070
R04Y110000
X-870000Y850000
R02Y110000
Y1140000
Y1220000
X-760000
Y1140000
X-650000
Y1220000
X-540000
Y1140000
X-430000Y1220000
Y1140000
X-352400Y1141850
X-430000Y1040000
X-352400Y1041850
X-430000Y930000
X-352400Y941850
X-390000Y980000
X-430000Y820000
X-352400Y841850
X-380000Y870000
X-680000Y490000
X-750000Y450000
X-760000Y30000
X-350000Y277500
Y170000
X-450000Y130000
Y310000
X-560000Y130000
X-670000
X-760000
Y240000
Y310000
X-670000
Y240000
Y390000
X-750000Y380000
X-560000Y240000
Y310000
Y390000
X-450000Y360000
Y240000
X-850000Y-410000
X-352400Y791850
X-390000Y770000
X-352400Y586850
X-370000Y390000
X-760000Y850000
X-650000
X-540000Y1070000
Y960000
X-550000Y860000
X-835000Y-817500
X-700000Y-595000
X-735000Y-575000
Y-677500
X-697500Y-492500
X-735000Y-475000
X-700000Y-390000
X-735000Y-372500
X-700000Y-290000
X-735000Y-270000
X-700000Y-187500
X-735000Y-170000
X-700000Y-87500
X-735000Y-67500
X-700000Y15000
X-900000Y62500
X-880000Y45000
Y100000
X-900000Y115000
X-902500Y215000
X-392500Y705000
X-352400Y741850
X-780000Y-650000
X-730000Y85000
X-352400Y536850
Y331850
X-482400Y596850
X-477400Y611850
X-542400Y571850
X-512400Y451850
X-652400Y476850
X-575000Y415000
X-580000Y630000
X-766000Y-914000
X-747500Y-932500
Y-952500
X-790000Y422500
X-717500Y630000
X-707500Y-865000
X-600000Y-945000
X-552500Y-965000
X-740000Y-898000
X-654750Y-895580
X-425790Y476250
X-461700Y9460
X-513700Y-2540
Y-713740
X-461700Y-701740
X-513700Y-612140
X-461700Y-600140
X-513700Y-510540
X-461700Y-498540
X-513700Y-408940
X-461700Y-396940
X-513700Y-307340
X-461700Y-295340
X-513700Y-205740
X-461700Y-193740
X-513700Y-104140
X-461700Y-92140
X-591700Y-40540
Y-751740
Y-650140
R04Y101600
X-3000Y127460
X-22800Y135660
X-3000Y183460
X-22800Y175260
X-31000Y155460
X16800Y135660
X25000Y155460
X16800Y175260
T02
X-78000Y-827040
Y-927040
Y72960
Y172960
T03
X-279400Y-457200
Y-431800
X-247650Y-495300
Y-520700
X-279400Y-558800
Y-533400
X-247650Y-596900
Y-622300
X-279400Y-660400
Y-635000
X-247650Y-698500
Y-723900
X-279400Y-762000
Y-736600
X-247650Y-88900
Y-114300
X-279400Y-152400
Y-127000
X-247650Y-190500
Y-215900
X-279400Y-254000
Y-228600
X-247650Y-292100
Y-317500
X-279400Y-355600
Y-330200
X-247650Y-393700
Y-419100
X-387400Y-731850
X-337400
X-186700Y-122650
X-136700
X-387400Y-122250
X-337400
X-186700Y-224250
X-136700
X-387400Y-223850
X-337400
X-186700Y-325850
X-136700
X-387400Y-325450
X-337400
X-186700Y-427450
X-136700
X-387400Y-427050
X-337400
X-186700Y-529050
X-136700
X-387400Y-528650
X-337400
X-186700Y-630650
X-136700
X-387400Y-630250
X-337400
X-186700Y-732250
X-136700
X-872500Y-118840
R31Y-25400
X-897900Y-118840
R31Y-25400
X-923300Y-118840
R31Y-25400
X-247650Y12700
Y-12700
X-690000Y330000
R02X-25400
X-279400Y-50800
Y-25400
X-345850Y1020350
X-295050
X-269650
X-244250
Y1071150
R02X-25400
X-345850
Y918750
X-295050
R02X25400
Y969550
R02X-25400
X-345850
Y817150
X-295050
R02X25400
Y867950
R02X-25400
X-345850
Y715550
X-295050
R02X25400
Y766350
R02X-25400
X-345850
Y613950
X-295050
R02X25400
Y664750
R02X-25400
X-345850
Y512350
X-295050
R02X25400
Y563150
R02X-25400
X-345850
Y410750
X-295050
R02X25400
Y461550
R02X-25400
X-345850
Y309150
X-295050
R02X25400
Y359950
R02X-25400
X-345850
X-186700Y-21050
X-136700
X-387400Y-20650
X-337400
T04
X0Y310000
X-100000
Y360800
R14Y50800
X0Y360800
R14Y50800
X0Y-762000
R15Y50800
T05
X25000Y50800
Y-812800
T06
X16300Y1265460
Y-957040
T07
X-948700Y-68040
Y-957040
T08
X-3000Y155460
M30
