G04 ================== begin FILE IDENTIFICATION RECORD ==================*
G04 Layout Name:  D:/Project/Circuit/AVANT/KSK/KSK_02v6/pcb/KSK_02v6.brd*
G04 Film Name:    MASK_BOT*
G04 File Format:  Gerber RS274X*
G04 File Origin:  Cadence Allegro 16.6-2015-S073*
G04 Origin Date:  Fri Sep 28 10:21:00 2018*
G04 *
G04 Layer:  VIA CLASS/SOLDERMASK_BOTTOM*
G04 Layer:  PIN/SOLDERMASK_BOTTOM*
G04 Layer:  PACKAGE GEOMETRY/SOLDERMASK_BOTTOM*
G04 *
G04 Offset:    (0.000 0.000)*
G04 Mirror:    No*
G04 Mode:      Positive*
G04 Rotation:  0*
G04 FullContactRelief:  No*
G04 UndefLineWidth:     0.000*
G04 ================== end FILE IDENTIFICATION RECORD ====================*
%FSLAX34Y34*MOMM*%
%IR0*IPPOS*OFA0.00000B0.00000*MIA0B0*SFA1.00000B1.00000*%
%ADD23O,1.3X.8*%
%ADD13C,2.*%
%ADD15O,2.X.84*%
%ADD33C,4.1*%
%ADD20R,2.X.84*%
%ADD10C,4.2*%
%ADD29C,2.6*%
%ADD27C,1.7*%
%ADD34C,3.6*%
%ADD12C,1.9*%
%ADD32C,7.4*%
%ADD21R,.75X1.25*%
%ADD30C,5.8*%
%ADD31R,2.6X2.6*%
%ADD19O,2.09X.69*%
%ADD11R,1.9X1.9*%
%ADD14R,1.4X2.*%
%ADD24R,1.6X2.*%
%ADD22R,2.X2.5*%
%ADD18R,1.4X2.9*%
%ADD28R,1.7X3.8*%
%ADD25R,1.9X1.9*%
%ADD16R,1.65X1.25*%
%ADD17R,1.25X1.65*%
%ADD26R,2.46X2.36*%
%LPD*%
G75*
G54D10*
X-948700Y-957040D03*
Y-68040D03*
G54D11*
X-923300Y-906240D03*
Y-677640D03*
Y-423640D03*
Y-169640D03*
X-897900Y-906240D03*
X-872500D03*
X-897900Y-677640D03*
X-872500D03*
X-897900Y-423640D03*
X-872500D03*
X-897900Y-169640D03*
X-872500D03*
X-690000Y330000D03*
X-247650Y-698500D03*
X-279400Y-762000D03*
Y-660400D03*
Y-558800D03*
X-247650Y-596900D03*
Y-495300D03*
Y-393700D03*
X-279400Y-457200D03*
Y-355600D03*
Y-254000D03*
X-247650Y-292100D03*
Y-190500D03*
Y-88900D03*
X-279400Y-152400D03*
Y-50800D03*
X-247650Y12700D03*
G54D20*
X-636150Y-709150D03*
Y-607550D03*
Y-505950D03*
Y-404350D03*
Y-302750D03*
Y-201150D03*
Y-99550D03*
Y2050D03*
G54D30*
X16300Y-957040D03*
G54D21*
X-610230Y-735620D03*
Y-709860D03*
Y-634020D03*
Y-608260D03*
Y-532420D03*
Y-506660D03*
Y-430820D03*
Y-405060D03*
Y-329220D03*
Y-303460D03*
Y-227620D03*
Y-201860D03*
Y-126020D03*
Y-100260D03*
Y-24420D03*
Y1340D03*
G54D12*
X-923300Y-880840D03*
Y-855440D03*
Y-830040D03*
Y-804640D03*
Y-779240D03*
Y-753840D03*
Y-728440D03*
Y-703040D03*
Y-652240D03*
Y-626840D03*
Y-601440D03*
Y-576040D03*
Y-550640D03*
Y-525240D03*
Y-499840D03*
Y-474440D03*
Y-449040D03*
Y-398240D03*
Y-372840D03*
Y-347440D03*
Y-322040D03*
Y-296640D03*
Y-271240D03*
Y-245840D03*
Y-220440D03*
Y-195040D03*
Y-144240D03*
Y-118840D03*
X-897900Y-880840D03*
Y-855440D03*
X-872500Y-880840D03*
Y-855440D03*
X-897900Y-830040D03*
Y-804640D03*
Y-779240D03*
X-872500Y-830040D03*
Y-804640D03*
Y-779240D03*
X-897900Y-753840D03*
Y-728440D03*
Y-703040D03*
X-872500Y-753840D03*
Y-728440D03*
Y-703040D03*
X-897900Y-652240D03*
Y-626840D03*
X-872500Y-652240D03*
Y-626840D03*
X-897900Y-601440D03*
Y-576040D03*
Y-550640D03*
X-872500Y-601440D03*
Y-576040D03*
Y-550640D03*
X-897900Y-525240D03*
Y-499840D03*
Y-474440D03*
X-872500Y-525240D03*
Y-499840D03*
Y-474440D03*
X-897900Y-449040D03*
Y-398240D03*
X-872500Y-449040D03*
Y-398240D03*
X-897900Y-372840D03*
Y-347440D03*
Y-322040D03*
X-872500Y-372840D03*
Y-347440D03*
Y-322040D03*
X-897900Y-296640D03*
Y-271240D03*
Y-245840D03*
X-872500Y-296640D03*
Y-271240D03*
Y-245840D03*
X-897900Y-220440D03*
Y-195040D03*
X-872500Y-220440D03*
Y-195040D03*
X-897900Y-144240D03*
Y-118840D03*
X-872500Y-144240D03*
Y-118840D03*
X-740800Y330000D03*
X-715400D03*
X-387400Y-731850D03*
Y-630250D03*
Y-528650D03*
Y-427050D03*
Y-325450D03*
Y-223850D03*
Y-122250D03*
Y-20650D03*
X-337400Y-731850D03*
Y-630250D03*
Y-528650D03*
Y-427050D03*
Y-325450D03*
Y-223850D03*
Y-122250D03*
Y-20650D03*
X-345850Y359950D03*
Y461550D03*
Y563150D03*
Y664750D03*
Y766350D03*
Y867950D03*
Y969550D03*
Y1071150D03*
X-247650Y-723900D03*
X-279400Y-736600D03*
X-247650Y-622300D03*
X-279400Y-635000D03*
X-247650Y-520700D03*
X-279400Y-533400D03*
X-247650Y-419100D03*
X-279400Y-431800D03*
X-247650Y-317500D03*
X-279400Y-330200D03*
X-247650Y-215900D03*
X-279400Y-228600D03*
X-247650Y-114300D03*
X-279400Y-127000D03*
X-247650Y-12700D03*
X-279400Y-25400D03*
X-295050Y359950D03*
X-269650D03*
X-244250D03*
Y309150D03*
X-269650D03*
X-295050D03*
X-244250Y410750D03*
X-269650D03*
X-295050D03*
X-244250Y512350D03*
X-269650D03*
X-295050D03*
Y461550D03*
X-269650D03*
X-244250D03*
X-295050Y563150D03*
X-269650D03*
X-244250D03*
X-295050Y664750D03*
X-269650D03*
X-244250D03*
Y613950D03*
X-269650D03*
X-295050D03*
X-244250Y715550D03*
X-269650D03*
X-295050D03*
X-244250Y817150D03*
X-269650D03*
X-295050D03*
Y766350D03*
X-269650D03*
X-244250D03*
X-295050Y867950D03*
X-269650D03*
X-244250D03*
X-295050Y969550D03*
X-269650D03*
X-244250D03*
Y918750D03*
X-269650D03*
X-295050D03*
X-244250Y1020350D03*
X-269650D03*
X-295050D03*
Y1071150D03*
X-269650D03*
X-244250D03*
X-186700Y-732250D03*
Y-630650D03*
Y-529050D03*
Y-427450D03*
Y-325850D03*
Y-224250D03*
Y-122650D03*
Y-21050D03*
X-136700Y-732250D03*
Y-630650D03*
Y-529050D03*
Y-427450D03*
Y-325850D03*
Y-224250D03*
Y-122650D03*
Y-21050D03*
G54D22*
X-566720Y-753740D03*
X-530720Y-701740D03*
X-566720Y-652140D03*
Y-550540D03*
X-530720Y-600140D03*
Y-498540D03*
X-566720Y-448940D03*
X-530720Y-396940D03*
X-566720Y-347340D03*
Y-245740D03*
X-530720Y-295340D03*
Y-193740D03*
X-566720Y-144140D03*
X-530720Y-92140D03*
X-566720Y-42540D03*
X-530720Y9460D03*
X-520680Y-753740D03*
X-484680Y-701740D03*
X-520680Y-652140D03*
Y-550540D03*
X-484680Y-600140D03*
Y-498540D03*
X-520680Y-448940D03*
X-484680Y-396940D03*
X-520680Y-347340D03*
Y-245740D03*
X-484680Y-295340D03*
Y-193740D03*
X-520680Y-144140D03*
X-484680Y-92140D03*
X-520680Y-42540D03*
X-484680Y9460D03*
G54D31*
X0Y-762000D03*
Y310000D03*
G54D13*
X-895350Y-971550D03*
Y1276350D03*
X-63500Y-971550D03*
Y1276350D03*
G54D14*
X-786050Y652050D03*
Y728250D03*
Y702850D03*
Y677450D03*
Y804450D03*
Y779050D03*
Y753650D03*
Y829850D03*
X-702650Y-759350D03*
X-732150D03*
X-702650Y-657750D03*
X-732150D03*
X-702650Y-556150D03*
X-732150D03*
X-702650Y-454550D03*
X-732150D03*
X-702650Y-352950D03*
X-732150D03*
X-702650Y-251350D03*
X-732150D03*
X-702650Y-149750D03*
X-732150D03*
X-702650Y-48150D03*
X-732150D03*
X-756550Y652050D03*
Y728250D03*
Y702850D03*
Y677450D03*
Y804450D03*
Y779050D03*
Y753650D03*
Y829850D03*
X-554750Y672000D03*
Y644000D03*
X-525250Y672000D03*
Y644000D03*
X-499250Y728000D03*
X-528750D03*
X-499250Y700000D03*
X-528750D03*
X-499250Y812000D03*
X-528750D03*
X-499250Y784000D03*
X-528750D03*
X-499250Y756000D03*
X-528750D03*
X-499250Y840000D03*
X-528750D03*
G54D32*
X-3000Y155460D03*
G54D23*
X-566950Y-713740D03*
X-588450Y-704240D03*
Y-723240D03*
X-566950Y-612140D03*
X-588450Y-602640D03*
Y-621640D03*
X-566950Y-510540D03*
X-588450Y-501040D03*
Y-520040D03*
X-566950Y-408940D03*
X-588450Y-399440D03*
Y-418440D03*
X-566950Y-307340D03*
X-588450Y-297840D03*
Y-316840D03*
X-566950Y-205740D03*
X-588450Y-196240D03*
Y-215240D03*
X-566950Y-104140D03*
X-588450Y-94640D03*
Y-113640D03*
X-566950Y-2540D03*
X-588450Y6960D03*
Y-12040D03*
G54D24*
X-415550Y-695740D03*
X-387850D03*
X-415550Y-594140D03*
X-387850D03*
X-415550Y-492540D03*
X-387850D03*
X-415550Y-390940D03*
X-387850D03*
X-415550Y-289340D03*
X-387850D03*
X-415550Y-187740D03*
X-387850D03*
X-415550Y-86140D03*
X-387850D03*
X-415550Y15460D03*
X-387850D03*
G54D33*
X16300Y1265460D03*
G54D15*
X-698650Y-709150D03*
Y-721850D03*
Y-734550D03*
Y-632950D03*
Y-607550D03*
Y-620250D03*
Y-505950D03*
Y-518650D03*
Y-531350D03*
Y-404350D03*
Y-417050D03*
Y-429750D03*
Y-328150D03*
Y-302750D03*
Y-315450D03*
Y-201150D03*
Y-213850D03*
Y-226550D03*
Y-99550D03*
Y-112250D03*
Y-124950D03*
Y-23350D03*
Y2050D03*
Y-10650D03*
X-636150Y-734550D03*
Y-632950D03*
Y-531350D03*
Y-429750D03*
Y-328150D03*
Y-226550D03*
Y-124950D03*
Y-23350D03*
G54D16*
X-729900Y-733850D03*
Y-714850D03*
Y-632250D03*
Y-613250D03*
Y-530650D03*
Y-511650D03*
Y-429050D03*
Y-410050D03*
Y-327450D03*
Y-308450D03*
Y-225850D03*
Y-206850D03*
Y-124250D03*
Y-105250D03*
Y-22650D03*
Y-3650D03*
G54D25*
X-345850Y309150D03*
Y410750D03*
Y512350D03*
Y613950D03*
Y715550D03*
Y817150D03*
Y918750D03*
Y1020350D03*
G54D34*
X25000Y-812800D03*
Y50800D03*
G54D26*
X-168050Y310050D03*
Y359050D03*
Y411650D03*
Y513250D03*
Y460650D03*
Y562250D03*
Y614850D03*
Y663850D03*
Y716450D03*
Y818050D03*
Y765450D03*
Y867050D03*
Y919650D03*
Y968650D03*
Y1021250D03*
Y1070250D03*
G54D17*
X-686510Y662620D03*
X-667510D03*
G54D18*
X-685400Y630820D03*
X-655900D03*
X-483450Y-755740D03*
Y-654140D03*
Y-552540D03*
Y-450940D03*
Y-349340D03*
Y-247740D03*
Y-146140D03*
Y-44540D03*
X-435950Y-755740D03*
Y-654140D03*
Y-552540D03*
Y-450940D03*
Y-349340D03*
Y-247740D03*
Y-146140D03*
Y-44540D03*
X-309950Y-699740D03*
X-357450D03*
X-309950Y-598140D03*
X-357450D03*
X-309950Y-496540D03*
X-357450D03*
X-309950Y-394940D03*
X-357450D03*
X-309950Y-293340D03*
X-357450D03*
X-309950Y-191740D03*
X-357450D03*
X-309950Y-90140D03*
X-357450D03*
X-309950Y11460D03*
X-357450D03*
X-163950Y-759740D03*
X-211450D03*
Y-699740D03*
X-163950D03*
Y-658140D03*
X-211450D03*
X-163950Y-556540D03*
X-211450D03*
Y-598140D03*
X-163950D03*
X-211450Y-496540D03*
X-163950D03*
Y-454940D03*
X-211450D03*
Y-394940D03*
X-163950D03*
Y-353340D03*
X-211450D03*
X-163950Y-251740D03*
X-211450D03*
Y-293340D03*
X-163950D03*
X-211450Y-191740D03*
X-163950D03*
Y-150140D03*
X-211450D03*
Y-90140D03*
X-163950D03*
Y-48540D03*
X-211450D03*
Y11460D03*
X-163950D03*
G54D27*
X-78000Y-927040D03*
Y-827040D03*
Y72960D03*
Y172960D03*
G54D28*
X-87250Y-755200D03*
Y-703200D03*
Y-653600D03*
Y-552000D03*
Y-601600D03*
Y-500000D03*
Y-450400D03*
Y-398400D03*
Y-348800D03*
Y-247200D03*
Y-296800D03*
Y-195200D03*
Y-145600D03*
Y-93600D03*
Y-44000D03*
Y8000D03*
X-44750Y-755200D03*
Y-703200D03*
Y-653600D03*
Y-552000D03*
Y-601600D03*
Y-500000D03*
Y-450400D03*
Y-398400D03*
Y-348800D03*
Y-247200D03*
Y-296800D03*
Y-195200D03*
Y-145600D03*
Y-93600D03*
Y-44000D03*
Y8000D03*
G54D19*
X-685300Y735760D03*
Y723060D03*
Y710360D03*
Y697660D03*
Y684960D03*
Y786560D03*
Y773860D03*
Y761160D03*
Y748460D03*
X-592400Y684960D03*
Y697660D03*
Y710360D03*
Y723060D03*
Y735760D03*
Y748460D03*
Y761160D03*
Y773860D03*
Y786560D03*
G54D29*
X-100000Y360800D03*
Y310000D03*
Y411600D03*
Y513200D03*
Y462400D03*
Y564000D03*
Y665600D03*
Y614800D03*
Y716400D03*
Y818000D03*
Y767200D03*
Y868800D03*
Y970400D03*
Y919600D03*
Y1021200D03*
Y1072000D03*
X0Y-711200D03*
Y-660400D03*
Y-558800D03*
Y-609600D03*
Y-508000D03*
Y-406400D03*
Y-457200D03*
Y-355600D03*
Y-254000D03*
Y-304800D03*
Y-203200D03*
Y-101600D03*
Y-152400D03*
Y-50800D03*
Y0D03*
Y360800D03*
Y411600D03*
Y513200D03*
Y462400D03*
Y564000D03*
Y665600D03*
Y614800D03*
Y716400D03*
Y818000D03*
Y767200D03*
Y868800D03*
Y970400D03*
Y919600D03*
Y1021200D03*
Y1072000D03*
M02*
