G04 ================== begin FILE IDENTIFICATION RECORD ==================*
G04 Layout Name:  D:/docs/KSK_02v6/pcb/KSK_02v6.brd*
G04 Film Name:    SILK_BOT*
G04 File Format:  Gerber RS274X*
G04 File Origin:  Cadence Allegro 16.6-2015-S105*
G04 Origin Date:  Thu Aug 30 09:01:53 2018*
G04 *
G04 Layer:  MANUFACTURING/AUTOSILK_BOTTOM*
G04 *
G04 Offset:    (0.000 0.000)*
G04 Mirror:    No*
G04 Mode:      Positive*
G04 Rotation:  0*
G04 FullContactRelief:  No*
G04 UndefLineWidth:     0.200*
G04 ================== end FILE IDENTIFICATION RECORD ====================*
%FSLAX34Y34*MOMM*%
%IR0*IPPOS*OFA0.00000B0.00000*MIA0B0*SFA1.00000B1.00000*%
%ADD10C,.2*%
%ADD11C,.4*%
%ADD12C,.15*%
G75*
%LPD*%
G75*
G54D10*
G01X-747300Y665450D02*
X-795300D01*
Y689450D01*
X-747300D01*
Y665450D01*
G01Y640050D02*
X-795300D01*
Y664050D01*
X-747300D01*
Y640050D01*
G01Y741650D02*
X-795300D01*
Y765650D01*
X-747300D01*
Y741650D01*
G01Y716250D02*
X-795300D01*
Y740250D01*
X-747300D01*
Y716250D01*
G01Y690850D02*
X-795300D01*
Y714850D01*
X-747300D01*
Y690850D01*
G01Y817850D02*
X-795300D01*
Y841850D01*
X-747300D01*
Y817850D01*
G01Y792450D02*
X-795300D01*
Y816450D01*
X-747300D01*
Y792450D01*
G01Y767050D02*
X-795300D01*
Y791050D01*
X-747300D01*
Y767050D01*
G01X-740900Y-706350D02*
Y-742350D01*
G01D02*
X-718900D01*
G01D02*
Y-706350D01*
G01D02*
X-740900D01*
G01X-741400Y-747350D02*
X-693400D01*
Y-771350D01*
X-741400D01*
Y-747350D01*
G01X-740900Y-604750D02*
Y-640750D01*
G01D02*
X-718900D01*
G01D02*
Y-604750D01*
G01X-741400Y-645750D02*
X-693400D01*
Y-669750D01*
X-741400D01*
Y-645750D01*
G01X-718900Y-604750D02*
X-740900D01*
G01X-741400Y-544150D02*
X-693400D01*
Y-568150D01*
X-741400D01*
Y-544150D01*
G01X-740900Y-503150D02*
Y-539150D01*
G01D02*
X-718900D01*
G01D02*
Y-503150D01*
G01D02*
X-740900D01*
G01Y-401550D02*
Y-437550D01*
G01D02*
X-718900D01*
G01D02*
Y-401550D01*
G01D02*
X-740900D01*
G01X-741400Y-442550D02*
X-693400D01*
Y-466550D01*
X-741400D01*
Y-442550D01*
G01X-740900Y-299950D02*
Y-335950D01*
G01D02*
X-718900D01*
G01D02*
Y-299950D01*
G01X-741400Y-340950D02*
X-693400D01*
Y-364950D01*
X-741400D01*
Y-340950D01*
G01X-718900Y-299950D02*
X-740900D01*
G01X-741400Y-239350D02*
X-693400D01*
Y-263350D01*
X-741400D01*
Y-239350D01*
G01X-740900Y-198350D02*
Y-234350D01*
G01D02*
X-718900D01*
G01D02*
Y-198350D01*
G01D02*
X-740900D01*
G01Y-96750D02*
Y-132750D01*
G01D02*
X-718900D01*
G01D02*
Y-96750D01*
G01D02*
X-740900D01*
G01X-741400Y-137750D02*
X-693400D01*
Y-161750D01*
X-741400D01*
Y-137750D01*
G01X-740900Y4850D02*
Y-31150D01*
G01D02*
X-718900D01*
G01D02*
Y4850D01*
G01X-741400Y-36150D02*
X-693400D01*
Y-60150D01*
X-741400D01*
Y-36150D01*
G01X-718900Y4850D02*
X-740900D01*
G01X-695010Y651620D02*
X-659010D01*
G01X-695010Y673620D02*
Y651620D01*
G01X-694780Y614310D02*
X-646520D01*
G01X-694780Y647330D02*
X-646520D01*
G01X-694780Y614310D02*
Y647330D01*
G01X-659010Y673620D02*
X-695010D01*
G01X-671000Y1289000D02*
Y1231000D01*
X-729000D01*
Y1289000D01*
X-671000D01*
G01X-729000Y1277000D02*
X-671000D01*
G01X-729000Y1275000D02*
X-671000D01*
G01X-729000Y1273000D02*
X-671000D01*
G01X-729000Y1271000D02*
X-671000D01*
G01X-729000Y1269000D02*
X-671000D01*
G01X-729000Y1267000D02*
X-671000D01*
G01X-729000Y1265000D02*
X-671000D01*
G01X-729000Y1263000D02*
X-671000D01*
G01X-729000Y1261000D02*
X-671000D01*
G01X-729000Y1259000D02*
X-671000D01*
G01X-729000Y1257000D02*
X-671000D01*
G01X-729000Y1255000D02*
X-671000D01*
G01X-729000Y1253000D02*
X-671000D01*
G01X-729000Y1251000D02*
X-671000D01*
G01X-729000Y1249000D02*
X-671000D01*
G01X-729000Y1247000D02*
X-671000D01*
G01X-729000Y1245000D02*
X-671000D01*
G01X-729000Y1243000D02*
X-671000D01*
G01X-729000Y1241000D02*
X-671000D01*
G01X-729000Y1239000D02*
X-671000D01*
G01X-729000Y1237000D02*
X-671000D01*
G01X-729000Y1235000D02*
X-671000D01*
G01X-729000Y1233000D02*
X-671000D01*
G01X-729000Y1287000D02*
X-671000D01*
G01X-729000Y1285000D02*
X-671000D01*
G01X-729000Y1283000D02*
X-671000D01*
G01X-729000Y1281000D02*
X-671000D01*
G01X-729000Y1279000D02*
X-671000D01*
G01X-649150Y-739850D02*
Y-703850D01*
X-685650D01*
Y-739850D01*
X-649150D01*
G01X-617230Y-711740D02*
Y-733740D01*
G01X-623230Y-744740D02*
X-611230D01*
G01X-617230Y-738740D02*
Y-750740D01*
G01X-649150Y-638250D02*
Y-602250D01*
X-685650D01*
Y-638250D01*
X-649150D01*
G01X-617230Y-610140D02*
Y-632140D01*
G01X-623230Y-643140D02*
X-611230D01*
G01X-617230Y-637140D02*
Y-649140D01*
G01X-649150Y-536650D02*
Y-500650D01*
X-685650D01*
Y-536650D01*
X-649150D01*
G01X-617230Y-508540D02*
Y-530540D01*
G01X-623230Y-541540D02*
X-611230D01*
G01X-617230Y-535540D02*
Y-547540D01*
G01X-649150Y-435050D02*
Y-399050D01*
X-685650D01*
Y-435050D01*
X-649150D01*
G01X-617230Y-406940D02*
Y-428940D01*
G01X-623230Y-439940D02*
X-611230D01*
G01X-617230Y-433940D02*
Y-445940D01*
G01X-649150Y-333450D02*
Y-297450D01*
X-685650D01*
Y-333450D01*
X-649150D01*
G01X-617230Y-305340D02*
Y-327340D01*
G01X-623230Y-338340D02*
X-611230D01*
G01X-617230Y-332340D02*
Y-344340D01*
G01X-649150Y-231850D02*
Y-195850D01*
X-685650D01*
Y-231850D01*
X-649150D01*
G01X-617230Y-203740D02*
Y-225740D01*
G01X-623230Y-236740D02*
X-611230D01*
G01X-617230Y-230740D02*
Y-242740D01*
G01X-649150Y-130250D02*
Y-94250D01*
X-685650D01*
Y-130250D01*
X-649150D01*
G01X-617230Y-102140D02*
Y-124140D01*
G01X-623230Y-135140D02*
X-611230D01*
G01X-617230Y-129140D02*
Y-141140D01*
G01X-649150Y-28650D02*
Y7350D01*
X-685650D01*
Y-28650D01*
X-649150D01*
G01X-617230Y-540D02*
Y-22540D01*
G01X-623230Y-33540D02*
X-611230D01*
G01X-617230Y-27540D02*
Y-39540D01*
G01X-659010Y651620D02*
Y673620D01*
G01X-646520Y614310D02*
Y647330D01*
G01X-606970Y678010D02*
Y793510D01*
X-670730D01*
Y678010D01*
X-606970D01*
G01X-508200Y-736740D02*
X-579200D01*
Y-771740D01*
X-508200D01*
Y-736740D01*
G01X-587700Y-748740D02*
Y-758740D01*
G01X-582700Y-753740D02*
X-592700D01*
G01X-543200Y-718740D02*
X-472200D01*
Y-683740D01*
X-543200D01*
Y-718740D01*
G01X-579700Y-728740D02*
X-570700D01*
Y-720740D01*
G01Y-706740D02*
Y-698740D01*
X-579700D01*
G01X-584700Y-710740D02*
Y-716740D01*
G01X-603230Y-711740D02*
Y-733740D01*
G01X-508200Y-635140D02*
X-579200D01*
Y-670140D01*
X-508200D01*
Y-635140D01*
G01X-587700Y-647140D02*
Y-657140D01*
G01X-582700Y-652140D02*
X-592700D01*
G01X-603230Y-610140D02*
Y-632140D01*
G01X-508200Y-533540D02*
X-579200D01*
Y-568540D01*
X-508200D01*
Y-533540D01*
G01X-587700Y-545540D02*
Y-555540D01*
G01X-543200Y-617140D02*
X-472200D01*
Y-582140D01*
X-543200D01*
Y-617140D01*
G01X-579700Y-627140D02*
X-570700D01*
Y-619140D01*
G01Y-605140D02*
Y-597140D01*
X-579700D01*
G01X-584700Y-609140D02*
Y-615140D01*
G01X-582700Y-550540D02*
X-592700D01*
G01X-543200Y-515540D02*
X-472200D01*
Y-480540D01*
X-543200D01*
Y-515540D01*
G01X-579700Y-525540D02*
X-570700D01*
Y-517540D01*
G01Y-503540D02*
Y-495540D01*
X-579700D01*
G01X-584700Y-507540D02*
Y-513540D01*
G01X-603230Y-508540D02*
Y-530540D01*
G01X-508200Y-431940D02*
X-579200D01*
Y-466940D01*
X-508200D01*
Y-431940D01*
G01X-587700Y-443940D02*
Y-453940D01*
G01X-582700Y-448940D02*
X-592700D01*
G01X-543200Y-413940D02*
X-472200D01*
Y-378940D01*
X-543200D01*
Y-413940D01*
G01X-579700Y-423940D02*
X-570700D01*
Y-415940D01*
G01Y-401940D02*
Y-393940D01*
X-579700D01*
G01X-584700Y-405940D02*
Y-411940D01*
G01X-603230Y-406940D02*
Y-428940D01*
G01X-508200Y-330340D02*
X-579200D01*
Y-365340D01*
X-508200D01*
Y-330340D01*
G01X-587700Y-342340D02*
Y-352340D01*
G01X-582700Y-347340D02*
X-592700D01*
G01X-603230Y-305340D02*
Y-327340D01*
G01X-508200Y-228740D02*
X-579200D01*
Y-263740D01*
X-508200D01*
Y-228740D01*
G01X-587700Y-240740D02*
Y-250740D01*
G01X-543200Y-312340D02*
X-472200D01*
Y-277340D01*
X-543200D01*
Y-312340D01*
G01X-579700Y-322340D02*
X-570700D01*
Y-314340D01*
G01Y-300340D02*
Y-292340D01*
X-579700D01*
G01X-584700Y-304340D02*
Y-310340D01*
G01X-582700Y-245740D02*
X-592700D01*
G01X-543200Y-210740D02*
X-472200D01*
Y-175740D01*
X-543200D01*
Y-210740D01*
G01X-579700Y-220740D02*
X-570700D01*
Y-212740D01*
G01Y-198740D02*
Y-190740D01*
X-579700D01*
G01X-584700Y-202740D02*
Y-208740D01*
G01X-603230Y-203740D02*
Y-225740D01*
G01X-508200Y-127140D02*
X-579200D01*
Y-162140D01*
X-508200D01*
Y-127140D01*
G01X-587700Y-139140D02*
Y-149140D01*
G01X-582700Y-144140D02*
X-592700D01*
G01X-543200Y-109140D02*
X-472200D01*
Y-74140D01*
X-543200D01*
Y-109140D01*
G01X-579700Y-119140D02*
X-570700D01*
Y-111140D01*
G01Y-97140D02*
Y-89140D01*
X-579700D01*
G01X-584700Y-101140D02*
Y-107140D01*
G01X-603230Y-102140D02*
Y-124140D01*
G01X-508200Y-25540D02*
X-579200D01*
Y-60540D01*
X-508200D01*
Y-25540D01*
G01X-587700Y-37540D02*
Y-47540D01*
G01X-582700Y-42540D02*
X-592700D01*
G01X-603230Y-540D02*
Y-22540D01*
G01X-543200Y-7540D02*
X-472200D01*
Y27460D01*
X-543200D01*
Y-7540D01*
G01X-579700Y-17540D02*
X-570700D01*
Y-9540D01*
G01Y4460D02*
Y12460D01*
X-579700D01*
G01X-584700Y460D02*
Y-5540D01*
G01X-564000Y684000D02*
X-516000D01*
Y660000D01*
X-564000D01*
Y684000D01*
G01Y656000D02*
X-516000D01*
Y632000D01*
X-564000D01*
Y656000D01*
G01X-538000Y768000D02*
X-490000D01*
Y744000D01*
X-538000D01*
Y768000D01*
G01Y740000D02*
X-490000D01*
Y716000D01*
X-538000D01*
Y740000D01*
G01Y712000D02*
X-490000D01*
Y688000D01*
X-538000D01*
Y712000D01*
G01Y824000D02*
X-490000D01*
Y800000D01*
X-538000D01*
Y824000D01*
G01Y796000D02*
X-490000D01*
Y772000D01*
X-538000D01*
Y796000D01*
G01Y852000D02*
X-490000D01*
Y828000D01*
X-538000D01*
Y852000D01*
G01X-426700Y-772740D02*
X-492700D01*
Y-738740D01*
X-426700D01*
Y-772740D01*
G01X-463700Y-706740D02*
Y-696740D01*
G01X-426700Y-671140D02*
X-492700D01*
Y-637140D01*
X-426700D01*
Y-671140D01*
G01X-468700Y-701740D02*
X-458700D01*
G01X-426700Y-569540D02*
X-492700D01*
Y-535540D01*
X-426700D01*
Y-569540D01*
G01X-463700Y-605140D02*
Y-595140D01*
G01X-468700Y-600140D02*
X-458700D01*
G01X-463700Y-503540D02*
Y-493540D01*
G01X-468700Y-498540D02*
X-458700D01*
G01X-426700Y-467940D02*
X-492700D01*
Y-433940D01*
X-426700D01*
Y-467940D01*
G01X-463700Y-401940D02*
Y-391940D01*
G01X-426700Y-366340D02*
X-492700D01*
Y-332340D01*
X-426700D01*
Y-366340D01*
G01X-468700Y-396940D02*
X-458700D01*
G01X-426700Y-264740D02*
X-492700D01*
Y-230740D01*
X-426700D01*
Y-264740D01*
G01X-463700Y-300340D02*
Y-290340D01*
G01X-468700Y-295340D02*
X-458700D01*
G01X-463700Y-198740D02*
Y-188740D01*
G01X-468700Y-193740D02*
X-458700D01*
G01X-426700Y-163140D02*
X-492700D01*
Y-129140D01*
X-426700D01*
Y-163140D01*
G01X-463700Y-97140D02*
Y-87140D01*
G01X-426700Y-61540D02*
X-492700D01*
Y-27540D01*
X-426700D01*
Y-61540D01*
G01X-468700Y-92140D02*
X-458700D01*
G01X-463700Y4460D02*
Y14460D01*
G01X-468700Y9460D02*
X-458700D01*
G01X-425700Y-707740D02*
Y-683740D01*
X-377700D01*
Y-707740D01*
X-425700D01*
G01Y-606140D02*
Y-582140D01*
X-377700D01*
Y-606140D01*
X-425700D01*
G01Y-504540D02*
Y-480540D01*
X-377700D01*
Y-504540D01*
X-425700D01*
G01Y-402940D02*
Y-378940D01*
X-377700D01*
Y-402940D01*
X-425700D01*
G01Y-301340D02*
Y-277340D01*
X-377700D01*
Y-301340D01*
X-425700D01*
G01Y-199740D02*
Y-175740D01*
X-377700D01*
Y-199740D01*
X-425700D01*
G01Y-98140D02*
Y-74140D01*
X-377700D01*
Y-98140D01*
X-425700D01*
G01Y3460D02*
Y27460D01*
X-377700D01*
Y3460D01*
X-425700D01*
G01X-300700Y-716740D02*
X-366700D01*
Y-682740D01*
X-300700D01*
Y-716740D01*
G01Y-615140D02*
X-366700D01*
Y-581140D01*
X-300700D01*
Y-615140D01*
G01Y-513540D02*
X-366700D01*
Y-479540D01*
X-300700D01*
Y-513540D01*
G01Y-411940D02*
X-366700D01*
Y-377940D01*
X-300700D01*
Y-411940D01*
G01Y-310340D02*
X-366700D01*
Y-276340D01*
X-300700D01*
Y-310340D01*
G01Y-208740D02*
X-366700D01*
Y-174740D01*
X-300700D01*
Y-208740D01*
G01Y-107140D02*
X-366700D01*
Y-73140D01*
X-300700D01*
Y-107140D01*
G01Y-5540D02*
X-366700D01*
Y28460D01*
X-300700D01*
Y-5540D01*
G01X-154700Y-776740D02*
X-220700D01*
Y-742740D01*
X-191400D01*
G01X-182000D02*
X-154700D01*
Y-776740D01*
G01X-220700Y-682740D02*
X-154700D01*
Y-716740D01*
X-220700D01*
Y-682740D01*
G01X-154700Y-675140D02*
X-220700D01*
Y-641140D01*
X-191400D01*
G01X-182000D02*
X-154700D01*
Y-675140D01*
G01Y-573540D02*
X-220700D01*
Y-539540D01*
X-191400D01*
G01X-220700Y-581140D02*
X-154700D01*
Y-615140D01*
X-220700D01*
Y-581140D01*
G01X-182000Y-539540D02*
X-154700D01*
Y-573540D01*
G01X-220700Y-479540D02*
X-154700D01*
Y-513540D01*
X-220700D01*
Y-479540D01*
G01X-154700Y-471940D02*
X-220700D01*
Y-437940D01*
X-191400D01*
G01X-182000D02*
X-154700D01*
Y-471940D01*
G01X-220700Y-377940D02*
X-154700D01*
Y-411940D01*
X-220700D01*
Y-377940D01*
G01X-154700Y-370340D02*
X-220700D01*
Y-336340D01*
X-191400D01*
G01X-182000D02*
X-154700D01*
Y-370340D01*
G01Y-268740D02*
X-220700D01*
Y-234740D01*
X-191400D01*
G01X-220700Y-276340D02*
X-154700D01*
Y-310340D01*
X-220700D01*
Y-276340D01*
G01X-182000Y-234740D02*
X-154700D01*
Y-268740D01*
G01X-220700Y-174740D02*
X-154700D01*
Y-208740D01*
X-220700D01*
Y-174740D01*
G01X-154700Y-167140D02*
X-220700D01*
Y-133140D01*
X-191400D01*
G01X-182000D02*
X-154700D01*
Y-167140D01*
G01X-220700Y-73140D02*
X-154700D01*
Y-107140D01*
X-220700D01*
Y-73140D01*
G01X-154700Y-65540D02*
X-220700D01*
Y-31540D01*
X-191400D01*
G01X-182000D02*
X-154700D01*
Y-65540D01*
G01X-220700Y28460D02*
X-154700D01*
Y-5540D01*
X-220700D01*
Y28460D01*
G01X-183050Y356550D02*
X-186050D01*
Y312550D01*
X-183050D01*
G01Y458150D02*
X-186050D01*
Y414150D01*
X-183050D01*
G01Y559750D02*
X-186050D01*
Y515750D01*
X-183050D01*
G01Y661350D02*
X-186050D01*
Y617350D01*
X-183050D01*
G01Y762950D02*
X-186050D01*
Y718950D01*
X-183050D01*
G01Y864550D02*
X-186050D01*
Y820550D01*
X-183050D01*
G01Y966150D02*
X-186050D01*
Y922150D01*
X-183050D01*
G01Y1067750D02*
X-186050D01*
Y1023750D01*
X-183050D01*
G01X-98000Y-776200D02*
X-34000D01*
G01X-98000Y-734200D02*
X-34000D01*
G01X-98000Y-776200D02*
Y-734200D01*
G01Y-724200D02*
X-34000D01*
G01X-98000D02*
Y-682200D01*
G01Y-674600D02*
X-34000D01*
G01X-98000Y-632600D02*
X-34000D01*
G01X-98000Y-674600D02*
Y-632600D01*
G01Y-682200D02*
X-34000D01*
G01X-98000Y-573000D02*
X-34000D01*
G01X-98000D02*
Y-531000D01*
G01Y-622600D02*
X-34000D01*
G01X-98000Y-580600D02*
X-34000D01*
G01X-98000Y-622600D02*
Y-580600D01*
G01Y-531000D02*
X-34000D01*
G01X-98000Y-521000D02*
X-34000D01*
G01X-98000Y-479000D02*
X-34000D01*
G01X-98000Y-521000D02*
Y-479000D01*
G01Y-471400D02*
X-34000D01*
G01X-98000Y-429400D02*
X-34000D01*
G01X-98000Y-471400D02*
Y-429400D01*
G01Y-419400D02*
X-34000D01*
G01X-98000D02*
Y-377400D01*
G01Y-369800D02*
X-34000D01*
G01X-98000Y-327800D02*
X-34000D01*
G01X-98000Y-369800D02*
Y-327800D01*
G01Y-377400D02*
X-34000D01*
G01X-98000Y-268200D02*
X-34000D01*
G01X-98000D02*
Y-226200D01*
G01Y-317800D02*
X-34000D01*
G01X-98000Y-275800D02*
X-34000D01*
G01X-98000Y-317800D02*
Y-275800D01*
G01Y-226200D02*
X-34000D01*
G01X-98000Y-216200D02*
X-34000D01*
G01X-98000Y-174200D02*
X-34000D01*
G01X-98000Y-216200D02*
Y-174200D01*
G01Y-166600D02*
X-34000D01*
G01X-98000Y-124600D02*
X-34000D01*
G01X-98000Y-166600D02*
Y-124600D01*
G01Y-114600D02*
X-34000D01*
G01X-98000D02*
Y-72600D01*
G01Y-65000D02*
X-34000D01*
G01X-98000Y-23000D02*
X-34000D01*
G01X-98000Y-65000D02*
Y-23000D01*
G01Y-72600D02*
X-34000D01*
G01X-98000Y-13000D02*
X-34000D01*
G01X-98000Y29000D02*
X-34000D01*
G01X-98000Y-13000D02*
Y29000D01*
G01X-153060Y312600D02*
X-150060D01*
G01D02*
Y356600D01*
G01D02*
X-153060D01*
G01Y414200D02*
X-150060D01*
G01D02*
Y458200D01*
G01D02*
X-153060D01*
G01Y515800D02*
X-150060D01*
G01D02*
Y559800D01*
G01D02*
X-153060D01*
G01Y617400D02*
X-150060D01*
G01D02*
Y661400D01*
G01D02*
X-153060D01*
G01Y719000D02*
X-150060D01*
G01D02*
Y763000D01*
G01D02*
X-153060D01*
G01Y820600D02*
X-150060D01*
G01D02*
Y864600D01*
G01D02*
X-153060D01*
G01Y922200D02*
X-150060D01*
G01D02*
Y966200D01*
G01D02*
X-153060D01*
G01Y1023800D02*
X-150060D01*
G01D02*
Y1067800D01*
G01D02*
X-153060D01*
G01X-34000Y-734200D02*
Y-776200D01*
G01Y-682200D02*
Y-724200D01*
G01Y-632600D02*
Y-674600D01*
G01Y-531000D02*
Y-573000D01*
G01Y-580600D02*
Y-622600D01*
G01Y-479000D02*
Y-521000D01*
G01Y-429400D02*
Y-471400D01*
G01Y-377400D02*
Y-419400D01*
G01Y-327800D02*
Y-369800D01*
G01Y-226200D02*
Y-268200D01*
G01Y-275800D02*
Y-317800D01*
G01Y-174200D02*
Y-216200D01*
G01Y-124600D02*
Y-166600D01*
G01Y-72600D02*
Y-114600D01*
G01Y-23000D02*
Y-65000D01*
G01Y29000D02*
Y-13000D01*
G54D11*
G01X-633850Y-699800D02*
G03X-635850Y-697800I-2000J0D01*
G01D02*
G03X-637850Y-699800I0J-2000D01*
G01D02*
G03X-635850Y-701800I2000J0D01*
G01D02*
G03X-633850Y-699800I0J2000D01*
G01Y-598200D02*
G03X-635850Y-596200I-2000J0D01*
G01D02*
G03X-637850Y-598200I0J-2000D01*
G01D02*
G03X-635850Y-600200I2000J0D01*
G01D02*
G03X-633850Y-598200I0J2000D01*
G01Y-496600D02*
G03X-635850Y-494600I-2000J0D01*
G01D02*
G03X-637850Y-496600I0J-2000D01*
G01D02*
G03X-635850Y-498600I2000J0D01*
G01D02*
G03X-633850Y-496600I0J2000D01*
G01Y-395000D02*
G03X-635850Y-393000I-2000J0D01*
G01D02*
G03X-637850Y-395000I0J-2000D01*
G01D02*
G03X-635850Y-397000I2000J0D01*
G01D02*
G03X-633850Y-395000I0J2000D01*
G01Y-293400D02*
G03X-635850Y-291400I-2000J0D01*
G01D02*
G03X-637850Y-293400I0J-2000D01*
G01D02*
G03X-635850Y-295400I2000J0D01*
G01D02*
G03X-633850Y-293400I0J2000D01*
G01Y-191800D02*
G03X-635850Y-189800I-2000J0D01*
G01D02*
G03X-637850Y-191800I0J-2000D01*
G01D02*
G03X-635850Y-193800I2000J0D01*
G01D02*
G03X-633850Y-191800I0J2000D01*
G01Y-90200D02*
G03X-635850Y-88200I-2000J0D01*
G01D02*
G03X-637850Y-90200I0J-2000D01*
G01D02*
G03X-635850Y-92200I2000J0D01*
G01D02*
G03X-633850Y-90200I0J2000D01*
G01Y11400D02*
G03X-635850Y13400I-2000J0D01*
G01D02*
G03X-637850Y11400I0J-2000D01*
G01D02*
G03X-635850Y9400I2000J0D01*
G01D02*
G03X-633850Y11400I0J2000D01*
G01X-589450Y796010D02*
G03X-591450Y798010I-2000J0D01*
G01D02*
G03X-593450Y796010I0J-2000D01*
G01D02*
G03X-591450Y794010I2000J0D01*
G01D02*
G03X-589450Y796010I0J2000D01*
G54D12*
G01X-746700Y-767260D02*
Y-754560D01*
X-750720D01*
X-752010Y-755200D01*
X-752810Y-756040D01*
X-753130Y-757740D01*
X-752810Y-759430D01*
X-751850Y-760490D01*
X-750720Y-761120D01*
X-746700D01*
G01X-750720D02*
X-753130Y-767260D01*
G01X-760130Y-765780D02*
X-761260Y-766840D01*
X-762540Y-767260D01*
X-763830Y-766840D01*
X-764960Y-765570D01*
X-765760Y-763660D01*
X-766080Y-761760D01*
Y-759430D01*
X-765760Y-757520D01*
X-764960Y-755830D01*
X-763990Y-754980D01*
X-762860Y-754560D01*
X-761580Y-754980D01*
X-760610Y-755830D01*
X-759970Y-757100D01*
X-759650Y-758790D01*
X-759970Y-760270D01*
X-760770Y-761760D01*
X-761740Y-762600D01*
X-762860Y-762820D01*
X-764150Y-762390D01*
X-765120Y-761330D01*
X-766080Y-759430D01*
G01X-775490Y-767260D02*
X-775810Y-764510D01*
X-776300Y-762180D01*
X-776940Y-760060D01*
X-777750Y-757740D01*
X-779030Y-754560D01*
X-772600D01*
G01X-746700Y-665660D02*
Y-652960D01*
X-750720D01*
X-752010Y-653600D01*
X-752810Y-654440D01*
X-753130Y-656140D01*
X-752810Y-657830D01*
X-751850Y-658890D01*
X-750720Y-659520D01*
X-746700D01*
G01X-750720D02*
X-753130Y-665660D01*
G01X-762860D02*
X-763990Y-665450D01*
X-765280Y-664810D01*
X-766080Y-663760D01*
X-766400Y-662270D01*
X-766080Y-660790D01*
X-765120Y-659520D01*
X-763670Y-658890D01*
X-762060D01*
X-761100Y-658460D01*
X-760290Y-657410D01*
X-759970Y-655920D01*
X-760450Y-654440D01*
X-761580Y-653380D01*
X-762860Y-652960D01*
X-764150Y-653380D01*
X-765280Y-654440D01*
X-765760Y-655920D01*
X-765440Y-657410D01*
X-764630Y-658460D01*
X-763670Y-658890D01*
X-762060D01*
X-760610Y-659520D01*
X-759650Y-660790D01*
X-759330Y-662270D01*
X-759650Y-663760D01*
X-760450Y-664810D01*
X-761740Y-665450D01*
X-762860Y-665660D01*
G01X-775490D02*
X-775810Y-662910D01*
X-776300Y-660580D01*
X-776940Y-658460D01*
X-777750Y-656140D01*
X-779030Y-652960D01*
X-772600D01*
G01X-746700Y-564060D02*
Y-551360D01*
X-750720D01*
X-752010Y-552000D01*
X-752810Y-552840D01*
X-753130Y-554540D01*
X-752810Y-556230D01*
X-751850Y-557290D01*
X-750720Y-557920D01*
X-746700D01*
G01X-750720D02*
X-753130Y-564060D01*
G01X-762540D02*
X-762860Y-561310D01*
X-763350Y-558980D01*
X-763990Y-556860D01*
X-764800Y-554540D01*
X-766080Y-551360D01*
X-759650D01*
G01X-775490Y-564060D02*
X-775810Y-561310D01*
X-776300Y-558980D01*
X-776940Y-556860D01*
X-777750Y-554540D01*
X-779030Y-551360D01*
X-772600D01*
G01X-746700Y-462460D02*
Y-449760D01*
X-750720D01*
X-752010Y-450400D01*
X-752810Y-451240D01*
X-753130Y-452940D01*
X-752810Y-454630D01*
X-751850Y-455690D01*
X-750720Y-456320D01*
X-746700D01*
G01X-750720D02*
X-753130Y-462460D01*
G01X-759810Y-457170D02*
X-760930Y-455690D01*
X-761900Y-454840D01*
X-763190Y-454420D01*
X-764310Y-454840D01*
X-765120Y-455690D01*
X-765760Y-456960D01*
X-765920Y-458440D01*
X-765760Y-459710D01*
X-765120Y-460980D01*
X-764150Y-462040D01*
X-763030Y-462460D01*
X-761740Y-462040D01*
X-760610Y-460770D01*
X-759970Y-458860D01*
X-759810Y-456750D01*
X-760130Y-453990D01*
X-760610Y-452510D01*
X-761420Y-451030D01*
X-762540Y-449970D01*
X-763670Y-449760D01*
X-764800Y-450180D01*
X-765600Y-451240D01*
G01X-775490Y-462460D02*
X-775810Y-459710D01*
X-776300Y-457380D01*
X-776940Y-455260D01*
X-777750Y-452940D01*
X-779030Y-449760D01*
X-772600D01*
G01X-746700Y-360860D02*
Y-348160D01*
X-750720D01*
X-752010Y-348800D01*
X-752810Y-349640D01*
X-753130Y-351340D01*
X-752810Y-353030D01*
X-751850Y-354090D01*
X-750720Y-354720D01*
X-746700D01*
G01X-750720D02*
X-753130Y-360860D01*
G01X-759330Y-358960D02*
X-760290Y-360010D01*
X-761420Y-360650D01*
X-762860Y-360860D01*
X-764310Y-360440D01*
X-765440Y-359590D01*
X-766240Y-358110D01*
X-766400Y-356420D01*
X-766080Y-354720D01*
X-765280Y-353660D01*
X-764150Y-352820D01*
X-763030Y-352610D01*
X-761900Y-352820D01*
X-760450Y-353660D01*
X-760930Y-348160D01*
X-765280D01*
G01X-775490Y-360860D02*
X-775810Y-358110D01*
X-776300Y-355780D01*
X-776940Y-353660D01*
X-777750Y-351340D01*
X-779030Y-348160D01*
X-772600D01*
G01X-746700Y-259260D02*
Y-246560D01*
X-750720D01*
X-752010Y-247200D01*
X-752810Y-248040D01*
X-753130Y-249740D01*
X-752810Y-251430D01*
X-751850Y-252490D01*
X-750720Y-253120D01*
X-746700D01*
G01X-750720D02*
X-753130Y-259260D01*
G01X-764800D02*
Y-246560D01*
X-758840Y-255660D01*
X-766890D01*
G01X-775490Y-259260D02*
X-775810Y-256510D01*
X-776300Y-254180D01*
X-776940Y-252060D01*
X-777750Y-249740D01*
X-779030Y-246560D01*
X-772600D01*
G01X-746700Y-157660D02*
Y-144960D01*
X-750720D01*
X-752010Y-145600D01*
X-752810Y-146440D01*
X-753130Y-148140D01*
X-752810Y-149830D01*
X-751850Y-150890D01*
X-750720Y-151520D01*
X-746700D01*
G01X-750720D02*
X-753130Y-157660D01*
G01X-759330Y-155120D02*
X-760290Y-156600D01*
X-761580Y-157450D01*
X-763030Y-157660D01*
X-764310Y-157450D01*
X-765600Y-156390D01*
X-766400Y-155120D01*
X-766560Y-153850D01*
X-766240Y-152370D01*
X-765120Y-151310D01*
X-763990Y-150890D01*
X-762540D01*
G01X-763990D02*
X-764960Y-150250D01*
X-765760Y-149190D01*
X-766080Y-147920D01*
X-765760Y-146650D01*
X-764960Y-145600D01*
X-763510Y-144960D01*
X-762060Y-145170D01*
X-760610Y-146020D01*
G01X-775490Y-157660D02*
X-775810Y-154910D01*
X-776300Y-152580D01*
X-776940Y-150460D01*
X-777750Y-148140D01*
X-779030Y-144960D01*
X-772600D01*
G01X-746700Y-56060D02*
Y-43360D01*
X-750720D01*
X-752010Y-44000D01*
X-752810Y-44840D01*
X-753130Y-46540D01*
X-752810Y-48230D01*
X-751850Y-49290D01*
X-750720Y-49920D01*
X-746700D01*
G01X-750720D02*
X-753130Y-56060D01*
G01X-759810Y-45480D02*
X-760770Y-44210D01*
X-761900Y-43570D01*
X-763190Y-43360D01*
X-764800Y-43780D01*
X-765920Y-44840D01*
X-766240Y-46110D01*
X-766080Y-47380D01*
X-765440Y-48440D01*
X-762220Y-50560D01*
X-760770Y-52040D01*
X-759810Y-54160D01*
X-759490Y-56060D01*
X-766240D01*
G01X-775490D02*
X-775810Y-53310D01*
X-776300Y-50980D01*
X-776940Y-48860D01*
X-777750Y-46540D01*
X-779030Y-43360D01*
X-772600D01*
G01X-800760Y646720D02*
Y659420D01*
X-804780D01*
X-806070Y658780D01*
X-806870Y657940D01*
X-807190Y656240D01*
X-806870Y654550D01*
X-805910Y653490D01*
X-804780Y652860D01*
X-800760D01*
G01X-804780D02*
X-807190Y646720D01*
G01X-816920D02*
Y659420D01*
X-814990Y656880D01*
G01Y646720D02*
X-818850D01*
G01X-829870Y659420D02*
X-828590Y659000D01*
X-827620Y657940D01*
X-826980Y656670D01*
X-826500Y654970D01*
X-826340Y653070D01*
X-826500Y651160D01*
X-826980Y649470D01*
X-827620Y648200D01*
X-828590Y647140D01*
X-829870Y646720D01*
X-831160Y647140D01*
X-832130Y648200D01*
X-832770Y649470D01*
X-833250Y651160D01*
X-833410Y653070D01*
X-833250Y654970D01*
X-832770Y656670D01*
X-832130Y657940D01*
X-831160Y659000D01*
X-829870Y659420D01*
G01X-800880Y723040D02*
Y735740D01*
X-804900D01*
X-806190Y735100D01*
X-806990Y734260D01*
X-807310Y732560D01*
X-806990Y730870D01*
X-806030Y729810D01*
X-804900Y729180D01*
X-800880D01*
G01X-804900D02*
X-807310Y723040D01*
G01X-813990Y728330D02*
X-815110Y729810D01*
X-816080Y730660D01*
X-817370Y731080D01*
X-818490Y730660D01*
X-819300Y729810D01*
X-819940Y728540D01*
X-820100Y727060D01*
X-819940Y725790D01*
X-819300Y724520D01*
X-818330Y723460D01*
X-817210Y723040D01*
X-815920Y723460D01*
X-814790Y724730D01*
X-814150Y726640D01*
X-813990Y728750D01*
X-814310Y731510D01*
X-814790Y732990D01*
X-815600Y734470D01*
X-816720Y735530D01*
X-817850Y735740D01*
X-818980Y735320D01*
X-819780Y734260D01*
G01X-800880Y697600D02*
Y710300D01*
X-804900D01*
X-806190Y709660D01*
X-806990Y708820D01*
X-807310Y707120D01*
X-806990Y705430D01*
X-806030Y704370D01*
X-804900Y703740D01*
X-800880D01*
G01X-804900D02*
X-807310Y697600D01*
G01X-816720D02*
X-817040Y700350D01*
X-817530Y702680D01*
X-818170Y704800D01*
X-818980Y707120D01*
X-820260Y710300D01*
X-813830D01*
G01X-800880Y672160D02*
Y684860D01*
X-804900D01*
X-806190Y684220D01*
X-806990Y683380D01*
X-807310Y681680D01*
X-806990Y679990D01*
X-806030Y678930D01*
X-804900Y678300D01*
X-800880D01*
G01X-804900D02*
X-807310Y672160D01*
G01X-814310Y673640D02*
X-815440Y672580D01*
X-816720Y672160D01*
X-818010Y672580D01*
X-819140Y673850D01*
X-819940Y675760D01*
X-820260Y677660D01*
Y679990D01*
X-819940Y681900D01*
X-819140Y683590D01*
X-818170Y684440D01*
X-817040Y684860D01*
X-815760Y684440D01*
X-814790Y683590D01*
X-814150Y682320D01*
X-813830Y680630D01*
X-814150Y679150D01*
X-814950Y677660D01*
X-815920Y676820D01*
X-817040Y676600D01*
X-818330Y677030D01*
X-819300Y678090D01*
X-820260Y679990D01*
G01X-800880Y799360D02*
Y812060D01*
X-804900D01*
X-806190Y811420D01*
X-806990Y810580D01*
X-807310Y808880D01*
X-806990Y807190D01*
X-806030Y806130D01*
X-804900Y805500D01*
X-800880D01*
G01X-804900D02*
X-807310Y799360D01*
G01X-813510Y801900D02*
X-814470Y800420D01*
X-815760Y799570D01*
X-817210Y799360D01*
X-818490Y799570D01*
X-819780Y800630D01*
X-820580Y801900D01*
X-820740Y803170D01*
X-820420Y804650D01*
X-819300Y805710D01*
X-818170Y806130D01*
X-816720D01*
G01X-818170D02*
X-819140Y806770D01*
X-819940Y807830D01*
X-820260Y809100D01*
X-819940Y810370D01*
X-819140Y811420D01*
X-817690Y812060D01*
X-816240Y811850D01*
X-814790Y811000D01*
G01X-800880Y773920D02*
Y786620D01*
X-804900D01*
X-806190Y785980D01*
X-806990Y785140D01*
X-807310Y783440D01*
X-806990Y781750D01*
X-806030Y780690D01*
X-804900Y780060D01*
X-800880D01*
G01X-804900D02*
X-807310Y773920D01*
G01X-818980D02*
Y786620D01*
X-813020Y777520D01*
X-821070D01*
G01X-800880Y748480D02*
Y761180D01*
X-804900D01*
X-806190Y760540D01*
X-806990Y759700D01*
X-807310Y758000D01*
X-806990Y756310D01*
X-806030Y755250D01*
X-804900Y754620D01*
X-800880D01*
G01X-804900D02*
X-807310Y748480D01*
G01X-813510Y750380D02*
X-814470Y749330D01*
X-815600Y748690D01*
X-817040Y748480D01*
X-818490Y748900D01*
X-819620Y749750D01*
X-820420Y751230D01*
X-820580Y752920D01*
X-820260Y754620D01*
X-819460Y755680D01*
X-818330Y756520D01*
X-817210Y756730D01*
X-816080Y756520D01*
X-814630Y755680D01*
X-815110Y761180D01*
X-819460D01*
G01X-800880Y824800D02*
Y837500D01*
X-804900D01*
X-806190Y836860D01*
X-806990Y836020D01*
X-807310Y834320D01*
X-806990Y832630D01*
X-806030Y831570D01*
X-804900Y830940D01*
X-800880D01*
G01X-804900D02*
X-807310Y824800D01*
G01X-813990Y835380D02*
X-814950Y836650D01*
X-816080Y837290D01*
X-817370Y837500D01*
X-818980Y837080D01*
X-820100Y836020D01*
X-820420Y834750D01*
X-820260Y833480D01*
X-819620Y832420D01*
X-816400Y830300D01*
X-814950Y828820D01*
X-813990Y826700D01*
X-813670Y824800D01*
X-820420D01*
G01X-721650Y-688840D02*
X-720690Y-688200D01*
X-719560Y-687780D01*
X-718280D01*
X-716830Y-688420D01*
X-715700Y-689470D01*
X-714900Y-690740D01*
X-714250Y-692860D01*
X-714090Y-694770D01*
X-714420Y-696670D01*
X-714900Y-697940D01*
X-715860Y-699210D01*
X-716990Y-700060D01*
X-718110Y-700480D01*
X-719240D01*
X-720370Y-700060D01*
X-721330Y-699420D01*
X-722140Y-698580D01*
G01X-733000Y-700480D02*
Y-687780D01*
X-727040Y-696880D01*
X-735090D01*
G01X-740480Y-698580D02*
X-741440Y-699630D01*
X-742570Y-700270D01*
X-744010Y-700480D01*
X-745460Y-700060D01*
X-746590Y-699210D01*
X-747390Y-697730D01*
X-747550Y-696040D01*
X-747230Y-694340D01*
X-746430Y-693280D01*
X-745300Y-692440D01*
X-744180Y-692230D01*
X-743050Y-692440D01*
X-741600Y-693280D01*
X-742080Y-687780D01*
X-746430D01*
G01X-721650Y-587240D02*
X-720690Y-586600D01*
X-719560Y-586180D01*
X-718280D01*
X-716830Y-586820D01*
X-715700Y-587870D01*
X-714900Y-589140D01*
X-714250Y-591260D01*
X-714090Y-593170D01*
X-714420Y-595070D01*
X-714900Y-596340D01*
X-715860Y-597610D01*
X-716990Y-598460D01*
X-718110Y-598880D01*
X-719240D01*
X-720370Y-598460D01*
X-721330Y-597820D01*
X-722140Y-596980D01*
G01X-733000Y-598880D02*
Y-586180D01*
X-727040Y-595280D01*
X-735090D01*
G01X-744010Y-598880D02*
Y-586180D01*
X-742080Y-588720D01*
G01Y-598880D02*
X-745940D01*
G01X-721650Y-485640D02*
X-720690Y-485000D01*
X-719560Y-484580D01*
X-718280D01*
X-716830Y-485220D01*
X-715700Y-486270D01*
X-714900Y-487540D01*
X-714250Y-489660D01*
X-714090Y-491570D01*
X-714420Y-493470D01*
X-714900Y-494740D01*
X-715860Y-496010D01*
X-716990Y-496860D01*
X-718110Y-497280D01*
X-719240D01*
X-720370Y-496860D01*
X-721330Y-496220D01*
X-722140Y-495380D01*
G01X-727530Y-494740D02*
X-728490Y-496220D01*
X-729780Y-497070D01*
X-731230Y-497280D01*
X-732510Y-497070D01*
X-733800Y-496010D01*
X-734600Y-494740D01*
X-734760Y-493470D01*
X-734440Y-491990D01*
X-733320Y-490930D01*
X-732190Y-490510D01*
X-730740D01*
G01X-732190D02*
X-733160Y-489870D01*
X-733960Y-488810D01*
X-734280Y-487540D01*
X-733960Y-486270D01*
X-733160Y-485220D01*
X-731710Y-484580D01*
X-730260Y-484790D01*
X-728810Y-485640D01*
G01X-743690Y-497280D02*
X-744010Y-494530D01*
X-744500Y-492200D01*
X-745140Y-490080D01*
X-745950Y-487760D01*
X-747230Y-484580D01*
X-740800D01*
G01X-721650Y-384040D02*
X-720690Y-383400D01*
X-719560Y-382980D01*
X-718280D01*
X-716830Y-383620D01*
X-715700Y-384670D01*
X-714900Y-385940D01*
X-714250Y-388060D01*
X-714090Y-389970D01*
X-714420Y-391870D01*
X-714900Y-393140D01*
X-715860Y-394410D01*
X-716990Y-395260D01*
X-718110Y-395680D01*
X-719240D01*
X-720370Y-395260D01*
X-721330Y-394620D01*
X-722140Y-393780D01*
G01X-727530Y-393140D02*
X-728490Y-394620D01*
X-729780Y-395470D01*
X-731230Y-395680D01*
X-732510Y-395470D01*
X-733800Y-394410D01*
X-734600Y-393140D01*
X-734760Y-391870D01*
X-734440Y-390390D01*
X-733320Y-389330D01*
X-732190Y-388910D01*
X-730740D01*
G01X-732190D02*
X-733160Y-388270D01*
X-733960Y-387210D01*
X-734280Y-385940D01*
X-733960Y-384670D01*
X-733160Y-383620D01*
X-731710Y-382980D01*
X-730260Y-383190D01*
X-728810Y-384040D01*
G01X-740480Y-393140D02*
X-741440Y-394620D01*
X-742730Y-395470D01*
X-744180Y-395680D01*
X-745460Y-395470D01*
X-746750Y-394410D01*
X-747550Y-393140D01*
X-747710Y-391870D01*
X-747390Y-390390D01*
X-746270Y-389330D01*
X-745140Y-388910D01*
X-743690D01*
G01X-745140D02*
X-746110Y-388270D01*
X-746910Y-387210D01*
X-747230Y-385940D01*
X-746910Y-384670D01*
X-746110Y-383620D01*
X-744660Y-382980D01*
X-743210Y-383190D01*
X-741760Y-384040D01*
G01X-721650Y-282440D02*
X-720690Y-281800D01*
X-719560Y-281380D01*
X-718280D01*
X-716830Y-282020D01*
X-715700Y-283070D01*
X-714900Y-284340D01*
X-714250Y-286460D01*
X-714090Y-288370D01*
X-714420Y-290270D01*
X-714900Y-291540D01*
X-715860Y-292810D01*
X-716990Y-293660D01*
X-718110Y-294080D01*
X-719240D01*
X-720370Y-293660D01*
X-721330Y-293020D01*
X-722140Y-292180D01*
G01X-728010Y-283500D02*
X-728970Y-282230D01*
X-730100Y-281590D01*
X-731390Y-281380D01*
X-733000Y-281800D01*
X-734120Y-282860D01*
X-734440Y-284130D01*
X-734280Y-285400D01*
X-733640Y-286460D01*
X-730420Y-288580D01*
X-728970Y-290060D01*
X-728010Y-292180D01*
X-727690Y-294080D01*
X-734440D01*
G01X-741280Y-292600D02*
X-742410Y-293660D01*
X-743690Y-294080D01*
X-744980Y-293660D01*
X-746110Y-292390D01*
X-746910Y-290480D01*
X-747230Y-288580D01*
Y-286250D01*
X-746910Y-284340D01*
X-746110Y-282650D01*
X-745140Y-281800D01*
X-744010Y-281380D01*
X-742730Y-281800D01*
X-741760Y-282650D01*
X-741120Y-283920D01*
X-740800Y-285610D01*
X-741120Y-287090D01*
X-741920Y-288580D01*
X-742890Y-289420D01*
X-744010Y-289640D01*
X-745300Y-289210D01*
X-746270Y-288150D01*
X-747230Y-286250D01*
G01X-721650Y-180840D02*
X-720690Y-180200D01*
X-719560Y-179780D01*
X-718280D01*
X-716830Y-180420D01*
X-715700Y-181470D01*
X-714900Y-182740D01*
X-714250Y-184860D01*
X-714090Y-186770D01*
X-714420Y-188670D01*
X-714900Y-189940D01*
X-715860Y-191210D01*
X-716990Y-192060D01*
X-718110Y-192480D01*
X-719240D01*
X-720370Y-192060D01*
X-721330Y-191420D01*
X-722140Y-190580D01*
G01X-728010Y-181900D02*
X-728970Y-180630D01*
X-730100Y-179990D01*
X-731390Y-179780D01*
X-733000Y-180200D01*
X-734120Y-181260D01*
X-734440Y-182530D01*
X-734280Y-183800D01*
X-733640Y-184860D01*
X-730420Y-186980D01*
X-728970Y-188460D01*
X-728010Y-190580D01*
X-727690Y-192480D01*
X-734440D01*
G01X-740480Y-190580D02*
X-741440Y-191630D01*
X-742570Y-192270D01*
X-744010Y-192480D01*
X-745460Y-192060D01*
X-746590Y-191210D01*
X-747390Y-189730D01*
X-747550Y-188040D01*
X-747230Y-186340D01*
X-746430Y-185280D01*
X-745300Y-184440D01*
X-744180Y-184230D01*
X-743050Y-184440D01*
X-741600Y-185280D01*
X-742080Y-179780D01*
X-746430D01*
G01X-721650Y-79240D02*
X-720690Y-78600D01*
X-719560Y-78180D01*
X-718280D01*
X-716830Y-78820D01*
X-715700Y-79870D01*
X-714900Y-81140D01*
X-714250Y-83260D01*
X-714090Y-85170D01*
X-714420Y-87070D01*
X-714900Y-88340D01*
X-715860Y-89610D01*
X-716990Y-90460D01*
X-718110Y-90880D01*
X-719240D01*
X-720370Y-90460D01*
X-721330Y-89820D01*
X-722140Y-88980D01*
G01X-728010Y-80300D02*
X-728970Y-79030D01*
X-730100Y-78390D01*
X-731390Y-78180D01*
X-733000Y-78600D01*
X-734120Y-79660D01*
X-734440Y-80930D01*
X-734280Y-82200D01*
X-733640Y-83260D01*
X-730420Y-85380D01*
X-728970Y-86860D01*
X-728010Y-88980D01*
X-727690Y-90880D01*
X-734440D01*
G01X-744010D02*
Y-78180D01*
X-742080Y-80720D01*
G01Y-90880D02*
X-745940D01*
G01X-721650Y22360D02*
X-720690Y23000D01*
X-719560Y23420D01*
X-718280D01*
X-716830Y22780D01*
X-715700Y21730D01*
X-714900Y20460D01*
X-714250Y18340D01*
X-714090Y16430D01*
X-714420Y14530D01*
X-714900Y13260D01*
X-715860Y11990D01*
X-716990Y11140D01*
X-718110Y10720D01*
X-719240D01*
X-720370Y11140D01*
X-721330Y11780D01*
X-722140Y12620D01*
G01X-731060Y10720D02*
Y23420D01*
X-729130Y20880D01*
G01Y10720D02*
X-732990D01*
G01X-743690D02*
X-744010Y13470D01*
X-744500Y15800D01*
X-745140Y17920D01*
X-745950Y20240D01*
X-747230Y23420D01*
X-740800D01*
G01X-745380Y310210D02*
Y306990D01*
X-741570D01*
X-740300Y307960D01*
X-739450Y309080D01*
X-739030Y310690D01*
X-739450Y312300D01*
X-740300Y313430D01*
X-741570Y314390D01*
X-743050Y315040D01*
X-744740Y315360D01*
X-746230D01*
X-747500Y315040D01*
X-748980Y314390D01*
X-750250Y313430D01*
X-751090Y312460D01*
X-751730Y311180D01*
Y310050D01*
X-751310Y308760D01*
X-750460Y307800D01*
G01X-739030Y301920D02*
X-751730D01*
X-739030Y294530D01*
X-751730D01*
G01X-739030Y288810D02*
X-751730D01*
Y285600D01*
X-751090Y284310D01*
X-750250Y283340D01*
X-748980Y282540D01*
X-747500Y281900D01*
X-745380Y281740D01*
X-743260Y281900D01*
X-741780Y282540D01*
X-740510Y283340D01*
X-739660Y284310D01*
X-739030Y285600D01*
Y288810D01*
G01Y269110D02*
Y275540D01*
X-751730D01*
Y269110D01*
G01X-745590Y271680D02*
Y275540D01*
G01X-690760Y310890D02*
Y307030D01*
G01X-693520Y309130D02*
X-688010D01*
G01X-697110Y299230D02*
X-698380Y298270D01*
X-699020Y297140D01*
X-699230Y295850D01*
X-698810Y294240D01*
X-697750Y293120D01*
X-696480Y292800D01*
X-695210Y292960D01*
X-694150Y293600D01*
X-692030Y296820D01*
X-690550Y298270D01*
X-688430Y299230D01*
X-686530Y299550D01*
Y292800D01*
G01Y281290D02*
X-699230D01*
X-690130Y287250D01*
Y279200D01*
G01X-693300Y268990D02*
X-693940Y268340D01*
X-695000Y267860D01*
X-696480Y267540D01*
X-697750Y267860D01*
X-698590Y268510D01*
X-699230Y269630D01*
Y273970D01*
X-686530D01*
Y268670D01*
X-687380Y267540D01*
X-688650Y266900D01*
X-690130Y266580D01*
X-691610Y266900D01*
X-692880Y267860D01*
X-693300Y268990D01*
Y273970D01*
G01X-686530Y254110D02*
Y260540D01*
X-699230D01*
Y254110D01*
G01X-693090Y256680D02*
Y260540D01*
G01X-708930Y667900D02*
X-707970Y668540D01*
X-706840Y668960D01*
X-705560D01*
X-704110Y668320D01*
X-702980Y667270D01*
X-702180Y666000D01*
X-701530Y663880D01*
X-701370Y661970D01*
X-701700Y660070D01*
X-702180Y658800D01*
X-703140Y657530D01*
X-704270Y656680D01*
X-705390Y656260D01*
X-706520D01*
X-707650Y656680D01*
X-708610Y657320D01*
X-709420Y658160D01*
G01X-718340Y656260D02*
Y668960D01*
X-716410Y666420D01*
G01Y656260D02*
X-720270D01*
G01X-727760Y658800D02*
X-728720Y657320D01*
X-730010Y656470D01*
X-731460Y656260D01*
X-732740Y656470D01*
X-734030Y657530D01*
X-734830Y658800D01*
X-734990Y660070D01*
X-734670Y661550D01*
X-733550Y662610D01*
X-732420Y663030D01*
X-730970D01*
G01X-732420D02*
X-733390Y663670D01*
X-734190Y664730D01*
X-734510Y666000D01*
X-734190Y667270D01*
X-733390Y668320D01*
X-731940Y668960D01*
X-730490Y668750D01*
X-729040Y667900D01*
G01X-708930Y636100D02*
X-707970Y636740D01*
X-706840Y637160D01*
X-705560D01*
X-704110Y636520D01*
X-702980Y635470D01*
X-702180Y634200D01*
X-701530Y632080D01*
X-701370Y630170D01*
X-701700Y628270D01*
X-702180Y627000D01*
X-703140Y625730D01*
X-704270Y624880D01*
X-705390Y624460D01*
X-706520D01*
X-707650Y624880D01*
X-708610Y625520D01*
X-709420Y626360D01*
G01X-718340Y624460D02*
Y637160D01*
X-716410Y634620D01*
G01Y624460D02*
X-720270D01*
G01X-728240Y635040D02*
X-729200Y636310D01*
X-730330Y636950D01*
X-731620Y637160D01*
X-733230Y636740D01*
X-734350Y635680D01*
X-734670Y634410D01*
X-734510Y633140D01*
X-733870Y632080D01*
X-730650Y629960D01*
X-729200Y628480D01*
X-728240Y626360D01*
X-727920Y624460D01*
X-734670D01*
G01X-608550Y-754300D02*
X-612570Y-767000D01*
X-616600Y-754300D01*
G01X-621990Y-767000D02*
Y-754300D01*
X-625200D01*
X-626490Y-754940D01*
X-627460Y-755780D01*
X-628260Y-757050D01*
X-628900Y-758530D01*
X-629060Y-760650D01*
X-628900Y-762770D01*
X-628260Y-764250D01*
X-627460Y-765520D01*
X-626490Y-766370D01*
X-625200Y-767000D01*
X-621990D01*
G01X-634940Y-764460D02*
X-635900Y-765940D01*
X-637190Y-766790D01*
X-638640Y-767000D01*
X-639920Y-766790D01*
X-641210Y-765730D01*
X-642010Y-764460D01*
X-642170Y-763190D01*
X-641850Y-761710D01*
X-640730Y-760650D01*
X-639600Y-760230D01*
X-638150D01*
G01X-639600D02*
X-640570Y-759590D01*
X-641370Y-758530D01*
X-641690Y-757260D01*
X-641370Y-755990D01*
X-640570Y-754940D01*
X-639120Y-754300D01*
X-637670Y-754510D01*
X-636220Y-755360D01*
G01X-648690Y-765520D02*
X-649820Y-766580D01*
X-651100Y-767000D01*
X-652390Y-766580D01*
X-653520Y-765310D01*
X-654320Y-763400D01*
X-654640Y-761500D01*
Y-759170D01*
X-654320Y-757260D01*
X-653520Y-755570D01*
X-652550Y-754720D01*
X-651420Y-754300D01*
X-650140Y-754720D01*
X-649170Y-755570D01*
X-648530Y-756840D01*
X-648210Y-758530D01*
X-648530Y-760010D01*
X-649330Y-761500D01*
X-650300Y-762340D01*
X-651420Y-762560D01*
X-652710Y-762130D01*
X-653680Y-761070D01*
X-654640Y-759170D01*
G01X-621870Y-690940D02*
X-625890Y-678240D01*
X-629920Y-690940D01*
G01X-628470Y-686500D02*
X-623320D01*
G01X-634820Y-678240D02*
X-638840Y-690940D01*
X-642870Y-678240D01*
G01X-649060Y-689460D02*
X-650190Y-690520D01*
X-651470Y-690940D01*
X-652760Y-690520D01*
X-653890Y-689250D01*
X-654690Y-687340D01*
X-655010Y-685440D01*
Y-683110D01*
X-654690Y-681200D01*
X-653890Y-679510D01*
X-652920Y-678660D01*
X-651790Y-678240D01*
X-650510Y-678660D01*
X-649540Y-679510D01*
X-648900Y-680780D01*
X-648580Y-682470D01*
X-648900Y-683950D01*
X-649700Y-685440D01*
X-650670Y-686280D01*
X-651790Y-686500D01*
X-653080Y-686070D01*
X-654050Y-685010D01*
X-655010Y-683110D01*
G01X-606550Y-652300D02*
X-610570Y-665000D01*
X-614600Y-652300D01*
G01X-619990Y-665000D02*
Y-652300D01*
X-623200D01*
X-624490Y-652940D01*
X-625460Y-653780D01*
X-626260Y-655050D01*
X-626900Y-656530D01*
X-627060Y-658650D01*
X-626900Y-660770D01*
X-626260Y-662250D01*
X-625460Y-663520D01*
X-624490Y-664370D01*
X-623200Y-665000D01*
X-619990D01*
G01X-632940Y-662460D02*
X-633900Y-663940D01*
X-635190Y-664790D01*
X-636640Y-665000D01*
X-637920Y-664790D01*
X-639210Y-663730D01*
X-640010Y-662460D01*
X-640170Y-661190D01*
X-639850Y-659710D01*
X-638730Y-658650D01*
X-637600Y-658230D01*
X-636150D01*
G01X-637600D02*
X-638570Y-657590D01*
X-639370Y-656530D01*
X-639690Y-655260D01*
X-639370Y-653990D01*
X-638570Y-652940D01*
X-637120Y-652300D01*
X-635670Y-652510D01*
X-634220Y-653360D01*
G01X-645890Y-663100D02*
X-646850Y-664150D01*
X-647980Y-664790D01*
X-649420Y-665000D01*
X-650870Y-664580D01*
X-652000Y-663730D01*
X-652800Y-662250D01*
X-652960Y-660560D01*
X-652640Y-658860D01*
X-651840Y-657800D01*
X-650710Y-656960D01*
X-649590Y-656750D01*
X-648460Y-656960D01*
X-647010Y-657800D01*
X-647490Y-652300D01*
X-651840D01*
G01X-621870Y-589340D02*
X-625890Y-576640D01*
X-629920Y-589340D01*
G01X-628470Y-584900D02*
X-623320D01*
G01X-634820Y-576640D02*
X-638840Y-589340D01*
X-642870Y-576640D01*
G01X-651790Y-589340D02*
X-652920Y-589130D01*
X-654210Y-588490D01*
X-655010Y-587440D01*
X-655330Y-585950D01*
X-655010Y-584470D01*
X-654050Y-583200D01*
X-652600Y-582570D01*
X-650990D01*
X-650030Y-582140D01*
X-649220Y-581090D01*
X-648900Y-579600D01*
X-649380Y-578120D01*
X-650510Y-577060D01*
X-651790Y-576640D01*
X-653080Y-577060D01*
X-654210Y-578120D01*
X-654690Y-579600D01*
X-654370Y-581090D01*
X-653560Y-582140D01*
X-652600Y-582570D01*
X-650990D01*
X-649540Y-583200D01*
X-648580Y-584470D01*
X-648260Y-585950D01*
X-648580Y-587440D01*
X-649380Y-588490D01*
X-650670Y-589130D01*
X-651790Y-589340D01*
G01X-605550Y-552300D02*
X-609570Y-565000D01*
X-613600Y-552300D01*
G01X-618990Y-565000D02*
Y-552300D01*
X-622200D01*
X-623490Y-552940D01*
X-624460Y-553780D01*
X-625260Y-555050D01*
X-625900Y-556530D01*
X-626060Y-558650D01*
X-625900Y-560770D01*
X-625260Y-562250D01*
X-624460Y-563520D01*
X-623490Y-564370D01*
X-622200Y-565000D01*
X-618990D01*
G01X-631940Y-562460D02*
X-632900Y-563940D01*
X-634190Y-564790D01*
X-635640Y-565000D01*
X-636920Y-564790D01*
X-638210Y-563730D01*
X-639010Y-562460D01*
X-639170Y-561190D01*
X-638850Y-559710D01*
X-637730Y-558650D01*
X-636600Y-558230D01*
X-635150D01*
G01X-636600D02*
X-637570Y-557590D01*
X-638370Y-556530D01*
X-638690Y-555260D01*
X-638370Y-553990D01*
X-637570Y-552940D01*
X-636120Y-552300D01*
X-634670Y-552510D01*
X-633220Y-553360D01*
G01X-648420Y-565000D02*
Y-552300D01*
X-646490Y-554840D01*
G01Y-565000D02*
X-650350D01*
G01X-621870Y-487740D02*
X-625890Y-475040D01*
X-629920Y-487740D01*
G01X-628470Y-483300D02*
X-623320D01*
G01X-634820Y-475040D02*
X-638840Y-487740D01*
X-642870Y-475040D01*
G01X-651470Y-487740D02*
X-651790Y-484990D01*
X-652280Y-482660D01*
X-652920Y-480540D01*
X-653730Y-478220D01*
X-655010Y-475040D01*
X-648580D01*
G01X-606550Y-452300D02*
X-610570Y-465000D01*
X-614600Y-452300D01*
G01X-619990Y-465000D02*
Y-452300D01*
X-623200D01*
X-624490Y-452940D01*
X-625460Y-453780D01*
X-626260Y-455050D01*
X-626900Y-456530D01*
X-627060Y-458650D01*
X-626900Y-460770D01*
X-626260Y-462250D01*
X-625460Y-463520D01*
X-624490Y-464370D01*
X-623200Y-465000D01*
X-619990D01*
G01X-633420Y-454420D02*
X-634380Y-453150D01*
X-635510Y-452510D01*
X-636800Y-452300D01*
X-638410Y-452720D01*
X-639530Y-453780D01*
X-639850Y-455050D01*
X-639690Y-456320D01*
X-639050Y-457380D01*
X-635830Y-459500D01*
X-634380Y-460980D01*
X-633420Y-463100D01*
X-633100Y-465000D01*
X-639850D01*
G01X-649100D02*
X-649420Y-462250D01*
X-649910Y-459920D01*
X-650550Y-457800D01*
X-651360Y-455480D01*
X-652640Y-452300D01*
X-646210D01*
G01X-621870Y-386140D02*
X-625890Y-373440D01*
X-629920Y-386140D01*
G01X-628470Y-381700D02*
X-623320D01*
G01X-634820Y-373440D02*
X-638840Y-386140D01*
X-642870Y-373440D01*
G01X-648740Y-380850D02*
X-649860Y-379370D01*
X-650830Y-378520D01*
X-652120Y-378100D01*
X-653240Y-378520D01*
X-654050Y-379370D01*
X-654690Y-380640D01*
X-654850Y-382120D01*
X-654690Y-383390D01*
X-654050Y-384660D01*
X-653080Y-385720D01*
X-651960Y-386140D01*
X-650670Y-385720D01*
X-649540Y-384450D01*
X-648900Y-382540D01*
X-648740Y-380430D01*
X-649060Y-377670D01*
X-649540Y-376190D01*
X-650350Y-374710D01*
X-651470Y-373650D01*
X-652600Y-373440D01*
X-653730Y-373860D01*
X-654530Y-374920D01*
G01X-607550Y-348300D02*
X-611570Y-361000D01*
X-615600Y-348300D01*
G01X-620990Y-361000D02*
Y-348300D01*
X-624200D01*
X-625490Y-348940D01*
X-626460Y-349780D01*
X-627260Y-351050D01*
X-627900Y-352530D01*
X-628060Y-354650D01*
X-627900Y-356770D01*
X-627260Y-358250D01*
X-626460Y-359520D01*
X-625490Y-360370D01*
X-624200Y-361000D01*
X-620990D01*
G01X-634420Y-350420D02*
X-635380Y-349150D01*
X-636510Y-348510D01*
X-637800Y-348300D01*
X-639410Y-348720D01*
X-640530Y-349780D01*
X-640850Y-351050D01*
X-640690Y-352320D01*
X-640050Y-353380D01*
X-636830Y-355500D01*
X-635380Y-356980D01*
X-634420Y-359100D01*
X-634100Y-361000D01*
X-640850D01*
G01X-646890Y-358460D02*
X-647850Y-359940D01*
X-649140Y-360790D01*
X-650590Y-361000D01*
X-651870Y-360790D01*
X-653160Y-359730D01*
X-653960Y-358460D01*
X-654120Y-357190D01*
X-653800Y-355710D01*
X-652680Y-354650D01*
X-651550Y-354230D01*
X-650100D01*
G01X-651550D02*
X-652520Y-353590D01*
X-653320Y-352530D01*
X-653640Y-351260D01*
X-653320Y-349990D01*
X-652520Y-348940D01*
X-651070Y-348300D01*
X-649620Y-348510D01*
X-648170Y-349360D01*
G01X-620020Y-282000D02*
X-624040Y-269300D01*
X-628070Y-282000D01*
G01X-626620Y-277560D02*
X-621470D01*
G01X-632970Y-269300D02*
X-636990Y-282000D01*
X-641020Y-269300D01*
G01X-646410Y-280100D02*
X-647370Y-281150D01*
X-648500Y-281790D01*
X-649940Y-282000D01*
X-651390Y-281580D01*
X-652520Y-280730D01*
X-653320Y-279250D01*
X-653480Y-277560D01*
X-653160Y-275860D01*
X-652360Y-274800D01*
X-651230Y-273960D01*
X-650110Y-273750D01*
X-648980Y-273960D01*
X-647530Y-274800D01*
X-648010Y-269300D01*
X-652360D01*
G01X-599550Y-247300D02*
X-603570Y-260000D01*
X-607600Y-247300D01*
G01X-612990Y-260000D02*
Y-247300D01*
X-616200D01*
X-617490Y-247940D01*
X-618460Y-248780D01*
X-619260Y-250050D01*
X-619900Y-251530D01*
X-620060Y-253650D01*
X-619900Y-255770D01*
X-619260Y-257250D01*
X-618460Y-258520D01*
X-617490Y-259370D01*
X-616200Y-260000D01*
X-612990D01*
G01X-629470D02*
Y-247300D01*
X-627540Y-249840D01*
G01Y-260000D02*
X-631400D01*
G01X-639690Y-258520D02*
X-640820Y-259580D01*
X-642100Y-260000D01*
X-643390Y-259580D01*
X-644520Y-258310D01*
X-645320Y-256400D01*
X-645640Y-254500D01*
Y-252170D01*
X-645320Y-250260D01*
X-644520Y-248570D01*
X-643550Y-247720D01*
X-642420Y-247300D01*
X-641140Y-247720D01*
X-640170Y-248570D01*
X-639530Y-249840D01*
X-639210Y-251530D01*
X-639530Y-253010D01*
X-640330Y-254500D01*
X-641300Y-255340D01*
X-642420Y-255560D01*
X-643710Y-255130D01*
X-644680Y-254070D01*
X-645640Y-252170D01*
G01X-621870Y-182940D02*
X-625890Y-170240D01*
X-629920Y-182940D01*
G01X-628470Y-178500D02*
X-623320D01*
G01X-634820Y-170240D02*
X-638840Y-182940D01*
X-642870Y-170240D01*
G01X-653730Y-182940D02*
Y-170240D01*
X-647770Y-179340D01*
X-655820D01*
G01X-601550Y-147300D02*
X-605570Y-160000D01*
X-609600Y-147300D01*
G01X-614990Y-160000D02*
Y-147300D01*
X-618200D01*
X-619490Y-147940D01*
X-620460Y-148780D01*
X-621260Y-150050D01*
X-621900Y-151530D01*
X-622060Y-153650D01*
X-621900Y-155770D01*
X-621260Y-157250D01*
X-620460Y-158520D01*
X-619490Y-159370D01*
X-618200Y-160000D01*
X-614990D01*
G01X-631470D02*
Y-147300D01*
X-629540Y-149840D01*
G01Y-160000D02*
X-633400D01*
G01X-640890Y-158100D02*
X-641850Y-159150D01*
X-642980Y-159790D01*
X-644420Y-160000D01*
X-645870Y-159580D01*
X-647000Y-158730D01*
X-647800Y-157250D01*
X-647960Y-155560D01*
X-647640Y-153860D01*
X-646840Y-152800D01*
X-645710Y-151960D01*
X-644590Y-151750D01*
X-643460Y-151960D01*
X-642010Y-152800D01*
X-642490Y-147300D01*
X-646840D01*
G01X-621020Y-79000D02*
X-625040Y-66300D01*
X-629070Y-79000D01*
G01X-627620Y-74560D02*
X-622470D01*
G01X-633970Y-66300D02*
X-637990Y-79000D01*
X-642020Y-66300D01*
G01X-647410Y-76460D02*
X-648370Y-77940D01*
X-649660Y-78790D01*
X-651110Y-79000D01*
X-652390Y-78790D01*
X-653680Y-77730D01*
X-654480Y-76460D01*
X-654640Y-75190D01*
X-654320Y-73710D01*
X-653200Y-72650D01*
X-652070Y-72230D01*
X-650620D01*
G01X-652070D02*
X-653040Y-71590D01*
X-653840Y-70530D01*
X-654160Y-69260D01*
X-653840Y-67990D01*
X-653040Y-66940D01*
X-651590Y-66300D01*
X-650140Y-66510D01*
X-648690Y-67360D01*
G01X-604550Y-43300D02*
X-608570Y-56000D01*
X-612600Y-43300D01*
G01X-617990Y-56000D02*
Y-43300D01*
X-621200D01*
X-622490Y-43940D01*
X-623460Y-44780D01*
X-624260Y-46050D01*
X-624900Y-47530D01*
X-625060Y-49650D01*
X-624900Y-51770D01*
X-624260Y-53250D01*
X-623460Y-54520D01*
X-622490Y-55370D01*
X-621200Y-56000D01*
X-617990D01*
G01X-634470D02*
Y-43300D01*
X-632540Y-45840D01*
G01Y-56000D02*
X-636400D01*
G01X-647420D02*
Y-43300D01*
X-645490Y-45840D01*
G01Y-56000D02*
X-649350D01*
G01X-622020Y21000D02*
X-626040Y33700D01*
X-630070Y21000D01*
G01X-628620Y25440D02*
X-623470D01*
G01X-634970Y33700D02*
X-638990Y21000D01*
X-643020Y33700D01*
G01X-648890Y31580D02*
X-649850Y32850D01*
X-650980Y33490D01*
X-652270Y33700D01*
X-653880Y33280D01*
X-655000Y32220D01*
X-655320Y30950D01*
X-655160Y29680D01*
X-654520Y28620D01*
X-651300Y26500D01*
X-649850Y25020D01*
X-648890Y22900D01*
X-648570Y21000D01*
X-655320D01*
G01X-606010Y799670D02*
Y812370D01*
X-609220D01*
X-610510Y811730D01*
X-611480Y810890D01*
X-612280Y809620D01*
X-612920Y808140D01*
X-613080Y806020D01*
X-612920Y803900D01*
X-612280Y802420D01*
X-611480Y801150D01*
X-610510Y800300D01*
X-609220Y799670D01*
X-606010D01*
G01X-618960D02*
Y812370D01*
X-622170D01*
X-623460Y811730D01*
X-624430Y810890D01*
X-625230Y809620D01*
X-625870Y808140D01*
X-626030Y806020D01*
X-625870Y803900D01*
X-625230Y802420D01*
X-624430Y801150D01*
X-623460Y800300D01*
X-622170Y799670D01*
X-618960D01*
G01X-635440D02*
Y812370D01*
X-633510Y809830D01*
G01Y799670D02*
X-637370D01*
G01X-530760Y-724130D02*
X-533190Y-732000D01*
X-535620Y-724130D01*
G01X-538920Y-732000D02*
Y-724130D01*
X-540870D01*
X-541640Y-724520D01*
X-542230Y-725050D01*
X-542710Y-725840D01*
X-543100Y-726750D01*
X-543200Y-728070D01*
X-543100Y-729380D01*
X-542710Y-730290D01*
X-542230Y-731080D01*
X-541640Y-731610D01*
X-540870Y-732000D01*
X-538920D01*
G01X-546790Y-730430D02*
X-547370Y-731340D01*
X-548150Y-731870D01*
X-549030Y-732000D01*
X-549810Y-731870D01*
X-550580Y-731210D01*
X-551070Y-730430D01*
X-551170Y-729640D01*
X-550970Y-728720D01*
X-550290Y-728070D01*
X-549610Y-727800D01*
X-548740D01*
G01X-549610D02*
X-550200Y-727410D01*
X-550680Y-726750D01*
X-550880Y-725970D01*
X-550680Y-725180D01*
X-550200Y-724520D01*
X-549320Y-724130D01*
X-548440Y-724260D01*
X-547570Y-724790D01*
G01X-556800Y-732000D02*
X-557480Y-731870D01*
X-558260Y-731480D01*
X-558750Y-730820D01*
X-558940Y-729900D01*
X-558750Y-728980D01*
X-558160Y-728200D01*
X-557290Y-727800D01*
X-556310D01*
X-555730Y-727540D01*
X-555240Y-726880D01*
X-555050Y-725970D01*
X-555340Y-725050D01*
X-556020Y-724390D01*
X-556800Y-724130D01*
X-557580Y-724390D01*
X-558260Y-725050D01*
X-558550Y-725970D01*
X-558360Y-726880D01*
X-557870Y-727540D01*
X-557290Y-727800D01*
X-556310D01*
X-555440Y-728200D01*
X-554850Y-728980D01*
X-554660Y-729900D01*
X-554850Y-730820D01*
X-555340Y-731480D01*
X-556120Y-731870D01*
X-556800Y-732000D01*
G01X-529760Y-622130D02*
X-532190Y-630000D01*
X-534620Y-622130D01*
G01X-537920Y-630000D02*
Y-622130D01*
X-539870D01*
X-540640Y-622520D01*
X-541230Y-623050D01*
X-541710Y-623840D01*
X-542100Y-624750D01*
X-542200Y-626070D01*
X-542100Y-627380D01*
X-541710Y-628290D01*
X-541230Y-629080D01*
X-540640Y-629610D01*
X-539870Y-630000D01*
X-537920D01*
G01X-545790Y-628430D02*
X-546370Y-629340D01*
X-547150Y-629870D01*
X-548030Y-630000D01*
X-548810Y-629870D01*
X-549580Y-629210D01*
X-550070Y-628430D01*
X-550170Y-627640D01*
X-549970Y-626720D01*
X-549290Y-626070D01*
X-548610Y-625800D01*
X-547740D01*
G01X-548610D02*
X-549200Y-625410D01*
X-549680Y-624750D01*
X-549880Y-623970D01*
X-549680Y-623180D01*
X-549200Y-622520D01*
X-548320Y-622130D01*
X-547440Y-622260D01*
X-546570Y-622790D01*
G01X-556970Y-630000D02*
Y-622130D01*
X-553370Y-627770D01*
X-558230D01*
G01X-562550Y-679300D02*
X-566570Y-692000D01*
X-570600Y-679300D01*
G01X-575990Y-692000D02*
Y-679300D01*
X-579200D01*
X-580490Y-679940D01*
X-581460Y-680780D01*
X-582260Y-682050D01*
X-582900Y-683530D01*
X-583060Y-685650D01*
X-582900Y-687770D01*
X-582260Y-689250D01*
X-581460Y-690520D01*
X-580490Y-691370D01*
X-579200Y-692000D01*
X-575990D01*
G01X-594410D02*
Y-679300D01*
X-588450Y-688400D01*
X-596500D01*
G01X-605420Y-692000D02*
Y-679300D01*
X-603490Y-681840D01*
G01Y-692000D02*
X-607350D01*
G01X-561550Y-578300D02*
X-565570Y-591000D01*
X-569600Y-578300D01*
G01X-574990Y-591000D02*
Y-578300D01*
X-578200D01*
X-579490Y-578940D01*
X-580460Y-579780D01*
X-581260Y-581050D01*
X-581900Y-582530D01*
X-582060Y-584650D01*
X-581900Y-586770D01*
X-581260Y-588250D01*
X-580460Y-589520D01*
X-579490Y-590370D01*
X-578200Y-591000D01*
X-574990D01*
G01X-587940Y-588460D02*
X-588900Y-589940D01*
X-590190Y-590790D01*
X-591640Y-591000D01*
X-592920Y-590790D01*
X-594210Y-589730D01*
X-595010Y-588460D01*
X-595170Y-587190D01*
X-594850Y-585710D01*
X-593730Y-584650D01*
X-592600Y-584230D01*
X-591150D01*
G01X-592600D02*
X-593570Y-583590D01*
X-594370Y-582530D01*
X-594690Y-581260D01*
X-594370Y-579990D01*
X-593570Y-578940D01*
X-592120Y-578300D01*
X-590670Y-578510D01*
X-589220Y-579360D01*
G01X-604100Y-591000D02*
X-604420Y-588250D01*
X-604910Y-585920D01*
X-605550Y-583800D01*
X-606360Y-581480D01*
X-607640Y-578300D01*
X-601210D01*
G01X-530760Y-521130D02*
X-533190Y-529000D01*
X-535620Y-521130D01*
G01X-538920Y-529000D02*
Y-521130D01*
X-540870D01*
X-541640Y-521520D01*
X-542230Y-522050D01*
X-542710Y-522840D01*
X-543100Y-523750D01*
X-543200Y-525070D01*
X-543100Y-526380D01*
X-542710Y-527290D01*
X-542230Y-528080D01*
X-541640Y-528610D01*
X-540870Y-529000D01*
X-538920D01*
G01X-546790Y-527430D02*
X-547370Y-528340D01*
X-548150Y-528870D01*
X-549030Y-529000D01*
X-549810Y-528870D01*
X-550580Y-528210D01*
X-551070Y-527430D01*
X-551170Y-526640D01*
X-550970Y-525720D01*
X-550290Y-525070D01*
X-549610Y-524800D01*
X-548740D01*
G01X-549610D02*
X-550200Y-524410D01*
X-550680Y-523750D01*
X-550880Y-522970D01*
X-550680Y-522180D01*
X-550200Y-521520D01*
X-549320Y-521130D01*
X-548440Y-521260D01*
X-547570Y-521790D01*
G01X-556800Y-521130D02*
X-556020Y-521390D01*
X-555440Y-522050D01*
X-555050Y-522840D01*
X-554760Y-523880D01*
X-554660Y-525070D01*
X-554760Y-526250D01*
X-555050Y-527290D01*
X-555440Y-528080D01*
X-556020Y-528740D01*
X-556800Y-529000D01*
X-557580Y-528740D01*
X-558160Y-528080D01*
X-558550Y-527290D01*
X-558840Y-526250D01*
X-558940Y-525070D01*
X-558840Y-523880D01*
X-558550Y-522840D01*
X-558160Y-522050D01*
X-557580Y-521390D01*
X-556800Y-521130D01*
G01X-562550Y-478300D02*
X-566570Y-491000D01*
X-570600Y-478300D01*
G01X-575990Y-491000D02*
Y-478300D01*
X-579200D01*
X-580490Y-478940D01*
X-581460Y-479780D01*
X-582260Y-481050D01*
X-582900Y-482530D01*
X-583060Y-484650D01*
X-582900Y-486770D01*
X-582260Y-488250D01*
X-581460Y-489520D01*
X-580490Y-490370D01*
X-579200Y-491000D01*
X-575990D01*
G01X-588940Y-488460D02*
X-589900Y-489940D01*
X-591190Y-490790D01*
X-592640Y-491000D01*
X-593920Y-490790D01*
X-595210Y-489730D01*
X-596010Y-488460D01*
X-596170Y-487190D01*
X-595850Y-485710D01*
X-594730Y-484650D01*
X-593600Y-484230D01*
X-592150D01*
G01X-593600D02*
X-594570Y-483590D01*
X-595370Y-482530D01*
X-595690Y-481260D01*
X-595370Y-479990D01*
X-594570Y-478940D01*
X-593120Y-478300D01*
X-591670Y-478510D01*
X-590220Y-479360D01*
G01X-601890Y-488460D02*
X-602850Y-489940D01*
X-604140Y-490790D01*
X-605590Y-491000D01*
X-606870Y-490790D01*
X-608160Y-489730D01*
X-608960Y-488460D01*
X-609120Y-487190D01*
X-608800Y-485710D01*
X-607680Y-484650D01*
X-606550Y-484230D01*
X-605100D01*
G01X-606550D02*
X-607520Y-483590D01*
X-608320Y-482530D01*
X-608640Y-481260D01*
X-608320Y-479990D01*
X-607520Y-478940D01*
X-606070Y-478300D01*
X-604620Y-478510D01*
X-603170Y-479360D01*
G01X-529760Y-419130D02*
X-532190Y-427000D01*
X-534620Y-419130D01*
G01X-537920Y-427000D02*
Y-419130D01*
X-539870D01*
X-540640Y-419520D01*
X-541230Y-420050D01*
X-541710Y-420840D01*
X-542100Y-421750D01*
X-542200Y-423070D01*
X-542100Y-424380D01*
X-541710Y-425290D01*
X-541230Y-426080D01*
X-540640Y-426610D01*
X-539870Y-427000D01*
X-537920D01*
G01X-546080Y-420440D02*
X-546660Y-419650D01*
X-547350Y-419260D01*
X-548120Y-419130D01*
X-549100Y-419390D01*
X-549780Y-420050D01*
X-549970Y-420840D01*
X-549880Y-421620D01*
X-549490Y-422280D01*
X-547540Y-423590D01*
X-546660Y-424510D01*
X-546080Y-425820D01*
X-545890Y-427000D01*
X-549970D01*
G01X-553950Y-423720D02*
X-554630Y-422800D01*
X-555220Y-422280D01*
X-555990Y-422020D01*
X-556680Y-422280D01*
X-557160Y-422800D01*
X-557550Y-423590D01*
X-557650Y-424510D01*
X-557550Y-425290D01*
X-557160Y-426080D01*
X-556580Y-426740D01*
X-555900Y-427000D01*
X-555120Y-426740D01*
X-554440Y-425950D01*
X-554050Y-424770D01*
X-553950Y-423460D01*
X-554150Y-421750D01*
X-554440Y-420840D01*
X-554920Y-419920D01*
X-555610Y-419260D01*
X-556290Y-419130D01*
X-556970Y-419390D01*
X-557450Y-420050D01*
G01X-526760Y-318130D02*
X-529190Y-326000D01*
X-531620Y-318130D01*
G01X-534920Y-326000D02*
Y-318130D01*
X-536870D01*
X-537640Y-318520D01*
X-538230Y-319050D01*
X-538710Y-319840D01*
X-539100Y-320750D01*
X-539200Y-322070D01*
X-539100Y-323380D01*
X-538710Y-324290D01*
X-538230Y-325080D01*
X-537640Y-325610D01*
X-536870Y-326000D01*
X-534920D01*
G01X-543080Y-319440D02*
X-543660Y-318650D01*
X-544350Y-318260D01*
X-545120Y-318130D01*
X-546100Y-318390D01*
X-546780Y-319050D01*
X-546970Y-319840D01*
X-546880Y-320620D01*
X-546490Y-321280D01*
X-544540Y-322590D01*
X-543660Y-323510D01*
X-543080Y-324820D01*
X-542890Y-326000D01*
X-546970D01*
G01X-550950Y-319440D02*
X-551530Y-318650D01*
X-552220Y-318260D01*
X-552990Y-318130D01*
X-553970Y-318390D01*
X-554650Y-319050D01*
X-554840Y-319840D01*
X-554750Y-320620D01*
X-554360Y-321280D01*
X-552410Y-322590D01*
X-551530Y-323510D01*
X-550950Y-324820D01*
X-550760Y-326000D01*
X-554840D01*
G01X-562550Y-375300D02*
X-566570Y-388000D01*
X-570600Y-375300D01*
G01X-575990Y-388000D02*
Y-375300D01*
X-579200D01*
X-580490Y-375940D01*
X-581460Y-376780D01*
X-582260Y-378050D01*
X-582900Y-379530D01*
X-583060Y-381650D01*
X-582900Y-383770D01*
X-582260Y-385250D01*
X-581460Y-386520D01*
X-580490Y-387370D01*
X-579200Y-388000D01*
X-575990D01*
G01X-589420Y-377420D02*
X-590380Y-376150D01*
X-591510Y-375510D01*
X-592800Y-375300D01*
X-594410Y-375720D01*
X-595530Y-376780D01*
X-595850Y-378050D01*
X-595690Y-379320D01*
X-595050Y-380380D01*
X-591830Y-382500D01*
X-590380Y-383980D01*
X-589420Y-386100D01*
X-589100Y-388000D01*
X-595850D01*
G01X-602690Y-386520D02*
X-603820Y-387580D01*
X-605100Y-388000D01*
X-606390Y-387580D01*
X-607520Y-386310D01*
X-608320Y-384400D01*
X-608640Y-382500D01*
Y-380170D01*
X-608320Y-378260D01*
X-607520Y-376570D01*
X-606550Y-375720D01*
X-605420Y-375300D01*
X-604140Y-375720D01*
X-603170Y-376570D01*
X-602530Y-377840D01*
X-602210Y-379530D01*
X-602530Y-381010D01*
X-603330Y-382500D01*
X-604300Y-383340D01*
X-605420Y-383560D01*
X-606710Y-383130D01*
X-607680Y-382070D01*
X-608640Y-380170D01*
G01X-562550Y-273300D02*
X-566570Y-286000D01*
X-570600Y-273300D01*
G01X-575990Y-286000D02*
Y-273300D01*
X-579200D01*
X-580490Y-273940D01*
X-581460Y-274780D01*
X-582260Y-276050D01*
X-582900Y-277530D01*
X-583060Y-279650D01*
X-582900Y-281770D01*
X-582260Y-283250D01*
X-581460Y-284520D01*
X-580490Y-285370D01*
X-579200Y-286000D01*
X-575990D01*
G01X-589420Y-275420D02*
X-590380Y-274150D01*
X-591510Y-273510D01*
X-592800Y-273300D01*
X-594410Y-273720D01*
X-595530Y-274780D01*
X-595850Y-276050D01*
X-595690Y-277320D01*
X-595050Y-278380D01*
X-591830Y-280500D01*
X-590380Y-281980D01*
X-589420Y-284100D01*
X-589100Y-286000D01*
X-595850D01*
G01X-601890Y-284100D02*
X-602850Y-285150D01*
X-603980Y-285790D01*
X-605420Y-286000D01*
X-606870Y-285580D01*
X-608000Y-284730D01*
X-608800Y-283250D01*
X-608960Y-281560D01*
X-608640Y-279860D01*
X-607840Y-278800D01*
X-606710Y-277960D01*
X-605590Y-277750D01*
X-604460Y-277960D01*
X-603010Y-278800D01*
X-603490Y-273300D01*
X-607840D01*
G01X-528760Y-216130D02*
X-531190Y-224000D01*
X-533620Y-216130D01*
G01X-536920Y-224000D02*
Y-216130D01*
X-538870D01*
X-539640Y-216520D01*
X-540230Y-217050D01*
X-540710Y-217840D01*
X-541100Y-218750D01*
X-541200Y-220070D01*
X-541100Y-221380D01*
X-540710Y-222290D01*
X-540230Y-223080D01*
X-539640Y-223610D01*
X-538870Y-224000D01*
X-536920D01*
G01X-546930D02*
Y-216130D01*
X-545760Y-217700D01*
G01Y-224000D02*
X-548100D01*
G01X-554800D02*
X-555480Y-223870D01*
X-556260Y-223480D01*
X-556750Y-222820D01*
X-556940Y-221900D01*
X-556750Y-220980D01*
X-556160Y-220200D01*
X-555290Y-219800D01*
X-554310D01*
X-553730Y-219540D01*
X-553240Y-218880D01*
X-553050Y-217970D01*
X-553340Y-217050D01*
X-554020Y-216390D01*
X-554800Y-216130D01*
X-555580Y-216390D01*
X-556260Y-217050D01*
X-556550Y-217970D01*
X-556360Y-218880D01*
X-555870Y-219540D01*
X-555290Y-219800D01*
X-554310D01*
X-553440Y-220200D01*
X-552850Y-220980D01*
X-552660Y-221900D01*
X-552850Y-222820D01*
X-553340Y-223480D01*
X-554120Y-223870D01*
X-554800Y-224000D01*
G01X-562550Y-171300D02*
X-566570Y-184000D01*
X-570600Y-171300D01*
G01X-575990Y-184000D02*
Y-171300D01*
X-579200D01*
X-580490Y-171940D01*
X-581460Y-172780D01*
X-582260Y-174050D01*
X-582900Y-175530D01*
X-583060Y-177650D01*
X-582900Y-179770D01*
X-582260Y-181250D01*
X-581460Y-182520D01*
X-580490Y-183370D01*
X-579200Y-184000D01*
X-575990D01*
G01X-589420Y-173420D02*
X-590380Y-172150D01*
X-591510Y-171510D01*
X-592800Y-171300D01*
X-594410Y-171720D01*
X-595530Y-172780D01*
X-595850Y-174050D01*
X-595690Y-175320D01*
X-595050Y-176380D01*
X-591830Y-178500D01*
X-590380Y-179980D01*
X-589420Y-182100D01*
X-589100Y-184000D01*
X-595850D01*
G01X-605420D02*
Y-171300D01*
X-603490Y-173840D01*
G01Y-184000D02*
X-607350D01*
G01X-529760Y-115130D02*
X-532190Y-123000D01*
X-534620Y-115130D01*
G01X-537920Y-123000D02*
Y-115130D01*
X-539870D01*
X-540640Y-115520D01*
X-541230Y-116050D01*
X-541710Y-116840D01*
X-542100Y-117750D01*
X-542200Y-119070D01*
X-542100Y-120380D01*
X-541710Y-121290D01*
X-541230Y-122080D01*
X-540640Y-122610D01*
X-539870Y-123000D01*
X-537920D01*
G01X-547930D02*
Y-115130D01*
X-546760Y-116700D01*
G01Y-123000D02*
X-549100D01*
G01X-556970D02*
Y-115130D01*
X-553370Y-120770D01*
X-558230D01*
G01X-531760Y-13130D02*
X-534190Y-21000D01*
X-536620Y-13130D01*
G01X-539920Y-21000D02*
Y-13130D01*
X-541870D01*
X-542640Y-13520D01*
X-543230Y-14050D01*
X-543710Y-14840D01*
X-544100Y-15750D01*
X-544200Y-17070D01*
X-544100Y-18380D01*
X-543710Y-19290D01*
X-543230Y-20080D01*
X-542640Y-20610D01*
X-541870Y-21000D01*
X-539920D01*
G01X-549930D02*
Y-13130D01*
X-548760Y-14700D01*
G01Y-21000D02*
X-551100D01*
G01X-557800Y-13130D02*
X-557020Y-13390D01*
X-556440Y-14050D01*
X-556050Y-14840D01*
X-555760Y-15880D01*
X-555660Y-17070D01*
X-555760Y-18250D01*
X-556050Y-19290D01*
X-556440Y-20080D01*
X-557020Y-20740D01*
X-557800Y-21000D01*
X-558580Y-20740D01*
X-559160Y-20080D01*
X-559550Y-19290D01*
X-559840Y-18250D01*
X-559940Y-17070D01*
X-559840Y-15880D01*
X-559550Y-14840D01*
X-559160Y-14050D01*
X-558580Y-13390D01*
X-557800Y-13130D01*
G01X-562550Y-69300D02*
X-566570Y-82000D01*
X-570600Y-69300D01*
G01X-575990Y-82000D02*
Y-69300D01*
X-579200D01*
X-580490Y-69940D01*
X-581460Y-70780D01*
X-582260Y-72050D01*
X-582900Y-73530D01*
X-583060Y-75650D01*
X-582900Y-77770D01*
X-582260Y-79250D01*
X-581460Y-80520D01*
X-580490Y-81370D01*
X-579200Y-82000D01*
X-575990D01*
G01X-592470D02*
Y-69300D01*
X-590540Y-71840D01*
G01Y-82000D02*
X-594400D01*
G01X-605100D02*
X-605420Y-79250D01*
X-605910Y-76920D01*
X-606550Y-74800D01*
X-607360Y-72480D01*
X-608640Y-69300D01*
X-602210D01*
G01X-563550Y31700D02*
X-567570Y19000D01*
X-571600Y31700D01*
G01X-576990Y19000D02*
Y31700D01*
X-580200D01*
X-581490Y31060D01*
X-582460Y30220D01*
X-583260Y28950D01*
X-583900Y27470D01*
X-584060Y25350D01*
X-583900Y23230D01*
X-583260Y21750D01*
X-582460Y20480D01*
X-581490Y19630D01*
X-580200Y19000D01*
X-576990D01*
G01X-593470D02*
Y31700D01*
X-591540Y29160D01*
G01Y19000D02*
X-595400D01*
G01X-602890Y21540D02*
X-603850Y20060D01*
X-605140Y19210D01*
X-606590Y19000D01*
X-607870Y19210D01*
X-609160Y20270D01*
X-609960Y21540D01*
X-610120Y22810D01*
X-609800Y24290D01*
X-608680Y25350D01*
X-607550Y25770D01*
X-606100D01*
G01X-607550D02*
X-608520Y26410D01*
X-609320Y27470D01*
X-609640Y28740D01*
X-609320Y30010D01*
X-608520Y31060D01*
X-607070Y31700D01*
X-605620Y31490D01*
X-604170Y30640D01*
G01X-420550Y-716300D02*
X-424570Y-729000D01*
X-428600Y-716300D01*
G01X-433990Y-729000D02*
Y-716300D01*
X-437200D01*
X-438490Y-716940D01*
X-439460Y-717780D01*
X-440260Y-719050D01*
X-440900Y-720530D01*
X-441060Y-722650D01*
X-440900Y-724770D01*
X-440260Y-726250D01*
X-439460Y-727520D01*
X-438490Y-728370D01*
X-437200Y-729000D01*
X-433990D01*
G01X-452410D02*
Y-716300D01*
X-446450Y-725400D01*
X-454500D01*
G01X-463420Y-716300D02*
X-462140Y-716720D01*
X-461170Y-717780D01*
X-460530Y-719050D01*
X-460050Y-720750D01*
X-459890Y-722650D01*
X-460050Y-724560D01*
X-460530Y-726250D01*
X-461170Y-727520D01*
X-462140Y-728580D01*
X-463420Y-729000D01*
X-464710Y-728580D01*
X-465680Y-727520D01*
X-466320Y-726250D01*
X-466800Y-724560D01*
X-466960Y-722650D01*
X-466800Y-720750D01*
X-466320Y-719050D01*
X-465680Y-717780D01*
X-464710Y-716720D01*
X-463420Y-716300D01*
G01X-421550Y-610300D02*
X-425570Y-623000D01*
X-429600Y-610300D01*
G01X-434990Y-623000D02*
Y-610300D01*
X-438200D01*
X-439490Y-610940D01*
X-440460Y-611780D01*
X-441260Y-613050D01*
X-441900Y-614530D01*
X-442060Y-616650D01*
X-441900Y-618770D01*
X-441260Y-620250D01*
X-440460Y-621520D01*
X-439490Y-622370D01*
X-438200Y-623000D01*
X-434990D01*
G01X-447940Y-620460D02*
X-448900Y-621940D01*
X-450190Y-622790D01*
X-451640Y-623000D01*
X-452920Y-622790D01*
X-454210Y-621730D01*
X-455010Y-620460D01*
X-455170Y-619190D01*
X-454850Y-617710D01*
X-453730Y-616650D01*
X-452600Y-616230D01*
X-451150D01*
G01X-452600D02*
X-453570Y-615590D01*
X-454370Y-614530D01*
X-454690Y-613260D01*
X-454370Y-611990D01*
X-453570Y-610940D01*
X-452120Y-610300D01*
X-450670Y-610510D01*
X-449220Y-611360D01*
G01X-461370Y-617710D02*
X-462490Y-616230D01*
X-463460Y-615380D01*
X-464750Y-614960D01*
X-465870Y-615380D01*
X-466680Y-616230D01*
X-467320Y-617500D01*
X-467480Y-618980D01*
X-467320Y-620250D01*
X-466680Y-621520D01*
X-465710Y-622580D01*
X-464590Y-623000D01*
X-463300Y-622580D01*
X-462170Y-621310D01*
X-461530Y-619400D01*
X-461370Y-617290D01*
X-461690Y-614530D01*
X-462170Y-613050D01*
X-462980Y-611570D01*
X-464100Y-610510D01*
X-465230Y-610300D01*
X-466360Y-610720D01*
X-467160Y-611780D01*
G01X-421550Y-511300D02*
X-425570Y-524000D01*
X-429600Y-511300D01*
G01X-434990Y-524000D02*
Y-511300D01*
X-438200D01*
X-439490Y-511940D01*
X-440460Y-512780D01*
X-441260Y-514050D01*
X-441900Y-515530D01*
X-442060Y-517650D01*
X-441900Y-519770D01*
X-441260Y-521250D01*
X-440460Y-522520D01*
X-439490Y-523370D01*
X-438200Y-524000D01*
X-434990D01*
G01X-447940Y-521460D02*
X-448900Y-522940D01*
X-450190Y-523790D01*
X-451640Y-524000D01*
X-452920Y-523790D01*
X-454210Y-522730D01*
X-455010Y-521460D01*
X-455170Y-520190D01*
X-454850Y-518710D01*
X-453730Y-517650D01*
X-452600Y-517230D01*
X-451150D01*
G01X-452600D02*
X-453570Y-516590D01*
X-454370Y-515530D01*
X-454690Y-514260D01*
X-454370Y-512990D01*
X-453570Y-511940D01*
X-452120Y-511300D01*
X-450670Y-511510D01*
X-449220Y-512360D01*
G01X-461370Y-513420D02*
X-462330Y-512150D01*
X-463460Y-511510D01*
X-464750Y-511300D01*
X-466360Y-511720D01*
X-467480Y-512780D01*
X-467800Y-514050D01*
X-467640Y-515320D01*
X-467000Y-516380D01*
X-463780Y-518500D01*
X-462330Y-519980D01*
X-461370Y-522100D01*
X-461050Y-524000D01*
X-467800D01*
G01X-420550Y-411300D02*
X-424570Y-424000D01*
X-428600Y-411300D01*
G01X-433990Y-424000D02*
Y-411300D01*
X-437200D01*
X-438490Y-411940D01*
X-439460Y-412780D01*
X-440260Y-414050D01*
X-440900Y-415530D01*
X-441060Y-417650D01*
X-440900Y-419770D01*
X-440260Y-421250D01*
X-439460Y-422520D01*
X-438490Y-423370D01*
X-437200Y-424000D01*
X-433990D01*
G01X-447420Y-413420D02*
X-448380Y-412150D01*
X-449510Y-411510D01*
X-450800Y-411300D01*
X-452410Y-411720D01*
X-453530Y-412780D01*
X-453850Y-414050D01*
X-453690Y-415320D01*
X-453050Y-416380D01*
X-449830Y-418500D01*
X-448380Y-419980D01*
X-447420Y-422100D01*
X-447100Y-424000D01*
X-453850D01*
G01X-463420D02*
X-464550Y-423790D01*
X-465840Y-423150D01*
X-466640Y-422100D01*
X-466960Y-420610D01*
X-466640Y-419130D01*
X-465680Y-417860D01*
X-464230Y-417230D01*
X-462620D01*
X-461660Y-416800D01*
X-460850Y-415750D01*
X-460530Y-414260D01*
X-461010Y-412780D01*
X-462140Y-411720D01*
X-463420Y-411300D01*
X-464710Y-411720D01*
X-465840Y-412780D01*
X-466320Y-414260D01*
X-466000Y-415750D01*
X-465190Y-416800D01*
X-464230Y-417230D01*
X-462620D01*
X-461170Y-417860D01*
X-460210Y-419130D01*
X-459890Y-420610D01*
X-460210Y-422100D01*
X-461010Y-423150D01*
X-462300Y-423790D01*
X-463420Y-424000D01*
G01X-421550Y-308300D02*
X-425570Y-321000D01*
X-429600Y-308300D01*
G01X-434990Y-321000D02*
Y-308300D01*
X-438200D01*
X-439490Y-308940D01*
X-440460Y-309780D01*
X-441260Y-311050D01*
X-441900Y-312530D01*
X-442060Y-314650D01*
X-441900Y-316770D01*
X-441260Y-318250D01*
X-440460Y-319520D01*
X-439490Y-320370D01*
X-438200Y-321000D01*
X-434990D01*
G01X-448420Y-310420D02*
X-449380Y-309150D01*
X-450510Y-308510D01*
X-451800Y-308300D01*
X-453410Y-308720D01*
X-454530Y-309780D01*
X-454850Y-311050D01*
X-454690Y-312320D01*
X-454050Y-313380D01*
X-450830Y-315500D01*
X-449380Y-316980D01*
X-448420Y-319100D01*
X-448100Y-321000D01*
X-454850D01*
G01X-466360D02*
Y-308300D01*
X-460400Y-317400D01*
X-468450D01*
G01X-420550Y-206300D02*
X-424570Y-219000D01*
X-428600Y-206300D01*
G01X-433990Y-219000D02*
Y-206300D01*
X-437200D01*
X-438490Y-206940D01*
X-439460Y-207780D01*
X-440260Y-209050D01*
X-440900Y-210530D01*
X-441060Y-212650D01*
X-440900Y-214770D01*
X-440260Y-216250D01*
X-439460Y-217520D01*
X-438490Y-218370D01*
X-437200Y-219000D01*
X-433990D01*
G01X-447420Y-208420D02*
X-448380Y-207150D01*
X-449510Y-206510D01*
X-450800Y-206300D01*
X-452410Y-206720D01*
X-453530Y-207780D01*
X-453850Y-209050D01*
X-453690Y-210320D01*
X-453050Y-211380D01*
X-449830Y-213500D01*
X-448380Y-214980D01*
X-447420Y-217100D01*
X-447100Y-219000D01*
X-453850D01*
G01X-463420Y-206300D02*
X-462140Y-206720D01*
X-461170Y-207780D01*
X-460530Y-209050D01*
X-460050Y-210750D01*
X-459890Y-212650D01*
X-460050Y-214560D01*
X-460530Y-216250D01*
X-461170Y-217520D01*
X-462140Y-218580D01*
X-463420Y-219000D01*
X-464710Y-218580D01*
X-465680Y-217520D01*
X-466320Y-216250D01*
X-466800Y-214560D01*
X-466960Y-212650D01*
X-466800Y-210750D01*
X-466320Y-209050D01*
X-465680Y-207780D01*
X-464710Y-206720D01*
X-463420Y-206300D01*
G01X-420550Y-104300D02*
X-424570Y-117000D01*
X-428600Y-104300D01*
G01X-433990Y-117000D02*
Y-104300D01*
X-437200D01*
X-438490Y-104940D01*
X-439460Y-105780D01*
X-440260Y-107050D01*
X-440900Y-108530D01*
X-441060Y-110650D01*
X-440900Y-112770D01*
X-440260Y-114250D01*
X-439460Y-115520D01*
X-438490Y-116370D01*
X-437200Y-117000D01*
X-433990D01*
G01X-450470D02*
Y-104300D01*
X-448540Y-106840D01*
G01Y-117000D02*
X-452400D01*
G01X-460370Y-111710D02*
X-461490Y-110230D01*
X-462460Y-109380D01*
X-463750Y-108960D01*
X-464870Y-109380D01*
X-465680Y-110230D01*
X-466320Y-111500D01*
X-466480Y-112980D01*
X-466320Y-114250D01*
X-465680Y-115520D01*
X-464710Y-116580D01*
X-463590Y-117000D01*
X-462300Y-116580D01*
X-461170Y-115310D01*
X-460530Y-113400D01*
X-460370Y-111290D01*
X-460690Y-108530D01*
X-461170Y-107050D01*
X-461980Y-105570D01*
X-463100Y-104510D01*
X-464230Y-104300D01*
X-465360Y-104720D01*
X-466160Y-105780D01*
G01X-420550Y-4300D02*
X-424570Y-17000D01*
X-428600Y-4300D01*
G01X-433990Y-17000D02*
Y-4300D01*
X-437200D01*
X-438490Y-4940D01*
X-439460Y-5780D01*
X-440260Y-7050D01*
X-440900Y-8530D01*
X-441060Y-10650D01*
X-440900Y-12770D01*
X-440260Y-14250D01*
X-439460Y-15520D01*
X-438490Y-16370D01*
X-437200Y-17000D01*
X-433990D01*
G01X-450470D02*
Y-4300D01*
X-448540Y-6840D01*
G01Y-17000D02*
X-452400D01*
G01X-460370Y-6420D02*
X-461330Y-5150D01*
X-462460Y-4510D01*
X-463750Y-4300D01*
X-465360Y-4720D01*
X-466480Y-5780D01*
X-466800Y-7050D01*
X-466640Y-8320D01*
X-466000Y-9380D01*
X-462780Y-11500D01*
X-461330Y-12980D01*
X-460370Y-15100D01*
X-460050Y-17000D01*
X-466800D01*
G01X-466230Y666300D02*
Y679000D01*
X-470250D01*
X-471540Y678360D01*
X-472340Y677520D01*
X-472660Y675820D01*
X-472340Y674130D01*
X-471380Y673070D01*
X-470250Y672440D01*
X-466230D01*
G01X-470250D02*
X-472660Y666300D01*
G01X-482390D02*
Y679000D01*
X-480460Y676460D01*
G01Y666300D02*
X-484320D01*
G01X-495340Y679000D02*
X-494060Y678580D01*
X-493090Y677520D01*
X-492450Y676250D01*
X-491970Y674550D01*
X-491810Y672650D01*
X-491970Y670740D01*
X-492450Y669050D01*
X-493090Y667780D01*
X-494060Y666720D01*
X-495340Y666300D01*
X-496630Y666720D01*
X-497600Y667780D01*
X-498240Y669050D01*
X-498720Y670740D01*
X-498880Y672650D01*
X-498720Y674550D01*
X-498240Y676250D01*
X-497600Y677520D01*
X-496630Y678580D01*
X-495340Y679000D01*
G01X-508290Y666300D02*
X-509420Y666510D01*
X-510710Y667150D01*
X-511510Y668200D01*
X-511830Y669690D01*
X-511510Y671170D01*
X-510550Y672440D01*
X-509100Y673070D01*
X-507490D01*
X-506530Y673500D01*
X-505720Y674550D01*
X-505400Y676040D01*
X-505880Y677520D01*
X-507010Y678580D01*
X-508290Y679000D01*
X-509580Y678580D01*
X-510710Y677520D01*
X-511190Y676040D01*
X-510870Y674550D01*
X-510060Y673500D01*
X-509100Y673070D01*
X-507490D01*
X-506040Y672440D01*
X-505080Y671170D01*
X-504760Y669690D01*
X-505080Y668200D01*
X-505880Y667150D01*
X-507170Y666510D01*
X-508290Y666300D01*
G01X-466230Y638300D02*
Y651000D01*
X-470250D01*
X-471540Y650360D01*
X-472340Y649520D01*
X-472660Y647820D01*
X-472340Y646130D01*
X-471380Y645070D01*
X-470250Y644440D01*
X-466230D01*
G01X-470250D02*
X-472660Y638300D01*
G01X-482390D02*
Y651000D01*
X-480460Y648460D01*
G01Y638300D02*
X-484320D01*
G01X-495340Y651000D02*
X-494060Y650580D01*
X-493090Y649520D01*
X-492450Y648250D01*
X-491970Y646550D01*
X-491810Y644650D01*
X-491970Y642740D01*
X-492450Y641050D01*
X-493090Y639780D01*
X-494060Y638720D01*
X-495340Y638300D01*
X-496630Y638720D01*
X-497600Y639780D01*
X-498240Y641050D01*
X-498720Y642740D01*
X-498880Y644650D01*
X-498720Y646550D01*
X-498240Y648250D01*
X-497600Y649520D01*
X-496630Y650580D01*
X-495340Y651000D01*
G01X-505560Y639780D02*
X-506690Y638720D01*
X-507970Y638300D01*
X-509260Y638720D01*
X-510390Y639990D01*
X-511190Y641900D01*
X-511510Y643800D01*
Y646130D01*
X-511190Y648040D01*
X-510390Y649730D01*
X-509420Y650580D01*
X-508290Y651000D01*
X-507010Y650580D01*
X-506040Y649730D01*
X-505400Y648460D01*
X-505080Y646770D01*
X-505400Y645290D01*
X-506200Y643800D01*
X-507170Y642960D01*
X-508290Y642740D01*
X-509580Y643170D01*
X-510550Y644230D01*
X-511510Y646130D01*
G01X-440230Y722300D02*
Y735000D01*
X-444250D01*
X-445540Y734360D01*
X-446340Y733520D01*
X-446660Y731820D01*
X-446340Y730130D01*
X-445380Y729070D01*
X-444250Y728440D01*
X-440230D01*
G01X-444250D02*
X-446660Y722300D01*
G01X-456390D02*
Y735000D01*
X-454460Y732460D01*
G01Y722300D02*
X-458320D01*
G01X-469340Y735000D02*
X-468060Y734580D01*
X-467090Y733520D01*
X-466450Y732250D01*
X-465970Y730550D01*
X-465810Y728650D01*
X-465970Y726740D01*
X-466450Y725050D01*
X-467090Y723780D01*
X-468060Y722720D01*
X-469340Y722300D01*
X-470630Y722720D01*
X-471600Y723780D01*
X-472240Y725050D01*
X-472720Y726740D01*
X-472880Y728650D01*
X-472720Y730550D01*
X-472240Y732250D01*
X-471600Y733520D01*
X-470630Y734580D01*
X-469340Y735000D01*
G01X-479240Y727590D02*
X-480360Y729070D01*
X-481330Y729920D01*
X-482620Y730340D01*
X-483740Y729920D01*
X-484550Y729070D01*
X-485190Y727800D01*
X-485350Y726320D01*
X-485190Y725050D01*
X-484550Y723780D01*
X-483580Y722720D01*
X-482460Y722300D01*
X-481170Y722720D01*
X-480040Y723990D01*
X-479400Y725900D01*
X-479240Y728010D01*
X-479560Y730770D01*
X-480040Y732250D01*
X-480850Y733730D01*
X-481970Y734790D01*
X-483100Y735000D01*
X-484230Y734580D01*
X-485030Y733520D01*
G01X-440230Y694300D02*
Y707000D01*
X-444250D01*
X-445540Y706360D01*
X-446340Y705520D01*
X-446660Y703820D01*
X-446340Y702130D01*
X-445380Y701070D01*
X-444250Y700440D01*
X-440230D01*
G01X-444250D02*
X-446660Y694300D01*
G01X-456390D02*
Y707000D01*
X-454460Y704460D01*
G01Y694300D02*
X-458320D01*
G01X-469340Y707000D02*
X-468060Y706580D01*
X-467090Y705520D01*
X-466450Y704250D01*
X-465970Y702550D01*
X-465810Y700650D01*
X-465970Y698740D01*
X-466450Y697050D01*
X-467090Y695780D01*
X-468060Y694720D01*
X-469340Y694300D01*
X-470630Y694720D01*
X-471600Y695780D01*
X-472240Y697050D01*
X-472720Y698740D01*
X-472880Y700650D01*
X-472720Y702550D01*
X-472240Y704250D01*
X-471600Y705520D01*
X-470630Y706580D01*
X-469340Y707000D01*
G01X-481970Y694300D02*
X-482290Y697050D01*
X-482780Y699380D01*
X-483420Y701500D01*
X-484230Y703820D01*
X-485510Y707000D01*
X-479080D01*
G01X-440230Y806300D02*
Y819000D01*
X-444250D01*
X-445540Y818360D01*
X-446340Y817520D01*
X-446660Y815820D01*
X-446340Y814130D01*
X-445380Y813070D01*
X-444250Y812440D01*
X-440230D01*
G01X-444250D02*
X-446660Y806300D01*
G01X-456390D02*
Y819000D01*
X-454460Y816460D01*
G01Y806300D02*
X-458320D01*
G01X-469340Y819000D02*
X-468060Y818580D01*
X-467090Y817520D01*
X-466450Y816250D01*
X-465970Y814550D01*
X-465810Y812650D01*
X-465970Y810740D01*
X-466450Y809050D01*
X-467090Y807780D01*
X-468060Y806720D01*
X-469340Y806300D01*
X-470630Y806720D01*
X-471600Y807780D01*
X-472240Y809050D01*
X-472720Y810740D01*
X-472880Y812650D01*
X-472720Y814550D01*
X-472240Y816250D01*
X-471600Y817520D01*
X-470630Y818580D01*
X-469340Y819000D01*
G01X-478760Y808840D02*
X-479720Y807360D01*
X-481010Y806510D01*
X-482460Y806300D01*
X-483740Y806510D01*
X-485030Y807570D01*
X-485830Y808840D01*
X-485990Y810110D01*
X-485670Y811590D01*
X-484550Y812650D01*
X-483420Y813070D01*
X-481970D01*
G01X-483420D02*
X-484390Y813710D01*
X-485190Y814770D01*
X-485510Y816040D01*
X-485190Y817310D01*
X-484390Y818360D01*
X-482940Y819000D01*
X-481490Y818790D01*
X-480040Y817940D01*
G01X-440230Y778300D02*
Y791000D01*
X-444250D01*
X-445540Y790360D01*
X-446340Y789520D01*
X-446660Y787820D01*
X-446340Y786130D01*
X-445380Y785070D01*
X-444250Y784440D01*
X-440230D01*
G01X-444250D02*
X-446660Y778300D01*
G01X-456390D02*
Y791000D01*
X-454460Y788460D01*
G01Y778300D02*
X-458320D01*
G01X-469340Y791000D02*
X-468060Y790580D01*
X-467090Y789520D01*
X-466450Y788250D01*
X-465970Y786550D01*
X-465810Y784650D01*
X-465970Y782740D01*
X-466450Y781050D01*
X-467090Y779780D01*
X-468060Y778720D01*
X-469340Y778300D01*
X-470630Y778720D01*
X-471600Y779780D01*
X-472240Y781050D01*
X-472720Y782740D01*
X-472880Y784650D01*
X-472720Y786550D01*
X-472240Y788250D01*
X-471600Y789520D01*
X-470630Y790580D01*
X-469340Y791000D01*
G01X-484230Y778300D02*
Y791000D01*
X-478270Y781900D01*
X-486320D01*
G01X-440230Y750300D02*
Y763000D01*
X-444250D01*
X-445540Y762360D01*
X-446340Y761520D01*
X-446660Y759820D01*
X-446340Y758130D01*
X-445380Y757070D01*
X-444250Y756440D01*
X-440230D01*
G01X-444250D02*
X-446660Y750300D01*
G01X-456390D02*
Y763000D01*
X-454460Y760460D01*
G01Y750300D02*
X-458320D01*
G01X-469340Y763000D02*
X-468060Y762580D01*
X-467090Y761520D01*
X-466450Y760250D01*
X-465970Y758550D01*
X-465810Y756650D01*
X-465970Y754740D01*
X-466450Y753050D01*
X-467090Y751780D01*
X-468060Y750720D01*
X-469340Y750300D01*
X-470630Y750720D01*
X-471600Y751780D01*
X-472240Y753050D01*
X-472720Y754740D01*
X-472880Y756650D01*
X-472720Y758550D01*
X-472240Y760250D01*
X-471600Y761520D01*
X-470630Y762580D01*
X-469340Y763000D01*
G01X-478760Y752200D02*
X-479720Y751150D01*
X-480850Y750510D01*
X-482290Y750300D01*
X-483740Y750720D01*
X-484870Y751570D01*
X-485670Y753050D01*
X-485830Y754740D01*
X-485510Y756440D01*
X-484710Y757500D01*
X-483580Y758340D01*
X-482460Y758550D01*
X-481330Y758340D01*
X-479880Y757500D01*
X-480360Y763000D01*
X-484710D01*
G01X-440230Y834300D02*
Y847000D01*
X-444250D01*
X-445540Y846360D01*
X-446340Y845520D01*
X-446660Y843820D01*
X-446340Y842130D01*
X-445380Y841070D01*
X-444250Y840440D01*
X-440230D01*
G01X-444250D02*
X-446660Y834300D01*
G01X-456390D02*
Y847000D01*
X-454460Y844460D01*
G01Y834300D02*
X-458320D01*
G01X-469340Y847000D02*
X-468060Y846580D01*
X-467090Y845520D01*
X-466450Y844250D01*
X-465970Y842550D01*
X-465810Y840650D01*
X-465970Y838740D01*
X-466450Y837050D01*
X-467090Y835780D01*
X-468060Y834720D01*
X-469340Y834300D01*
X-470630Y834720D01*
X-471600Y835780D01*
X-472240Y837050D01*
X-472720Y838740D01*
X-472880Y840650D01*
X-472720Y842550D01*
X-472240Y844250D01*
X-471600Y845520D01*
X-470630Y846580D01*
X-469340Y847000D01*
G01X-479240Y844880D02*
X-480200Y846150D01*
X-481330Y846790D01*
X-482620Y847000D01*
X-484230Y846580D01*
X-485350Y845520D01*
X-485670Y844250D01*
X-485510Y842980D01*
X-484870Y841920D01*
X-481650Y839800D01*
X-480200Y838320D01*
X-479240Y836200D01*
X-478920Y834300D01*
X-485670D01*
G01X-376360Y-764000D02*
Y-751300D01*
X-380380D01*
X-381670Y-751940D01*
X-382470Y-752780D01*
X-382790Y-754480D01*
X-382470Y-756170D01*
X-381510Y-757230D01*
X-380380Y-757860D01*
X-376360D01*
G01X-380380D02*
X-382790Y-764000D01*
G01X-392520D02*
Y-751300D01*
X-390590Y-753840D01*
G01Y-764000D02*
X-394450D01*
G01X-405470Y-751300D02*
X-404190Y-751720D01*
X-403220Y-752780D01*
X-402580Y-754050D01*
X-402100Y-755750D01*
X-401940Y-757650D01*
X-402100Y-759560D01*
X-402580Y-761250D01*
X-403220Y-762520D01*
X-404190Y-763580D01*
X-405470Y-764000D01*
X-406760Y-763580D01*
X-407730Y-762520D01*
X-408370Y-761250D01*
X-408850Y-759560D01*
X-409010Y-757650D01*
X-408850Y-755750D01*
X-408370Y-754050D01*
X-407730Y-752780D01*
X-406760Y-751720D01*
X-405470Y-751300D01*
G01X-418420D02*
X-417140Y-751720D01*
X-416170Y-752780D01*
X-415530Y-754050D01*
X-415050Y-755750D01*
X-414890Y-757650D01*
X-415050Y-759560D01*
X-415530Y-761250D01*
X-416170Y-762520D01*
X-417140Y-763580D01*
X-418420Y-764000D01*
X-419710Y-763580D01*
X-420680Y-762520D01*
X-421320Y-761250D01*
X-421800Y-759560D01*
X-421960Y-757650D01*
X-421800Y-755750D01*
X-421320Y-754050D01*
X-420680Y-752780D01*
X-419710Y-751720D01*
X-418420Y-751300D01*
G01X-389360Y-666560D02*
X-388400Y-665920D01*
X-387270Y-665500D01*
X-385990D01*
X-384540Y-666140D01*
X-383410Y-667190D01*
X-382610Y-668460D01*
X-381960Y-670580D01*
X-381800Y-672490D01*
X-382130Y-674390D01*
X-382610Y-675660D01*
X-383570Y-676930D01*
X-384700Y-677780D01*
X-385820Y-678200D01*
X-386950D01*
X-388080Y-677780D01*
X-389040Y-677140D01*
X-389850Y-676300D01*
G01X-400710Y-678200D02*
Y-665500D01*
X-394750Y-674600D01*
X-402800D01*
G01X-408670Y-672910D02*
X-409790Y-671430D01*
X-410760Y-670580D01*
X-412050Y-670160D01*
X-413170Y-670580D01*
X-413980Y-671430D01*
X-414620Y-672700D01*
X-414780Y-674180D01*
X-414620Y-675450D01*
X-413980Y-676720D01*
X-413010Y-677780D01*
X-411890Y-678200D01*
X-410600Y-677780D01*
X-409470Y-676510D01*
X-408830Y-674600D01*
X-408670Y-672490D01*
X-408990Y-669730D01*
X-409470Y-668250D01*
X-410280Y-666770D01*
X-411400Y-665710D01*
X-412530Y-665500D01*
X-413660Y-665920D01*
X-414460Y-666980D01*
G01X-387830Y-659000D02*
Y-646300D01*
X-391850D01*
X-393140Y-646940D01*
X-393940Y-647780D01*
X-394260Y-649480D01*
X-393940Y-651170D01*
X-392980Y-652230D01*
X-391850Y-652860D01*
X-387830D01*
G01X-391850D02*
X-394260Y-659000D01*
G01X-401260Y-657520D02*
X-402390Y-658580D01*
X-403670Y-659000D01*
X-404960Y-658580D01*
X-406090Y-657310D01*
X-406890Y-655400D01*
X-407210Y-653500D01*
Y-651170D01*
X-406890Y-649260D01*
X-406090Y-647570D01*
X-405120Y-646720D01*
X-403990Y-646300D01*
X-402710Y-646720D01*
X-401740Y-647570D01*
X-401100Y-648840D01*
X-400780Y-650530D01*
X-401100Y-652010D01*
X-401900Y-653500D01*
X-402870Y-654340D01*
X-403990Y-654560D01*
X-405280Y-654130D01*
X-406250Y-653070D01*
X-407210Y-651170D01*
G01X-416940Y-646300D02*
X-415660Y-646720D01*
X-414690Y-647780D01*
X-414050Y-649050D01*
X-413570Y-650750D01*
X-413410Y-652650D01*
X-413570Y-654560D01*
X-414050Y-656250D01*
X-414690Y-657520D01*
X-415660Y-658580D01*
X-416940Y-659000D01*
X-418230Y-658580D01*
X-419200Y-657520D01*
X-419840Y-656250D01*
X-420320Y-654560D01*
X-420480Y-652650D01*
X-420320Y-650750D01*
X-419840Y-649050D01*
X-419200Y-647780D01*
X-418230Y-646720D01*
X-416940Y-646300D01*
G01X-389360Y-564960D02*
X-388400Y-564320D01*
X-387270Y-563900D01*
X-385990D01*
X-384540Y-564540D01*
X-383410Y-565590D01*
X-382610Y-566860D01*
X-381960Y-568980D01*
X-381800Y-570890D01*
X-382130Y-572790D01*
X-382610Y-574060D01*
X-383570Y-575330D01*
X-384700Y-576180D01*
X-385820Y-576600D01*
X-386950D01*
X-388080Y-576180D01*
X-389040Y-575540D01*
X-389850Y-574700D01*
G01X-400710Y-576600D02*
Y-563900D01*
X-394750Y-573000D01*
X-402800D01*
G01X-408670Y-566020D02*
X-409630Y-564750D01*
X-410760Y-564110D01*
X-412050Y-563900D01*
X-413660Y-564320D01*
X-414780Y-565380D01*
X-415100Y-566650D01*
X-414940Y-567920D01*
X-414300Y-568980D01*
X-411080Y-571100D01*
X-409630Y-572580D01*
X-408670Y-574700D01*
X-408350Y-576600D01*
X-415100D01*
G01X-388830Y-557000D02*
Y-544300D01*
X-392850D01*
X-394140Y-544940D01*
X-394940Y-545780D01*
X-395260Y-547480D01*
X-394940Y-549170D01*
X-393980Y-550230D01*
X-392850Y-550860D01*
X-388830D01*
G01X-392850D02*
X-395260Y-557000D01*
G01X-404990D02*
X-406120Y-556790D01*
X-407410Y-556150D01*
X-408210Y-555100D01*
X-408530Y-553610D01*
X-408210Y-552130D01*
X-407250Y-550860D01*
X-405800Y-550230D01*
X-404190D01*
X-403230Y-549800D01*
X-402420Y-548750D01*
X-402100Y-547260D01*
X-402580Y-545780D01*
X-403710Y-544720D01*
X-404990Y-544300D01*
X-406280Y-544720D01*
X-407410Y-545780D01*
X-407890Y-547260D01*
X-407570Y-548750D01*
X-406760Y-549800D01*
X-405800Y-550230D01*
X-404190D01*
X-402740Y-550860D01*
X-401780Y-552130D01*
X-401460Y-553610D01*
X-401780Y-555100D01*
X-402580Y-556150D01*
X-403870Y-556790D01*
X-404990Y-557000D01*
G01X-417940Y-544300D02*
X-416660Y-544720D01*
X-415690Y-545780D01*
X-415050Y-547050D01*
X-414570Y-548750D01*
X-414410Y-550650D01*
X-414570Y-552560D01*
X-415050Y-554250D01*
X-415690Y-555520D01*
X-416660Y-556580D01*
X-417940Y-557000D01*
X-419230Y-556580D01*
X-420200Y-555520D01*
X-420840Y-554250D01*
X-421320Y-552560D01*
X-421480Y-550650D01*
X-421320Y-548750D01*
X-420840Y-547050D01*
X-420200Y-545780D01*
X-419230Y-544720D01*
X-417940Y-544300D01*
G01X-389360Y-463360D02*
X-388400Y-462720D01*
X-387270Y-462300D01*
X-385990D01*
X-384540Y-462940D01*
X-383410Y-463990D01*
X-382610Y-465260D01*
X-381960Y-467380D01*
X-381800Y-469290D01*
X-382130Y-471190D01*
X-382610Y-472460D01*
X-383570Y-473730D01*
X-384700Y-474580D01*
X-385820Y-475000D01*
X-386950D01*
X-388080Y-474580D01*
X-389040Y-473940D01*
X-389850Y-473100D01*
G01X-395240Y-472460D02*
X-396200Y-473940D01*
X-397490Y-474790D01*
X-398940Y-475000D01*
X-400220Y-474790D01*
X-401510Y-473730D01*
X-402310Y-472460D01*
X-402470Y-471190D01*
X-402150Y-469710D01*
X-401030Y-468650D01*
X-399900Y-468230D01*
X-398450D01*
G01X-399900D02*
X-400870Y-467590D01*
X-401670Y-466530D01*
X-401990Y-465260D01*
X-401670Y-463990D01*
X-400870Y-462940D01*
X-399420Y-462300D01*
X-397970Y-462510D01*
X-396520Y-463360D01*
G01X-411720Y-475000D02*
X-412850Y-474790D01*
X-414140Y-474150D01*
X-414940Y-473100D01*
X-415260Y-471610D01*
X-414940Y-470130D01*
X-413980Y-468860D01*
X-412530Y-468230D01*
X-410920D01*
X-409960Y-467800D01*
X-409150Y-466750D01*
X-408830Y-465260D01*
X-409310Y-463780D01*
X-410440Y-462720D01*
X-411720Y-462300D01*
X-413010Y-462720D01*
X-414140Y-463780D01*
X-414620Y-465260D01*
X-414300Y-466750D01*
X-413490Y-467800D01*
X-412530Y-468230D01*
X-410920D01*
X-409470Y-468860D01*
X-408510Y-470130D01*
X-408190Y-471610D01*
X-408510Y-473100D01*
X-409310Y-474150D01*
X-410600Y-474790D01*
X-411720Y-475000D01*
G01X-388830Y-455000D02*
Y-442300D01*
X-392850D01*
X-394140Y-442940D01*
X-394940Y-443780D01*
X-395260Y-445480D01*
X-394940Y-447170D01*
X-393980Y-448230D01*
X-392850Y-448860D01*
X-388830D01*
G01X-392850D02*
X-395260Y-455000D01*
G01X-404670D02*
X-404990Y-452250D01*
X-405480Y-449920D01*
X-406120Y-447800D01*
X-406930Y-445480D01*
X-408210Y-442300D01*
X-401780D01*
G01X-417940D02*
X-416660Y-442720D01*
X-415690Y-443780D01*
X-415050Y-445050D01*
X-414570Y-446750D01*
X-414410Y-448650D01*
X-414570Y-450560D01*
X-415050Y-452250D01*
X-415690Y-453520D01*
X-416660Y-454580D01*
X-417940Y-455000D01*
X-419230Y-454580D01*
X-420200Y-453520D01*
X-420840Y-452250D01*
X-421320Y-450560D01*
X-421480Y-448650D01*
X-421320Y-446750D01*
X-420840Y-445050D01*
X-420200Y-443780D01*
X-419230Y-442720D01*
X-417940Y-442300D01*
G01X-389360Y-361760D02*
X-388400Y-361120D01*
X-387270Y-360700D01*
X-385990D01*
X-384540Y-361340D01*
X-383410Y-362390D01*
X-382610Y-363660D01*
X-381960Y-365780D01*
X-381800Y-367690D01*
X-382130Y-369590D01*
X-382610Y-370860D01*
X-383570Y-372130D01*
X-384700Y-372980D01*
X-385820Y-373400D01*
X-386950D01*
X-388080Y-372980D01*
X-389040Y-372340D01*
X-389850Y-371500D01*
G01X-395240Y-370860D02*
X-396200Y-372340D01*
X-397490Y-373190D01*
X-398940Y-373400D01*
X-400220Y-373190D01*
X-401510Y-372130D01*
X-402310Y-370860D01*
X-402470Y-369590D01*
X-402150Y-368110D01*
X-401030Y-367050D01*
X-399900Y-366630D01*
X-398450D01*
G01X-399900D02*
X-400870Y-365990D01*
X-401670Y-364930D01*
X-401990Y-363660D01*
X-401670Y-362390D01*
X-400870Y-361340D01*
X-399420Y-360700D01*
X-397970Y-360910D01*
X-396520Y-361760D01*
G01X-413660Y-373400D02*
Y-360700D01*
X-407700Y-369800D01*
X-415750D01*
G01X-388830Y-354000D02*
Y-341300D01*
X-392850D01*
X-394140Y-341940D01*
X-394940Y-342780D01*
X-395260Y-344480D01*
X-394940Y-346170D01*
X-393980Y-347230D01*
X-392850Y-347860D01*
X-388830D01*
G01X-392850D02*
X-395260Y-354000D01*
G01X-401940Y-348710D02*
X-403060Y-347230D01*
X-404030Y-346380D01*
X-405320Y-345960D01*
X-406440Y-346380D01*
X-407250Y-347230D01*
X-407890Y-348500D01*
X-408050Y-349980D01*
X-407890Y-351250D01*
X-407250Y-352520D01*
X-406280Y-353580D01*
X-405160Y-354000D01*
X-403870Y-353580D01*
X-402740Y-352310D01*
X-402100Y-350400D01*
X-401940Y-348290D01*
X-402260Y-345530D01*
X-402740Y-344050D01*
X-403550Y-342570D01*
X-404670Y-341510D01*
X-405800Y-341300D01*
X-406930Y-341720D01*
X-407730Y-342780D01*
G01X-417940Y-341300D02*
X-416660Y-341720D01*
X-415690Y-342780D01*
X-415050Y-344050D01*
X-414570Y-345750D01*
X-414410Y-347650D01*
X-414570Y-349560D01*
X-415050Y-351250D01*
X-415690Y-352520D01*
X-416660Y-353580D01*
X-417940Y-354000D01*
X-419230Y-353580D01*
X-420200Y-352520D01*
X-420840Y-351250D01*
X-421320Y-349560D01*
X-421480Y-347650D01*
X-421320Y-345750D01*
X-420840Y-344050D01*
X-420200Y-342780D01*
X-419230Y-341720D01*
X-417940Y-341300D01*
G01X-389360Y-260160D02*
X-388400Y-259520D01*
X-387270Y-259100D01*
X-385990D01*
X-384540Y-259740D01*
X-383410Y-260790D01*
X-382610Y-262060D01*
X-381960Y-264180D01*
X-381800Y-266090D01*
X-382130Y-267990D01*
X-382610Y-269260D01*
X-383570Y-270530D01*
X-384700Y-271380D01*
X-385820Y-271800D01*
X-386950D01*
X-388080Y-271380D01*
X-389040Y-270740D01*
X-389850Y-269900D01*
G01X-395240Y-269260D02*
X-396200Y-270740D01*
X-397490Y-271590D01*
X-398940Y-271800D01*
X-400220Y-271590D01*
X-401510Y-270530D01*
X-402310Y-269260D01*
X-402470Y-267990D01*
X-402150Y-266510D01*
X-401030Y-265450D01*
X-399900Y-265030D01*
X-398450D01*
G01X-399900D02*
X-400870Y-264390D01*
X-401670Y-263330D01*
X-401990Y-262060D01*
X-401670Y-260790D01*
X-400870Y-259740D01*
X-399420Y-259100D01*
X-397970Y-259310D01*
X-396520Y-260160D01*
G01X-411720Y-259100D02*
X-410440Y-259520D01*
X-409470Y-260580D01*
X-408830Y-261850D01*
X-408350Y-263550D01*
X-408190Y-265450D01*
X-408350Y-267360D01*
X-408830Y-269050D01*
X-409470Y-270320D01*
X-410440Y-271380D01*
X-411720Y-271800D01*
X-413010Y-271380D01*
X-413980Y-270320D01*
X-414620Y-269050D01*
X-415100Y-267360D01*
X-415260Y-265450D01*
X-415100Y-263550D01*
X-414620Y-261850D01*
X-413980Y-260580D01*
X-413010Y-259520D01*
X-411720Y-259100D01*
G01X-388830Y-251000D02*
Y-238300D01*
X-392850D01*
X-394140Y-238940D01*
X-394940Y-239780D01*
X-395260Y-241480D01*
X-394940Y-243170D01*
X-393980Y-244230D01*
X-392850Y-244860D01*
X-388830D01*
G01X-392850D02*
X-395260Y-251000D01*
G01X-401460Y-249100D02*
X-402420Y-250150D01*
X-403550Y-250790D01*
X-404990Y-251000D01*
X-406440Y-250580D01*
X-407570Y-249730D01*
X-408370Y-248250D01*
X-408530Y-246560D01*
X-408210Y-244860D01*
X-407410Y-243800D01*
X-406280Y-242960D01*
X-405160Y-242750D01*
X-404030Y-242960D01*
X-402580Y-243800D01*
X-403060Y-238300D01*
X-407410D01*
G01X-417940D02*
X-416660Y-238720D01*
X-415690Y-239780D01*
X-415050Y-241050D01*
X-414570Y-242750D01*
X-414410Y-244650D01*
X-414570Y-246560D01*
X-415050Y-248250D01*
X-415690Y-249520D01*
X-416660Y-250580D01*
X-417940Y-251000D01*
X-419230Y-250580D01*
X-420200Y-249520D01*
X-420840Y-248250D01*
X-421320Y-246560D01*
X-421480Y-244650D01*
X-421320Y-242750D01*
X-420840Y-241050D01*
X-420200Y-239780D01*
X-419230Y-238720D01*
X-417940Y-238300D01*
G01X-389360Y-158560D02*
X-388400Y-157920D01*
X-387270Y-157500D01*
X-385990D01*
X-384540Y-158140D01*
X-383410Y-159190D01*
X-382610Y-160460D01*
X-381960Y-162580D01*
X-381800Y-164490D01*
X-382130Y-166390D01*
X-382610Y-167660D01*
X-383570Y-168930D01*
X-384700Y-169780D01*
X-385820Y-170200D01*
X-386950D01*
X-388080Y-169780D01*
X-389040Y-169140D01*
X-389850Y-168300D01*
G01X-395720Y-159620D02*
X-396680Y-158350D01*
X-397810Y-157710D01*
X-399100Y-157500D01*
X-400710Y-157920D01*
X-401830Y-158980D01*
X-402150Y-160250D01*
X-401990Y-161520D01*
X-401350Y-162580D01*
X-398130Y-164700D01*
X-396680Y-166180D01*
X-395720Y-168300D01*
X-395400Y-170200D01*
X-402150D01*
G01X-408670Y-164910D02*
X-409790Y-163430D01*
X-410760Y-162580D01*
X-412050Y-162160D01*
X-413170Y-162580D01*
X-413980Y-163430D01*
X-414620Y-164700D01*
X-414780Y-166180D01*
X-414620Y-167450D01*
X-413980Y-168720D01*
X-413010Y-169780D01*
X-411890Y-170200D01*
X-410600Y-169780D01*
X-409470Y-168510D01*
X-408830Y-166600D01*
X-408670Y-164490D01*
X-408990Y-161730D01*
X-409470Y-160250D01*
X-410280Y-158770D01*
X-411400Y-157710D01*
X-412530Y-157500D01*
X-413660Y-157920D01*
X-414460Y-158980D01*
G01X-388830Y-149000D02*
Y-136300D01*
X-392850D01*
X-394140Y-136940D01*
X-394940Y-137780D01*
X-395260Y-139480D01*
X-394940Y-141170D01*
X-393980Y-142230D01*
X-392850Y-142860D01*
X-388830D01*
G01X-392850D02*
X-395260Y-149000D01*
G01X-406930D02*
Y-136300D01*
X-400970Y-145400D01*
X-409020D01*
G01X-417940Y-136300D02*
X-416660Y-136720D01*
X-415690Y-137780D01*
X-415050Y-139050D01*
X-414570Y-140750D01*
X-414410Y-142650D01*
X-414570Y-144560D01*
X-415050Y-146250D01*
X-415690Y-147520D01*
X-416660Y-148580D01*
X-417940Y-149000D01*
X-419230Y-148580D01*
X-420200Y-147520D01*
X-420840Y-146250D01*
X-421320Y-144560D01*
X-421480Y-142650D01*
X-421320Y-140750D01*
X-420840Y-139050D01*
X-420200Y-137780D01*
X-419230Y-136720D01*
X-417940Y-136300D01*
G01X-389360Y-56960D02*
X-388400Y-56320D01*
X-387270Y-55900D01*
X-385990D01*
X-384540Y-56540D01*
X-383410Y-57590D01*
X-382610Y-58860D01*
X-381960Y-60980D01*
X-381800Y-62890D01*
X-382130Y-64790D01*
X-382610Y-66060D01*
X-383570Y-67330D01*
X-384700Y-68180D01*
X-385820Y-68600D01*
X-386950D01*
X-388080Y-68180D01*
X-389040Y-67540D01*
X-389850Y-66700D01*
G01X-395720Y-58020D02*
X-396680Y-56750D01*
X-397810Y-56110D01*
X-399100Y-55900D01*
X-400710Y-56320D01*
X-401830Y-57380D01*
X-402150Y-58650D01*
X-401990Y-59920D01*
X-401350Y-60980D01*
X-398130Y-63100D01*
X-396680Y-64580D01*
X-395720Y-66700D01*
X-395400Y-68600D01*
X-402150D01*
G01X-408670Y-58020D02*
X-409630Y-56750D01*
X-410760Y-56110D01*
X-412050Y-55900D01*
X-413660Y-56320D01*
X-414780Y-57380D01*
X-415100Y-58650D01*
X-414940Y-59920D01*
X-414300Y-60980D01*
X-411080Y-63100D01*
X-409630Y-64580D01*
X-408670Y-66700D01*
X-408350Y-68600D01*
X-415100D01*
G01X-387830Y-48000D02*
Y-35300D01*
X-391850D01*
X-393140Y-35940D01*
X-393940Y-36780D01*
X-394260Y-38480D01*
X-393940Y-40170D01*
X-392980Y-41230D01*
X-391850Y-41860D01*
X-387830D01*
G01X-391850D02*
X-394260Y-48000D01*
G01X-400460Y-45460D02*
X-401420Y-46940D01*
X-402710Y-47790D01*
X-404160Y-48000D01*
X-405440Y-47790D01*
X-406730Y-46730D01*
X-407530Y-45460D01*
X-407690Y-44190D01*
X-407370Y-42710D01*
X-406250Y-41650D01*
X-405120Y-41230D01*
X-403670D01*
G01X-405120D02*
X-406090Y-40590D01*
X-406890Y-39530D01*
X-407210Y-38260D01*
X-406890Y-36990D01*
X-406090Y-35940D01*
X-404640Y-35300D01*
X-403190Y-35510D01*
X-401740Y-36360D01*
G01X-416940Y-35300D02*
X-415660Y-35720D01*
X-414690Y-36780D01*
X-414050Y-38050D01*
X-413570Y-39750D01*
X-413410Y-41650D01*
X-413570Y-43560D01*
X-414050Y-45250D01*
X-414690Y-46520D01*
X-415660Y-47580D01*
X-416940Y-48000D01*
X-418230Y-47580D01*
X-419200Y-46520D01*
X-419840Y-45250D01*
X-420320Y-43560D01*
X-420480Y-41650D01*
X-420320Y-39750D01*
X-419840Y-38050D01*
X-419200Y-36780D01*
X-418230Y-35720D01*
X-416940Y-35300D01*
G01X-391360Y43640D02*
X-390400Y44280D01*
X-389270Y44700D01*
X-387990D01*
X-386540Y44060D01*
X-385410Y43010D01*
X-384610Y41740D01*
X-383960Y39620D01*
X-383800Y37710D01*
X-384130Y35810D01*
X-384610Y34540D01*
X-385570Y33270D01*
X-386700Y32420D01*
X-387820Y32000D01*
X-388950D01*
X-390080Y32420D01*
X-391040Y33060D01*
X-391850Y33900D01*
G01X-400770Y32000D02*
Y44700D01*
X-398840Y42160D01*
G01Y32000D02*
X-402700D01*
G01X-413720D02*
X-414850Y32210D01*
X-416140Y32850D01*
X-416940Y33900D01*
X-417260Y35390D01*
X-416940Y36870D01*
X-415980Y38140D01*
X-414530Y38770D01*
X-412920D01*
X-411960Y39200D01*
X-411150Y40250D01*
X-410830Y41740D01*
X-411310Y43220D01*
X-412440Y44280D01*
X-413720Y44700D01*
X-415010Y44280D01*
X-416140Y43220D01*
X-416620Y41740D01*
X-416300Y40250D01*
X-415490Y39200D01*
X-414530Y38770D01*
X-412920D01*
X-411470Y38140D01*
X-410510Y36870D01*
X-410190Y35390D01*
X-410510Y33900D01*
X-411310Y32850D01*
X-412600Y32210D01*
X-413720Y32000D01*
G01X-302790Y-676460D02*
Y-663760D01*
X-306810D01*
X-308100Y-664400D01*
X-308900Y-665240D01*
X-309220Y-666940D01*
X-308900Y-668630D01*
X-307940Y-669690D01*
X-306810Y-670320D01*
X-302790D01*
G01X-306810D02*
X-309220Y-676460D01*
G01X-316220Y-674980D02*
X-317350Y-676040D01*
X-318630Y-676460D01*
X-319920Y-676040D01*
X-321050Y-674770D01*
X-321850Y-672860D01*
X-322170Y-670960D01*
Y-668630D01*
X-321850Y-666720D01*
X-321050Y-665030D01*
X-320080Y-664180D01*
X-318950Y-663760D01*
X-317670Y-664180D01*
X-316700Y-665030D01*
X-316060Y-666300D01*
X-315740Y-667990D01*
X-316060Y-669470D01*
X-316860Y-670960D01*
X-317830Y-671800D01*
X-318950Y-672020D01*
X-320240Y-671590D01*
X-321210Y-670530D01*
X-322170Y-668630D01*
G01X-328850Y-665880D02*
X-329810Y-664610D01*
X-330940Y-663970D01*
X-332230Y-663760D01*
X-333840Y-664180D01*
X-334960Y-665240D01*
X-335280Y-666510D01*
X-335120Y-667780D01*
X-334480Y-668840D01*
X-331260Y-670960D01*
X-329810Y-672440D01*
X-328850Y-674560D01*
X-328530Y-676460D01*
X-335280D01*
G01X-302790Y-574860D02*
Y-562160D01*
X-306810D01*
X-308100Y-562800D01*
X-308900Y-563640D01*
X-309220Y-565340D01*
X-308900Y-567030D01*
X-307940Y-568090D01*
X-306810Y-568720D01*
X-302790D01*
G01X-306810D02*
X-309220Y-574860D01*
G01X-318950D02*
X-320080Y-574650D01*
X-321370Y-574010D01*
X-322170Y-572960D01*
X-322490Y-571470D01*
X-322170Y-569990D01*
X-321210Y-568720D01*
X-319760Y-568090D01*
X-318150D01*
X-317190Y-567660D01*
X-316380Y-566610D01*
X-316060Y-565120D01*
X-316540Y-563640D01*
X-317670Y-562580D01*
X-318950Y-562160D01*
X-320240Y-562580D01*
X-321370Y-563640D01*
X-321850Y-565120D01*
X-321530Y-566610D01*
X-320720Y-567660D01*
X-319760Y-568090D01*
X-318150D01*
X-316700Y-568720D01*
X-315740Y-569990D01*
X-315420Y-571470D01*
X-315740Y-572960D01*
X-316540Y-574010D01*
X-317830Y-574650D01*
X-318950Y-574860D01*
G01X-328850Y-564280D02*
X-329810Y-563010D01*
X-330940Y-562370D01*
X-332230Y-562160D01*
X-333840Y-562580D01*
X-334960Y-563640D01*
X-335280Y-564910D01*
X-335120Y-566180D01*
X-334480Y-567240D01*
X-331260Y-569360D01*
X-329810Y-570840D01*
X-328850Y-572960D01*
X-328530Y-574860D01*
X-335280D01*
G01X-302790Y-473260D02*
Y-460560D01*
X-306810D01*
X-308100Y-461200D01*
X-308900Y-462040D01*
X-309220Y-463740D01*
X-308900Y-465430D01*
X-307940Y-466490D01*
X-306810Y-467120D01*
X-302790D01*
G01X-306810D02*
X-309220Y-473260D01*
G01X-318630D02*
X-318950Y-470510D01*
X-319440Y-468180D01*
X-320080Y-466060D01*
X-320890Y-463740D01*
X-322170Y-460560D01*
X-315740D01*
G01X-328850Y-462680D02*
X-329810Y-461410D01*
X-330940Y-460770D01*
X-332230Y-460560D01*
X-333840Y-460980D01*
X-334960Y-462040D01*
X-335280Y-463310D01*
X-335120Y-464580D01*
X-334480Y-465640D01*
X-331260Y-467760D01*
X-329810Y-469240D01*
X-328850Y-471360D01*
X-328530Y-473260D01*
X-335280D01*
G01X-302790Y-371660D02*
Y-358960D01*
X-306810D01*
X-308100Y-359600D01*
X-308900Y-360440D01*
X-309220Y-362140D01*
X-308900Y-363830D01*
X-307940Y-364890D01*
X-306810Y-365520D01*
X-302790D01*
G01X-306810D02*
X-309220Y-371660D01*
G01X-315900Y-366370D02*
X-317020Y-364890D01*
X-317990Y-364040D01*
X-319280Y-363620D01*
X-320400Y-364040D01*
X-321210Y-364890D01*
X-321850Y-366160D01*
X-322010Y-367640D01*
X-321850Y-368910D01*
X-321210Y-370180D01*
X-320240Y-371240D01*
X-319120Y-371660D01*
X-317830Y-371240D01*
X-316700Y-369970D01*
X-316060Y-368060D01*
X-315900Y-365950D01*
X-316220Y-363190D01*
X-316700Y-361710D01*
X-317510Y-360230D01*
X-318630Y-359170D01*
X-319760Y-358960D01*
X-320890Y-359380D01*
X-321690Y-360440D01*
G01X-328850Y-361080D02*
X-329810Y-359810D01*
X-330940Y-359170D01*
X-332230Y-358960D01*
X-333840Y-359380D01*
X-334960Y-360440D01*
X-335280Y-361710D01*
X-335120Y-362980D01*
X-334480Y-364040D01*
X-331260Y-366160D01*
X-329810Y-367640D01*
X-328850Y-369760D01*
X-328530Y-371660D01*
X-335280D01*
G01X-302790Y-270060D02*
Y-257360D01*
X-306810D01*
X-308100Y-258000D01*
X-308900Y-258840D01*
X-309220Y-260540D01*
X-308900Y-262230D01*
X-307940Y-263290D01*
X-306810Y-263920D01*
X-302790D01*
G01X-306810D02*
X-309220Y-270060D01*
G01X-315420Y-268160D02*
X-316380Y-269210D01*
X-317510Y-269850D01*
X-318950Y-270060D01*
X-320400Y-269640D01*
X-321530Y-268790D01*
X-322330Y-267310D01*
X-322490Y-265620D01*
X-322170Y-263920D01*
X-321370Y-262860D01*
X-320240Y-262020D01*
X-319120Y-261810D01*
X-317990Y-262020D01*
X-316540Y-262860D01*
X-317020Y-257360D01*
X-321370D01*
G01X-328850Y-259480D02*
X-329810Y-258210D01*
X-330940Y-257570D01*
X-332230Y-257360D01*
X-333840Y-257780D01*
X-334960Y-258840D01*
X-335280Y-260110D01*
X-335120Y-261380D01*
X-334480Y-262440D01*
X-331260Y-264560D01*
X-329810Y-266040D01*
X-328850Y-268160D01*
X-328530Y-270060D01*
X-335280D01*
G01X-302790Y-168460D02*
Y-155760D01*
X-306810D01*
X-308100Y-156400D01*
X-308900Y-157240D01*
X-309220Y-158940D01*
X-308900Y-160630D01*
X-307940Y-161690D01*
X-306810Y-162320D01*
X-302790D01*
G01X-306810D02*
X-309220Y-168460D01*
G01X-320890D02*
Y-155760D01*
X-314930Y-164860D01*
X-322980D01*
G01X-328850Y-157880D02*
X-329810Y-156610D01*
X-330940Y-155970D01*
X-332230Y-155760D01*
X-333840Y-156180D01*
X-334960Y-157240D01*
X-335280Y-158510D01*
X-335120Y-159780D01*
X-334480Y-160840D01*
X-331260Y-162960D01*
X-329810Y-164440D01*
X-328850Y-166560D01*
X-328530Y-168460D01*
X-335280D01*
G01X-302790Y-66860D02*
Y-54160D01*
X-306810D01*
X-308100Y-54800D01*
X-308900Y-55640D01*
X-309220Y-57340D01*
X-308900Y-59030D01*
X-307940Y-60090D01*
X-306810Y-60720D01*
X-302790D01*
G01X-306810D02*
X-309220Y-66860D01*
G01X-315420Y-64320D02*
X-316380Y-65800D01*
X-317670Y-66650D01*
X-319120Y-66860D01*
X-320400Y-66650D01*
X-321690Y-65590D01*
X-322490Y-64320D01*
X-322650Y-63050D01*
X-322330Y-61570D01*
X-321210Y-60510D01*
X-320080Y-60090D01*
X-318630D01*
G01X-320080D02*
X-321050Y-59450D01*
X-321850Y-58390D01*
X-322170Y-57120D01*
X-321850Y-55850D01*
X-321050Y-54800D01*
X-319600Y-54160D01*
X-318150Y-54370D01*
X-316700Y-55220D01*
G01X-328850Y-56280D02*
X-329810Y-55010D01*
X-330940Y-54370D01*
X-332230Y-54160D01*
X-333840Y-54580D01*
X-334960Y-55640D01*
X-335280Y-56910D01*
X-335120Y-58180D01*
X-334480Y-59240D01*
X-331260Y-61360D01*
X-329810Y-62840D01*
X-328850Y-64960D01*
X-328530Y-66860D01*
X-335280D01*
G01X-302790Y34740D02*
Y47440D01*
X-306810D01*
X-308100Y46800D01*
X-308900Y45960D01*
X-309220Y44260D01*
X-308900Y42570D01*
X-307940Y41510D01*
X-306810Y40880D01*
X-302790D01*
G01X-306810D02*
X-309220Y34740D01*
G01X-315900Y45320D02*
X-316860Y46590D01*
X-317990Y47230D01*
X-319280Y47440D01*
X-320890Y47020D01*
X-322010Y45960D01*
X-322330Y44690D01*
X-322170Y43420D01*
X-321530Y42360D01*
X-318310Y40240D01*
X-316860Y38760D01*
X-315900Y36640D01*
X-315580Y34740D01*
X-322330D01*
G01X-328850Y45320D02*
X-329810Y46590D01*
X-330940Y47230D01*
X-332230Y47440D01*
X-333840Y47020D01*
X-334960Y45960D01*
X-335280Y44690D01*
X-335120Y43420D01*
X-334480Y42360D01*
X-331260Y40240D01*
X-329810Y38760D01*
X-328850Y36640D01*
X-328530Y34740D01*
X-335280D01*
G01X-230830Y-764000D02*
Y-751300D01*
X-234850D01*
X-236140Y-751940D01*
X-236940Y-752780D01*
X-237260Y-754480D01*
X-236940Y-756170D01*
X-235980Y-757230D01*
X-234850Y-757860D01*
X-230830D01*
G01X-234850D02*
X-237260Y-764000D01*
G01X-244260Y-762520D02*
X-245390Y-763580D01*
X-246670Y-764000D01*
X-247960Y-763580D01*
X-249090Y-762310D01*
X-249890Y-760400D01*
X-250210Y-758500D01*
Y-756170D01*
X-249890Y-754260D01*
X-249090Y-752570D01*
X-248120Y-751720D01*
X-246990Y-751300D01*
X-245710Y-751720D01*
X-244740Y-752570D01*
X-244100Y-753840D01*
X-243780Y-755530D01*
X-244100Y-757010D01*
X-244900Y-758500D01*
X-245870Y-759340D01*
X-246990Y-759560D01*
X-248280Y-759130D01*
X-249250Y-758070D01*
X-250210Y-756170D01*
G01X-256410Y-761460D02*
X-257370Y-762940D01*
X-258660Y-763790D01*
X-260110Y-764000D01*
X-261390Y-763790D01*
X-262680Y-762730D01*
X-263480Y-761460D01*
X-263640Y-760190D01*
X-263320Y-758710D01*
X-262200Y-757650D01*
X-261070Y-757230D01*
X-259620D01*
G01X-261070D02*
X-262040Y-756590D01*
X-262840Y-755530D01*
X-263160Y-754260D01*
X-262840Y-752990D01*
X-262040Y-751940D01*
X-260590Y-751300D01*
X-259140Y-751510D01*
X-257690Y-752360D01*
G01X-228830Y-662000D02*
Y-649300D01*
X-232850D01*
X-234140Y-649940D01*
X-234940Y-650780D01*
X-235260Y-652480D01*
X-234940Y-654170D01*
X-233980Y-655230D01*
X-232850Y-655860D01*
X-228830D01*
G01X-232850D02*
X-235260Y-662000D01*
G01X-244990D02*
X-246120Y-661790D01*
X-247410Y-661150D01*
X-248210Y-660100D01*
X-248530Y-658610D01*
X-248210Y-657130D01*
X-247250Y-655860D01*
X-245800Y-655230D01*
X-244190D01*
X-243230Y-654800D01*
X-242420Y-653750D01*
X-242100Y-652260D01*
X-242580Y-650780D01*
X-243710Y-649720D01*
X-244990Y-649300D01*
X-246280Y-649720D01*
X-247410Y-650780D01*
X-247890Y-652260D01*
X-247570Y-653750D01*
X-246760Y-654800D01*
X-245800Y-655230D01*
X-244190D01*
X-242740Y-655860D01*
X-241780Y-657130D01*
X-241460Y-658610D01*
X-241780Y-660100D01*
X-242580Y-661150D01*
X-243870Y-661790D01*
X-244990Y-662000D01*
G01X-254410Y-659460D02*
X-255370Y-660940D01*
X-256660Y-661790D01*
X-258110Y-662000D01*
X-259390Y-661790D01*
X-260680Y-660730D01*
X-261480Y-659460D01*
X-261640Y-658190D01*
X-261320Y-656710D01*
X-260200Y-655650D01*
X-259070Y-655230D01*
X-257620D01*
G01X-259070D02*
X-260040Y-654590D01*
X-260840Y-653530D01*
X-261160Y-652260D01*
X-260840Y-650990D01*
X-260040Y-649940D01*
X-258590Y-649300D01*
X-257140Y-649510D01*
X-255690Y-650360D01*
G01X-228830Y-558000D02*
Y-545300D01*
X-232850D01*
X-234140Y-545940D01*
X-234940Y-546780D01*
X-235260Y-548480D01*
X-234940Y-550170D01*
X-233980Y-551230D01*
X-232850Y-551860D01*
X-228830D01*
G01X-232850D02*
X-235260Y-558000D01*
G01X-244670D02*
X-244990Y-555250D01*
X-245480Y-552920D01*
X-246120Y-550800D01*
X-246930Y-548480D01*
X-248210Y-545300D01*
X-241780D01*
G01X-254410Y-555460D02*
X-255370Y-556940D01*
X-256660Y-557790D01*
X-258110Y-558000D01*
X-259390Y-557790D01*
X-260680Y-556730D01*
X-261480Y-555460D01*
X-261640Y-554190D01*
X-261320Y-552710D01*
X-260200Y-551650D01*
X-259070Y-551230D01*
X-257620D01*
G01X-259070D02*
X-260040Y-550590D01*
X-260840Y-549530D01*
X-261160Y-548260D01*
X-260840Y-546990D01*
X-260040Y-545940D01*
X-258590Y-545300D01*
X-257140Y-545510D01*
X-255690Y-546360D01*
G01X-227830Y-460000D02*
Y-447300D01*
X-231850D01*
X-233140Y-447940D01*
X-233940Y-448780D01*
X-234260Y-450480D01*
X-233940Y-452170D01*
X-232980Y-453230D01*
X-231850Y-453860D01*
X-227830D01*
G01X-231850D02*
X-234260Y-460000D01*
G01X-240940Y-454710D02*
X-242060Y-453230D01*
X-243030Y-452380D01*
X-244320Y-451960D01*
X-245440Y-452380D01*
X-246250Y-453230D01*
X-246890Y-454500D01*
X-247050Y-455980D01*
X-246890Y-457250D01*
X-246250Y-458520D01*
X-245280Y-459580D01*
X-244160Y-460000D01*
X-242870Y-459580D01*
X-241740Y-458310D01*
X-241100Y-456400D01*
X-240940Y-454290D01*
X-241260Y-451530D01*
X-241740Y-450050D01*
X-242550Y-448570D01*
X-243670Y-447510D01*
X-244800Y-447300D01*
X-245930Y-447720D01*
X-246730Y-448780D01*
G01X-253410Y-457460D02*
X-254370Y-458940D01*
X-255660Y-459790D01*
X-257110Y-460000D01*
X-258390Y-459790D01*
X-259680Y-458730D01*
X-260480Y-457460D01*
X-260640Y-456190D01*
X-260320Y-454710D01*
X-259200Y-453650D01*
X-258070Y-453230D01*
X-256620D01*
G01X-258070D02*
X-259040Y-452590D01*
X-259840Y-451530D01*
X-260160Y-450260D01*
X-259840Y-448990D01*
X-259040Y-447940D01*
X-257590Y-447300D01*
X-256140Y-447510D01*
X-254690Y-448360D01*
G01X-227830Y-359000D02*
Y-346300D01*
X-231850D01*
X-233140Y-346940D01*
X-233940Y-347780D01*
X-234260Y-349480D01*
X-233940Y-351170D01*
X-232980Y-352230D01*
X-231850Y-352860D01*
X-227830D01*
G01X-231850D02*
X-234260Y-359000D01*
G01X-240460Y-357100D02*
X-241420Y-358150D01*
X-242550Y-358790D01*
X-243990Y-359000D01*
X-245440Y-358580D01*
X-246570Y-357730D01*
X-247370Y-356250D01*
X-247530Y-354560D01*
X-247210Y-352860D01*
X-246410Y-351800D01*
X-245280Y-350960D01*
X-244160Y-350750D01*
X-243030Y-350960D01*
X-241580Y-351800D01*
X-242060Y-346300D01*
X-246410D01*
G01X-253410Y-356460D02*
X-254370Y-357940D01*
X-255660Y-358790D01*
X-257110Y-359000D01*
X-258390Y-358790D01*
X-259680Y-357730D01*
X-260480Y-356460D01*
X-260640Y-355190D01*
X-260320Y-353710D01*
X-259200Y-352650D01*
X-258070Y-352230D01*
X-256620D01*
G01X-258070D02*
X-259040Y-351590D01*
X-259840Y-350530D01*
X-260160Y-349260D01*
X-259840Y-347990D01*
X-259040Y-346940D01*
X-257590Y-346300D01*
X-256140Y-346510D01*
X-254690Y-347360D01*
G01X-227830Y-255000D02*
Y-242300D01*
X-231850D01*
X-233140Y-242940D01*
X-233940Y-243780D01*
X-234260Y-245480D01*
X-233940Y-247170D01*
X-232980Y-248230D01*
X-231850Y-248860D01*
X-227830D01*
G01X-231850D02*
X-234260Y-255000D01*
G01X-245930D02*
Y-242300D01*
X-239970Y-251400D01*
X-248020D01*
G01X-253410Y-252460D02*
X-254370Y-253940D01*
X-255660Y-254790D01*
X-257110Y-255000D01*
X-258390Y-254790D01*
X-259680Y-253730D01*
X-260480Y-252460D01*
X-260640Y-251190D01*
X-260320Y-249710D01*
X-259200Y-248650D01*
X-258070Y-248230D01*
X-256620D01*
G01X-258070D02*
X-259040Y-247590D01*
X-259840Y-246530D01*
X-260160Y-245260D01*
X-259840Y-243990D01*
X-259040Y-242940D01*
X-257590Y-242300D01*
X-256140Y-242510D01*
X-254690Y-243360D01*
G01X-227830Y-153000D02*
Y-140300D01*
X-231850D01*
X-233140Y-140940D01*
X-233940Y-141780D01*
X-234260Y-143480D01*
X-233940Y-145170D01*
X-232980Y-146230D01*
X-231850Y-146860D01*
X-227830D01*
G01X-231850D02*
X-234260Y-153000D01*
G01X-240460Y-150460D02*
X-241420Y-151940D01*
X-242710Y-152790D01*
X-244160Y-153000D01*
X-245440Y-152790D01*
X-246730Y-151730D01*
X-247530Y-150460D01*
X-247690Y-149190D01*
X-247370Y-147710D01*
X-246250Y-146650D01*
X-245120Y-146230D01*
X-243670D01*
G01X-245120D02*
X-246090Y-145590D01*
X-246890Y-144530D01*
X-247210Y-143260D01*
X-246890Y-141990D01*
X-246090Y-140940D01*
X-244640Y-140300D01*
X-243190Y-140510D01*
X-241740Y-141360D01*
G01X-253410Y-150460D02*
X-254370Y-151940D01*
X-255660Y-152790D01*
X-257110Y-153000D01*
X-258390Y-152790D01*
X-259680Y-151730D01*
X-260480Y-150460D01*
X-260640Y-149190D01*
X-260320Y-147710D01*
X-259200Y-146650D01*
X-258070Y-146230D01*
X-256620D01*
G01X-258070D02*
X-259040Y-145590D01*
X-259840Y-144530D01*
X-260160Y-143260D01*
X-259840Y-141990D01*
X-259040Y-140940D01*
X-257590Y-140300D01*
X-256140Y-140510D01*
X-254690Y-141360D01*
G01X-227830Y-54000D02*
Y-41300D01*
X-231850D01*
X-233140Y-41940D01*
X-233940Y-42780D01*
X-234260Y-44480D01*
X-233940Y-46170D01*
X-232980Y-47230D01*
X-231850Y-47860D01*
X-227830D01*
G01X-231850D02*
X-234260Y-54000D01*
G01X-240940Y-43420D02*
X-241900Y-42150D01*
X-243030Y-41510D01*
X-244320Y-41300D01*
X-245930Y-41720D01*
X-247050Y-42780D01*
X-247370Y-44050D01*
X-247210Y-45320D01*
X-246570Y-46380D01*
X-243350Y-48500D01*
X-241900Y-49980D01*
X-240940Y-52100D01*
X-240620Y-54000D01*
X-247370D01*
G01X-253410Y-51460D02*
X-254370Y-52940D01*
X-255660Y-53790D01*
X-257110Y-54000D01*
X-258390Y-53790D01*
X-259680Y-52730D01*
X-260480Y-51460D01*
X-260640Y-50190D01*
X-260320Y-48710D01*
X-259200Y-47650D01*
X-258070Y-47230D01*
X-256620D01*
G01X-258070D02*
X-259040Y-46590D01*
X-259840Y-45530D01*
X-260160Y-44260D01*
X-259840Y-42990D01*
X-259040Y-41940D01*
X-257590Y-41300D01*
X-256140Y-41510D01*
X-254690Y-42360D01*
G01X-144200Y389160D02*
X-148220Y376460D01*
X-152250Y389160D01*
G01X-157640Y376460D02*
Y389160D01*
X-160850D01*
X-162140Y388520D01*
X-163110Y387680D01*
X-163910Y386410D01*
X-164550Y384930D01*
X-164710Y382810D01*
X-164550Y380690D01*
X-163910Y379210D01*
X-163110Y377940D01*
X-162140Y377090D01*
X-160850Y376460D01*
X-157640D01*
G01X-170590Y378360D02*
X-171550Y377310D01*
X-172680Y376670D01*
X-174120Y376460D01*
X-175570Y376880D01*
X-176700Y377730D01*
X-177500Y379210D01*
X-177660Y380900D01*
X-177340Y382600D01*
X-176540Y383660D01*
X-175410Y384500D01*
X-174290Y384710D01*
X-173160Y384500D01*
X-171710Y383660D01*
X-172190Y389160D01*
X-176540D01*
G01X-184020Y381750D02*
X-185140Y383230D01*
X-186110Y384080D01*
X-187400Y384500D01*
X-188520Y384080D01*
X-189330Y383230D01*
X-189970Y381960D01*
X-190130Y380480D01*
X-189970Y379210D01*
X-189330Y377940D01*
X-188360Y376880D01*
X-187240Y376460D01*
X-185950Y376880D01*
X-184820Y378150D01*
X-184180Y380060D01*
X-184020Y382170D01*
X-184340Y384930D01*
X-184820Y386410D01*
X-185630Y387890D01*
X-186750Y388950D01*
X-187880Y389160D01*
X-189010Y388740D01*
X-189810Y387680D01*
G01X-144200Y490760D02*
X-148220Y478060D01*
X-152250Y490760D01*
G01X-157640Y478060D02*
Y490760D01*
X-160850D01*
X-162140Y490120D01*
X-163110Y489280D01*
X-163910Y488010D01*
X-164550Y486530D01*
X-164710Y484410D01*
X-164550Y482290D01*
X-163910Y480810D01*
X-163110Y479540D01*
X-162140Y478690D01*
X-160850Y478060D01*
X-157640D01*
G01X-170590Y479960D02*
X-171550Y478910D01*
X-172680Y478270D01*
X-174120Y478060D01*
X-175570Y478480D01*
X-176700Y479330D01*
X-177500Y480810D01*
X-177660Y482500D01*
X-177340Y484200D01*
X-176540Y485260D01*
X-175410Y486100D01*
X-174290Y486310D01*
X-173160Y486100D01*
X-171710Y485260D01*
X-172190Y490760D01*
X-176540D01*
G01X-189010Y478060D02*
Y490760D01*
X-183050Y481660D01*
X-191100D01*
G01X-144200Y592360D02*
X-148220Y579660D01*
X-152250Y592360D01*
G01X-157640Y579660D02*
Y592360D01*
X-160850D01*
X-162140Y591720D01*
X-163110Y590880D01*
X-163910Y589610D01*
X-164550Y588130D01*
X-164710Y586010D01*
X-164550Y583890D01*
X-163910Y582410D01*
X-163110Y581140D01*
X-162140Y580290D01*
X-160850Y579660D01*
X-157640D01*
G01X-170590Y581560D02*
X-171550Y580510D01*
X-172680Y579870D01*
X-174120Y579660D01*
X-175570Y580080D01*
X-176700Y580930D01*
X-177500Y582410D01*
X-177660Y584100D01*
X-177340Y585800D01*
X-176540Y586860D01*
X-175410Y587700D01*
X-174290Y587910D01*
X-173160Y587700D01*
X-171710Y586860D01*
X-172190Y592360D01*
X-176540D01*
G01X-184020Y590240D02*
X-184980Y591510D01*
X-186110Y592150D01*
X-187400Y592360D01*
X-189010Y591940D01*
X-190130Y590880D01*
X-190450Y589610D01*
X-190290Y588340D01*
X-189650Y587280D01*
X-186430Y585160D01*
X-184980Y583680D01*
X-184020Y581560D01*
X-183700Y579660D01*
X-190450D01*
G01X-144200Y693960D02*
X-148220Y681260D01*
X-152250Y693960D01*
G01X-157640Y681260D02*
Y693960D01*
X-160850D01*
X-162140Y693320D01*
X-163110Y692480D01*
X-163910Y691210D01*
X-164550Y689730D01*
X-164710Y687610D01*
X-164550Y685490D01*
X-163910Y684010D01*
X-163110Y682740D01*
X-162140Y681890D01*
X-160850Y681260D01*
X-157640D01*
G01X-170590Y683160D02*
X-171550Y682110D01*
X-172680Y681470D01*
X-174120Y681260D01*
X-175570Y681680D01*
X-176700Y682530D01*
X-177500Y684010D01*
X-177660Y685700D01*
X-177340Y687400D01*
X-176540Y688460D01*
X-175410Y689300D01*
X-174290Y689510D01*
X-173160Y689300D01*
X-171710Y688460D01*
X-172190Y693960D01*
X-176540D01*
G01X-187070D02*
X-185790Y693540D01*
X-184820Y692480D01*
X-184180Y691210D01*
X-183700Y689510D01*
X-183540Y687610D01*
X-183700Y685700D01*
X-184180Y684010D01*
X-184820Y682740D01*
X-185790Y681680D01*
X-187070Y681260D01*
X-188360Y681680D01*
X-189330Y682740D01*
X-189970Y684010D01*
X-190450Y685700D01*
X-190610Y687610D01*
X-190450Y689510D01*
X-189970Y691210D01*
X-189330Y692480D01*
X-188360Y693540D01*
X-187070Y693960D01*
G01X-144200Y795560D02*
X-148220Y782860D01*
X-152250Y795560D01*
G01X-157640Y782860D02*
Y795560D01*
X-160850D01*
X-162140Y794920D01*
X-163110Y794080D01*
X-163910Y792810D01*
X-164550Y791330D01*
X-164710Y789210D01*
X-164550Y787090D01*
X-163910Y785610D01*
X-163110Y784340D01*
X-162140Y783490D01*
X-160850Y782860D01*
X-157640D01*
G01X-176060D02*
Y795560D01*
X-170100Y786460D01*
X-178150D01*
G01X-187070Y782860D02*
X-188200Y783070D01*
X-189490Y783710D01*
X-190290Y784760D01*
X-190610Y786250D01*
X-190290Y787730D01*
X-189330Y789000D01*
X-187880Y789630D01*
X-186270D01*
X-185310Y790060D01*
X-184500Y791110D01*
X-184180Y792600D01*
X-184660Y794080D01*
X-185790Y795140D01*
X-187070Y795560D01*
X-188360Y795140D01*
X-189490Y794080D01*
X-189970Y792600D01*
X-189650Y791110D01*
X-188840Y790060D01*
X-187880Y789630D01*
X-186270D01*
X-184820Y789000D01*
X-183860Y787730D01*
X-183540Y786250D01*
X-183860Y784760D01*
X-184660Y783710D01*
X-185950Y783070D01*
X-187070Y782860D01*
G01X-144200Y897160D02*
X-148220Y884460D01*
X-152250Y897160D01*
G01X-157640Y884460D02*
Y897160D01*
X-160850D01*
X-162140Y896520D01*
X-163110Y895680D01*
X-163910Y894410D01*
X-164550Y892930D01*
X-164710Y890810D01*
X-164550Y888690D01*
X-163910Y887210D01*
X-163110Y885940D01*
X-162140Y885090D01*
X-160850Y884460D01*
X-157640D01*
G01X-176060D02*
Y897160D01*
X-170100Y888060D01*
X-178150D01*
G01X-184020Y889750D02*
X-185140Y891230D01*
X-186110Y892080D01*
X-187400Y892500D01*
X-188520Y892080D01*
X-189330Y891230D01*
X-189970Y889960D01*
X-190130Y888480D01*
X-189970Y887210D01*
X-189330Y885940D01*
X-188360Y884880D01*
X-187240Y884460D01*
X-185950Y884880D01*
X-184820Y886150D01*
X-184180Y888060D01*
X-184020Y890170D01*
X-184340Y892930D01*
X-184820Y894410D01*
X-185630Y895890D01*
X-186750Y896950D01*
X-187880Y897160D01*
X-189010Y896740D01*
X-189810Y895680D01*
G01X-144200Y998760D02*
X-148220Y986060D01*
X-152250Y998760D01*
G01X-157640Y986060D02*
Y998760D01*
X-160850D01*
X-162140Y998120D01*
X-163110Y997280D01*
X-163910Y996010D01*
X-164550Y994530D01*
X-164710Y992410D01*
X-164550Y990290D01*
X-163910Y988810D01*
X-163110Y987540D01*
X-162140Y986690D01*
X-160850Y986060D01*
X-157640D01*
G01X-176060D02*
Y998760D01*
X-170100Y989660D01*
X-178150D01*
G01X-189010Y986060D02*
Y998760D01*
X-183050Y989660D01*
X-191100D01*
G01X-144200Y1100360D02*
X-148220Y1087660D01*
X-152250Y1100360D01*
G01X-157640Y1087660D02*
Y1100360D01*
X-160850D01*
X-162140Y1099720D01*
X-163110Y1098880D01*
X-163910Y1097610D01*
X-164550Y1096130D01*
X-164710Y1094010D01*
X-164550Y1091890D01*
X-163910Y1090410D01*
X-163110Y1089140D01*
X-162140Y1088290D01*
X-160850Y1087660D01*
X-157640D01*
G01X-176060D02*
Y1100360D01*
X-170100Y1091260D01*
X-178150D01*
G01X-184020Y1098240D02*
X-184980Y1099510D01*
X-186110Y1100150D01*
X-187400Y1100360D01*
X-189010Y1099940D01*
X-190130Y1098880D01*
X-190450Y1097610D01*
X-190290Y1096340D01*
X-189650Y1095280D01*
X-186430Y1093160D01*
X-184980Y1091680D01*
X-184020Y1089560D01*
X-183700Y1087660D01*
X-190450D01*
G01X-113580Y-753360D02*
X-112620Y-752720D01*
X-111490Y-752300D01*
X-110210D01*
X-108760Y-752940D01*
X-107630Y-753990D01*
X-106830Y-755260D01*
X-106180Y-757380D01*
X-106020Y-759290D01*
X-106350Y-761190D01*
X-106830Y-762460D01*
X-107790Y-763730D01*
X-108920Y-764580D01*
X-110040Y-765000D01*
X-111170D01*
X-112300Y-764580D01*
X-113260Y-763940D01*
X-114070Y-763100D01*
G01X-124930Y-765000D02*
Y-752300D01*
X-118970Y-761400D01*
X-127020D01*
G01X-135620Y-765000D02*
X-135940Y-762250D01*
X-136430Y-759920D01*
X-137070Y-757800D01*
X-137880Y-755480D01*
X-139160Y-752300D01*
X-132730D01*
G01X-112580Y-702360D02*
X-111620Y-701720D01*
X-110490Y-701300D01*
X-109210D01*
X-107760Y-701940D01*
X-106630Y-702990D01*
X-105830Y-704260D01*
X-105180Y-706380D01*
X-105020Y-708290D01*
X-105350Y-710190D01*
X-105830Y-711460D01*
X-106790Y-712730D01*
X-107920Y-713580D01*
X-109040Y-714000D01*
X-110170D01*
X-111300Y-713580D01*
X-112260Y-712940D01*
X-113070Y-712100D01*
G01X-123930Y-714000D02*
Y-701300D01*
X-117970Y-710400D01*
X-126020D01*
G01X-134940Y-714000D02*
X-136070Y-713790D01*
X-137360Y-713150D01*
X-138160Y-712100D01*
X-138480Y-710610D01*
X-138160Y-709130D01*
X-137200Y-707860D01*
X-135750Y-707230D01*
X-134140D01*
X-133180Y-706800D01*
X-132370Y-705750D01*
X-132050Y-704260D01*
X-132530Y-702780D01*
X-133660Y-701720D01*
X-134940Y-701300D01*
X-136230Y-701720D01*
X-137360Y-702780D01*
X-137840Y-704260D01*
X-137520Y-705750D01*
X-136710Y-706800D01*
X-135750Y-707230D01*
X-134140D01*
X-132690Y-707860D01*
X-131730Y-709130D01*
X-131410Y-710610D01*
X-131730Y-712100D01*
X-132530Y-713150D01*
X-133820Y-713790D01*
X-134940Y-714000D01*
G01X-111580Y-648360D02*
X-110620Y-647720D01*
X-109490Y-647300D01*
X-108210D01*
X-106760Y-647940D01*
X-105630Y-648990D01*
X-104830Y-650260D01*
X-104180Y-652380D01*
X-104020Y-654290D01*
X-104350Y-656190D01*
X-104830Y-657460D01*
X-105790Y-658730D01*
X-106920Y-659580D01*
X-108040Y-660000D01*
X-109170D01*
X-110300Y-659580D01*
X-111260Y-658940D01*
X-112070Y-658100D01*
G01X-122930Y-660000D02*
Y-647300D01*
X-116970Y-656400D01*
X-125020D01*
G01X-130410Y-657460D02*
X-131370Y-658940D01*
X-132660Y-659790D01*
X-134110Y-660000D01*
X-135390Y-659790D01*
X-136680Y-658730D01*
X-137480Y-657460D01*
X-137640Y-656190D01*
X-137320Y-654710D01*
X-136200Y-653650D01*
X-135070Y-653230D01*
X-133620D01*
G01X-135070D02*
X-136040Y-652590D01*
X-136840Y-651530D01*
X-137160Y-650260D01*
X-136840Y-648990D01*
X-136040Y-647940D01*
X-134590Y-647300D01*
X-133140Y-647510D01*
X-131690Y-648360D01*
G01X-114830Y-694000D02*
Y-681300D01*
X-118850D01*
X-120140Y-681940D01*
X-120940Y-682780D01*
X-121260Y-684480D01*
X-120940Y-686170D01*
X-119980Y-687230D01*
X-118850Y-687860D01*
X-114830D01*
G01X-118850D02*
X-121260Y-694000D01*
G01X-128260Y-692520D02*
X-129390Y-693580D01*
X-130670Y-694000D01*
X-131960Y-693580D01*
X-133090Y-692310D01*
X-133890Y-690400D01*
X-134210Y-688500D01*
Y-686170D01*
X-133890Y-684260D01*
X-133090Y-682570D01*
X-132120Y-681720D01*
X-130990Y-681300D01*
X-129710Y-681720D01*
X-128740Y-682570D01*
X-128100Y-683840D01*
X-127780Y-685530D01*
X-128100Y-687010D01*
X-128900Y-688500D01*
X-129870Y-689340D01*
X-130990Y-689560D01*
X-132280Y-689130D01*
X-133250Y-688070D01*
X-134210Y-686170D01*
G01X-145880Y-694000D02*
Y-681300D01*
X-139920Y-690400D01*
X-147970D01*
G01X-111580Y-547360D02*
X-110620Y-546720D01*
X-109490Y-546300D01*
X-108210D01*
X-106760Y-546940D01*
X-105630Y-547990D01*
X-104830Y-549260D01*
X-104180Y-551380D01*
X-104020Y-553290D01*
X-104350Y-555190D01*
X-104830Y-556460D01*
X-105790Y-557730D01*
X-106920Y-558580D01*
X-108040Y-559000D01*
X-109170D01*
X-110300Y-558580D01*
X-111260Y-557940D01*
X-112070Y-557100D01*
G01X-117460Y-556460D02*
X-118420Y-557940D01*
X-119710Y-558790D01*
X-121160Y-559000D01*
X-122440Y-558790D01*
X-123730Y-557730D01*
X-124530Y-556460D01*
X-124690Y-555190D01*
X-124370Y-553710D01*
X-123250Y-552650D01*
X-122120Y-552230D01*
X-120670D01*
G01X-122120D02*
X-123090Y-551590D01*
X-123890Y-550530D01*
X-124210Y-549260D01*
X-123890Y-547990D01*
X-123090Y-546940D01*
X-121640Y-546300D01*
X-120190Y-546510D01*
X-118740Y-547360D01*
G01X-131210Y-557520D02*
X-132340Y-558580D01*
X-133620Y-559000D01*
X-134910Y-558580D01*
X-136040Y-557310D01*
X-136840Y-555400D01*
X-137160Y-553500D01*
Y-551170D01*
X-136840Y-549260D01*
X-136040Y-547570D01*
X-135070Y-546720D01*
X-133940Y-546300D01*
X-132660Y-546720D01*
X-131690Y-547570D01*
X-131050Y-548840D01*
X-130730Y-550530D01*
X-131050Y-552010D01*
X-131850Y-553500D01*
X-132820Y-554340D01*
X-133940Y-554560D01*
X-135230Y-554130D01*
X-136200Y-553070D01*
X-137160Y-551170D01*
G01X-111580Y-601360D02*
X-110620Y-600720D01*
X-109490Y-600300D01*
X-108210D01*
X-106760Y-600940D01*
X-105630Y-601990D01*
X-104830Y-603260D01*
X-104180Y-605380D01*
X-104020Y-607290D01*
X-104350Y-609190D01*
X-104830Y-610460D01*
X-105790Y-611730D01*
X-106920Y-612580D01*
X-108040Y-613000D01*
X-109170D01*
X-110300Y-612580D01*
X-111260Y-611940D01*
X-112070Y-611100D01*
G01X-122930Y-613000D02*
Y-600300D01*
X-116970Y-609400D01*
X-125020D01*
G01X-135880Y-613000D02*
Y-600300D01*
X-129920Y-609400D01*
X-137970D01*
G01X-115830Y-594000D02*
Y-581300D01*
X-119850D01*
X-121140Y-581940D01*
X-121940Y-582780D01*
X-122260Y-584480D01*
X-121940Y-586170D01*
X-120980Y-587230D01*
X-119850Y-587860D01*
X-115830D01*
G01X-119850D02*
X-122260Y-594000D01*
G01X-131990D02*
X-133120Y-593790D01*
X-134410Y-593150D01*
X-135210Y-592100D01*
X-135530Y-590610D01*
X-135210Y-589130D01*
X-134250Y-587860D01*
X-132800Y-587230D01*
X-131190D01*
X-130230Y-586800D01*
X-129420Y-585750D01*
X-129100Y-584260D01*
X-129580Y-582780D01*
X-130710Y-581720D01*
X-131990Y-581300D01*
X-133280Y-581720D01*
X-134410Y-582780D01*
X-134890Y-584260D01*
X-134570Y-585750D01*
X-133760Y-586800D01*
X-132800Y-587230D01*
X-131190D01*
X-129740Y-587860D01*
X-128780Y-589130D01*
X-128460Y-590610D01*
X-128780Y-592100D01*
X-129580Y-593150D01*
X-130870Y-593790D01*
X-131990Y-594000D01*
G01X-146880D02*
Y-581300D01*
X-140920Y-590400D01*
X-148970D01*
G01X-110580Y-500360D02*
X-109620Y-499720D01*
X-108490Y-499300D01*
X-107210D01*
X-105760Y-499940D01*
X-104630Y-500990D01*
X-103830Y-502260D01*
X-103180Y-504380D01*
X-103020Y-506290D01*
X-103350Y-508190D01*
X-103830Y-509460D01*
X-104790Y-510730D01*
X-105920Y-511580D01*
X-107040Y-512000D01*
X-108170D01*
X-109300Y-511580D01*
X-110260Y-510940D01*
X-111070Y-510100D01*
G01X-121930Y-512000D02*
Y-499300D01*
X-115970Y-508400D01*
X-124020D01*
G01X-132940Y-499300D02*
X-131660Y-499720D01*
X-130690Y-500780D01*
X-130050Y-502050D01*
X-129570Y-503750D01*
X-129410Y-505650D01*
X-129570Y-507560D01*
X-130050Y-509250D01*
X-130690Y-510520D01*
X-131660Y-511580D01*
X-132940Y-512000D01*
X-134230Y-511580D01*
X-135200Y-510520D01*
X-135840Y-509250D01*
X-136320Y-507560D01*
X-136480Y-505650D01*
X-136320Y-503750D01*
X-135840Y-502050D01*
X-135200Y-500780D01*
X-134230Y-499720D01*
X-132940Y-499300D01*
G01X-115830Y-491000D02*
Y-478300D01*
X-119850D01*
X-121140Y-478940D01*
X-121940Y-479780D01*
X-122260Y-481480D01*
X-121940Y-483170D01*
X-120980Y-484230D01*
X-119850Y-484860D01*
X-115830D01*
G01X-119850D02*
X-122260Y-491000D01*
G01X-131670D02*
X-131990Y-488250D01*
X-132480Y-485920D01*
X-133120Y-483800D01*
X-133930Y-481480D01*
X-135210Y-478300D01*
X-128780D01*
G01X-146880Y-491000D02*
Y-478300D01*
X-140920Y-487400D01*
X-148970D01*
G01X-111580Y-446360D02*
X-110620Y-445720D01*
X-109490Y-445300D01*
X-108210D01*
X-106760Y-445940D01*
X-105630Y-446990D01*
X-104830Y-448260D01*
X-104180Y-450380D01*
X-104020Y-452290D01*
X-104350Y-454190D01*
X-104830Y-455460D01*
X-105790Y-456730D01*
X-106920Y-457580D01*
X-108040Y-458000D01*
X-109170D01*
X-110300Y-457580D01*
X-111260Y-456940D01*
X-112070Y-456100D01*
G01X-117460Y-455460D02*
X-118420Y-456940D01*
X-119710Y-457790D01*
X-121160Y-458000D01*
X-122440Y-457790D01*
X-123730Y-456730D01*
X-124530Y-455460D01*
X-124690Y-454190D01*
X-124370Y-452710D01*
X-123250Y-451650D01*
X-122120Y-451230D01*
X-120670D01*
G01X-122120D02*
X-123090Y-450590D01*
X-123890Y-449530D01*
X-124210Y-448260D01*
X-123890Y-446990D01*
X-123090Y-445940D01*
X-121640Y-445300D01*
X-120190Y-445510D01*
X-118740Y-446360D01*
G01X-130410Y-456100D02*
X-131370Y-457150D01*
X-132500Y-457790D01*
X-133940Y-458000D01*
X-135390Y-457580D01*
X-136520Y-456730D01*
X-137320Y-455250D01*
X-137480Y-453560D01*
X-137160Y-451860D01*
X-136360Y-450800D01*
X-135230Y-449960D01*
X-134110Y-449750D01*
X-132980Y-449960D01*
X-131530Y-450800D01*
X-132010Y-445300D01*
X-136360D01*
G01X-111580Y-399360D02*
X-110620Y-398720D01*
X-109490Y-398300D01*
X-108210D01*
X-106760Y-398940D01*
X-105630Y-399990D01*
X-104830Y-401260D01*
X-104180Y-403380D01*
X-104020Y-405290D01*
X-104350Y-407190D01*
X-104830Y-408460D01*
X-105790Y-409730D01*
X-106920Y-410580D01*
X-108040Y-411000D01*
X-109170D01*
X-110300Y-410580D01*
X-111260Y-409940D01*
X-112070Y-409100D01*
G01X-117460Y-408460D02*
X-118420Y-409940D01*
X-119710Y-410790D01*
X-121160Y-411000D01*
X-122440Y-410790D01*
X-123730Y-409730D01*
X-124530Y-408460D01*
X-124690Y-407190D01*
X-124370Y-405710D01*
X-123250Y-404650D01*
X-122120Y-404230D01*
X-120670D01*
G01X-122120D02*
X-123090Y-403590D01*
X-123890Y-402530D01*
X-124210Y-401260D01*
X-123890Y-399990D01*
X-123090Y-398940D01*
X-121640Y-398300D01*
X-120190Y-398510D01*
X-118740Y-399360D01*
G01X-130890Y-405710D02*
X-132010Y-404230D01*
X-132980Y-403380D01*
X-134270Y-402960D01*
X-135390Y-403380D01*
X-136200Y-404230D01*
X-136840Y-405500D01*
X-137000Y-406980D01*
X-136840Y-408250D01*
X-136200Y-409520D01*
X-135230Y-410580D01*
X-134110Y-411000D01*
X-132820Y-410580D01*
X-131690Y-409310D01*
X-131050Y-407400D01*
X-130890Y-405290D01*
X-131210Y-402530D01*
X-131690Y-401050D01*
X-132500Y-399570D01*
X-133620Y-398510D01*
X-134750Y-398300D01*
X-135880Y-398720D01*
X-136680Y-399780D01*
G01X-111580Y-344360D02*
X-110620Y-343720D01*
X-109490Y-343300D01*
X-108210D01*
X-106760Y-343940D01*
X-105630Y-344990D01*
X-104830Y-346260D01*
X-104180Y-348380D01*
X-104020Y-350290D01*
X-104350Y-352190D01*
X-104830Y-353460D01*
X-105790Y-354730D01*
X-106920Y-355580D01*
X-108040Y-356000D01*
X-109170D01*
X-110300Y-355580D01*
X-111260Y-354940D01*
X-112070Y-354100D01*
G01X-117460Y-353460D02*
X-118420Y-354940D01*
X-119710Y-355790D01*
X-121160Y-356000D01*
X-122440Y-355790D01*
X-123730Y-354730D01*
X-124530Y-353460D01*
X-124690Y-352190D01*
X-124370Y-350710D01*
X-123250Y-349650D01*
X-122120Y-349230D01*
X-120670D01*
G01X-122120D02*
X-123090Y-348590D01*
X-123890Y-347530D01*
X-124210Y-346260D01*
X-123890Y-344990D01*
X-123090Y-343940D01*
X-121640Y-343300D01*
X-120190Y-343510D01*
X-118740Y-344360D01*
G01X-133940Y-356000D02*
Y-343300D01*
X-132010Y-345840D01*
G01Y-356000D02*
X-135870D01*
G01X-115830Y-390000D02*
Y-377300D01*
X-119850D01*
X-121140Y-377940D01*
X-121940Y-378780D01*
X-122260Y-380480D01*
X-121940Y-382170D01*
X-120980Y-383230D01*
X-119850Y-383860D01*
X-115830D01*
G01X-119850D02*
X-122260Y-390000D01*
G01X-128940Y-384710D02*
X-130060Y-383230D01*
X-131030Y-382380D01*
X-132320Y-381960D01*
X-133440Y-382380D01*
X-134250Y-383230D01*
X-134890Y-384500D01*
X-135050Y-385980D01*
X-134890Y-387250D01*
X-134250Y-388520D01*
X-133280Y-389580D01*
X-132160Y-390000D01*
X-130870Y-389580D01*
X-129740Y-388310D01*
X-129100Y-386400D01*
X-128940Y-384290D01*
X-129260Y-381530D01*
X-129740Y-380050D01*
X-130550Y-378570D01*
X-131670Y-377510D01*
X-132800Y-377300D01*
X-133930Y-377720D01*
X-134730Y-378780D01*
G01X-146880Y-390000D02*
Y-377300D01*
X-140920Y-386400D01*
X-148970D01*
G01X-112580Y-244360D02*
X-111620Y-243720D01*
X-110490Y-243300D01*
X-109210D01*
X-107760Y-243940D01*
X-106630Y-244990D01*
X-105830Y-246260D01*
X-105180Y-248380D01*
X-105020Y-250290D01*
X-105350Y-252190D01*
X-105830Y-253460D01*
X-106790Y-254730D01*
X-107920Y-255580D01*
X-109040Y-256000D01*
X-110170D01*
X-111300Y-255580D01*
X-112260Y-254940D01*
X-113070Y-254100D01*
G01X-118940Y-245420D02*
X-119900Y-244150D01*
X-121030Y-243510D01*
X-122320Y-243300D01*
X-123930Y-243720D01*
X-125050Y-244780D01*
X-125370Y-246050D01*
X-125210Y-247320D01*
X-124570Y-248380D01*
X-121350Y-250500D01*
X-119900Y-251980D01*
X-118940Y-254100D01*
X-118620Y-256000D01*
X-125370D01*
G01X-134620D02*
X-134940Y-253250D01*
X-135430Y-250920D01*
X-136070Y-248800D01*
X-136880Y-246480D01*
X-138160Y-243300D01*
X-131730D01*
G01X-111580Y-296360D02*
X-110620Y-295720D01*
X-109490Y-295300D01*
X-108210D01*
X-106760Y-295940D01*
X-105630Y-296990D01*
X-104830Y-298260D01*
X-104180Y-300380D01*
X-104020Y-302290D01*
X-104350Y-304190D01*
X-104830Y-305460D01*
X-105790Y-306730D01*
X-106920Y-307580D01*
X-108040Y-308000D01*
X-109170D01*
X-110300Y-307580D01*
X-111260Y-306940D01*
X-112070Y-306100D01*
G01X-117460Y-305460D02*
X-118420Y-306940D01*
X-119710Y-307790D01*
X-121160Y-308000D01*
X-122440Y-307790D01*
X-123730Y-306730D01*
X-124530Y-305460D01*
X-124690Y-304190D01*
X-124370Y-302710D01*
X-123250Y-301650D01*
X-122120Y-301230D01*
X-120670D01*
G01X-122120D02*
X-123090Y-300590D01*
X-123890Y-299530D01*
X-124210Y-298260D01*
X-123890Y-296990D01*
X-123090Y-295940D01*
X-121640Y-295300D01*
X-120190Y-295510D01*
X-118740Y-296360D01*
G01X-130890Y-297420D02*
X-131850Y-296150D01*
X-132980Y-295510D01*
X-134270Y-295300D01*
X-135880Y-295720D01*
X-137000Y-296780D01*
X-137320Y-298050D01*
X-137160Y-299320D01*
X-136520Y-300380D01*
X-133300Y-302500D01*
X-131850Y-303980D01*
X-130890Y-306100D01*
X-130570Y-308000D01*
X-137320D01*
G01X-114830Y-286000D02*
Y-273300D01*
X-118850D01*
X-120140Y-273940D01*
X-120940Y-274780D01*
X-121260Y-276480D01*
X-120940Y-278170D01*
X-119980Y-279230D01*
X-118850Y-279860D01*
X-114830D01*
G01X-118850D02*
X-121260Y-286000D01*
G01X-127460Y-284100D02*
X-128420Y-285150D01*
X-129550Y-285790D01*
X-130990Y-286000D01*
X-132440Y-285580D01*
X-133570Y-284730D01*
X-134370Y-283250D01*
X-134530Y-281560D01*
X-134210Y-279860D01*
X-133410Y-278800D01*
X-132280Y-277960D01*
X-131160Y-277750D01*
X-130030Y-277960D01*
X-128580Y-278800D01*
X-129060Y-273300D01*
X-133410D01*
G01X-145880Y-286000D02*
Y-273300D01*
X-139920Y-282400D01*
X-147970D01*
G01X-111580Y-195360D02*
X-110620Y-194720D01*
X-109490Y-194300D01*
X-108210D01*
X-106760Y-194940D01*
X-105630Y-195990D01*
X-104830Y-197260D01*
X-104180Y-199380D01*
X-104020Y-201290D01*
X-104350Y-203190D01*
X-104830Y-204460D01*
X-105790Y-205730D01*
X-106920Y-206580D01*
X-108040Y-207000D01*
X-109170D01*
X-110300Y-206580D01*
X-111260Y-205940D01*
X-112070Y-205100D01*
G01X-117940Y-196420D02*
X-118900Y-195150D01*
X-120030Y-194510D01*
X-121320Y-194300D01*
X-122930Y-194720D01*
X-124050Y-195780D01*
X-124370Y-197050D01*
X-124210Y-198320D01*
X-123570Y-199380D01*
X-120350Y-201500D01*
X-118900Y-202980D01*
X-117940Y-205100D01*
X-117620Y-207000D01*
X-124370D01*
G01X-133940D02*
X-135070Y-206790D01*
X-136360Y-206150D01*
X-137160Y-205100D01*
X-137480Y-203610D01*
X-137160Y-202130D01*
X-136200Y-200860D01*
X-134750Y-200230D01*
X-133140D01*
X-132180Y-199800D01*
X-131370Y-198750D01*
X-131050Y-197260D01*
X-131530Y-195780D01*
X-132660Y-194720D01*
X-133940Y-194300D01*
X-135230Y-194720D01*
X-136360Y-195780D01*
X-136840Y-197260D01*
X-136520Y-198750D01*
X-135710Y-199800D01*
X-134750Y-200230D01*
X-133140D01*
X-131690Y-200860D01*
X-130730Y-202130D01*
X-130410Y-203610D01*
X-130730Y-205100D01*
X-131530Y-206150D01*
X-132820Y-206790D01*
X-133940Y-207000D01*
G01X-114830Y-188000D02*
Y-175300D01*
X-118850D01*
X-120140Y-175940D01*
X-120940Y-176780D01*
X-121260Y-178480D01*
X-120940Y-180170D01*
X-119980Y-181230D01*
X-118850Y-181860D01*
X-114830D01*
G01X-118850D02*
X-121260Y-188000D01*
G01X-132930D02*
Y-175300D01*
X-126970Y-184400D01*
X-135020D01*
G01X-145880Y-188000D02*
Y-175300D01*
X-139920Y-184400D01*
X-147970D01*
G01X-111580Y-140360D02*
X-110620Y-139720D01*
X-109490Y-139300D01*
X-108210D01*
X-106760Y-139940D01*
X-105630Y-140990D01*
X-104830Y-142260D01*
X-104180Y-144380D01*
X-104020Y-146290D01*
X-104350Y-148190D01*
X-104830Y-149460D01*
X-105790Y-150730D01*
X-106920Y-151580D01*
X-108040Y-152000D01*
X-109170D01*
X-110300Y-151580D01*
X-111260Y-150940D01*
X-112070Y-150100D01*
G01X-117940Y-141420D02*
X-118900Y-140150D01*
X-120030Y-139510D01*
X-121320Y-139300D01*
X-122930Y-139720D01*
X-124050Y-140780D01*
X-124370Y-142050D01*
X-124210Y-143320D01*
X-123570Y-144380D01*
X-120350Y-146500D01*
X-118900Y-147980D01*
X-117940Y-150100D01*
X-117620Y-152000D01*
X-124370D01*
G01X-130410Y-149460D02*
X-131370Y-150940D01*
X-132660Y-151790D01*
X-134110Y-152000D01*
X-135390Y-151790D01*
X-136680Y-150730D01*
X-137480Y-149460D01*
X-137640Y-148190D01*
X-137320Y-146710D01*
X-136200Y-145650D01*
X-135070Y-145230D01*
X-133620D01*
G01X-135070D02*
X-136040Y-144590D01*
X-136840Y-143530D01*
X-137160Y-142260D01*
X-136840Y-140990D01*
X-136040Y-139940D01*
X-134590Y-139300D01*
X-133140Y-139510D01*
X-131690Y-140360D01*
G01X-110580Y-94360D02*
X-109620Y-93720D01*
X-108490Y-93300D01*
X-107210D01*
X-105760Y-93940D01*
X-104630Y-94990D01*
X-103830Y-96260D01*
X-103180Y-98380D01*
X-103020Y-100290D01*
X-103350Y-102190D01*
X-103830Y-103460D01*
X-104790Y-104730D01*
X-105920Y-105580D01*
X-107040Y-106000D01*
X-108170D01*
X-109300Y-105580D01*
X-110260Y-104940D01*
X-111070Y-104100D01*
G01X-116940Y-95420D02*
X-117900Y-94150D01*
X-119030Y-93510D01*
X-120320Y-93300D01*
X-121930Y-93720D01*
X-123050Y-94780D01*
X-123370Y-96050D01*
X-123210Y-97320D01*
X-122570Y-98380D01*
X-119350Y-100500D01*
X-117900Y-101980D01*
X-116940Y-104100D01*
X-116620Y-106000D01*
X-123370D01*
G01X-134880D02*
Y-93300D01*
X-128920Y-102400D01*
X-136970D01*
G01X-111580Y-41360D02*
X-110620Y-40720D01*
X-109490Y-40300D01*
X-108210D01*
X-106760Y-40940D01*
X-105630Y-41990D01*
X-104830Y-43260D01*
X-104180Y-45380D01*
X-104020Y-47290D01*
X-104350Y-49190D01*
X-104830Y-50460D01*
X-105790Y-51730D01*
X-106920Y-52580D01*
X-108040Y-53000D01*
X-109170D01*
X-110300Y-52580D01*
X-111260Y-51940D01*
X-112070Y-51100D01*
G01X-120990Y-53000D02*
Y-40300D01*
X-119060Y-42840D01*
G01Y-53000D02*
X-122920D01*
G01X-131210Y-51520D02*
X-132340Y-52580D01*
X-133620Y-53000D01*
X-134910Y-52580D01*
X-136040Y-51310D01*
X-136840Y-49400D01*
X-137160Y-47500D01*
Y-45170D01*
X-136840Y-43260D01*
X-136040Y-41570D01*
X-135070Y-40720D01*
X-133940Y-40300D01*
X-132660Y-40720D01*
X-131690Y-41570D01*
X-131050Y-42840D01*
X-130730Y-44530D01*
X-131050Y-46010D01*
X-131850Y-47500D01*
X-132820Y-48340D01*
X-133940Y-48560D01*
X-135230Y-48130D01*
X-136200Y-47070D01*
X-137160Y-45170D01*
G01X-115830Y-88000D02*
Y-75300D01*
X-119850D01*
X-121140Y-75940D01*
X-121940Y-76780D01*
X-122260Y-78480D01*
X-121940Y-80170D01*
X-120980Y-81230D01*
X-119850Y-81860D01*
X-115830D01*
G01X-119850D02*
X-122260Y-88000D01*
G01X-128460Y-85460D02*
X-129420Y-86940D01*
X-130710Y-87790D01*
X-132160Y-88000D01*
X-133440Y-87790D01*
X-134730Y-86730D01*
X-135530Y-85460D01*
X-135690Y-84190D01*
X-135370Y-82710D01*
X-134250Y-81650D01*
X-133120Y-81230D01*
X-131670D01*
G01X-133120D02*
X-134090Y-80590D01*
X-134890Y-79530D01*
X-135210Y-78260D01*
X-134890Y-76990D01*
X-134090Y-75940D01*
X-132640Y-75300D01*
X-131190Y-75510D01*
X-129740Y-76360D01*
G01X-146880Y-88000D02*
Y-75300D01*
X-140920Y-84400D01*
X-148970D01*
G01X-111580Y8640D02*
X-110620Y9280D01*
X-109490Y9700D01*
X-108210D01*
X-106760Y9060D01*
X-105630Y8010D01*
X-104830Y6740D01*
X-104180Y4620D01*
X-104020Y2710D01*
X-104350Y810D01*
X-104830Y-460D01*
X-105790Y-1730D01*
X-106920Y-2580D01*
X-108040Y-3000D01*
X-109170D01*
X-110300Y-2580D01*
X-111260Y-1940D01*
X-112070Y-1100D01*
G01X-117940Y7580D02*
X-118900Y8850D01*
X-120030Y9490D01*
X-121320Y9700D01*
X-122930Y9280D01*
X-124050Y8220D01*
X-124370Y6950D01*
X-124210Y5680D01*
X-123570Y4620D01*
X-120350Y2500D01*
X-118900Y1020D01*
X-117940Y-1100D01*
X-117620Y-3000D01*
X-124370D01*
G01X-133940Y9700D02*
X-132660Y9280D01*
X-131690Y8220D01*
X-131050Y6950D01*
X-130570Y5250D01*
X-130410Y3350D01*
X-130570Y1440D01*
X-131050Y-250D01*
X-131690Y-1520D01*
X-132660Y-2580D01*
X-133940Y-3000D01*
X-135230Y-2580D01*
X-136200Y-1520D01*
X-136840Y-250D01*
X-137320Y1440D01*
X-137480Y3350D01*
X-137320Y5250D01*
X-136840Y6950D01*
X-136200Y8220D01*
X-135230Y9280D01*
X-133940Y9700D01*
G01X-115830Y16000D02*
Y28700D01*
X-119850D01*
X-121140Y28060D01*
X-121940Y27220D01*
X-122260Y25520D01*
X-121940Y23830D01*
X-120980Y22770D01*
X-119850Y22140D01*
X-115830D01*
G01X-119850D02*
X-122260Y16000D01*
G01X-128940Y26580D02*
X-129900Y27850D01*
X-131030Y28490D01*
X-132320Y28700D01*
X-133930Y28280D01*
X-135050Y27220D01*
X-135370Y25950D01*
X-135210Y24680D01*
X-134570Y23620D01*
X-131350Y21500D01*
X-129900Y20020D01*
X-128940Y17900D01*
X-128620Y16000D01*
X-135370D01*
G01X-146880D02*
Y28700D01*
X-140920Y19600D01*
X-148970D01*
M02*
