G04 ================== begin FILE IDENTIFICATION RECORD ==================*
G04 Layout Name:  D:/Project/Circuit/AVANT/KSK/KSK_02v6/pcb/KSK_02v6.brd*
G04 Film Name:    SILK_TOP*
G04 File Format:  Gerber RS274X*
G04 File Origin:  Cadence Allegro 16.6-2015-S073*
G04 Origin Date:  Fri Sep 28 10:21:00 2018*
G04 *
G04 Layer:  MANUFACTURING/AUTOSILK_TOP*
G04 *
G04 Offset:    (0.000 0.000)*
G04 Mirror:    No*
G04 Mode:      Positive*
G04 Rotation:  0*
G04 FullContactRelief:  No*
G04 UndefLineWidth:     0.200*
G04 ================== end FILE IDENTIFICATION RECORD ====================*
%FSLAX34Y34*MOMM*%
%IR0*IPPOS*OFA0.00000B0.00000*MIA0B0*SFA1.00000B1.00000*%
%ADD10C,1.27*%
%ADD11C,.05*%
%ADD12C,.2*%
%ADD13C,.4*%
%ADD14C,.15*%
G75*
%LPD*%
G75*
G54D10*
G01X-241300Y101600D02*
Y63500D01*
G01X-247650Y101600D02*
Y63500D01*
G01X-254000Y101600D02*
Y63500D01*
G01X-279400Y88900D02*
Y50800D01*
G01X-292100Y88900D02*
Y50800D01*
G01X-285750Y88900D02*
Y50800D01*
G01X-241300Y177800D02*
Y139700D01*
G01X-254000Y177800D02*
Y139700D01*
G01X-247650Y177800D02*
Y139700D01*
G54D11*
G01X-304030Y1245820D02*
X-309800Y1219420D01*
X-310600Y1214390D01*
G01X-309670Y1210890D02*
G03X-309470Y1211280I-5J249D01*
G01X-309670Y1210890D02*
X-323730D01*
G02X-323880Y1211340I1J250D01*
G01X-321610Y1214520D02*
X-320790Y1216870D01*
X-320200Y1219320D01*
X-315260Y1241550D01*
X-314520Y1246580D01*
G01X-315460Y1250080D02*
X-299580D01*
X-297290Y1250030D01*
X-294930Y1249790D01*
G01X-315500Y1250000D02*
X-297030D01*
G01X-315400Y1249500D02*
X-293540D01*
G01X-315120Y1249000D02*
X-292030D01*
G01X-314890Y1248500D02*
X-291000D01*
G01X-314730Y1248000D02*
X-290260D01*
G01X-314610Y1247500D02*
X-289630D01*
G01X-314560Y1247000D02*
X-289190D01*
G01X-314530Y1246500D02*
X-288790D01*
G01X-314600Y1246000D02*
X-288400D01*
G01X-314680Y1245500D02*
X-304100D01*
G01X-314750Y1245000D02*
X-304210D01*
G01X-314830Y1244500D02*
X-304320D01*
G01X-314900Y1244000D02*
X-304430D01*
G01X-314980Y1243500D02*
X-304540D01*
G01X-315050Y1243000D02*
X-304650D01*
G01X-315120Y1242500D02*
X-304760D01*
G01X-315200Y1242000D02*
X-304870D01*
G01X-315280Y1241500D02*
X-304980D01*
G01X-315390Y1241000D02*
X-305090D01*
G01X-315500Y1240500D02*
X-305200D01*
G01X-315610Y1240000D02*
X-305300D01*
G01X-315720Y1239500D02*
X-305410D01*
G01X-315830Y1239000D02*
X-305520D01*
G01X-315940Y1238500D02*
X-305630D01*
G01X-316050Y1238000D02*
X-305740D01*
G01X-316160Y1237500D02*
X-305850D01*
G01X-316270Y1237000D02*
X-305960D01*
G01X-316380Y1236500D02*
X-306070D01*
G01X-316500Y1236000D02*
X-306180D01*
G01X-316610Y1235500D02*
X-306290D01*
G01X-316720Y1235000D02*
X-306400D01*
G01X-316830Y1234500D02*
X-306510D01*
G01X-316940Y1234000D02*
X-306620D01*
G01X-317050Y1233500D02*
X-306720D01*
G01X-317160Y1233000D02*
X-306830D01*
G01X-317270Y1232500D02*
X-306940D01*
G01X-317380Y1232000D02*
X-307050D01*
G01X-317490Y1231500D02*
X-307160D01*
G01X-317600Y1231000D02*
X-307270D01*
G01X-317720Y1230500D02*
X-307380D01*
G01X-317830Y1230000D02*
X-307490D01*
G01X-317940Y1229500D02*
X-307600D01*
G01X-318050Y1229000D02*
X-307710D01*
G01X-318160Y1228500D02*
X-307820D01*
G01X-318270Y1228000D02*
X-307930D01*
G01X-318380Y1227500D02*
X-308040D01*
G01X-318490Y1227000D02*
X-308150D01*
G01X-318600Y1226500D02*
X-308260D01*
G01X-318710Y1226000D02*
X-308360D01*
G01X-318820Y1225500D02*
X-308470D01*
G01X-318940Y1225000D02*
X-308580D01*
G01X-319050Y1224500D02*
X-308690D01*
G01X-319160Y1224000D02*
X-308800D01*
G01X-319270Y1223500D02*
X-308910D01*
G01X-319380Y1223000D02*
X-309020D01*
G01X-319490Y1222500D02*
X-309130D01*
G01X-319600Y1222000D02*
X-309240D01*
G01X-319710Y1221500D02*
X-309350D01*
G01X-319820Y1221000D02*
X-309460D01*
G01X-319940Y1220500D02*
X-309570D01*
G01X-320050Y1220000D02*
X-309680D01*
G01X-320160Y1219500D02*
X-309790D01*
G01X-320270Y1219000D02*
X-309870D01*
G01X-320390Y1218500D02*
X-309950D01*
G01X-320510Y1218000D02*
X-310030D01*
G01X-320630Y1217500D02*
X-310110D01*
G01X-320750Y1217000D02*
X-310190D01*
G01X-320920Y1216500D02*
X-310270D01*
G01X-321090Y1216000D02*
X-310350D01*
G01X-321260Y1215500D02*
X-310420D01*
G01X-321440Y1215000D02*
X-310500D01*
G01X-321620Y1214500D02*
X-310580D01*
G01X-321880Y1214000D02*
X-310570D01*
G01X-322140Y1213500D02*
X-310500D01*
G01X-322480Y1213000D02*
X-310370D01*
G01X-322820Y1212500D02*
X-310170D01*
G01X-323260Y1212000D02*
X-309920D01*
G01X-323720Y1211500D02*
X-309620D01*
G01X-323940Y1211000D02*
X-309470D01*
G01X-275520Y1225430D02*
X-273740Y1221700D01*
X-271680Y1217370D01*
X-270080Y1214250D01*
G01X-268010Y1210700D02*
G03X-267870Y1211130I-33J248D01*
G01X-268010Y1210700D02*
X-271910Y1210230D01*
X-274020Y1210380D01*
G01X-279670Y1216420D02*
X-280600Y1218790D01*
X-282830Y1224660D01*
G01X-283200Y1224630D02*
X-284910Y1217170D01*
X-285460Y1213520D01*
G01X-284870Y1210830D02*
X-295060D01*
G01X-292370Y1217070D02*
X-289200Y1230770D01*
G01X-285920Y1235390D02*
X-285110Y1238000D01*
X-284800Y1240090D01*
X-277900D01*
X-274980Y1240020D01*
X-272900Y1239800D01*
G01X-282880Y1226240D02*
X-280520Y1236770D01*
G01X-284810Y1240000D02*
X-274820D01*
G01X-284890Y1239500D02*
X-271640D01*
G01X-284960Y1239000D02*
X-270470D01*
G01X-285030Y1238500D02*
X-269780D01*
G01X-285110Y1238000D02*
X-269270D01*
G01X-285260Y1237500D02*
X-268860D01*
G01X-285420Y1237000D02*
X-268530D01*
G01X-277960Y1236500D02*
X-268280D01*
G01X-285580D02*
X-280580D01*
G01X-276930Y1236000D02*
X-268060D01*
G01X-285730D02*
X-280690D01*
G01X-276410Y1235500D02*
X-267900D01*
G01X-285890D02*
X-280810D01*
G01X-276100Y1235000D02*
X-267770D01*
G01X-286100D02*
X-280920D01*
G01X-275910Y1234500D02*
X-267680D01*
G01X-286340D02*
X-281030D01*
G01X-275820Y1234000D02*
X-267640D01*
G01X-286580D02*
X-281140D01*
G01X-275780Y1233500D02*
X-267610D01*
G01X-286880D02*
X-281250D01*
G01X-275800Y1233000D02*
X-267650D01*
G01X-287180D02*
X-281360D01*
G01X-275840Y1232500D02*
X-267700D01*
G01X-287550D02*
X-281480D01*
G01X-275880Y1232000D02*
X-267740D01*
G01X-287950D02*
X-281590D01*
G01X-275990Y1231500D02*
X-267830D01*
G01X-288400D02*
X-281700D01*
G01X-276100Y1231000D02*
X-267970D01*
G01X-288940D02*
X-281810D01*
G01X-276240Y1230500D02*
X-268110D01*
G01X-289260D02*
X-281920D01*
G01X-276430Y1230000D02*
X-268250D01*
G01X-289370D02*
X-282040D01*
G01X-276630Y1229500D02*
X-268490D01*
G01X-289490D02*
X-282150D01*
G01X-276910Y1229000D02*
X-268730D01*
G01X-289600D02*
X-282260D01*
G01X-277210Y1228500D02*
X-268980D01*
G01X-289720D02*
X-282370D01*
G01X-277610Y1228000D02*
X-269360D01*
G01X-289840D02*
X-282480D01*
G01X-278060Y1227500D02*
X-269770D01*
G01X-289950D02*
X-282600D01*
G01X-278690Y1227000D02*
X-270280D01*
G01X-290070D02*
X-282710D01*
G01X-279560Y1226500D02*
X-270970D01*
G01X-290180D02*
X-282820D01*
G01X-290300Y1226000D02*
X-272020D01*
G01X-290420Y1225500D02*
X-274310D01*
G01X-290530Y1225000D02*
X-275320D01*
G01X-282770Y1224500D02*
X-275080D01*
G01X-290650D02*
X-283230D01*
G01X-282580Y1224000D02*
X-274840D01*
G01X-290760D02*
X-283350D01*
G01X-282390Y1223500D02*
X-274600D01*
G01X-290880D02*
X-283460D01*
G01X-282200Y1223000D02*
X-274360D01*
G01X-291000D02*
X-283580D01*
G01X-282010Y1222500D02*
X-274130D01*
G01X-291110D02*
X-283690D01*
G01X-281820Y1222000D02*
X-273890D01*
G01X-291230D02*
X-283800D01*
G01X-281630Y1221500D02*
X-273650D01*
G01X-291340D02*
X-283920D01*
G01X-281440Y1221000D02*
X-273410D01*
G01X-291460D02*
X-284030D01*
G01X-281250Y1220500D02*
X-273170D01*
G01X-291570D02*
X-284150D01*
G01X-281060Y1220000D02*
X-272940D01*
G01X-291690D02*
X-284260D01*
G01X-280870Y1219500D02*
X-272700D01*
G01X-291800D02*
X-284380D01*
G01X-280680Y1219000D02*
X-272460D01*
G01X-291920D02*
X-284490D01*
G01X-280480Y1218500D02*
X-272220D01*
G01X-292040D02*
X-284600D01*
G01X-280290Y1218000D02*
X-271980D01*
G01X-292150D02*
X-284720D01*
G01X-280090Y1217500D02*
X-271740D01*
G01X-292270D02*
X-284830D01*
G01X-279890Y1217000D02*
X-271490D01*
G01X-292380D02*
X-284930D01*
G01X-279700Y1216500D02*
X-271230D01*
G01X-292500D02*
X-285010D01*
G01X-279480Y1216000D02*
X-270980D01*
G01X-292620D02*
X-285090D01*
G01X-279250Y1215500D02*
X-270720D01*
G01X-292740D02*
X-285160D01*
G01X-279020Y1215000D02*
X-270460D01*
G01X-292890D02*
X-285240D01*
G01X-278770Y1214500D02*
X-270200D01*
G01X-293060D02*
X-285320D01*
G01X-278480Y1214000D02*
X-269930D01*
G01X-293240D02*
X-285390D01*
G01X-278180Y1213500D02*
X-269630D01*
G01X-293420D02*
X-285460D01*
G01X-277830Y1213000D02*
X-269320D01*
G01X-293670D02*
X-285420D01*
G01X-277420Y1212500D02*
X-268970D01*
G01X-293960D02*
X-285330D01*
G01X-277010Y1212000D02*
X-268620D01*
G01X-294300D02*
X-285180D01*
G01X-276500Y1211500D02*
X-268190D01*
G01X-294730D02*
X-284940D01*
G01X-275780Y1211000D02*
X-267800D01*
G01X-295120D02*
X-284780D01*
G01X-274440Y1210500D02*
X-269650D01*
G01X-240920Y1220690D02*
G03X-240550Y1220820I134J209D01*
G01X-240920Y1220690D02*
X-245440Y1223660D01*
X-244480Y1214660D01*
G01X-255970Y1210230D02*
X-259760Y1210640D01*
X-262610Y1211750D01*
X-264670Y1213340D01*
X-266080Y1215240D01*
X-266970Y1217260D01*
G01X-248850Y1240600D02*
X-246550Y1240180D01*
G01X-239680Y1233500D02*
X-239260Y1231230D01*
X-239140Y1228950D01*
X-239250Y1226570D01*
X-239560Y1224320D01*
X-240060Y1222200D01*
G01X-247740Y1225170D02*
X-248330Y1222290D01*
X-249200Y1219510D01*
G01X-259380Y1218690D02*
X-259510Y1220700D01*
X-259350Y1223530D01*
X-258910Y1226490D01*
X-258240Y1229340D01*
X-257410Y1231800D01*
G01X-256670Y1233350D02*
X-255500Y1235110D01*
G01X-247440Y1232290D02*
X-247310Y1230230D01*
X-247420Y1227900D01*
X-247740Y1225170D01*
G01X-253520Y1240500D02*
X-248310D01*
G01X-256100Y1240000D02*
X-246000D01*
G01X-257590Y1239500D02*
X-244720D01*
G01X-258660Y1239000D02*
X-243770D01*
G01X-259560Y1238500D02*
X-242980D01*
G01X-260370Y1238000D02*
X-242410D01*
G01X-261010Y1237500D02*
X-241850D01*
G01X-250450Y1237000D02*
X-241430D01*
G01X-261640D02*
X-252900D01*
G01X-249490Y1236500D02*
X-241040D01*
G01X-262150D02*
X-253950D01*
G01X-248910Y1236000D02*
X-240730D01*
G01X-262650D02*
X-254620D01*
G01X-248550Y1235500D02*
X-240450D01*
G01X-263090D02*
X-255130D01*
G01X-248230Y1235000D02*
X-240220D01*
G01X-263490D02*
X-255580D01*
G01X-248020Y1234500D02*
X-240000D01*
G01X-263890D02*
X-255910D01*
G01X-247810Y1234000D02*
X-239840D01*
G01X-264220D02*
X-256240D01*
G01X-247690Y1233500D02*
X-239680D01*
G01X-264540D02*
X-256580D01*
G01X-247580Y1233000D02*
X-239580D01*
G01X-264860D02*
X-256840D01*
G01X-247480Y1232500D02*
X-239490D01*
G01X-265120D02*
X-257080D01*
G01X-247420Y1232000D02*
X-239400D01*
G01X-265380D02*
X-257320D01*
G01X-247390Y1231500D02*
X-239310D01*
G01X-265630D02*
X-257510D01*
G01X-247360Y1231000D02*
X-239240D01*
G01X-265860D02*
X-257680D01*
G01X-247330Y1230500D02*
X-239220D01*
G01X-266050D02*
X-257850D01*
G01X-247320Y1230000D02*
X-239200D01*
G01X-266250D02*
X-258020D01*
G01X-247340Y1229500D02*
X-239170D01*
G01X-266450D02*
X-258190D01*
G01X-247370Y1229000D02*
X-239140D01*
G01X-266600D02*
X-258320D01*
G01X-247390Y1228500D02*
X-239160D01*
G01X-266740D02*
X-258440D01*
G01X-247410Y1228000D02*
X-239180D01*
G01X-266890D02*
X-258560D01*
G01X-247460Y1227500D02*
X-239210D01*
G01X-267020D02*
X-258680D01*
G01X-247520Y1227000D02*
X-239230D01*
G01X-267130D02*
X-258790D01*
G01X-247580Y1226500D02*
X-239260D01*
G01X-267230D02*
X-258910D01*
G01X-247640Y1226000D02*
X-239330D01*
G01X-267340D02*
X-258980D01*
G01X-247700Y1225500D02*
X-239400D01*
G01X-267410D02*
X-259060D01*
G01X-247780Y1225000D02*
X-239460D01*
G01X-267470D02*
X-259130D01*
G01X-247880Y1224500D02*
X-239530D01*
G01X-267540D02*
X-259210D01*
G01X-247980Y1224000D02*
X-239630D01*
G01X-267600D02*
X-259280D01*
G01X-245200Y1223500D02*
X-239750D01*
G01X-248080D02*
X-245420D01*
G01X-267620D02*
X-259350D01*
G01X-244440Y1223000D02*
X-239870D01*
G01X-248180D02*
X-245370D01*
G01X-267640D02*
X-259380D01*
G01X-243680Y1222500D02*
X-239990D01*
G01X-248280D02*
X-245310D01*
G01X-267660D02*
X-259410D01*
G01X-242920Y1222000D02*
X-240130D01*
G01X-248420D02*
X-245260D01*
G01X-267680D02*
X-259440D01*
G01X-248570Y1221500D02*
X-245210D01*
G01X-267670D02*
X-259460D01*
G01X-248730Y1221000D02*
X-245150D01*
G01X-267650D02*
X-259490D01*
G01X-248890Y1220500D02*
X-245100D01*
G01X-267600D02*
X-259500D01*
G01X-249040Y1220000D02*
X-245050D01*
G01X-267540D02*
X-259470D01*
G01X-249200Y1219500D02*
X-245000D01*
G01X-267480D02*
X-259440D01*
G01X-249420Y1219000D02*
X-244940D01*
G01X-267400D02*
X-259400D01*
G01X-249640Y1218500D02*
X-244890D01*
G01X-267280D02*
X-259340D01*
G01X-249870Y1218000D02*
X-244840D01*
G01X-267150D02*
X-259240D01*
G01X-250160Y1217500D02*
X-244780D01*
G01X-267020D02*
X-259130D01*
G01X-250440Y1217000D02*
X-244730D01*
G01X-266850D02*
X-259000D01*
G01X-250780Y1216500D02*
X-244680D01*
G01X-266630D02*
X-258790D01*
G01X-251150Y1216000D02*
X-244620D01*
G01X-266410D02*
X-258580D01*
G01X-251600Y1215500D02*
X-244570D01*
G01X-266190D02*
X-258260D01*
G01X-252100Y1215000D02*
X-244520D01*
G01X-265900D02*
X-257900D01*
G01X-252750Y1214500D02*
X-244660D01*
G01X-265520D02*
X-257340D01*
G01X-253760Y1214000D02*
X-245220D01*
G01X-265150D02*
X-256500D01*
G01X-264780Y1213500D02*
X-245830D01*
G01X-264220Y1213000D02*
X-246520D01*
G01X-263580Y1212500D02*
X-247320D01*
G01X-262930Y1212000D02*
X-248200D01*
G01X-261970Y1211500D02*
X-249300D01*
G01X-260680Y1211000D02*
X-250700D01*
G01X-258470Y1210500D02*
X-252780D01*
G01X-287240Y1241370D02*
X-287430Y1239050D01*
X-288000Y1236760D01*
X-288990Y1234580D01*
X-290410Y1232600D01*
X-292290Y1230900D01*
X-294650Y1229580D01*
X-297520Y1228720D01*
X-300940Y1228410D01*
G01X-305010Y1229240D02*
G03X-304830Y1228910I235J-86D01*
G01X-301160Y1245500D02*
X-288140D01*
G01X-300070Y1245000D02*
X-287900D01*
G01X-299510Y1244500D02*
X-287730D01*
G01X-299170Y1244000D02*
X-287560D01*
G01X-298850Y1243500D02*
X-287460D01*
G01X-298690Y1243000D02*
X-287370D01*
G01X-298540Y1242500D02*
X-287310D01*
G01X-298430Y1242000D02*
X-287280D01*
G01X-298390Y1241500D02*
X-287250D01*
G01X-298340Y1241000D02*
X-287270D01*
G01X-298310Y1240500D02*
X-287310D01*
G01X-298330Y1240000D02*
X-287350D01*
G01X-298350Y1239500D02*
X-287390D01*
G01X-298390Y1239000D02*
X-287440D01*
G01X-298450Y1238500D02*
X-287570D01*
G01X-298510Y1238000D02*
X-287690D01*
G01X-298600Y1237500D02*
X-287820D01*
G01X-298700Y1237000D02*
X-287940D01*
G01X-298810Y1236500D02*
X-288120D01*
G01X-298950Y1236000D02*
X-288350D01*
G01X-299100Y1235500D02*
X-288570D01*
G01X-299280Y1235000D02*
X-288800D01*
G01X-299470Y1234500D02*
X-289040D01*
G01X-299680Y1234000D02*
X-289400D01*
G01X-299930Y1233500D02*
X-289760D01*
G01X-300190Y1233000D02*
X-290120D01*
G01X-300520Y1232500D02*
X-290520D01*
G01X-300850Y1232000D02*
X-291070D01*
G01X-301270Y1231500D02*
X-291620D01*
G01X-301710Y1231000D02*
X-292180D01*
G01X-302300Y1230500D02*
X-293000D01*
G01X-303100Y1230000D02*
X-293900D01*
G01X-304320Y1229500D02*
X-294910D01*
G01X-304970Y1229000D02*
X-296580D01*
G01X-302580Y1228500D02*
X-299950D01*
G01X-214900Y1223740D02*
X-215140Y1221150D01*
X-215880Y1218660D01*
X-217110Y1216340D01*
X-218840Y1214280D01*
X-221070Y1212540D01*
X-223800Y1211190D01*
X-227040Y1210330D01*
X-230810Y1210020D01*
X-233050Y1210100D01*
X-235790Y1210410D01*
G01X-242030Y1212230D02*
X-242920Y1219020D01*
G02X-242520Y1219240I246J26D01*
G01X-238090Y1238760D02*
X-237790Y1241490D01*
X-236920Y1243890D01*
X-235520Y1245950D01*
X-233660Y1247660D01*
X-231380Y1249020D01*
X-228730Y1250010D01*
X-225760Y1250610D01*
X-222530Y1250810D01*
X-219570Y1250660D01*
X-217060Y1250240D01*
G01X-232260Y1248500D02*
X-213350D01*
G01X-233100Y1248000D02*
X-213380D01*
G01X-233840Y1247500D02*
X-213410D01*
G01X-234380Y1247000D02*
X-213440D01*
G01X-234930Y1246500D02*
X-213460D01*
G01X-235470Y1246000D02*
X-213490D01*
G01X-235830Y1245500D02*
X-225660D01*
G01X-236170Y1245000D02*
X-226670D01*
G01X-236500Y1244500D02*
X-227200D01*
G01X-236840Y1244000D02*
X-227550D01*
G01X-237060Y1243500D02*
X-227780D01*
G01X-237240Y1243000D02*
X-227900D01*
G01X-237420Y1242500D02*
X-227960D01*
G01X-237600Y1242000D02*
X-227960D01*
G01X-237790Y1241500D02*
X-227910D01*
G01X-237840Y1241000D02*
X-227790D01*
G01X-237900Y1240500D02*
X-227610D01*
G01X-237950Y1240000D02*
X-227350D01*
G01X-238010Y1239500D02*
X-227040D01*
G01X-238060Y1239000D02*
X-226620D01*
G01X-238070Y1238500D02*
X-226180D01*
G01X-238040Y1238000D02*
X-225620D01*
G01X-238000Y1237500D02*
X-225070D01*
G01X-237950Y1237000D02*
X-224520D01*
G01X-237830Y1236500D02*
X-223950D01*
G01X-237710Y1236000D02*
X-223340D01*
G01X-237590Y1235500D02*
X-222740D01*
G01X-237380Y1235000D02*
X-222130D01*
G01X-237170Y1234500D02*
X-221520D01*
G01X-236940Y1234000D02*
X-220920D01*
G01X-236630Y1233500D02*
X-220320D01*
G01X-236330Y1233000D02*
X-219740D01*
G01X-235960Y1232500D02*
X-219180D01*
G01X-235570Y1232000D02*
X-218640D01*
G01X-235160Y1231500D02*
X-218140D01*
G01X-234680Y1231000D02*
X-217650D01*
G01X-234200Y1230500D02*
X-217250D01*
G01X-233670Y1230000D02*
X-216840D01*
G01X-233130Y1229500D02*
X-216510D01*
G01X-232570Y1229000D02*
X-216210D01*
G01X-242790Y1218000D02*
X-240740D01*
G01X-242720Y1217500D02*
X-239930D01*
G01X-242660Y1217000D02*
X-239030D01*
G01X-242590Y1216500D02*
X-238060D01*
G01X-242520Y1216000D02*
X-236890D01*
G01X-242460Y1215500D02*
X-235450D01*
G01X-242390Y1215000D02*
X-233330D01*
G01X-242330Y1214500D02*
X-218650D01*
G01X-242260Y1214000D02*
X-219190D01*
G01X-242190Y1213500D02*
X-219830D01*
G01X-242130Y1213000D02*
X-220470D01*
G01X-242060Y1212500D02*
X-221140D01*
G01X-241450Y1212000D02*
X-222160D01*
G01X-240130Y1211500D02*
X-223180D01*
G01X-238490Y1211000D02*
X-224530D01*
G01X-236240Y1210500D02*
X-226410D01*
G01X-223570Y1188640D02*
X-221350Y1188180D01*
X-218670Y1189070D01*
X-217560Y1191530D01*
G01X-221000Y1194000D02*
X-222910Y1195200D01*
G01X-214990Y1199840D02*
G03X-215010Y1200220I-175J181D01*
G01X-218530Y1200380D02*
X-220660Y1199730D01*
G01X-218360Y1194910D02*
X-216540Y1193880D01*
X-215820Y1191910D01*
G01X-221770Y1187140D02*
X-224650Y1187800D01*
G01X-225620Y1188800D02*
G03X-225570Y1188420I185J-169D01*
G01X-221800Y1200500D02*
X-215360D01*
G01X-217000Y1200000D02*
X-214920D01*
G01X-222370D02*
X-219770D01*
G01X-223190Y1196000D02*
X-221170D01*
G01X-223020Y1195500D02*
X-220100D01*
G01X-222590Y1195000D02*
X-218670D01*
G01X-221790Y1194500D02*
X-217640D01*
G01X-221000Y1194000D02*
X-216750D01*
G01X-219510Y1193500D02*
X-216400D01*
G01X-218300Y1193000D02*
X-216220D01*
G01X-220390Y1188500D02*
X-217580D01*
G01X-225650D02*
X-222900D01*
G01X-224950Y1188000D02*
X-218280D01*
G01X-223350Y1187500D02*
X-219390D01*
G01X-168020Y1187380D02*
X-177780D01*
G02X-178020Y1187690I5J252D01*
G01X-175150Y1201210D01*
X-165530D01*
G02X-165280Y1200910I6J-249D01*
G01X-165470Y1200000D02*
X-173980D01*
X-174990Y1195290D01*
X-167460D01*
G02X-167220Y1194990I-3J-248D01*
G01X-167410Y1194080D02*
X-175240D01*
X-176410Y1188600D01*
X-168070D01*
G02X-167830Y1188300I-4J-249D01*
G01X-175300Y1200500D02*
X-165370D01*
G01X-175410Y1200000D02*
X-165470D01*
G01X-176470Y1195000D02*
X-167220D01*
G01X-176570Y1194500D02*
X-167320D01*
G01X-177850Y1188500D02*
X-167870D01*
G01X-177950Y1188000D02*
X-167890D01*
G01X-177980Y1187500D02*
X-168000D01*
G01X-186880Y1187690D02*
G03X-186640Y1187380I244J-59D01*
G01X-186880Y1187690D02*
X-184260Y1200000D01*
X-188810D01*
G02X-189060Y1200300I-5J250D01*
G01X-177980Y1200000D02*
X-182840D01*
X-185520Y1187380D01*
G01X-189020Y1200500D02*
X-177880D01*
G01X-188850Y1200000D02*
X-177980D01*
G01X-199690Y1188640D02*
X-197470Y1188180D01*
X-194800Y1189070D01*
X-193680Y1191530D01*
G01X-197120Y1194000D02*
X-199040Y1195200D01*
G01X-191120Y1199840D02*
G03X-191140Y1200220I-172J181D01*
G01X-194660Y1200380D02*
X-196780Y1199730D01*
G01X-194480Y1194910D02*
X-192670Y1193880D01*
X-191950Y1191910D01*
G01X-197900Y1187140D02*
X-200780Y1187800D01*
G01X-201740Y1188800D02*
G03X-201700Y1188420I181J-173D01*
G01X-197920Y1200500D02*
X-191490D01*
G01X-193120Y1200000D02*
X-191040D01*
G01X-198490D02*
X-195900D01*
G01X-199320Y1196000D02*
X-197300D01*
G01X-199140Y1195500D02*
X-196220D01*
G01X-198720Y1195000D02*
X-194800D01*
G01X-197920Y1194500D02*
X-193760D01*
G01X-197120Y1194000D02*
X-192870D01*
G01X-195630Y1193500D02*
X-192530D01*
G01X-194420Y1193000D02*
X-192350D01*
G01X-196520Y1188500D02*
X-193700D01*
G01X-201770D02*
X-199030D01*
G01X-201080Y1188000D02*
X-194400D01*
G01X-199480Y1187500D02*
X-195520D01*
G01X-210850Y1201210D02*
X-208090Y1194080D01*
X-202330Y1201210D01*
G01X-201060Y1200800D02*
G03X-201250Y1201210I-190J161D01*
G01X-201060Y1200800D02*
X-207630Y1193010D01*
X-208820Y1187380D01*
G01X-210180Y1187690D02*
G03X-209940Y1187380I244J-59D01*
G01X-210180Y1187690D02*
X-209070Y1192920D01*
X-212400Y1200870D01*
G02X-212170Y1201210I229J93D01*
G01X-209520Y1194000D02*
X-206800D01*
G01X-209310Y1193500D02*
X-207220D01*
G01X-157480Y1189100D02*
X-150830Y1201210D01*
G01X-150690Y1199420D02*
X-157300Y1187380D01*
G01X-158850D02*
X-160310Y1199420D01*
G01X-160790D02*
X-161550Y1195650D01*
X-163300Y1187380D01*
G01X-164600Y1187690D02*
G03X-164360Y1187380I245J-58D01*
G01X-164600Y1187690D02*
X-161730Y1201210D01*
X-159390D01*
X-157890Y1189100D01*
G01X-161880Y1200500D02*
X-159300D01*
G01X-161990Y1200000D02*
X-159240D01*
G01X-162090Y1199500D02*
X-159180D01*
G01X-159040Y1189000D02*
X-156420D01*
G01X-158980Y1188500D02*
X-156690D01*
G01X-218410Y1201500D02*
X-215840Y1200890D01*
G01X-220960Y1201000D02*
X-216300D01*
G01X-180750Y1240090D02*
G03X-180950Y1239700I3J-248D01*
G01X-180750Y1240090D02*
X-165360D01*
G02X-165120Y1239780I0J-248D01*
G01X-166200Y1235300D01*
G02X-166640Y1235190I-247J54D01*
G01X-169470Y1236220D02*
X-172610D01*
X-174510Y1227890D01*
X-171420D01*
X-168450Y1228200D01*
G02X-168180Y1227900I27J-247D01*
G01X-169290Y1223070D01*
G01X-172070Y1224010D02*
X-175380D01*
X-176870Y1217170D01*
X-177420Y1213390D01*
G01X-176960Y1210830D02*
G03X-176760Y1211220I-2J247D01*
G01X-176960Y1210830D02*
X-187350D01*
G01X-185050Y1214960D02*
X-184500Y1217070D01*
X-180840Y1233750D01*
X-180280Y1237530D01*
G01X-180940Y1240000D02*
X-165160D01*
G01X-180840Y1239500D02*
X-165190D01*
G01X-180580Y1239000D02*
X-165310D01*
G01X-180410Y1238500D02*
X-165430D01*
G01X-180320Y1238000D02*
X-165550D01*
G01X-180280Y1237500D02*
X-165670D01*
G01X-180360Y1237000D02*
X-165790D01*
G01X-180430Y1236500D02*
X-165910D01*
G01X-180510Y1236000D02*
X-172660D01*
G01X-180580Y1235500D02*
X-172780D01*
G01X-180660Y1235000D02*
X-172890D01*
G01X-180730Y1234500D02*
X-173000D01*
G01X-180800Y1234000D02*
X-173120D01*
G01X-180900Y1233500D02*
X-173230D01*
G01X-181000Y1233000D02*
X-173340D01*
G01X-181110Y1232500D02*
X-173460D01*
G01X-181220Y1232000D02*
X-173570D01*
G01X-181330Y1231500D02*
X-173690D01*
G01X-181440Y1231000D02*
X-173800D01*
G01X-181550Y1230500D02*
X-173920D01*
G01X-181660Y1230000D02*
X-174030D01*
G01X-181770Y1229500D02*
X-174140D01*
G01X-181880Y1229000D02*
X-174260D01*
G01X-181990Y1228500D02*
X-174370D01*
G01X-170370Y1228000D02*
X-168180D01*
G01X-182100D02*
X-174480D01*
G01X-182210Y1227500D02*
X-168270D01*
G01X-182320Y1227000D02*
X-168390D01*
G01X-182430Y1226500D02*
X-168500D01*
G01X-182540Y1226000D02*
X-168620D01*
G01X-182650Y1225500D02*
X-168730D01*
G01X-182760Y1225000D02*
X-168850D01*
G01X-182870Y1224500D02*
X-168960D01*
G01X-171720Y1224000D02*
X-169080D01*
G01X-182980D02*
X-175380D01*
G01X-183090Y1223500D02*
X-175490D01*
G01X-183200Y1223000D02*
X-175600D01*
G01X-183310Y1222500D02*
X-175710D01*
G01X-183420Y1222000D02*
X-175820D01*
G01X-183530Y1221500D02*
X-175920D01*
G01X-183640Y1221000D02*
X-176030D01*
G01X-183750Y1220500D02*
X-176140D01*
G01X-183860Y1220000D02*
X-176250D01*
G01X-183970Y1219500D02*
X-176360D01*
G01X-184080Y1219000D02*
X-176470D01*
G01X-184190Y1218500D02*
X-176580D01*
G01X-184300Y1218000D02*
X-176690D01*
G01X-184410Y1217500D02*
X-176800D01*
G01X-184520Y1217000D02*
X-176900D01*
G01X-184650Y1216500D02*
X-176970D01*
G01X-184780Y1216000D02*
X-177040D01*
G01X-184910Y1215500D02*
X-177120D01*
G01X-185040Y1215000D02*
X-177190D01*
G01X-185230Y1214500D02*
X-177260D01*
G01X-185420Y1214000D02*
X-177340D01*
G01X-185620Y1213500D02*
X-177410D01*
G01X-185840Y1213000D02*
X-177390D01*
G01X-186130Y1212500D02*
X-177320D01*
G01X-186480Y1212000D02*
X-177170D01*
G01X-186890Y1211500D02*
X-176910D01*
G01X-187380Y1211000D02*
X-176720D01*
G01X-185250Y1233500D02*
X-184830Y1231230D01*
X-184720Y1228950D01*
X-185030Y1224910D01*
X-185930Y1221280D01*
X-187390Y1218080D01*
X-189360Y1215370D01*
X-191790Y1213190D01*
X-194660Y1211570D01*
X-197930Y1210570D01*
X-201560Y1210230D01*
X-205340Y1210640D01*
X-208180Y1211750D01*
X-210240Y1213340D01*
X-211660Y1215240D01*
X-212540Y1217260D01*
G01X-194430Y1240600D02*
X-192130Y1240180D01*
G01X-193320Y1225170D02*
X-193900Y1222290D01*
X-194780Y1219510D01*
G01X-204960Y1218690D02*
X-205080Y1220700D01*
X-204920Y1223530D01*
X-204480Y1226490D01*
X-203820Y1229340D01*
X-202980Y1231800D01*
G01X-202250Y1233350D02*
X-201080Y1235110D01*
G01X-193010Y1232290D02*
X-192890Y1230230D01*
X-192990Y1227900D01*
X-193320Y1225170D01*
G01X-199100Y1240500D02*
X-193890D01*
G01X-201680Y1240000D02*
X-191570D01*
G01X-203160Y1239500D02*
X-190300D01*
G01X-204230Y1239000D02*
X-189350D01*
G01X-205140Y1238500D02*
X-188560D01*
G01X-205950Y1238000D02*
X-187990D01*
G01X-206590Y1237500D02*
X-187430D01*
G01X-196020Y1237000D02*
X-187010D01*
G01X-207220D02*
X-198470D01*
G01X-195070Y1236500D02*
X-186620D01*
G01X-207730D02*
X-199530D01*
G01X-194480Y1236000D02*
X-186310D01*
G01X-208230D02*
X-200200D01*
G01X-194120Y1235500D02*
X-186020D01*
G01X-208670D02*
X-200710D01*
G01X-193810Y1235000D02*
X-185800D01*
G01X-209070D02*
X-201150D01*
G01X-193600Y1234500D02*
X-185580D01*
G01X-209460D02*
X-201480D01*
G01X-193390Y1234000D02*
X-185410D01*
G01X-209800D02*
X-201820D01*
G01X-193270Y1233500D02*
X-185250D01*
G01X-210110D02*
X-202150D01*
G01X-193160Y1233000D02*
X-185160D01*
G01X-210430D02*
X-202420D01*
G01X-193060Y1232500D02*
X-185070D01*
G01X-210700D02*
X-202650D01*
G01X-193000Y1232000D02*
X-184970D01*
G01X-210950D02*
X-202890D01*
G01X-192970Y1231500D02*
X-184880D01*
G01X-211210D02*
X-203090D01*
G01X-192940Y1231000D02*
X-184820D01*
G01X-211430D02*
X-203260D01*
G01X-192910Y1230500D02*
X-184790D01*
G01X-211630D02*
X-203430D01*
G01X-192900Y1230000D02*
X-184770D01*
G01X-211830D02*
X-203600D01*
G01X-192920Y1229500D02*
X-184740D01*
G01X-212020D02*
X-203760D01*
G01X-192940Y1229000D02*
X-184720D01*
G01X-212170D02*
X-203900D01*
G01X-192970Y1228500D02*
X-184750D01*
G01X-212320D02*
X-204020D01*
G01X-192990Y1228000D02*
X-184790D01*
G01X-212470D02*
X-204130D01*
G01X-193040Y1227500D02*
X-184830D01*
G01X-212600D02*
X-204250D01*
G01X-193100Y1227000D02*
X-184870D01*
G01X-212700D02*
X-204370D01*
G01X-193160Y1226500D02*
X-184900D01*
G01X-212810D02*
X-204480D01*
G01X-193220Y1226000D02*
X-184940D01*
G01X-212910D02*
X-204560D01*
G01X-193280Y1225500D02*
X-184980D01*
G01X-212990D02*
X-204630D01*
G01X-193350Y1225000D02*
X-185020D01*
G01X-213050D02*
X-204710D01*
G01X-193460Y1224500D02*
X-185130D01*
G01X-213110D02*
X-204780D01*
G01X-193560Y1224000D02*
X-185260D01*
G01X-213170D02*
X-204860D01*
G01X-193660Y1223500D02*
X-185380D01*
G01X-213200D02*
X-204930D01*
G01X-193760Y1223000D02*
X-185500D01*
G01X-213220D02*
X-204960D01*
G01X-193860Y1222500D02*
X-185630D01*
G01X-213240D02*
X-204980D01*
G01X-193990Y1222000D02*
X-185750D01*
G01X-213260D02*
X-205010D01*
G01X-194150Y1221500D02*
X-185880D01*
G01X-213240D02*
X-205040D01*
G01X-194310Y1221000D02*
X-186060D01*
G01X-213230D02*
X-205070D01*
G01X-194460Y1220500D02*
X-186290D01*
G01X-213180D02*
X-205070D01*
G01X-194620Y1220000D02*
X-186520D01*
G01X-213120D02*
X-205040D01*
G01X-194780Y1219500D02*
X-186740D01*
G01X-213060D02*
X-205010D01*
G01X-195000Y1219000D02*
X-186970D01*
G01X-212980D02*
X-204980D01*
G01X-195220Y1218500D02*
X-187200D01*
G01X-212850D02*
X-204920D01*
G01X-195450Y1218000D02*
X-187450D01*
G01X-212730D02*
X-204810D01*
G01X-195730Y1217500D02*
X-187810D01*
G01X-212600D02*
X-204700D01*
G01X-196020Y1217000D02*
X-188180D01*
G01X-212430D02*
X-204570D01*
G01X-196360Y1216500D02*
X-188540D01*
G01X-212210D02*
X-204360D01*
G01X-196720Y1216000D02*
X-188900D01*
G01X-211990D02*
X-204150D01*
G01X-197170Y1215500D02*
X-189260D01*
G01X-211770D02*
X-203840D01*
G01X-197680Y1215000D02*
X-189770D01*
G01X-211470D02*
X-203480D01*
G01X-198330Y1214500D02*
X-190330D01*
G01X-211100D02*
X-202920D01*
G01X-199340Y1214000D02*
X-190890D01*
G01X-210730D02*
X-202080D01*
G01X-210360Y1213500D02*
X-191450D01*
G01X-209800Y1213000D02*
X-192130D01*
G01X-209150Y1212500D02*
X-193020D01*
G01X-208510Y1212000D02*
X-193910D01*
G01X-207540Y1211500D02*
X-194910D01*
G01X-206260Y1211000D02*
X-196540D01*
G01X-204050Y1210500D02*
X-198680D01*
G01X-175200Y1201000D02*
X-165280D01*
G01X-188870Y1201210D02*
X-178040D01*
G02X-177800Y1200910I-2J-247D01*
G01X-188910Y1201000D02*
X-177790D01*
G01X-194530Y1201500D02*
X-191970Y1200890D01*
G01X-197090Y1201000D02*
X-192420D01*
G01X-217060Y1250240D02*
X-214940Y1249650D01*
G01X-213320Y1249020D02*
X-213700Y1242300D01*
G02X-214110Y1242130I-249J21D01*
G01X-226270Y1238590D02*
X-224150Y1236660D01*
X-221160Y1234200D01*
G01X-226710Y1223700D02*
X-228640Y1225610D01*
X-231550Y1228120D01*
G01X-226300Y1250500D02*
X-218610D01*
G01X-228750Y1250000D02*
X-216180D01*
G01X-230100Y1249500D02*
X-214550D01*
G01X-231420Y1249000D02*
X-213320D01*
G01X-219750Y1245500D02*
X-213520D01*
G01X-218480Y1245000D02*
X-213550D01*
G01X-217490Y1244500D02*
X-213580D01*
G01X-216660Y1244000D02*
X-213610D01*
G01X-215920Y1243500D02*
X-213640D01*
G01X-231990Y1228500D02*
X-215930D01*
G01X-231410Y1228000D02*
X-215720D01*
G01X-230830Y1227500D02*
X-215520D01*
G01X-230250Y1227000D02*
X-215350D01*
G01X-229670Y1226500D02*
X-215230D01*
G01X-229090Y1226000D02*
X-215120D01*
G01X-228520Y1225500D02*
X-215020D01*
G01X-228020Y1225000D02*
X-214980D01*
G01X-227520Y1224500D02*
X-214950D01*
G01X-227020Y1224000D02*
X-214910D01*
G01X-226570Y1223500D02*
X-214920D01*
G01X-226200Y1223000D02*
X-214960D01*
G01X-225900Y1222500D02*
X-215010D01*
G01X-225660Y1222000D02*
X-215060D01*
G01X-225500Y1221500D02*
X-215110D01*
G01X-225370Y1221000D02*
X-215180D01*
G01X-225320Y1220500D02*
X-215330D01*
G01X-225280Y1220000D02*
X-215480D01*
G01X-225320Y1219500D02*
X-215630D01*
G01X-225380Y1219000D02*
X-215780D01*
G01X-225500Y1218500D02*
X-215960D01*
G01X-225680Y1218000D02*
X-216230D01*
G01X-225930Y1217500D02*
X-216500D01*
G01X-226260Y1217000D02*
X-216760D01*
G01X-226740Y1216500D02*
X-217030D01*
G01X-227360Y1216000D02*
X-217400D01*
G01X-228280Y1215500D02*
X-217820D01*
G01X-230030Y1215000D02*
X-218230D01*
G01X-153960Y1210830D02*
X-164580D01*
G01X-162340Y1214830D02*
X-161770Y1217070D01*
X-157540Y1236220D01*
X-160280D01*
G01X-163800Y1235570D02*
G03X-163400Y1235310I244J-62D01*
G01X-163800Y1235570D02*
X-162760Y1240090D01*
X-142320D01*
G02X-142090Y1239740I1J-250D01*
G01X-162780Y1240000D02*
X-142130D01*
G01X-162900Y1239500D02*
X-142200D01*
G01X-163010Y1239000D02*
X-142440D01*
G01X-163130Y1238500D02*
X-142670D01*
G01X-163240Y1238000D02*
X-142900D01*
G01X-163350Y1237500D02*
X-143130D01*
G01X-163470Y1237000D02*
X-143360D01*
G01X-163580Y1236500D02*
X-143590D01*
G01X-157590Y1236000D02*
X-149980D01*
G01X-157700Y1235500D02*
X-150090D01*
G01X-157810Y1235000D02*
X-150200D01*
G01X-157920Y1234500D02*
X-150310D01*
G01X-158030Y1234000D02*
X-150420D01*
G01X-158140Y1233500D02*
X-150530D01*
G01X-158250Y1233000D02*
X-150640D01*
G01X-158360Y1232500D02*
X-150750D01*
G01X-158480Y1232000D02*
X-150860D01*
G01X-158580Y1231500D02*
X-150970D01*
G01X-158700Y1231000D02*
X-151080D01*
G01X-158810Y1230500D02*
X-151190D01*
G01X-158920Y1230000D02*
X-151300D01*
G01X-159030Y1229500D02*
X-151420D01*
G01X-159140Y1229000D02*
X-151520D01*
G01X-159250Y1228500D02*
X-151640D01*
G01X-159360Y1228000D02*
X-151750D01*
G01X-159470Y1227500D02*
X-151860D01*
G01X-159580Y1227000D02*
X-151970D01*
G01X-159690Y1226500D02*
X-152080D01*
G01X-159800Y1226000D02*
X-152190D01*
G01X-159910Y1225500D02*
X-152300D01*
G01X-160020Y1225000D02*
X-152410D01*
G01X-160130Y1224500D02*
X-152520D01*
G01X-160240Y1224000D02*
X-152630D01*
G01X-160350Y1223500D02*
X-152740D01*
G01X-160460Y1223000D02*
X-152850D01*
G01X-160570Y1222500D02*
X-152960D01*
G01X-160680Y1222000D02*
X-153080D01*
G01X-160800Y1221500D02*
X-153180D01*
G01X-160900Y1221000D02*
X-153300D01*
G01X-161020Y1220500D02*
X-153410D01*
G01X-161130Y1220000D02*
X-153520D01*
G01X-161240Y1219500D02*
X-153630D01*
G01X-161350Y1219000D02*
X-153740D01*
G01X-161460Y1218500D02*
X-153850D01*
G01X-161570Y1218000D02*
X-153960D01*
G01X-161680Y1217500D02*
X-154070D01*
G01X-161790Y1217000D02*
X-154170D01*
G01X-161920Y1216500D02*
X-154240D01*
G01X-162040Y1216000D02*
X-154320D01*
G01X-162170Y1215500D02*
X-154390D01*
G01X-162290Y1215000D02*
X-154460D01*
G01X-162470Y1214500D02*
X-154540D01*
G01X-162660Y1214000D02*
X-154610D01*
G01X-162860Y1213500D02*
X-154680D01*
G01X-163080Y1213000D02*
X-154650D01*
G01X-163380Y1212500D02*
X-154590D01*
G01X-163740Y1212000D02*
X-154410D01*
G01X-164170Y1211500D02*
X-154190D01*
G01X-164640Y1211000D02*
X-153900D01*
G01X-161770Y1201000D02*
X-159360D01*
G01X-145500Y1188640D02*
X-143280Y1188180D01*
X-140600Y1189070D01*
X-139490Y1191530D01*
G01X-142930Y1194000D02*
X-144850Y1195200D01*
G01X-136920Y1199840D02*
G03X-136940Y1200220I-179J181D01*
G01X-140470Y1200380D02*
X-142590Y1199730D01*
G01X-140290Y1194910D02*
X-138480Y1193880D01*
X-137750Y1191910D01*
G01X-143710Y1187140D02*
X-146590Y1187800D01*
G01X-147550Y1188800D02*
G03X-147510Y1188420I183J-173D01*
G01X-143730Y1200500D02*
X-137300D01*
G01X-138930Y1200000D02*
X-136850D01*
G01X-144300D02*
X-141710D01*
G01X-145130Y1196000D02*
X-143100D01*
G01X-144950Y1195500D02*
X-142030D01*
G01X-144520Y1195000D02*
X-140610D01*
G01X-143730Y1194500D02*
X-139570D01*
G01X-142930Y1194000D02*
X-138680D01*
G01X-141440Y1193500D02*
X-138340D01*
G01X-140230Y1193000D02*
X-138150D01*
G01X-142330Y1188500D02*
X-139510D01*
G01X-147580D02*
X-144840D01*
G01X-146890Y1188000D02*
X-140210D01*
G01X-145280Y1187500D02*
X-141320D01*
G01X-148610Y1200910D02*
X-151480Y1187380D01*
G01X-152780Y1187690D02*
G03X-152530Y1187380I247J-57D01*
G01X-152780Y1187690D02*
X-151110Y1195550D01*
X-150210Y1199420D01*
G01X-151220Y1200500D02*
X-148700D01*
G01X-151500Y1200000D02*
X-148800D01*
G01X-151770Y1199500D02*
X-148910D01*
G01X-135390Y1242500D02*
Y1248370D01*
G01X-134260D02*
X-132110Y1248360D01*
G01X-130580Y1242500D02*
G03X-130360Y1242880I5J251D01*
G01X-134510Y1245130D02*
Y1242500D01*
G01Y1245620D02*
Y1247870D01*
G01X-135390Y1248000D02*
X-131390D01*
G01X-135390Y1245500D02*
X-131490D01*
G01X-132710Y1251200D02*
X-129600Y1250440D01*
X-127350Y1248340D01*
X-126520Y1245450D01*
X-127350Y1242570D01*
X-129620Y1240480D01*
X-132710Y1239710D01*
X-135830Y1240490D01*
X-138080Y1242600D01*
X-138900Y1245450D01*
X-138060Y1248360D01*
X-135760Y1250460D01*
X-132710Y1251200D01*
G01X-137420Y1242880D02*
X-138160Y1245450D01*
X-137400Y1248010D01*
X-135430Y1249860D01*
X-132700Y1250530D01*
X-130010Y1249890D01*
X-128000Y1248030D01*
X-127240Y1245450D01*
X-127970Y1242910D01*
X-129960Y1241030D01*
X-132700Y1240350D01*
X-135400Y1241010D01*
X-137420Y1242880D01*
G01X-132570Y1250500D02*
X-129860D01*
G01X-135610D02*
X-132840D01*
G01X-132090Y1240500D02*
X-129590D01*
G01X-135840D02*
X-133320D01*
G01X-133880Y1240000D02*
X-131530D01*
G01X-140340Y1201500D02*
X-137780Y1200890D01*
G01X-142900Y1201000D02*
X-138230D01*
G01X-142090Y1239740D02*
X-144340Y1234870D01*
G02X-144750Y1234810I-225J109D01*
G01X-149930Y1236220D02*
X-154140Y1217170D01*
X-154700Y1213390D01*
G01X-146880Y1236000D02*
X-143820D01*
G01X-148610Y1200910D02*
G03X-148850Y1201210I-242J52D01*
G01X-150950Y1201000D02*
X-148600D01*
G54D12*
G01X-917700Y-950040D02*
Y-985040D01*
G01D02*
X-961700D01*
G01X-917700Y-62040D02*
Y-40040D01*
G01D02*
X-956700D01*
G01X-897000Y4500D02*
Y75500D01*
X-862000D01*
Y4500D01*
X-897000D01*
G01X-868000Y154000D02*
X-892000D01*
Y106000D01*
X-868000D01*
Y154000D01*
G01X-885000Y84000D02*
X-875000D01*
G01X-880000Y79000D02*
Y89000D01*
G01X-896510Y175870D02*
Y224130D01*
G01X-863490Y175870D02*
Y224130D01*
G01X-896510Y175870D02*
X-863490D01*
G01X-896510Y224130D02*
X-863490D01*
G01X-866850Y730660D02*
X-890850D01*
Y682660D01*
X-866850D01*
Y730660D01*
G01X-792950Y-929480D02*
Y-893480D01*
G01D02*
X-770950D01*
G01D02*
Y-929480D01*
G01D02*
X-792950D01*
G01X-771050Y-874750D02*
Y-839750D01*
X-791050D01*
Y-874750D01*
X-771050D01*
G01X-837540Y-897400D02*
X-802540D01*
Y-877400D01*
X-837540D01*
Y-897400D01*
G01X-746510Y-865380D02*
Y-830380D01*
X-766510D01*
Y-865380D01*
X-746510D01*
G01X-762700Y-792350D02*
Y-744350D01*
X-786700D01*
Y-792350D01*
X-762700D01*
G01X-795800Y-758250D02*
Y-829250D01*
X-830800D01*
Y-758250D01*
X-795800D01*
G01X-807800Y-837750D02*
X-817800D01*
G01X-812800Y-832750D02*
Y-842750D01*
G01X-798530Y-741460D02*
G03X-790000Y-745000I8538J8527D01*
G01X-798530Y-741460D02*
X-802500Y-737500D01*
G01X-764000Y-740000D02*
Y-705000D01*
X-784000D01*
Y-740000D01*
X-764000D01*
G01X-802000Y-663000D02*
Y-687000D01*
X-754000D01*
Y-663000D01*
X-802000D01*
G01X-752000Y-657500D02*
Y-622500D01*
X-772000D01*
Y-657500D01*
X-752000D01*
G01Y-555000D02*
Y-520000D01*
X-772000D01*
Y-555000D01*
X-752000D01*
G01Y-455000D02*
Y-420000D01*
X-772000D01*
Y-455000D01*
X-752000D01*
G01Y-352500D02*
Y-317500D01*
X-772000D01*
Y-352500D01*
X-752000D01*
G01Y-250000D02*
Y-215000D01*
X-772000D01*
Y-250000D01*
X-752000D01*
G01Y-150000D02*
Y-115000D01*
X-772000D01*
Y-150000D01*
X-752000D01*
G01X-752500Y-47500D02*
Y-12500D01*
X-772500D01*
Y-47500D01*
X-752500D01*
G01X-760400Y387850D02*
Y435850D01*
X-784400D01*
Y387850D01*
X-760400D01*
G01X-707000Y-956000D02*
X-743000D01*
G01D02*
Y-934000D01*
G01D02*
X-707000D01*
G01D02*
Y-956000D01*
G01X-698250Y-932850D02*
Y-923850D01*
X-690250D01*
G01X-707000Y-931000D02*
X-743000D01*
G01D02*
Y-909000D01*
G01D02*
X-707000D01*
G01D02*
Y-931000D01*
G01X-669190Y-904040D02*
X-691190D01*
G01D02*
Y-868040D01*
G01D02*
X-669190D01*
G01X-712710Y-865520D02*
Y-817520D01*
X-736710D01*
Y-865520D01*
X-712710D01*
G01X-723750Y-871040D02*
Y-901040D01*
X-744750D01*
Y-871040D01*
X-723750D01*
G01X-714400Y-774350D02*
Y-684350D01*
X-625400D01*
Y-774350D01*
X-714400D01*
G01Y-672750D02*
Y-582750D01*
X-625400D01*
Y-672750D01*
X-714400D01*
G01Y-571150D02*
Y-481150D01*
X-625400D01*
Y-571150D01*
X-714400D01*
G01Y-469550D02*
Y-379550D01*
X-625400D01*
Y-469550D01*
X-714400D01*
G01Y-367950D02*
Y-277950D01*
X-625400D01*
Y-367950D01*
X-714400D01*
G01Y-266350D02*
Y-176350D01*
X-625400D01*
Y-266350D01*
X-714400D01*
G01Y-164750D02*
Y-74750D01*
X-625400D01*
Y-164750D01*
X-714400D01*
G01Y-63150D02*
Y26850D01*
X-625400D01*
Y-63150D01*
X-714400D01*
G01X-704400Y58350D02*
X-740400D01*
G01D02*
Y80350D01*
G01X-704400D02*
Y58350D01*
G01Y30850D02*
X-740400D01*
G01D02*
Y52850D01*
G01D02*
X-704400D01*
G01D02*
Y30850D01*
G01X-740400Y80350D02*
X-704400D01*
G01X-677300Y342700D02*
Y317300D01*
X-753500D01*
Y342700D01*
X-677300D01*
G01X-751890Y399400D02*
X-703890D01*
Y423400D01*
X-751890D01*
Y399400D01*
G01X-716250Y514880D02*
X-752250D01*
G01D02*
Y536880D01*
G01X-716250D02*
Y514880D01*
G01X-707370Y513880D02*
X-659370D01*
Y537880D01*
X-707370D01*
Y513880D01*
G01X-710810Y509080D02*
X-701810D01*
Y501080D01*
G01Y487080D02*
Y479080D01*
X-710810D01*
G01X-715810Y491080D02*
Y497080D01*
G01X-752250Y536880D02*
X-716250D01*
G01X-720130Y545900D02*
Y594900D01*
X-697490D01*
Y545900D01*
X-720130D01*
G01X-720090Y623740D02*
Y599740D01*
X-672090D01*
Y623740D01*
X-720090D01*
G01X-729000Y1289000D02*
Y1231000D01*
X-671000D01*
Y1289000D01*
X-729000D01*
G01X-671000Y1277000D02*
X-729000D01*
G01X-671000Y1275000D02*
X-729000D01*
G01X-671000Y1273000D02*
X-729000D01*
G01X-671000Y1271000D02*
X-729000D01*
G01X-671000Y1269000D02*
X-729000D01*
G01X-671000Y1267000D02*
X-729000D01*
G01X-671000Y1265000D02*
X-729000D01*
G01X-671000Y1263000D02*
X-729000D01*
G01X-671000Y1261000D02*
X-729000D01*
G01X-671000Y1259000D02*
X-729000D01*
G01X-671000Y1257000D02*
X-729000D01*
G01X-671000Y1255000D02*
X-729000D01*
G01X-671000Y1253000D02*
X-729000D01*
G01X-671000Y1251000D02*
X-729000D01*
G01X-671000Y1249000D02*
X-729000D01*
G01X-671000Y1247000D02*
X-729000D01*
G01X-671000Y1245000D02*
X-729000D01*
G01X-671000Y1243000D02*
X-729000D01*
G01X-671000Y1241000D02*
X-729000D01*
G01X-671000Y1239000D02*
X-729000D01*
G01X-671000Y1237000D02*
X-729000D01*
G01X-671000Y1235000D02*
X-729000D01*
G01X-671000Y1233000D02*
X-729000D01*
G01X-671000Y1287000D02*
X-729000D01*
G01X-671000Y1285000D02*
X-729000D01*
G01X-671000Y1283000D02*
X-729000D01*
G01X-671000Y1281000D02*
X-729000D01*
G01X-671000Y1279000D02*
X-729000D01*
G01X-660000Y-946000D02*
X-662000Y-970000D01*
G01X-676250Y-923850D02*
X-668250D01*
Y-932850D01*
G01X-680250Y-937850D02*
X-686250D01*
G01X-635510Y-914380D02*
X-559510D01*
Y-940380D01*
X-635510D01*
Y-914380D01*
G01X-559510Y-975360D02*
X-635510D01*
Y-949360D01*
X-559510D01*
Y-975360D01*
G01X-642510Y-967360D02*
Y-957360D01*
G01X-637510Y-962360D02*
X-647510D01*
G01X-646250Y-915850D02*
Y-937850D01*
G01X-640250Y-948850D02*
X-652250D01*
G01X-646250Y-942850D02*
Y-954850D01*
G01X-660250Y-915850D02*
Y-937850D01*
G01X-669190Y-868040D02*
Y-904040D01*
G01X-605450Y-841060D02*
X-640450D01*
Y-861060D01*
X-605450D01*
Y-841060D01*
G01Y-885580D02*
X-640450D01*
Y-905580D01*
X-605450D01*
Y-885580D01*
G01X-630770Y-866320D02*
X-608770D01*
G01X-630770Y-880320D02*
X-608770D01*
G01X-633950Y-821800D02*
X-611950D01*
G01X-633950Y-835800D02*
X-611950D01*
G01X-643770Y483820D02*
Y459820D01*
X-595770D01*
Y483820D01*
X-643770D01*
G01X-585400Y492850D02*
Y557850D01*
X-617400D01*
Y492850D01*
X-585400D01*
G01X-645000Y1246000D02*
X-643000Y1244000D01*
X-645000Y1242000D01*
Y1246000D01*
G01Y1276000D02*
X-643000Y1274000D01*
X-645000Y1272000D01*
Y1276000D01*
G01Y1216000D02*
X-643000Y1214000D01*
X-645000Y1212000D01*
Y1216000D01*
G01X-552510Y-922380D02*
Y-932380D01*
G01X-573500Y-867650D02*
X-564500D01*
Y-875650D01*
G01Y-889650D02*
Y-897650D01*
X-573500D01*
G01X-578500Y-885650D02*
Y-879650D01*
G01X-557510Y-927380D02*
X-547510D01*
G01X-597770Y-860320D02*
Y-872320D01*
G01X-603770Y-866320D02*
X-591770D01*
G01X-573500Y-823200D02*
X-564500D01*
Y-831200D01*
G01Y-845200D02*
Y-853200D01*
X-573500D01*
G01X-578500Y-841200D02*
Y-835200D01*
G01X-600950Y-815800D02*
Y-827800D01*
G01X-606950Y-821800D02*
X-594950D01*
G01X-556700Y-704740D02*
Y-770740D01*
X-522700D01*
Y-704740D01*
X-556700D01*
G01Y-603140D02*
Y-669140D01*
X-522700D01*
Y-603140D01*
X-556700D01*
G01Y-501540D02*
Y-567540D01*
X-522700D01*
Y-501540D01*
X-556700D01*
G01Y-399940D02*
Y-465940D01*
X-522700D01*
Y-399940D01*
X-556700D01*
G01Y-298340D02*
Y-364340D01*
X-522700D01*
Y-298340D01*
X-556700D01*
G01Y-196740D02*
Y-262740D01*
X-522700D01*
Y-196740D01*
X-556700D01*
G01Y-95140D02*
Y-161140D01*
X-522700D01*
Y-95140D01*
X-556700D01*
G01Y6460D02*
Y-59540D01*
X-522700D01*
Y6460D01*
X-556700D01*
G01X-596070Y448840D02*
Y424840D01*
X-548070D01*
Y448840D01*
X-596070D01*
G01X-541400Y489850D02*
X-493400D01*
Y513850D01*
X-541400D01*
Y489850D01*
G01X-494010Y483820D02*
X-542010D01*
Y459820D01*
X-494010D01*
Y483820D01*
G01X-565400Y632350D02*
X-597400D01*
G01Y741850D02*
X-565400D01*
G01Y689850D02*
X-597400D01*
G01Y684350D02*
X-565400D01*
G01X-440700Y-732740D02*
X-506700D01*
Y-766740D01*
X-440700D01*
Y-732740D01*
G01X-506700Y-718740D02*
X-440700D01*
Y-684740D01*
X-506700D01*
Y-718740D01*
G01X-440700Y-631140D02*
X-506700D01*
Y-665140D01*
X-440700D01*
Y-631140D01*
G01Y-529540D02*
X-506700D01*
Y-563540D01*
X-440700D01*
Y-529540D01*
G01X-506700Y-617140D02*
X-440700D01*
Y-583140D01*
X-506700D01*
Y-617140D01*
G01Y-515540D02*
X-440700D01*
Y-481540D01*
X-506700D01*
Y-515540D01*
G01X-440700Y-427940D02*
X-506700D01*
Y-461940D01*
X-440700D01*
Y-427940D01*
G01X-506700Y-413940D02*
X-440700D01*
Y-379940D01*
X-506700D01*
Y-413940D01*
G01X-440700Y-326340D02*
X-506700D01*
Y-360340D01*
X-440700D01*
Y-326340D01*
G01Y-224740D02*
X-506700D01*
Y-258740D01*
X-440700D01*
Y-224740D01*
G01X-506700Y-312340D02*
X-440700D01*
Y-278340D01*
X-506700D01*
Y-312340D01*
G01Y-210740D02*
X-440700D01*
Y-176740D01*
X-506700D01*
Y-210740D01*
G01X-440700Y-123140D02*
X-506700D01*
Y-157140D01*
X-440700D01*
Y-123140D01*
G01X-506700Y-109140D02*
X-440700D01*
Y-75140D01*
X-506700D01*
Y-109140D01*
G01X-440700Y-21540D02*
X-506700D01*
Y-55540D01*
X-440700D01*
Y-21540D01*
G01X-506700Y-7540D02*
X-440700D01*
Y26460D01*
X-506700D01*
Y-7540D01*
G01X-521570Y375400D02*
Y447400D01*
X-464570D01*
Y375400D01*
X-521570D01*
G01X-426050Y499160D02*
Y495160D01*
X-470050D01*
Y499160D01*
G01X-486050Y508160D02*
Y518160D01*
G01X-481140Y513160D02*
X-491050D01*
G01X-535370Y546040D02*
Y582040D01*
G01D02*
X-513370D01*
G01D02*
Y546040D01*
G01D02*
X-535370D01*
G01X-468870Y614200D02*
Y590200D01*
X-420870D01*
Y614200D01*
X-468870D01*
G01X-505900Y543090D02*
Y591350D01*
G01X-472880Y543090D02*
Y591350D01*
G01X-505900Y543090D02*
X-472880D01*
G01X-505900Y591350D02*
X-472880D01*
G01X-470050Y527160D02*
Y531160D01*
X-426050D01*
Y527160D01*
G01X-514330Y623100D02*
Y738600D01*
X-450570D01*
Y623100D01*
X-514330D01*
G01X-427400Y-776850D02*
Y-686850D01*
X-297400D01*
Y-776850D01*
X-427400D01*
G01Y-675250D02*
Y-585250D01*
X-297400D01*
Y-675250D01*
X-427400D01*
G01Y-573650D02*
Y-483650D01*
X-297400D01*
Y-573650D01*
X-427400D01*
G01Y-472050D02*
Y-382050D01*
X-297400D01*
Y-472050D01*
X-427400D01*
G01Y-370450D02*
Y-280450D01*
X-297400D01*
Y-370450D01*
X-427400D01*
G01Y-268850D02*
Y-178850D01*
X-297400D01*
Y-268850D01*
X-427400D01*
G01Y-167250D02*
Y-77250D01*
X-297400D01*
Y-167250D01*
X-427400D01*
G01Y-65650D02*
Y24350D01*
X-297400D01*
Y-65650D01*
X-427400D01*
G01X-390910Y80430D02*
X-389380Y82470D01*
X-387600Y83480D01*
X-385570Y83820D01*
X-383030Y83140D01*
X-381250Y81450D01*
X-380750Y79420D01*
X-381000Y77380D01*
X-382020Y75690D01*
X-387100Y72310D01*
X-389380Y69930D01*
X-390910Y66550D01*
X-391410Y63500D01*
X-380750D01*
G01X-362710D02*
Y83820D01*
X-372110Y69260D01*
X-359410D01*
G01X-351790Y83820D02*
X-345440Y63500D01*
X-339090Y83820D01*
G01X-311150Y38100D02*
X-393700D01*
G01X-386080Y139700D02*
Y160020D01*
X-389130Y155960D01*
G01Y139700D02*
X-383030D01*
G01X-365760D02*
Y160020D01*
X-368810Y155960D01*
G01Y139700D02*
X-362710D01*
G01X-345440Y160020D02*
X-347470Y159340D01*
X-349000Y157650D01*
X-350010Y155620D01*
X-350770Y152910D01*
X-351030Y149860D01*
X-350770Y146810D01*
X-350010Y144100D01*
X-349000Y142070D01*
X-347470Y140380D01*
X-345440Y139700D01*
X-343410Y140380D01*
X-341880Y142070D01*
X-340870Y144100D01*
X-340110Y146810D01*
X-339850Y149860D01*
X-340110Y152910D01*
X-340870Y155620D01*
X-341880Y157650D01*
X-343410Y159340D01*
X-345440Y160020D01*
G01X-331470D02*
X-325120Y139700D01*
X-318770Y160020D01*
G01X-311150Y114300D02*
X-393700D01*
G01X-390910Y232830D02*
X-389380Y234870D01*
X-387600Y235880D01*
X-385570Y236220D01*
X-383030Y235540D01*
X-381250Y233850D01*
X-380750Y231820D01*
X-381000Y229780D01*
X-382020Y228090D01*
X-387100Y224710D01*
X-389380Y222330D01*
X-390910Y218950D01*
X-391410Y215900D01*
X-380750D01*
G01X-370590Y232830D02*
X-369060Y234870D01*
X-367280Y235880D01*
X-365250Y236220D01*
X-362710Y235540D01*
X-360930Y233850D01*
X-360430Y231820D01*
X-360680Y229780D01*
X-361700Y228090D01*
X-366780Y224710D01*
X-369060Y222330D01*
X-370590Y218950D01*
X-371090Y215900D01*
X-360430D01*
G01X-345440Y236220D02*
X-347470Y235540D01*
X-349000Y233850D01*
X-350010Y231820D01*
X-350770Y229110D01*
X-351030Y226060D01*
X-350770Y223010D01*
X-350010Y220300D01*
X-349000Y218270D01*
X-347470Y216580D01*
X-345440Y215900D01*
X-343410Y216580D01*
X-341880Y218270D01*
X-340870Y220300D01*
X-340110Y223010D01*
X-339850Y226060D01*
X-340110Y229110D01*
X-340870Y231820D01*
X-341880Y233850D01*
X-343410Y235540D01*
X-345440Y236220D01*
G01X-331470D02*
X-325120Y215900D01*
X-318770Y236220D01*
G01X-311150Y190500D02*
X-393700D01*
G01X-311150Y266700D02*
X-393700D01*
G01X-414790Y419860D02*
Y383860D01*
G01D02*
X-436790D01*
G01D02*
Y419860D01*
G01D02*
X-414790D01*
G01X-379000Y1097250D02*
Y1121250D01*
X-427000D01*
Y1097250D01*
X-379000D01*
G01X-207350Y297550D02*
X-357350D01*
Y372550D01*
X-207350D01*
Y297550D01*
G01Y399150D02*
X-357350D01*
Y474150D01*
X-207350D01*
Y399150D01*
G01Y500750D02*
X-357350D01*
Y575750D01*
X-207350D01*
Y500750D01*
G01Y602350D02*
X-357350D01*
Y677350D01*
X-207350D01*
Y602350D01*
G01Y703950D02*
X-357350D01*
Y778950D01*
X-207350D01*
Y703950D01*
G01Y805550D02*
X-357350D01*
Y880550D01*
X-207350D01*
Y805550D01*
G01Y907150D02*
X-357350D01*
Y982150D01*
X-207350D01*
Y907150D01*
G01Y1008750D02*
X-357350D01*
Y1083750D01*
X-207350D01*
Y1008750D01*
G01X-234950Y-736600D02*
X-260350D01*
G01X-234950Y-685800D02*
Y-736600D01*
G01X-260350D02*
Y-685800D01*
G01X-292100Y-723900D02*
X-266700D01*
G01X-292100Y-774700D02*
Y-723900D01*
G01X-266700Y-774700D02*
X-292100D01*
G01X-266700Y-723900D02*
Y-774700D01*
G01X-234950Y-635000D02*
X-260350D01*
G01X-234950Y-584200D02*
Y-635000D01*
G01X-260350D02*
Y-584200D01*
G01X-292100Y-673100D02*
Y-622300D01*
G01X-266700Y-673100D02*
X-292100D01*
G01X-266700Y-622300D02*
Y-673100D01*
G01X-260350Y-685800D02*
X-234950D01*
G01X-292100Y-571500D02*
Y-520700D01*
G01X-266700Y-571500D02*
X-292100D01*
G01X-266700Y-520700D02*
Y-571500D01*
G01X-260350Y-584200D02*
X-234950D01*
G01X-292100Y-622300D02*
X-266700D01*
G01X-234950Y-533400D02*
X-260350D01*
G01X-234950Y-482600D02*
Y-533400D01*
G01X-260350Y-482600D02*
X-234950D01*
G01X-260350Y-533400D02*
Y-482600D01*
G01X-292100Y-520700D02*
X-266700D01*
G01X-234950Y-431800D02*
X-260350D01*
G01X-234950Y-381000D02*
Y-431800D01*
G01X-260350D02*
Y-381000D01*
G01X-292100Y-419100D02*
X-266700D01*
G01X-292100Y-469900D02*
Y-419100D01*
G01X-266700Y-469900D02*
X-292100D01*
G01X-266700Y-419100D02*
Y-469900D01*
G01X-234950Y-330200D02*
X-260350D01*
G01X-234950Y-279400D02*
Y-330200D01*
G01X-260350D02*
Y-279400D01*
G01X-292100Y-368300D02*
Y-317500D01*
G01X-266700Y-368300D02*
X-292100D01*
G01X-266700Y-317500D02*
Y-368300D01*
G01X-260350Y-381000D02*
X-234950D01*
G01X-292100Y-266700D02*
Y-215900D01*
G01X-266700Y-266700D02*
X-292100D01*
G01X-266700Y-215900D02*
Y-266700D01*
G01X-260350Y-279400D02*
X-234950D01*
G01X-292100Y-317500D02*
X-266700D01*
G01X-234950Y-228600D02*
X-260350D01*
G01X-234950Y-177800D02*
Y-228600D01*
G01X-260350Y-177800D02*
X-234950D01*
G01X-260350Y-228600D02*
Y-177800D01*
G01X-292100Y-215900D02*
X-266700D01*
G01X-234950Y-127000D02*
X-260350D01*
G01X-234950Y-76200D02*
Y-127000D01*
G01X-260350D02*
Y-76200D01*
G01X-292100Y-114300D02*
X-266700D01*
G01X-292100Y-165100D02*
Y-114300D01*
G01X-266700Y-165100D02*
X-292100D01*
G01X-266700Y-114300D02*
Y-165100D01*
G01X-234950Y-25400D02*
X-260350D01*
G01X-234950Y25400D02*
Y-25400D01*
G01X-260350D02*
Y25400D01*
G01X-292100Y-63500D02*
Y-12700D01*
G01X-266700Y-63500D02*
X-292100D01*
G01X-266700Y-12700D02*
Y-63500D01*
G01X-260350Y-76200D02*
X-234950D01*
G01X-259960Y108140D02*
Y57340D01*
X-234560D01*
Y108140D01*
X-259960D01*
G01X-298450Y95250D02*
Y44450D01*
X-273050D01*
Y95250D01*
X-298450D01*
G01X-260350Y25400D02*
X-234950D01*
G01X-292100Y-12700D02*
X-266700D01*
G01X-292100Y139700D02*
Y127000D01*
X-279400D01*
Y139700D01*
X-292100D01*
G01X-298450Y171450D02*
Y120650D01*
X-273050D01*
Y171450D01*
X-298450D01*
G01X-260350Y184150D02*
Y133350D01*
X-234950D01*
Y184150D01*
X-260350D01*
G01X-292100Y165100D02*
Y152400D01*
X-279400D01*
Y165100D01*
X-292100D01*
G01Y215900D02*
Y203200D01*
X-279400D01*
Y215900D01*
X-292100D01*
G01X-298450Y247650D02*
Y196850D01*
X-273050D01*
Y247650D01*
X-298450D01*
G01X-260350Y260350D02*
Y209550D01*
X-234950D01*
Y260350D01*
X-260350D01*
G01X-292100Y241300D02*
Y228600D01*
X-279400D01*
Y241300D01*
X-292100D01*
G01X-254000Y254000D02*
Y241300D01*
X-241300D01*
Y254000D01*
X-254000D01*
G01Y228600D02*
Y215900D01*
X-241300D01*
Y228600D01*
X-254000D01*
G01X-226700Y-777250D02*
Y-687250D01*
X-96700D01*
Y-777250D01*
X-226700D01*
G01Y-675650D02*
Y-585650D01*
X-96700D01*
Y-675650D01*
X-226700D01*
G01Y-574050D02*
Y-484050D01*
X-96700D01*
Y-574050D01*
X-226700D01*
G01Y-472450D02*
Y-382450D01*
X-96700D01*
Y-472450D01*
X-226700D01*
G01Y-370850D02*
Y-280850D01*
X-96700D01*
Y-370850D01*
X-226700D01*
G01Y-269250D02*
Y-179250D01*
X-96700D01*
Y-269250D01*
X-226700D01*
G01Y-167650D02*
Y-77650D01*
X-96700D01*
Y-167650D01*
X-226700D01*
G01Y-66050D02*
Y23950D01*
X-96700D01*
Y-66050D01*
X-226700D01*
G01X-183050Y312550D02*
X-186050D01*
Y356550D01*
X-183050D01*
G01Y414150D02*
X-186050D01*
Y458150D01*
X-183050D01*
G01Y515750D02*
X-186050D01*
Y559750D01*
X-183050D01*
G01Y617350D02*
X-186050D01*
Y661350D01*
X-183050D01*
G01Y718950D02*
X-186050D01*
Y762950D01*
X-183050D01*
G01Y820550D02*
X-186050D01*
Y864550D01*
X-183050D01*
G01Y922150D02*
X-186050D01*
Y966150D01*
X-183050D01*
G01Y1023750D02*
X-186050D01*
Y1067750D01*
X-183050D01*
G01X-94670Y-812040D02*
X-103000D01*
Y-942040D01*
X-94670D01*
G01Y57960D02*
X-103000D01*
Y187960D01*
X-94670D01*
G01X101000Y223000D02*
X-121000D01*
G01D02*
Y1159000D01*
G01X-153060Y356500D02*
X-150060D01*
G01D02*
Y312500D01*
G01D02*
X-153060D01*
G01X-150060Y458100D02*
Y414100D01*
G01D02*
X-153060D01*
G01X-150060Y559700D02*
Y515700D01*
G01D02*
X-153060D01*
G01Y458100D02*
X-150060D01*
G01X-153060Y559700D02*
X-150060D01*
G01X-153060Y661300D02*
X-150060D01*
G01D02*
Y617300D01*
G01D02*
X-153060D01*
G01X-150060Y762900D02*
Y718900D01*
G01D02*
X-153060D01*
G01X-150060Y864500D02*
Y820500D01*
G01D02*
X-153060D01*
G01Y762900D02*
X-150060D01*
G01X-153060Y864500D02*
X-150060D01*
G01X-153060Y966100D02*
X-150060D01*
G01D02*
Y922100D01*
G01D02*
X-153060D01*
G01X-150060Y1067700D02*
Y1023700D01*
G01D02*
X-153060D01*
G01Y1067700D02*
X-150060D01*
G01X-121000Y1159000D02*
X101000D01*
G01X-61330Y-812040D02*
X-53000D01*
Y-942040D01*
X-61330D01*
G01X100000Y-838400D02*
X-20000D01*
G01D02*
Y77000D01*
G01X-25530Y-762850D02*
G03X-30000Y-758380I-4470J0D01*
G01D02*
G03X-34470Y-762850I0J-4470D01*
G01D02*
G03X-30000Y-767320I4470J0D01*
G01D02*
G03X-25530Y-762850I0J4470D01*
G01X-61330Y57960D02*
X-53000D01*
Y187960D01*
X-61330D01*
G01X-20000Y77000D02*
X100000D01*
G01D02*
Y-838400D01*
G01X101000Y1159000D02*
Y223000D01*
G54D13*
G01X-855260Y-906240D02*
G03X-857260Y-904240I-2000J0D01*
G01D02*
G03X-859260Y-906240I0J-2000D01*
G01D02*
G03X-857260Y-908240I2000J0D01*
G01D02*
G03X-855260Y-906240I0J2000D01*
G01X-708750Y-903940D02*
G03X-710750Y-901940I-2000J0D01*
G01D02*
G03X-712750Y-903940I0J-2000D01*
G01D02*
G03X-710750Y-905940I2000J0D01*
G01D02*
G03X-708750Y-903940I0J2000D01*
G01X-727150Y-691950D02*
G03I-2000J0D01*
G01Y-590350D02*
G03X-729150Y-588350I-2000J0D01*
G01D02*
G03X-731150Y-590350I0J-2000D01*
G01D02*
G03X-729150Y-592350I2000J0D01*
G01D02*
G03X-727150Y-590350I0J2000D01*
G01Y-488750D02*
G03X-729150Y-486750I-2000J0D01*
G01D02*
G03X-731150Y-488750I0J-2000D01*
G01D02*
G03X-729150Y-490750I2000J0D01*
G01D02*
G03X-727150Y-488750I0J2000D01*
G01Y-387150D02*
G03X-729150Y-385150I-2000J0D01*
G01D02*
G03X-731150Y-387150I0J-2000D01*
G01D02*
G03X-729150Y-389150I2000J0D01*
G01D02*
G03X-727150Y-387150I0J2000D01*
G01Y-285550D02*
G03X-729150Y-283550I-2000J0D01*
G01D02*
G03X-731150Y-285550I0J-2000D01*
G01D02*
G03X-729150Y-287550I2000J0D01*
G01D02*
G03X-727150Y-285550I0J2000D01*
G01Y-183950D02*
G03X-729150Y-181950I-2000J0D01*
G01D02*
G03X-731150Y-183950I0J-2000D01*
G01D02*
G03X-729150Y-185950I2000J0D01*
G01D02*
G03X-727150Y-183950I0J2000D01*
G01Y-82350D02*
G03X-729150Y-80350I-2000J0D01*
G01D02*
G03X-731150Y-82350I0J-2000D01*
G01D02*
G03X-729150Y-84350I2000J0D01*
G01D02*
G03X-727150Y-82350I0J2000D01*
G01Y19250D02*
G03X-729150Y21250I-2000J0D01*
G01D02*
G03X-731150Y19250I0J-2000D01*
G01D02*
G03X-729150Y17250I2000J0D01*
G01D02*
G03X-727150Y19250I0J2000D01*
G01X-688000Y348300D02*
G03I-2000J0D01*
G01X-732130Y598950D02*
G03X-734140Y600960I-2010J0D01*
G01D02*
G03X-736140Y598950I10J-2010D01*
G01D02*
G03X-734140Y596940I2010J0D01*
G01D02*
G03X-732130Y598950I0J2010D01*
G01X-569650Y489850D02*
G03X-571150Y491350I-1500J0D01*
G01D02*
G03X-572650Y489850I0J-1500D01*
G01D02*
G03X-571150Y488350I1500J0D01*
G01D02*
G03X-569650Y489850I0J1500D01*
G01X-530370Y451000D02*
G03X-532370Y453000I-2000J0D01*
G01D02*
G03X-534370Y451000I0J-2000D01*
G01D02*
G03X-532370Y449000I2000J0D01*
G01D02*
G03X-530370Y451000I0J2000D01*
G01X-527850Y741100D02*
G03X-529850Y743100I-2000J0D01*
G01D02*
G03X-531850Y741100I0J-2000D01*
G01D02*
G03X-529850Y739100I2000J0D01*
G01D02*
G03X-527850Y741100I0J2000D01*
G01X-351350Y289150D02*
G03X-347350Y285150I4000J0D01*
G01D02*
G03X-343350Y289150I0J4000D01*
G01D02*
G03X-347350Y293150I-4000J0D01*
G01D02*
G03X-351350Y289150I0J-4000D01*
G01X-343350Y390750D02*
G03I-4000J0D01*
G01Y492350D02*
G03I-4000J0D01*
G01X-351350Y593950D02*
G03X-347350Y589950I4000J0D01*
G01D02*
G03X-343350Y593950I0J4000D01*
G01D02*
G03X-347350Y597950I-4000J0D01*
G01D02*
G03X-351350Y593950I0J-4000D01*
G01X-343350Y695550D02*
G03I-4000J0D01*
G01Y797150D02*
G03X-347350Y801150I-4000J0D01*
G01D02*
G03X-351350Y797150I0J-4000D01*
G01D02*
G03X-347350Y793150I4000J0D01*
G01D02*
G03X-343350Y797150I0J4000D01*
G01Y898750D02*
G03I-4000J0D01*
G01Y1000350D02*
G03I-4000J0D01*
G54D14*
G01X-846990Y-739800D02*
X-842970Y-752500D01*
X-838940Y-739800D01*
G01X-833550Y-752500D02*
Y-739800D01*
X-830340D01*
X-829050Y-740440D01*
X-828080Y-741280D01*
X-827280Y-742550D01*
X-826640Y-744030D01*
X-826480Y-746150D01*
X-826640Y-748270D01*
X-827280Y-749750D01*
X-828080Y-751020D01*
X-829050Y-751870D01*
X-830340Y-752500D01*
X-833550D01*
G01X-820120Y-741920D02*
X-819160Y-740650D01*
X-818030Y-740010D01*
X-816740Y-739800D01*
X-815130Y-740220D01*
X-814010Y-741280D01*
X-813690Y-742550D01*
X-813850Y-743820D01*
X-814490Y-744880D01*
X-817710Y-747000D01*
X-819160Y-748480D01*
X-820120Y-750600D01*
X-820440Y-752500D01*
X-813690D01*
G01X-882250Y-74540D02*
X-875500Y-61840D01*
G01X-882250D02*
X-875500Y-74540D01*
G01X-865930D02*
Y-61840D01*
X-867860Y-64380D01*
G01Y-74540D02*
X-864000D01*
G01X-896990Y-7300D02*
X-892970Y-20000D01*
X-888940Y-7300D01*
G01X-883550Y-20000D02*
Y-7300D01*
X-880340D01*
X-879050Y-7940D01*
X-878080Y-8780D01*
X-877280Y-10050D01*
X-876640Y-11530D01*
X-876480Y-13650D01*
X-876640Y-15770D01*
X-877280Y-17250D01*
X-878080Y-18520D01*
X-879050Y-19370D01*
X-880340Y-20000D01*
X-883550D01*
G01X-867070D02*
Y-7300D01*
X-869000Y-9840D01*
G01Y-20000D02*
X-865140D01*
G01X-881640Y101640D02*
X-882600Y102280D01*
X-883730Y102700D01*
X-885010D01*
X-886460Y102060D01*
X-887590Y101010D01*
X-888390Y99740D01*
X-889040Y97620D01*
X-889200Y95710D01*
X-888870Y93810D01*
X-888390Y92540D01*
X-887430Y91270D01*
X-886300Y90420D01*
X-885180Y90000D01*
X-884050D01*
X-882920Y90420D01*
X-881960Y91060D01*
X-881150Y91900D01*
G01X-870290Y90000D02*
Y102700D01*
X-876250Y93600D01*
X-868200D01*
G01X-882940Y241640D02*
X-883900Y242280D01*
X-885030Y242700D01*
X-886310D01*
X-887760Y242060D01*
X-888890Y241010D01*
X-889690Y239740D01*
X-890340Y237620D01*
X-890500Y235710D01*
X-890170Y233810D01*
X-889690Y232540D01*
X-888730Y231270D01*
X-887600Y230420D01*
X-886480Y230000D01*
X-885350D01*
X-884220Y230420D01*
X-883260Y231060D01*
X-882450Y231900D01*
G01X-877060D02*
X-876100Y230850D01*
X-874970Y230210D01*
X-873530Y230000D01*
X-872080Y230420D01*
X-870950Y231270D01*
X-870150Y232750D01*
X-869990Y234440D01*
X-870310Y236140D01*
X-871110Y237200D01*
X-872240Y238040D01*
X-873360Y238250D01*
X-874490Y238040D01*
X-875940Y237200D01*
X-875460Y242700D01*
X-871110D01*
G01X-851440Y711950D02*
X-852400Y712590D01*
X-853530Y713010D01*
X-854810D01*
X-856260Y712370D01*
X-857390Y711320D01*
X-858190Y710050D01*
X-858840Y707930D01*
X-859000Y706020D01*
X-858670Y704120D01*
X-858190Y702850D01*
X-857230Y701580D01*
X-856100Y700730D01*
X-854980Y700310D01*
X-853850D01*
X-852720Y700730D01*
X-851760Y701370D01*
X-850950Y702210D01*
G01X-845560D02*
X-844600Y701160D01*
X-843470Y700520D01*
X-842030Y700310D01*
X-840580Y700730D01*
X-839450Y701580D01*
X-838650Y703060D01*
X-838490Y704750D01*
X-838810Y706450D01*
X-839610Y707510D01*
X-840740Y708350D01*
X-841860Y708560D01*
X-842990Y708350D01*
X-844440Y707510D01*
X-843960Y713010D01*
X-839610D01*
G01X-827140Y700310D02*
Y713010D01*
X-833100Y703910D01*
X-825050D01*
G01X-797430Y-935360D02*
X-798390Y-934720D01*
X-799520Y-934300D01*
X-800800D01*
X-802250Y-934940D01*
X-803380Y-935990D01*
X-804180Y-937260D01*
X-804830Y-939380D01*
X-804990Y-941290D01*
X-804660Y-943190D01*
X-804180Y-944460D01*
X-803220Y-945730D01*
X-802090Y-946580D01*
X-800970Y-947000D01*
X-799840D01*
X-798710Y-946580D01*
X-797750Y-945940D01*
X-796940Y-945100D01*
G01X-788020Y-947000D02*
Y-934300D01*
X-789950Y-936840D01*
G01Y-947000D02*
X-786090D01*
G01X-778120Y-941710D02*
X-777000Y-940230D01*
X-776030Y-939380D01*
X-774740Y-938960D01*
X-773620Y-939380D01*
X-772810Y-940230D01*
X-772170Y-941500D01*
X-772010Y-942980D01*
X-772170Y-944250D01*
X-772810Y-945520D01*
X-773780Y-946580D01*
X-774900Y-947000D01*
X-776190Y-946580D01*
X-777320Y-945310D01*
X-777960Y-943400D01*
X-778120Y-941290D01*
X-777800Y-938530D01*
X-777320Y-937050D01*
X-776510Y-935570D01*
X-775390Y-934510D01*
X-774260Y-934300D01*
X-773130Y-934720D01*
X-772330Y-935780D01*
G01X-763230Y-920290D02*
X-763810Y-919890D01*
X-764490Y-919630D01*
X-765270D01*
X-766150Y-920020D01*
X-766830Y-920680D01*
X-767320Y-921470D01*
X-767710Y-922780D01*
X-767800Y-923960D01*
X-767610Y-925140D01*
X-767320Y-925930D01*
X-766730Y-926710D01*
X-766050Y-927240D01*
X-765370Y-927500D01*
X-764690D01*
X-764010Y-927240D01*
X-763420Y-926840D01*
X-762940Y-926320D01*
G01X-757500Y-927500D02*
Y-919630D01*
X-758670Y-921200D01*
G01Y-927500D02*
X-756330D01*
G01X-748460D02*
Y-919630D01*
X-752060Y-925270D01*
X-747200D01*
G01X-828680Y-865000D02*
Y-852300D01*
X-824660D01*
X-823370Y-852940D01*
X-822570Y-853780D01*
X-822250Y-855480D01*
X-822570Y-857170D01*
X-823530Y-858230D01*
X-824660Y-858860D01*
X-828680D01*
G01X-824660D02*
X-822250Y-865000D01*
G01X-812520D02*
Y-852300D01*
X-814450Y-854840D01*
G01Y-865000D02*
X-810590D01*
G01X-799890D02*
X-799570Y-862250D01*
X-799080Y-859920D01*
X-798440Y-857800D01*
X-797630Y-855480D01*
X-796350Y-852300D01*
X-802780D01*
G01X-837180Y-914000D02*
Y-901300D01*
X-833160D01*
X-831870Y-901940D01*
X-831070Y-902780D01*
X-830750Y-904480D01*
X-831070Y-906170D01*
X-832030Y-907230D01*
X-833160Y-907860D01*
X-837180D01*
G01X-833160D02*
X-830750Y-914000D01*
G01X-821020D02*
Y-901300D01*
X-822950Y-903840D01*
G01Y-914000D02*
X-819090D01*
G01X-808070D02*
X-806940Y-913790D01*
X-805650Y-913150D01*
X-804850Y-912100D01*
X-804530Y-910610D01*
X-804850Y-909130D01*
X-805810Y-907860D01*
X-807260Y-907230D01*
X-808870D01*
X-809830Y-906800D01*
X-810640Y-905750D01*
X-810960Y-904260D01*
X-810480Y-902780D01*
X-809350Y-901720D01*
X-808070Y-901300D01*
X-806780Y-901720D01*
X-805650Y-902780D01*
X-805170Y-904260D01*
X-805490Y-905750D01*
X-806300Y-906800D01*
X-807260Y-907230D01*
X-808870D01*
X-810320Y-907860D01*
X-811280Y-909130D01*
X-811600Y-910610D01*
X-811280Y-912100D01*
X-810480Y-913150D01*
X-809190Y-913790D01*
X-808070Y-914000D01*
G01X-767510Y-910000D02*
Y-902130D01*
X-765560D01*
X-764790Y-902520D01*
X-764200Y-903050D01*
X-763720Y-903840D01*
X-763330Y-904750D01*
X-763230Y-906070D01*
X-763330Y-907380D01*
X-763720Y-908290D01*
X-764200Y-909080D01*
X-764790Y-909610D01*
X-765560Y-910000D01*
X-767510D01*
G01X-759930D02*
X-757500Y-902130D01*
X-755070Y-910000D01*
G01X-755940Y-907250D02*
X-759060D01*
G01X-749630Y-910000D02*
Y-902130D01*
X-750800Y-903700D01*
G01Y-910000D02*
X-748460D01*
G01X-778680Y-825000D02*
Y-812300D01*
X-774660D01*
X-773370Y-812940D01*
X-772570Y-813780D01*
X-772250Y-815480D01*
X-772570Y-817170D01*
X-773530Y-818230D01*
X-774660Y-818860D01*
X-778680D01*
G01X-774660D02*
X-772250Y-825000D01*
G01X-765570Y-814420D02*
X-764610Y-813150D01*
X-763480Y-812510D01*
X-762190Y-812300D01*
X-760580Y-812720D01*
X-759460Y-813780D01*
X-759140Y-815050D01*
X-759300Y-816320D01*
X-759940Y-817380D01*
X-763160Y-819500D01*
X-764610Y-820980D01*
X-765570Y-823100D01*
X-765890Y-825000D01*
X-759140D01*
G01X-749570D02*
Y-812300D01*
X-751500Y-814840D01*
G01Y-825000D02*
X-747640D01*
G01X-817190Y-735000D02*
Y-722300D01*
X-813170D01*
X-811880Y-722940D01*
X-811080Y-723780D01*
X-810760Y-725480D01*
X-811080Y-727170D01*
X-812040Y-728230D01*
X-813170Y-728860D01*
X-817190D01*
G01X-813170D02*
X-810760Y-735000D01*
G01X-801030D02*
Y-722300D01*
X-802960Y-724840D01*
G01Y-735000D02*
X-799100D01*
G01X-837640Y-712500D02*
Y-699800D01*
X-833620D01*
X-832330Y-700440D01*
X-831530Y-701280D01*
X-831210Y-702980D01*
X-831530Y-704670D01*
X-832490Y-705730D01*
X-833620Y-706360D01*
X-837640D01*
G01X-833620D02*
X-831210Y-712500D01*
G01X-821480D02*
Y-699800D01*
X-823410Y-702340D01*
G01Y-712500D02*
X-819550D01*
G01X-808530D02*
Y-699800D01*
X-810460Y-702340D01*
G01Y-712500D02*
X-806600D01*
G01X-795900D02*
X-795580Y-709750D01*
X-795090Y-707420D01*
X-794450Y-705300D01*
X-793640Y-702980D01*
X-792360Y-699800D01*
X-798790D01*
G01X-825140Y-645000D02*
Y-632300D01*
X-821120D01*
X-819830Y-632940D01*
X-819030Y-633780D01*
X-818710Y-635480D01*
X-819030Y-637170D01*
X-819990Y-638230D01*
X-821120Y-638860D01*
X-825140D01*
G01X-821120D02*
X-818710Y-645000D01*
G01X-808980D02*
Y-632300D01*
X-810910Y-634840D01*
G01Y-645000D02*
X-807050D01*
G01X-796030D02*
Y-632300D01*
X-797960Y-634840D01*
G01Y-645000D02*
X-794100D01*
G01X-786130Y-639710D02*
X-785010Y-638230D01*
X-784040Y-637380D01*
X-782750Y-636960D01*
X-781630Y-637380D01*
X-780820Y-638230D01*
X-780180Y-639500D01*
X-780020Y-640980D01*
X-780180Y-642250D01*
X-780820Y-643520D01*
X-781790Y-644580D01*
X-782910Y-645000D01*
X-784200Y-644580D01*
X-785330Y-643310D01*
X-785970Y-641400D01*
X-786130Y-639290D01*
X-785810Y-636530D01*
X-785330Y-635050D01*
X-784520Y-633570D01*
X-783400Y-632510D01*
X-782270Y-632300D01*
X-781140Y-632720D01*
X-780340Y-633780D01*
G01X-777520Y-588740D02*
Y-601440D01*
G01X-781210Y-588740D02*
X-773820D01*
G01X-767780Y-601440D02*
Y-588740D01*
X-763760D01*
X-762470Y-589380D01*
X-761670Y-590220D01*
X-761350Y-591920D01*
X-761670Y-593610D01*
X-762630Y-594670D01*
X-763760Y-595300D01*
X-767780D01*
G01X-763760D02*
X-761350Y-601440D01*
G01X-751940D02*
X-751620Y-598690D01*
X-751130Y-596360D01*
X-750490Y-594240D01*
X-749680Y-591920D01*
X-748400Y-588740D01*
X-754830D01*
G01X-777520Y-487140D02*
Y-499840D01*
G01X-781210Y-487140D02*
X-773820D01*
G01X-767780Y-499840D02*
Y-487140D01*
X-763760D01*
X-762470Y-487780D01*
X-761670Y-488620D01*
X-761350Y-490320D01*
X-761670Y-492010D01*
X-762630Y-493070D01*
X-763760Y-493700D01*
X-767780D01*
G01X-763760D02*
X-761350Y-499840D01*
G01X-754670Y-494550D02*
X-753550Y-493070D01*
X-752580Y-492220D01*
X-751290Y-491800D01*
X-750170Y-492220D01*
X-749360Y-493070D01*
X-748720Y-494340D01*
X-748560Y-495820D01*
X-748720Y-497090D01*
X-749360Y-498360D01*
X-750330Y-499420D01*
X-751450Y-499840D01*
X-752740Y-499420D01*
X-753870Y-498150D01*
X-754510Y-496240D01*
X-754670Y-494130D01*
X-754350Y-491370D01*
X-753870Y-489890D01*
X-753060Y-488410D01*
X-751940Y-487350D01*
X-750810Y-487140D01*
X-749680Y-487560D01*
X-748880Y-488620D01*
G01X-825140Y-545000D02*
Y-532300D01*
X-821120D01*
X-819830Y-532940D01*
X-819030Y-533780D01*
X-818710Y-535480D01*
X-819030Y-537170D01*
X-819990Y-538230D01*
X-821120Y-538860D01*
X-825140D01*
G01X-821120D02*
X-818710Y-545000D01*
G01X-808980D02*
Y-532300D01*
X-810910Y-534840D01*
G01Y-545000D02*
X-807050D01*
G01X-796030D02*
Y-532300D01*
X-797960Y-534840D01*
G01Y-545000D02*
X-794100D01*
G01X-786610Y-543100D02*
X-785650Y-544150D01*
X-784520Y-544790D01*
X-783080Y-545000D01*
X-781630Y-544580D01*
X-780500Y-543730D01*
X-779700Y-542250D01*
X-779540Y-540560D01*
X-779860Y-538860D01*
X-780660Y-537800D01*
X-781790Y-536960D01*
X-782910Y-536750D01*
X-784040Y-536960D01*
X-785490Y-537800D01*
X-785010Y-532300D01*
X-780660D01*
G01X-777520Y-385540D02*
Y-398240D01*
G01X-781210Y-385540D02*
X-773820D01*
G01X-767780Y-398240D02*
Y-385540D01*
X-763760D01*
X-762470Y-386180D01*
X-761670Y-387020D01*
X-761350Y-388720D01*
X-761670Y-390410D01*
X-762630Y-391470D01*
X-763760Y-392100D01*
X-767780D01*
G01X-763760D02*
X-761350Y-398240D01*
G01X-755150Y-396340D02*
X-754190Y-397390D01*
X-753060Y-398030D01*
X-751620Y-398240D01*
X-750170Y-397820D01*
X-749040Y-396970D01*
X-748240Y-395490D01*
X-748080Y-393800D01*
X-748400Y-392100D01*
X-749200Y-391040D01*
X-750330Y-390200D01*
X-751450Y-389990D01*
X-752580Y-390200D01*
X-754030Y-391040D01*
X-753550Y-385540D01*
X-749200D01*
G01X-825140Y-442500D02*
Y-429800D01*
X-821120D01*
X-819830Y-430440D01*
X-819030Y-431280D01*
X-818710Y-432980D01*
X-819030Y-434670D01*
X-819990Y-435730D01*
X-821120Y-436360D01*
X-825140D01*
G01X-821120D02*
X-818710Y-442500D01*
G01X-808980D02*
Y-429800D01*
X-810910Y-432340D01*
G01Y-442500D02*
X-807050D01*
G01X-796030D02*
Y-429800D01*
X-797960Y-432340D01*
G01Y-442500D02*
X-794100D01*
G01X-781140D02*
Y-429800D01*
X-787100Y-438900D01*
X-779050D01*
G01X-825140Y-340000D02*
Y-327300D01*
X-821120D01*
X-819830Y-327940D01*
X-819030Y-328780D01*
X-818710Y-330480D01*
X-819030Y-332170D01*
X-819990Y-333230D01*
X-821120Y-333860D01*
X-825140D01*
G01X-821120D02*
X-818710Y-340000D01*
G01X-808980D02*
Y-327300D01*
X-810910Y-329840D01*
G01Y-340000D02*
X-807050D01*
G01X-796030D02*
Y-327300D01*
X-797960Y-329840D01*
G01Y-340000D02*
X-794100D01*
G01X-786610Y-337460D02*
X-785650Y-338940D01*
X-784360Y-339790D01*
X-782910Y-340000D01*
X-781630Y-339790D01*
X-780340Y-338730D01*
X-779540Y-337460D01*
X-779380Y-336190D01*
X-779700Y-334710D01*
X-780820Y-333650D01*
X-781950Y-333230D01*
X-783400D01*
G01X-781950D02*
X-780980Y-332590D01*
X-780180Y-331530D01*
X-779860Y-330260D01*
X-780180Y-328990D01*
X-780980Y-327940D01*
X-782430Y-327300D01*
X-783880Y-327510D01*
X-785330Y-328360D01*
G01X-777520Y-283940D02*
Y-296640D01*
G01X-781210Y-283940D02*
X-773820D01*
G01X-767780Y-296640D02*
Y-283940D01*
X-763760D01*
X-762470Y-284580D01*
X-761670Y-285420D01*
X-761350Y-287120D01*
X-761670Y-288810D01*
X-762630Y-289870D01*
X-763760Y-290500D01*
X-767780D01*
G01X-763760D02*
X-761350Y-296640D01*
G01X-749680D02*
Y-283940D01*
X-755640Y-293040D01*
X-747590D01*
G01X-777520Y-182340D02*
Y-195040D01*
G01X-781210Y-182340D02*
X-773820D01*
G01X-767780Y-195040D02*
Y-182340D01*
X-763760D01*
X-762470Y-182980D01*
X-761670Y-183820D01*
X-761350Y-185520D01*
X-761670Y-187210D01*
X-762630Y-188270D01*
X-763760Y-188900D01*
X-767780D01*
G01X-763760D02*
X-761350Y-195040D01*
G01X-755150Y-192500D02*
X-754190Y-193980D01*
X-752900Y-194830D01*
X-751450Y-195040D01*
X-750170Y-194830D01*
X-748880Y-193770D01*
X-748080Y-192500D01*
X-747920Y-191230D01*
X-748240Y-189750D01*
X-749360Y-188690D01*
X-750490Y-188270D01*
X-751940D01*
G01X-750490D02*
X-749520Y-187630D01*
X-748720Y-186570D01*
X-748400Y-185300D01*
X-748720Y-184030D01*
X-749520Y-182980D01*
X-750970Y-182340D01*
X-752420Y-182550D01*
X-753870Y-183400D01*
G01X-825140Y-237500D02*
Y-224800D01*
X-821120D01*
X-819830Y-225440D01*
X-819030Y-226280D01*
X-818710Y-227980D01*
X-819030Y-229670D01*
X-819990Y-230730D01*
X-821120Y-231360D01*
X-825140D01*
G01X-821120D02*
X-818710Y-237500D01*
G01X-808980D02*
Y-224800D01*
X-810910Y-227340D01*
G01Y-237500D02*
X-807050D01*
G01X-796030D02*
Y-224800D01*
X-797960Y-227340D01*
G01Y-237500D02*
X-794100D01*
G01X-786130Y-226920D02*
X-785170Y-225650D01*
X-784040Y-225010D01*
X-782750Y-224800D01*
X-781140Y-225220D01*
X-780020Y-226280D01*
X-779700Y-227550D01*
X-779860Y-228820D01*
X-780500Y-229880D01*
X-783720Y-232000D01*
X-785170Y-233480D01*
X-786130Y-235600D01*
X-786450Y-237500D01*
X-779700D01*
G01X-777520Y-80740D02*
Y-93440D01*
G01X-781210Y-80740D02*
X-773820D01*
G01X-767780Y-93440D02*
Y-80740D01*
X-763760D01*
X-762470Y-81380D01*
X-761670Y-82220D01*
X-761350Y-83920D01*
X-761670Y-85610D01*
X-762630Y-86670D01*
X-763760Y-87300D01*
X-767780D01*
G01X-763760D02*
X-761350Y-93440D01*
G01X-754670Y-82860D02*
X-753710Y-81590D01*
X-752580Y-80950D01*
X-751290Y-80740D01*
X-749680Y-81160D01*
X-748560Y-82220D01*
X-748240Y-83490D01*
X-748400Y-84760D01*
X-749040Y-85820D01*
X-752260Y-87940D01*
X-753710Y-89420D01*
X-754670Y-91540D01*
X-754990Y-93440D01*
X-748240D01*
G01X-822640Y-140000D02*
Y-127300D01*
X-818620D01*
X-817330Y-127940D01*
X-816530Y-128780D01*
X-816210Y-130480D01*
X-816530Y-132170D01*
X-817490Y-133230D01*
X-818620Y-133860D01*
X-822640D01*
G01X-818620D02*
X-816210Y-140000D01*
G01X-806480D02*
Y-127300D01*
X-808410Y-129840D01*
G01Y-140000D02*
X-804550D01*
G01X-793530D02*
Y-127300D01*
X-795460Y-129840D01*
G01Y-140000D02*
X-791600D01*
G01X-780580D02*
Y-127300D01*
X-782510Y-129840D01*
G01Y-140000D02*
X-778650D01*
G01X-825140Y-35000D02*
Y-22300D01*
X-821120D01*
X-819830Y-22940D01*
X-819030Y-23780D01*
X-818710Y-25480D01*
X-819030Y-27170D01*
X-819990Y-28230D01*
X-821120Y-28860D01*
X-825140D01*
G01X-821120D02*
X-818710Y-35000D01*
G01X-808980D02*
Y-22300D01*
X-810910Y-24840D01*
G01Y-35000D02*
X-807050D01*
G01X-796030D02*
Y-22300D01*
X-797960Y-24840D01*
G01Y-35000D02*
X-794100D01*
G01X-783080Y-22300D02*
X-784360Y-22720D01*
X-785330Y-23780D01*
X-785970Y-25050D01*
X-786450Y-26750D01*
X-786610Y-28650D01*
X-786450Y-30560D01*
X-785970Y-32250D01*
X-785330Y-33520D01*
X-784360Y-34580D01*
X-783080Y-35000D01*
X-781790Y-34580D01*
X-780820Y-33520D01*
X-780180Y-32250D01*
X-779700Y-30560D01*
X-779540Y-28650D01*
X-779700Y-26750D01*
X-780180Y-25050D01*
X-780820Y-23780D01*
X-781790Y-22720D01*
X-783080Y-22300D01*
G01X-777520Y20860D02*
Y8160D01*
G01X-781210Y20860D02*
X-773820D01*
G01X-767780Y8160D02*
Y20860D01*
X-763760D01*
X-762470Y20220D01*
X-761670Y19380D01*
X-761350Y17680D01*
X-761670Y15990D01*
X-762630Y14930D01*
X-763760Y14300D01*
X-767780D01*
G01X-763760D02*
X-761350Y8160D01*
G01X-751620D02*
Y20860D01*
X-753550Y18320D01*
G01Y8160D02*
X-749690D01*
G01X-787080Y439960D02*
Y452660D01*
X-783060D01*
X-781770Y452020D01*
X-780970Y451180D01*
X-780650Y449480D01*
X-780970Y447790D01*
X-781930Y446730D01*
X-783060Y446100D01*
X-787080D01*
G01X-783060D02*
X-780650Y439960D01*
G01X-770920D02*
Y452660D01*
X-772850Y450120D01*
G01Y439960D02*
X-768990D01*
G01X-756030D02*
Y452660D01*
X-761990Y443560D01*
X-753940D01*
G01X-779100Y488950D02*
X-775080Y476250D01*
X-771050Y488950D01*
G01X-765660Y476250D02*
Y488950D01*
X-762450D01*
X-761160Y488310D01*
X-760190Y487470D01*
X-759390Y486200D01*
X-758750Y484720D01*
X-758590Y482600D01*
X-758750Y480480D01*
X-759390Y479000D01*
X-760190Y477730D01*
X-761160Y476880D01*
X-762450Y476250D01*
X-765660D01*
G01X-752710Y478150D02*
X-751750Y477100D01*
X-750620Y476460D01*
X-749180Y476250D01*
X-747730Y476670D01*
X-746600Y477520D01*
X-745800Y479000D01*
X-745640Y480690D01*
X-745960Y482390D01*
X-746760Y483450D01*
X-747890Y484290D01*
X-749010Y484500D01*
X-750140Y484290D01*
X-751590Y483450D01*
X-751110Y488950D01*
X-746760D01*
G01X-736230Y476250D02*
X-735100Y476460D01*
X-733810Y477100D01*
X-733010Y478150D01*
X-732690Y479640D01*
X-733010Y481120D01*
X-733970Y482390D01*
X-735420Y483020D01*
X-737030D01*
X-737990Y483450D01*
X-738800Y484500D01*
X-739120Y485990D01*
X-738640Y487470D01*
X-737510Y488530D01*
X-736230Y488950D01*
X-734940Y488530D01*
X-733810Y487470D01*
X-733330Y485990D01*
X-733650Y484500D01*
X-734460Y483450D01*
X-735420Y483020D01*
X-737030D01*
X-738480Y482390D01*
X-739440Y481120D01*
X-739760Y479640D01*
X-739440Y478150D01*
X-738640Y477100D01*
X-737350Y476460D01*
X-736230Y476250D01*
G01X-771290Y538690D02*
X-772250Y539330D01*
X-773380Y539750D01*
X-774660D01*
X-776110Y539110D01*
X-777240Y538060D01*
X-778040Y536790D01*
X-778690Y534670D01*
X-778850Y532760D01*
X-778520Y530860D01*
X-778040Y529590D01*
X-777080Y528320D01*
X-775950Y527470D01*
X-774830Y527050D01*
X-773700D01*
X-772570Y527470D01*
X-771610Y528110D01*
X-770800Y528950D01*
G01X-764610Y528530D02*
X-763480Y527470D01*
X-762200Y527050D01*
X-760910Y527470D01*
X-759780Y528740D01*
X-758980Y530650D01*
X-758660Y532550D01*
Y534880D01*
X-758980Y536790D01*
X-759780Y538480D01*
X-760750Y539330D01*
X-761880Y539750D01*
X-763160Y539330D01*
X-764130Y538480D01*
X-764770Y537210D01*
X-765090Y535520D01*
X-764770Y534040D01*
X-763970Y532550D01*
X-763000Y531710D01*
X-761880Y531490D01*
X-760590Y531920D01*
X-759620Y532980D01*
X-758660Y534880D01*
G01X-770430Y601650D02*
Y592550D01*
X-769790Y590640D01*
X-768500Y589370D01*
X-766900Y588950D01*
X-765290Y589370D01*
X-764000Y590640D01*
X-763360Y592550D01*
Y601650D01*
G01X-757000Y599530D02*
X-756040Y600800D01*
X-754910Y601440D01*
X-753620Y601650D01*
X-752010Y601230D01*
X-750890Y600170D01*
X-750570Y598900D01*
X-750730Y597630D01*
X-751370Y596570D01*
X-754590Y594450D01*
X-756040Y592970D01*
X-757000Y590850D01*
X-757320Y588950D01*
X-750570D01*
G01X-736930Y-960860D02*
X-737890Y-960220D01*
X-739020Y-959800D01*
X-740300D01*
X-741750Y-960440D01*
X-742880Y-961490D01*
X-743680Y-962760D01*
X-744330Y-964880D01*
X-744490Y-966790D01*
X-744160Y-968690D01*
X-743680Y-969960D01*
X-742720Y-971230D01*
X-741590Y-972080D01*
X-740470Y-972500D01*
X-739340D01*
X-738210Y-972080D01*
X-737250Y-971440D01*
X-736440Y-970600D01*
G01X-731050D02*
X-730090Y-971650D01*
X-728960Y-972290D01*
X-727520Y-972500D01*
X-726070Y-972080D01*
X-724940Y-971230D01*
X-724140Y-969750D01*
X-723980Y-968060D01*
X-724300Y-966360D01*
X-725100Y-965300D01*
X-726230Y-964460D01*
X-727350Y-964250D01*
X-728480Y-964460D01*
X-729930Y-965300D01*
X-729450Y-959800D01*
X-725100D01*
G01X-718100Y-970600D02*
X-717140Y-971650D01*
X-716010Y-972290D01*
X-714570Y-972500D01*
X-713120Y-972080D01*
X-711990Y-971230D01*
X-711190Y-969750D01*
X-711030Y-968060D01*
X-711350Y-966360D01*
X-712150Y-965300D01*
X-713280Y-964460D01*
X-714400Y-964250D01*
X-715530Y-964460D01*
X-716980Y-965300D01*
X-716500Y-959800D01*
X-712150D01*
G01X-701990Y-952300D02*
X-697970Y-965000D01*
X-693940Y-952300D01*
G01X-688550Y-965000D02*
Y-952300D01*
X-685340D01*
X-684050Y-952940D01*
X-683080Y-953780D01*
X-682280Y-955050D01*
X-681640Y-956530D01*
X-681480Y-958650D01*
X-681640Y-960770D01*
X-682280Y-962250D01*
X-683080Y-963520D01*
X-684050Y-964370D01*
X-685340Y-965000D01*
X-688550D01*
G01X-675600Y-963100D02*
X-674640Y-964150D01*
X-673510Y-964790D01*
X-672070Y-965000D01*
X-670620Y-964580D01*
X-669490Y-963730D01*
X-668690Y-962250D01*
X-668530Y-960560D01*
X-668850Y-958860D01*
X-669650Y-957800D01*
X-670780Y-956960D01*
X-671900Y-956750D01*
X-673030Y-956960D01*
X-674480Y-957800D01*
X-674000Y-952300D01*
X-669650D01*
G01X-697430Y-851360D02*
X-698390Y-850720D01*
X-699520Y-850300D01*
X-700800D01*
X-702250Y-850940D01*
X-703380Y-851990D01*
X-704180Y-853260D01*
X-704830Y-855380D01*
X-704990Y-857290D01*
X-704660Y-859190D01*
X-704180Y-860460D01*
X-703220Y-861730D01*
X-702090Y-862580D01*
X-700970Y-863000D01*
X-699840D01*
X-698710Y-862580D01*
X-697750Y-861940D01*
X-696940Y-861100D01*
G01X-688020Y-863000D02*
Y-850300D01*
X-689950Y-852840D01*
G01Y-863000D02*
X-686090D01*
G01X-678600Y-861100D02*
X-677640Y-862150D01*
X-676510Y-862790D01*
X-675070Y-863000D01*
X-673620Y-862580D01*
X-672490Y-861730D01*
X-671690Y-860250D01*
X-671530Y-858560D01*
X-671850Y-856860D01*
X-672650Y-855800D01*
X-673780Y-854960D01*
X-674900Y-854750D01*
X-676030Y-854960D01*
X-677480Y-855800D01*
X-677000Y-850300D01*
X-672650D01*
G01X-738180Y-809000D02*
Y-796300D01*
X-734160D01*
X-732870Y-796940D01*
X-732070Y-797780D01*
X-731750Y-799480D01*
X-732070Y-801170D01*
X-733030Y-802230D01*
X-734160Y-802860D01*
X-738180D01*
G01X-734160D02*
X-731750Y-809000D01*
G01X-722020D02*
Y-796300D01*
X-723950Y-798840D01*
G01Y-809000D02*
X-720090D01*
G01X-712120Y-803710D02*
X-711000Y-802230D01*
X-710030Y-801380D01*
X-708740Y-800960D01*
X-707620Y-801380D01*
X-706810Y-802230D01*
X-706170Y-803500D01*
X-706010Y-804980D01*
X-706170Y-806250D01*
X-706810Y-807520D01*
X-707780Y-808580D01*
X-708900Y-809000D01*
X-710190Y-808580D01*
X-711320Y-807310D01*
X-711960Y-805400D01*
X-712120Y-803290D01*
X-711800Y-800530D01*
X-711320Y-799050D01*
X-710510Y-797570D01*
X-709390Y-796510D01*
X-708260Y-796300D01*
X-707130Y-796720D01*
X-706330Y-797780D01*
G01X-752970Y-767300D02*
Y-780000D01*
G01X-756660Y-767300D02*
X-749270D01*
G01X-743230Y-780000D02*
Y-767300D01*
X-739210D01*
X-737920Y-767940D01*
X-737120Y-768780D01*
X-736800Y-770480D01*
X-737120Y-772170D01*
X-738080Y-773230D01*
X-739210Y-773860D01*
X-743230D01*
G01X-739210D02*
X-736800Y-780000D01*
G01X-727070D02*
X-725940Y-779790D01*
X-724650Y-779150D01*
X-723850Y-778100D01*
X-723530Y-776610D01*
X-723850Y-775130D01*
X-724810Y-773860D01*
X-726260Y-773230D01*
X-727870D01*
X-728830Y-772800D01*
X-729640Y-771750D01*
X-729960Y-770260D01*
X-729480Y-768780D01*
X-728350Y-767720D01*
X-727070Y-767300D01*
X-725780Y-767720D01*
X-724650Y-768780D01*
X-724170Y-770260D01*
X-724490Y-771750D01*
X-725300Y-772800D01*
X-726260Y-773230D01*
X-727870D01*
X-729320Y-773860D01*
X-730280Y-775130D01*
X-730600Y-776610D01*
X-730280Y-778100D01*
X-729480Y-779150D01*
X-728190Y-779790D01*
X-727070Y-780000D01*
G01X-742690Y-668830D02*
X-743650Y-668190D01*
X-744780Y-667770D01*
X-746060D01*
X-747510Y-668410D01*
X-748640Y-669460D01*
X-749440Y-670730D01*
X-750090Y-672850D01*
X-750250Y-674760D01*
X-749920Y-676660D01*
X-749440Y-677930D01*
X-748480Y-679200D01*
X-747350Y-680050D01*
X-746230Y-680470D01*
X-745100D01*
X-743970Y-680050D01*
X-743010Y-679410D01*
X-742200Y-678570D01*
G01X-736810D02*
X-735850Y-679620D01*
X-734720Y-680260D01*
X-733280Y-680470D01*
X-731830Y-680050D01*
X-730700Y-679200D01*
X-729900Y-677720D01*
X-729740Y-676030D01*
X-730060Y-674330D01*
X-730860Y-673270D01*
X-731990Y-672430D01*
X-733110Y-672220D01*
X-734240Y-672430D01*
X-735690Y-673270D01*
X-735210Y-667770D01*
X-730860D01*
G01X-723860Y-677930D02*
X-722900Y-679410D01*
X-721610Y-680260D01*
X-720160Y-680470D01*
X-718880Y-680260D01*
X-717590Y-679200D01*
X-716790Y-677930D01*
X-716630Y-676660D01*
X-716950Y-675180D01*
X-718070Y-674120D01*
X-719200Y-673700D01*
X-720650D01*
G01X-719200D02*
X-718230Y-673060D01*
X-717430Y-672000D01*
X-717110Y-670730D01*
X-717430Y-669460D01*
X-718230Y-668410D01*
X-719680Y-667770D01*
X-721130Y-667980D01*
X-722580Y-668830D01*
G01X-691290Y45200D02*
X-692250Y45840D01*
X-693380Y46260D01*
X-694660D01*
X-696110Y45620D01*
X-697240Y44570D01*
X-698040Y43300D01*
X-698690Y41180D01*
X-698850Y39270D01*
X-698520Y37370D01*
X-698040Y36100D01*
X-697080Y34830D01*
X-695950Y33980D01*
X-694830Y33560D01*
X-693700D01*
X-692570Y33980D01*
X-691610Y34620D01*
X-690800Y35460D01*
G01X-684930Y44140D02*
X-683970Y45410D01*
X-682840Y46050D01*
X-681550Y46260D01*
X-679940Y45840D01*
X-678820Y44780D01*
X-678500Y43510D01*
X-678660Y42240D01*
X-679300Y41180D01*
X-682520Y39060D01*
X-683970Y37580D01*
X-684930Y35460D01*
X-685250Y33560D01*
X-678500D01*
G01X-691290Y76950D02*
X-692250Y77590D01*
X-693380Y78010D01*
X-694660D01*
X-696110Y77370D01*
X-697240Y76320D01*
X-698040Y75050D01*
X-698690Y72930D01*
X-698850Y71020D01*
X-698520Y69120D01*
X-698040Y67850D01*
X-697080Y66580D01*
X-695950Y65730D01*
X-694830Y65310D01*
X-693700D01*
X-692570Y65730D01*
X-691610Y66370D01*
X-690800Y67210D01*
G01X-681880Y65310D02*
Y78010D01*
X-683810Y75470D01*
G01Y65310D02*
X-679950D01*
G01X-740350Y268290D02*
Y271510D01*
X-736540D01*
X-735270Y270540D01*
X-734420Y269420D01*
X-734000Y267810D01*
X-734420Y266200D01*
X-735270Y265070D01*
X-736540Y264110D01*
X-738020Y263460D01*
X-739710Y263140D01*
X-741200D01*
X-742470Y263460D01*
X-743950Y264110D01*
X-745220Y265070D01*
X-746060Y266040D01*
X-746700Y267320D01*
Y268450D01*
X-746280Y269740D01*
X-745430Y270700D01*
G01X-734000Y276580D02*
X-746700D01*
X-734000Y283970D01*
X-746700D01*
G01X-734000Y289690D02*
X-746700D01*
Y292900D01*
X-746060Y294190D01*
X-745220Y295160D01*
X-743950Y295960D01*
X-742470Y296600D01*
X-740350Y296760D01*
X-738230Y296600D01*
X-736750Y295960D01*
X-735480Y295160D01*
X-734630Y294190D01*
X-734000Y292900D01*
Y289690D01*
G01Y309390D02*
Y302960D01*
X-746700D01*
Y309390D01*
G01X-740560Y306820D02*
Y302960D01*
G01X-688230Y253060D02*
Y256920D01*
G01X-690990Y254820D02*
X-685480D01*
G01X-694580Y264720D02*
X-695850Y265680D01*
X-696490Y266810D01*
X-696700Y268100D01*
X-696280Y269710D01*
X-695220Y270830D01*
X-693950Y271150D01*
X-692680Y270990D01*
X-691620Y270350D01*
X-689500Y267130D01*
X-688020Y265680D01*
X-685900Y264720D01*
X-684000Y264400D01*
Y271150D01*
G01Y282660D02*
X-696700D01*
X-687600Y276700D01*
Y284750D01*
G01X-690770Y294960D02*
X-691410Y295610D01*
X-692470Y296090D01*
X-693950Y296410D01*
X-695220Y296090D01*
X-696060Y295440D01*
X-696700Y294320D01*
Y289980D01*
X-684000D01*
Y295280D01*
X-684850Y296410D01*
X-686120Y297050D01*
X-687600Y297370D01*
X-689080Y297050D01*
X-690350Y296090D01*
X-690770Y294960D01*
Y289980D01*
G01X-684000Y309840D02*
Y303410D01*
X-696700D01*
Y309840D01*
G01X-690560Y307270D02*
Y303410D01*
G01X-737640Y352540D02*
X-736840Y351270D01*
X-735870Y350420D01*
X-734750Y350000D01*
X-733460Y350420D01*
X-732490Y351270D01*
X-731530Y352540D01*
X-731210Y354230D01*
Y362700D01*
G01X-724690Y350000D02*
Y362700D01*
X-720830D01*
X-719540Y362060D01*
X-718580Y360580D01*
X-718260Y358890D01*
X-718580Y357200D01*
X-719380Y355930D01*
X-720830Y355290D01*
X-724690D01*
G01X-708530Y350000D02*
Y362700D01*
X-710460Y360160D01*
G01Y350000D02*
X-706600D01*
G01X-695900D02*
X-695580Y352750D01*
X-695090Y355080D01*
X-694450Y357200D01*
X-693640Y359520D01*
X-692360Y362700D01*
X-698790D01*
G01X-737580Y427300D02*
Y440000D01*
X-733560D01*
X-732270Y439360D01*
X-731470Y438520D01*
X-731150Y436820D01*
X-731470Y435130D01*
X-732430Y434070D01*
X-733560Y433440D01*
X-737580D01*
G01X-733560D02*
X-731150Y427300D01*
G01X-721420D02*
X-720290Y427510D01*
X-719000Y428150D01*
X-718200Y429200D01*
X-717880Y430690D01*
X-718200Y432170D01*
X-719160Y433440D01*
X-720610Y434070D01*
X-722220D01*
X-723180Y434500D01*
X-723990Y435550D01*
X-724310Y437040D01*
X-723830Y438520D01*
X-722700Y439580D01*
X-721420Y440000D01*
X-720130Y439580D01*
X-719000Y438520D01*
X-718520Y437040D01*
X-718840Y435550D01*
X-719650Y434500D01*
X-720610Y434070D01*
X-722220D01*
X-723670Y433440D01*
X-724630Y432170D01*
X-724950Y430690D01*
X-724630Y429200D01*
X-723830Y428150D01*
X-722540Y427510D01*
X-721420Y427300D01*
G01X-684140Y642140D02*
X-685100Y642780D01*
X-686230Y643200D01*
X-687510D01*
X-688960Y642560D01*
X-690090Y641510D01*
X-690890Y640240D01*
X-691540Y638120D01*
X-691700Y636210D01*
X-691370Y634310D01*
X-690890Y633040D01*
X-689930Y631770D01*
X-688800Y630920D01*
X-687680Y630500D01*
X-686550D01*
X-685420Y630920D01*
X-684460Y631560D01*
X-683650Y632400D01*
G01X-678260D02*
X-677300Y631350D01*
X-676170Y630710D01*
X-674730Y630500D01*
X-673280Y630920D01*
X-672150Y631770D01*
X-671350Y633250D01*
X-671190Y634940D01*
X-671510Y636640D01*
X-672310Y637700D01*
X-673440Y638540D01*
X-674560Y638750D01*
X-675690Y638540D01*
X-677140Y637700D01*
X-676660Y643200D01*
X-672310D01*
G01X-664830Y641080D02*
X-663870Y642350D01*
X-662740Y642990D01*
X-661450Y643200D01*
X-659840Y642780D01*
X-658720Y641720D01*
X-658400Y640450D01*
X-658560Y639180D01*
X-659200Y638120D01*
X-662420Y636000D01*
X-663870Y634520D01*
X-664830Y632400D01*
X-665150Y630500D01*
X-658400D01*
G01X-685990Y-971300D02*
X-681970Y-984000D01*
X-677940Y-971300D01*
G01X-672550Y-984000D02*
Y-971300D01*
X-669340D01*
X-668050Y-971940D01*
X-667080Y-972780D01*
X-666280Y-974050D01*
X-665640Y-975530D01*
X-665480Y-977650D01*
X-665640Y-979770D01*
X-666280Y-981250D01*
X-667080Y-982520D01*
X-668050Y-983370D01*
X-669340Y-984000D01*
X-672550D01*
G01X-654130D02*
Y-971300D01*
X-660090Y-980400D01*
X-652040D01*
G01X-664820Y-892500D02*
Y-884630D01*
X-662380D01*
X-661600Y-885020D01*
X-661120Y-885550D01*
X-660920Y-886600D01*
X-661120Y-887650D01*
X-661700Y-888300D01*
X-662380Y-888700D01*
X-664820D01*
G01X-662380D02*
X-660920Y-892500D01*
G01X-656850Y-885940D02*
X-656270Y-885150D01*
X-655580Y-884760D01*
X-654810Y-884630D01*
X-653830Y-884890D01*
X-653150Y-885550D01*
X-652960Y-886340D01*
X-653050Y-887120D01*
X-653440Y-887780D01*
X-655390Y-889090D01*
X-656270Y-890010D01*
X-656850Y-891320D01*
X-657040Y-892500D01*
X-652960D01*
G01X-647130Y-884630D02*
X-647910Y-884890D01*
X-648490Y-885550D01*
X-648880Y-886340D01*
X-649170Y-887380D01*
X-649270Y-888570D01*
X-649170Y-889750D01*
X-648880Y-890790D01*
X-648490Y-891580D01*
X-647910Y-892240D01*
X-647130Y-892500D01*
X-646350Y-892240D01*
X-645770Y-891580D01*
X-645380Y-890790D01*
X-645090Y-889750D01*
X-644990Y-888570D01*
X-645090Y-887380D01*
X-645380Y-886340D01*
X-645770Y-885550D01*
X-646350Y-884890D01*
X-647130Y-884630D01*
G01X-666500Y-868000D02*
X-664000Y-876000D01*
X-661500Y-868000D01*
G01X-658200Y-876000D02*
Y-868000D01*
X-656200D01*
X-655400Y-868400D01*
X-654800Y-868930D01*
X-654300Y-869730D01*
X-653900Y-870670D01*
X-653800Y-872000D01*
X-653900Y-873330D01*
X-654300Y-874270D01*
X-654800Y-875070D01*
X-655400Y-875600D01*
X-656200Y-876000D01*
X-658200D01*
G01X-648000D02*
X-647300Y-875870D01*
X-646500Y-875470D01*
X-646000Y-874800D01*
X-645800Y-873870D01*
X-646000Y-872930D01*
X-646600Y-872130D01*
X-647500Y-871730D01*
X-648500D01*
X-649100Y-871470D01*
X-649600Y-870800D01*
X-649800Y-869870D01*
X-649500Y-868930D01*
X-648800Y-868270D01*
X-648000Y-868000D01*
X-647200Y-868270D01*
X-646500Y-868930D01*
X-646200Y-869870D01*
X-646400Y-870800D01*
X-646900Y-871470D01*
X-647500Y-871730D01*
X-648500D01*
X-649400Y-872130D01*
X-650000Y-872930D01*
X-650200Y-873870D01*
X-650000Y-874800D01*
X-649500Y-875470D01*
X-648700Y-875870D01*
X-648000Y-876000D01*
G01X-679180Y-846000D02*
Y-833300D01*
X-675160D01*
X-673870Y-833940D01*
X-673070Y-834780D01*
X-672750Y-836480D01*
X-673070Y-838170D01*
X-674030Y-839230D01*
X-675160Y-839860D01*
X-679180D01*
G01X-675160D02*
X-672750Y-846000D01*
G01X-663020D02*
Y-833300D01*
X-664950Y-835840D01*
G01Y-846000D02*
X-661090D01*
G01X-652800Y-844520D02*
X-651670Y-845580D01*
X-650390Y-846000D01*
X-649100Y-845580D01*
X-647970Y-844310D01*
X-647170Y-842400D01*
X-646850Y-840500D01*
Y-838170D01*
X-647170Y-836260D01*
X-647970Y-834570D01*
X-648940Y-833720D01*
X-650070Y-833300D01*
X-651350Y-833720D01*
X-652320Y-834570D01*
X-652960Y-835840D01*
X-653280Y-837530D01*
X-652960Y-839010D01*
X-652160Y-840500D01*
X-651190Y-841340D01*
X-650070Y-841560D01*
X-648780Y-841130D01*
X-647810Y-840070D01*
X-646850Y-838170D01*
G01X-644990Y-805300D02*
X-640970Y-818000D01*
X-636940Y-805300D01*
G01X-631550Y-818000D02*
Y-805300D01*
X-628340D01*
X-627050Y-805940D01*
X-626080Y-806780D01*
X-625280Y-808050D01*
X-624640Y-809530D01*
X-624480Y-811650D01*
X-624640Y-813770D01*
X-625280Y-815250D01*
X-626080Y-816520D01*
X-627050Y-817370D01*
X-628340Y-818000D01*
X-631550D01*
G01X-618120Y-812710D02*
X-617000Y-811230D01*
X-616030Y-810380D01*
X-614740Y-809960D01*
X-613620Y-810380D01*
X-612810Y-811230D01*
X-612170Y-812500D01*
X-612010Y-813980D01*
X-612170Y-815250D01*
X-612810Y-816520D01*
X-613780Y-817580D01*
X-614900Y-818000D01*
X-616190Y-817580D01*
X-617320Y-816310D01*
X-617960Y-814400D01*
X-618120Y-812290D01*
X-617800Y-809530D01*
X-617320Y-808050D01*
X-616510Y-806570D01*
X-615390Y-805510D01*
X-614260Y-805300D01*
X-613130Y-805720D01*
X-612330Y-806780D01*
G01X-664740Y475190D02*
X-665700Y475830D01*
X-666830Y476250D01*
X-668110D01*
X-669560Y475610D01*
X-670690Y474560D01*
X-671490Y473290D01*
X-672140Y471170D01*
X-672300Y469260D01*
X-671970Y467360D01*
X-671490Y466090D01*
X-670530Y464820D01*
X-669400Y463970D01*
X-668280Y463550D01*
X-667150D01*
X-666020Y463970D01*
X-665060Y464610D01*
X-664250Y465450D01*
G01X-655330Y463550D02*
X-654200Y463760D01*
X-652910Y464400D01*
X-652110Y465450D01*
X-651790Y466940D01*
X-652110Y468420D01*
X-653070Y469690D01*
X-654520Y470320D01*
X-656130D01*
X-657090Y470750D01*
X-657900Y471800D01*
X-658220Y473290D01*
X-657740Y474770D01*
X-656610Y475830D01*
X-655330Y476250D01*
X-654040Y475830D01*
X-652910Y474770D01*
X-652430Y473290D01*
X-652750Y471800D01*
X-653560Y470750D01*
X-654520Y470320D01*
X-656130D01*
X-657580Y469690D01*
X-658540Y468420D01*
X-658860Y466940D01*
X-658540Y465450D01*
X-657740Y464400D01*
X-656450Y463760D01*
X-655330Y463550D01*
G01X-683680Y493000D02*
Y505700D01*
X-679660D01*
X-678370Y505060D01*
X-677570Y504220D01*
X-677250Y502520D01*
X-677570Y500830D01*
X-678530Y499770D01*
X-679660Y499140D01*
X-683680D01*
G01X-679660D02*
X-677250Y493000D01*
G01X-667520D02*
Y505700D01*
X-669450Y503160D01*
G01Y493000D02*
X-665590D01*
G01X-658100Y495540D02*
X-657140Y494060D01*
X-655850Y493210D01*
X-654400Y493000D01*
X-653120Y493210D01*
X-651830Y494270D01*
X-651030Y495540D01*
X-650870Y496810D01*
X-651190Y498290D01*
X-652310Y499350D01*
X-653440Y499770D01*
X-654890D01*
G01X-653440D02*
X-652470Y500410D01*
X-651670Y501470D01*
X-651350Y502740D01*
X-651670Y504010D01*
X-652470Y505060D01*
X-653920Y505700D01*
X-655370Y505490D01*
X-656820Y504640D01*
G01X-637710Y1244540D02*
X-636750Y1243060D01*
X-635460Y1242210D01*
X-634010Y1242000D01*
X-632730Y1242210D01*
X-631440Y1243270D01*
X-630640Y1244540D01*
X-630480Y1245810D01*
X-630800Y1247290D01*
X-631920Y1248350D01*
X-633050Y1248770D01*
X-634500D01*
G01X-633050D02*
X-632080Y1249410D01*
X-631280Y1250470D01*
X-630960Y1251740D01*
X-631280Y1253010D01*
X-632080Y1254060D01*
X-633530Y1254700D01*
X-634980Y1254490D01*
X-636430Y1253640D01*
G01X-621230Y1241580D02*
X-621550Y1241790D01*
Y1242210D01*
X-621230Y1242420D01*
X-620900Y1242210D01*
Y1241790D01*
X-621230Y1241580D01*
G01X-608280Y1242000D02*
Y1254700D01*
X-610210Y1252160D01*
G01Y1242000D02*
X-606350D01*
G01X-593390D02*
Y1254700D01*
X-599350Y1245600D01*
X-591300D01*
G01X-582380Y1254700D02*
X-583660Y1254280D01*
X-584630Y1253220D01*
X-585270Y1251950D01*
X-585750Y1250250D01*
X-585910Y1248350D01*
X-585750Y1246440D01*
X-585270Y1244750D01*
X-584630Y1243480D01*
X-583660Y1242420D01*
X-582380Y1242000D01*
X-581090Y1242420D01*
X-580120Y1243480D01*
X-579480Y1244750D01*
X-579000Y1246440D01*
X-578840Y1248350D01*
X-579000Y1250250D01*
X-579480Y1251950D01*
X-580120Y1253220D01*
X-581090Y1254280D01*
X-582380Y1254700D01*
G01X-569430Y1241580D02*
X-569750Y1241790D01*
Y1242210D01*
X-569430Y1242420D01*
X-569100Y1242210D01*
Y1241790D01*
X-569430Y1241580D01*
G01X-556480Y1242000D02*
X-555350Y1242210D01*
X-554060Y1242850D01*
X-553260Y1243900D01*
X-552940Y1245390D01*
X-553260Y1246870D01*
X-554220Y1248140D01*
X-555670Y1248770D01*
X-557280D01*
X-558240Y1249200D01*
X-559050Y1250250D01*
X-559370Y1251740D01*
X-558890Y1253220D01*
X-557760Y1254280D01*
X-556480Y1254700D01*
X-555190Y1254280D01*
X-554060Y1253220D01*
X-553580Y1251740D01*
X-553900Y1250250D01*
X-554710Y1249200D01*
X-555670Y1248770D01*
X-557280D01*
X-558730Y1248140D01*
X-559690Y1246870D01*
X-560010Y1245390D01*
X-559690Y1243900D01*
X-558890Y1242850D01*
X-557600Y1242210D01*
X-556480Y1242000D01*
G01X-546580Y1247290D02*
X-545460Y1248770D01*
X-544490Y1249620D01*
X-543200Y1250040D01*
X-542080Y1249620D01*
X-541270Y1248770D01*
X-540630Y1247500D01*
X-540470Y1246020D01*
X-540630Y1244750D01*
X-541270Y1243480D01*
X-542240Y1242420D01*
X-543360Y1242000D01*
X-544650Y1242420D01*
X-545780Y1243690D01*
X-546420Y1245600D01*
X-546580Y1247710D01*
X-546260Y1250470D01*
X-545780Y1251950D01*
X-544970Y1253430D01*
X-543850Y1254490D01*
X-542720Y1254700D01*
X-541590Y1254280D01*
X-540790Y1253220D01*
G01X-533630Y1252580D02*
X-532670Y1253850D01*
X-531540Y1254490D01*
X-530250Y1254700D01*
X-528640Y1254280D01*
X-527520Y1253220D01*
X-527200Y1251950D01*
X-527360Y1250680D01*
X-528000Y1249620D01*
X-531220Y1247500D01*
X-532670Y1246020D01*
X-533630Y1243900D01*
X-533950Y1242000D01*
X-527200D01*
G01X-637710Y1272000D02*
Y1284700D01*
G01X-631600D02*
X-637710Y1276870D01*
G01X-630640Y1272000D02*
X-634980Y1280470D01*
G01X-624600Y1273690D02*
X-623320Y1272630D01*
X-621870Y1272000D01*
X-620580D01*
X-619290Y1272630D01*
X-618330Y1273690D01*
X-617850Y1275180D01*
X-618170Y1276660D01*
X-618970Y1277930D01*
X-620420Y1278770D01*
X-622350Y1279200D01*
X-623480Y1280040D01*
X-623960Y1281520D01*
X-623640Y1283010D01*
X-622830Y1284060D01*
X-621710Y1284700D01*
X-620580D01*
X-619460Y1284280D01*
X-618490Y1283220D01*
G01X-611810Y1272000D02*
Y1284700D01*
G01X-605700D02*
X-611810Y1276870D01*
G01X-604740Y1272000D02*
X-609080Y1280470D01*
G01X-600150Y1267770D02*
X-590500D01*
G01X-582380Y1284700D02*
X-583660Y1284280D01*
X-584630Y1283220D01*
X-585270Y1281950D01*
X-585750Y1280250D01*
X-585910Y1278350D01*
X-585750Y1276440D01*
X-585270Y1274750D01*
X-584630Y1273480D01*
X-583660Y1272420D01*
X-582380Y1272000D01*
X-581090Y1272420D01*
X-580120Y1273480D01*
X-579480Y1274750D01*
X-579000Y1276440D01*
X-578840Y1278350D01*
X-579000Y1280250D01*
X-579480Y1281950D01*
X-580120Y1283220D01*
X-581090Y1284280D01*
X-582380Y1284700D01*
G01X-572480Y1282580D02*
X-571520Y1283850D01*
X-570390Y1284490D01*
X-569100Y1284700D01*
X-567490Y1284280D01*
X-566370Y1283220D01*
X-566050Y1281950D01*
X-566210Y1280680D01*
X-566850Y1279620D01*
X-570070Y1277500D01*
X-571520Y1276020D01*
X-572480Y1273900D01*
X-572800Y1272000D01*
X-566050D01*
G01X-560500Y1284700D02*
X-556480Y1272000D01*
X-552450Y1284700D01*
G01X-546580Y1277290D02*
X-545460Y1278770D01*
X-544490Y1279620D01*
X-543200Y1280040D01*
X-542080Y1279620D01*
X-541270Y1278770D01*
X-540630Y1277500D01*
X-540470Y1276020D01*
X-540630Y1274750D01*
X-541270Y1273480D01*
X-542240Y1272420D01*
X-543360Y1272000D01*
X-544650Y1272420D01*
X-545780Y1273690D01*
X-546420Y1275600D01*
X-546580Y1277710D01*
X-546260Y1280470D01*
X-545780Y1281950D01*
X-544970Y1283430D01*
X-543850Y1284490D01*
X-542720Y1284700D01*
X-541590Y1284280D01*
X-540790Y1283220D01*
G01X-637390Y1214540D02*
X-636590Y1213270D01*
X-635620Y1212420D01*
X-634500Y1212000D01*
X-633210Y1212420D01*
X-632240Y1213270D01*
X-631280Y1214540D01*
X-630960Y1216230D01*
Y1224700D01*
G01X-624760D02*
Y1215600D01*
X-624120Y1213690D01*
X-622830Y1212420D01*
X-621230Y1212000D01*
X-619620Y1212420D01*
X-618330Y1213690D01*
X-617690Y1215600D01*
Y1224700D01*
G01X-611490D02*
Y1212000D01*
X-605060D01*
G01X-595330D02*
Y1217710D01*
X-598540Y1224700D01*
G01X-592110D02*
X-595330Y1217710D01*
G01X-587200Y1207770D02*
X-577550D01*
G01X-572480Y1222580D02*
X-571520Y1223850D01*
X-570390Y1224490D01*
X-569100Y1224700D01*
X-567490Y1224280D01*
X-566370Y1223220D01*
X-566050Y1221950D01*
X-566210Y1220680D01*
X-566850Y1219620D01*
X-570070Y1217500D01*
X-571520Y1216020D01*
X-572480Y1213900D01*
X-572800Y1212000D01*
X-566050D01*
G01X-556480Y1224700D02*
X-557760Y1224280D01*
X-558730Y1223220D01*
X-559370Y1221950D01*
X-559850Y1220250D01*
X-560010Y1218350D01*
X-559850Y1216440D01*
X-559370Y1214750D01*
X-558730Y1213480D01*
X-557760Y1212420D01*
X-556480Y1212000D01*
X-555190Y1212420D01*
X-554220Y1213480D01*
X-553580Y1214750D01*
X-553100Y1216440D01*
X-552940Y1218350D01*
X-553100Y1220250D01*
X-553580Y1221950D01*
X-554220Y1223220D01*
X-555190Y1224280D01*
X-556480Y1224700D01*
G01X-543530Y1212000D02*
Y1224700D01*
X-545460Y1222160D01*
G01Y1212000D02*
X-541600D01*
G01X-530580D02*
X-529450Y1212210D01*
X-528160Y1212850D01*
X-527360Y1213900D01*
X-527040Y1215390D01*
X-527360Y1216870D01*
X-528320Y1218140D01*
X-529770Y1218770D01*
X-531380D01*
X-532340Y1219200D01*
X-533150Y1220250D01*
X-533470Y1221740D01*
X-532990Y1223220D01*
X-531860Y1224280D01*
X-530580Y1224700D01*
X-529290Y1224280D01*
X-528160Y1223220D01*
X-527680Y1221740D01*
X-528000Y1220250D01*
X-528810Y1219200D01*
X-529770Y1218770D01*
X-531380D01*
X-532830Y1218140D01*
X-533790Y1216870D01*
X-534110Y1215390D01*
X-533790Y1213900D01*
X-532990Y1212850D01*
X-531700Y1212210D01*
X-530580Y1212000D01*
G01X-544990Y-919300D02*
X-540970Y-932000D01*
X-536940Y-919300D01*
G01X-531550Y-932000D02*
Y-919300D01*
X-528340D01*
X-527050Y-919940D01*
X-526080Y-920780D01*
X-525280Y-922050D01*
X-524640Y-923530D01*
X-524480Y-925650D01*
X-524640Y-927770D01*
X-525280Y-929250D01*
X-526080Y-930520D01*
X-527050Y-931370D01*
X-528340Y-932000D01*
X-531550D01*
G01X-515390D02*
X-515070Y-929250D01*
X-514580Y-926920D01*
X-513940Y-924800D01*
X-513130Y-922480D01*
X-511850Y-919300D01*
X-518280D01*
G01X-544990Y-955300D02*
X-540970Y-968000D01*
X-536940Y-955300D01*
G01X-531550Y-968000D02*
Y-955300D01*
X-528340D01*
X-527050Y-955940D01*
X-526080Y-956780D01*
X-525280Y-958050D01*
X-524640Y-959530D01*
X-524480Y-961650D01*
X-524640Y-963770D01*
X-525280Y-965250D01*
X-526080Y-966520D01*
X-527050Y-967370D01*
X-528340Y-968000D01*
X-531550D01*
G01X-517800Y-966520D02*
X-516670Y-967580D01*
X-515390Y-968000D01*
X-514100Y-967580D01*
X-512970Y-966310D01*
X-512170Y-964400D01*
X-511850Y-962500D01*
Y-960170D01*
X-512170Y-958260D01*
X-512970Y-956570D01*
X-513940Y-955720D01*
X-515070Y-955300D01*
X-516350Y-955720D01*
X-517320Y-956570D01*
X-517960Y-957840D01*
X-518280Y-959530D01*
X-517960Y-961010D01*
X-517160Y-962500D01*
X-516190Y-963340D01*
X-515070Y-963560D01*
X-513780Y-963130D01*
X-512810Y-962070D01*
X-511850Y-960170D01*
G01X-552060Y-875090D02*
X-548040Y-887790D01*
X-544010Y-875090D01*
G01X-535090D02*
Y-887790D01*
G01X-538780Y-875090D02*
X-531390D01*
G01X-525190Y-877210D02*
X-524230Y-875940D01*
X-523100Y-875300D01*
X-521810Y-875090D01*
X-520200Y-875510D01*
X-519080Y-876570D01*
X-518760Y-877840D01*
X-518920Y-879110D01*
X-519560Y-880170D01*
X-522780Y-882290D01*
X-524230Y-883770D01*
X-525190Y-885890D01*
X-525510Y-887790D01*
X-518760D01*
G01X-591670Y-806420D02*
X-587650Y-819120D01*
X-583620Y-806420D01*
G01X-574700D02*
Y-819120D01*
G01X-578390Y-806420D02*
X-571000D01*
G01X-561750Y-819120D02*
Y-806420D01*
X-563680Y-808960D01*
G01Y-819120D02*
X-559820D01*
G01X-560030Y-698730D02*
Y-686030D01*
X-556010D01*
X-554720Y-686670D01*
X-553920Y-687510D01*
X-553600Y-689210D01*
X-553920Y-690900D01*
X-554880Y-691960D01*
X-556010Y-692590D01*
X-560030D01*
G01X-556010D02*
X-553600Y-698730D01*
G01X-546600Y-697250D02*
X-545470Y-698310D01*
X-544190Y-698730D01*
X-542900Y-698310D01*
X-541770Y-697040D01*
X-540970Y-695130D01*
X-540650Y-693230D01*
Y-690900D01*
X-540970Y-688990D01*
X-541770Y-687300D01*
X-542740Y-686450D01*
X-543870Y-686030D01*
X-545150Y-686450D01*
X-546120Y-687300D01*
X-546760Y-688570D01*
X-547080Y-690260D01*
X-546760Y-691740D01*
X-545960Y-693230D01*
X-544990Y-694070D01*
X-543870Y-694290D01*
X-542580Y-693860D01*
X-541610Y-692800D01*
X-540650Y-690900D01*
G01X-533650Y-697250D02*
X-532520Y-698310D01*
X-531240Y-698730D01*
X-529950Y-698310D01*
X-528820Y-697040D01*
X-528020Y-695130D01*
X-527700Y-693230D01*
Y-690900D01*
X-528020Y-688990D01*
X-528820Y-687300D01*
X-529790Y-686450D01*
X-530920Y-686030D01*
X-532200Y-686450D01*
X-533170Y-687300D01*
X-533810Y-688570D01*
X-534130Y-690260D01*
X-533810Y-691740D01*
X-533010Y-693230D01*
X-532040Y-694070D01*
X-530920Y-694290D01*
X-529630Y-693860D01*
X-528660Y-692800D01*
X-527700Y-690900D01*
G01X-560030Y-597130D02*
Y-584430D01*
X-556010D01*
X-554720Y-585070D01*
X-553920Y-585910D01*
X-553600Y-587610D01*
X-553920Y-589300D01*
X-554880Y-590360D01*
X-556010Y-590990D01*
X-560030D01*
G01X-556010D02*
X-553600Y-597130D01*
G01X-543870D02*
X-542740Y-596920D01*
X-541450Y-596280D01*
X-540650Y-595230D01*
X-540330Y-593740D01*
X-540650Y-592260D01*
X-541610Y-590990D01*
X-543060Y-590360D01*
X-544670D01*
X-545630Y-589930D01*
X-546440Y-588880D01*
X-546760Y-587390D01*
X-546280Y-585910D01*
X-545150Y-584850D01*
X-543870Y-584430D01*
X-542580Y-584850D01*
X-541450Y-585910D01*
X-540970Y-587390D01*
X-541290Y-588880D01*
X-542100Y-589930D01*
X-543060Y-590360D01*
X-544670D01*
X-546120Y-590990D01*
X-547080Y-592260D01*
X-547400Y-593740D01*
X-547080Y-595230D01*
X-546280Y-596280D01*
X-544990Y-596920D01*
X-543870Y-597130D01*
G01X-533650Y-595650D02*
X-532520Y-596710D01*
X-531240Y-597130D01*
X-529950Y-596710D01*
X-528820Y-595440D01*
X-528020Y-593530D01*
X-527700Y-591630D01*
Y-589300D01*
X-528020Y-587390D01*
X-528820Y-585700D01*
X-529790Y-584850D01*
X-530920Y-584430D01*
X-532200Y-584850D01*
X-533170Y-585700D01*
X-533810Y-586970D01*
X-534130Y-588660D01*
X-533810Y-590140D01*
X-533010Y-591630D01*
X-532040Y-592470D01*
X-530920Y-592690D01*
X-529630Y-592260D01*
X-528660Y-591200D01*
X-527700Y-589300D01*
G01X-560030Y-495530D02*
Y-482830D01*
X-556010D01*
X-554720Y-483470D01*
X-553920Y-484310D01*
X-553600Y-486010D01*
X-553920Y-487700D01*
X-554880Y-488760D01*
X-556010Y-489390D01*
X-560030D01*
G01X-556010D02*
X-553600Y-495530D01*
G01X-544190D02*
X-543870Y-492780D01*
X-543380Y-490450D01*
X-542740Y-488330D01*
X-541930Y-486010D01*
X-540650Y-482830D01*
X-547080D01*
G01X-533650Y-494050D02*
X-532520Y-495110D01*
X-531240Y-495530D01*
X-529950Y-495110D01*
X-528820Y-493840D01*
X-528020Y-491930D01*
X-527700Y-490030D01*
Y-487700D01*
X-528020Y-485790D01*
X-528820Y-484100D01*
X-529790Y-483250D01*
X-530920Y-482830D01*
X-532200Y-483250D01*
X-533170Y-484100D01*
X-533810Y-485370D01*
X-534130Y-487060D01*
X-533810Y-488540D01*
X-533010Y-490030D01*
X-532040Y-490870D01*
X-530920Y-491090D01*
X-529630Y-490660D01*
X-528660Y-489600D01*
X-527700Y-487700D01*
G01X-560030Y-393930D02*
Y-381230D01*
X-556010D01*
X-554720Y-381870D01*
X-553920Y-382710D01*
X-553600Y-384410D01*
X-553920Y-386100D01*
X-554880Y-387160D01*
X-556010Y-387790D01*
X-560030D01*
G01X-556010D02*
X-553600Y-393930D01*
G01X-546920Y-388640D02*
X-545800Y-387160D01*
X-544830Y-386310D01*
X-543540Y-385890D01*
X-542420Y-386310D01*
X-541610Y-387160D01*
X-540970Y-388430D01*
X-540810Y-389910D01*
X-540970Y-391180D01*
X-541610Y-392450D01*
X-542580Y-393510D01*
X-543700Y-393930D01*
X-544990Y-393510D01*
X-546120Y-392240D01*
X-546760Y-390330D01*
X-546920Y-388220D01*
X-546600Y-385460D01*
X-546120Y-383980D01*
X-545310Y-382500D01*
X-544190Y-381440D01*
X-543060Y-381230D01*
X-541930Y-381650D01*
X-541130Y-382710D01*
G01X-533650Y-392450D02*
X-532520Y-393510D01*
X-531240Y-393930D01*
X-529950Y-393510D01*
X-528820Y-392240D01*
X-528020Y-390330D01*
X-527700Y-388430D01*
Y-386100D01*
X-528020Y-384190D01*
X-528820Y-382500D01*
X-529790Y-381650D01*
X-530920Y-381230D01*
X-532200Y-381650D01*
X-533170Y-382500D01*
X-533810Y-383770D01*
X-534130Y-385460D01*
X-533810Y-386940D01*
X-533010Y-388430D01*
X-532040Y-389270D01*
X-530920Y-389490D01*
X-529630Y-389060D01*
X-528660Y-388000D01*
X-527700Y-386100D01*
G01X-560030Y-292330D02*
Y-279630D01*
X-556010D01*
X-554720Y-280270D01*
X-553920Y-281110D01*
X-553600Y-282810D01*
X-553920Y-284500D01*
X-554880Y-285560D01*
X-556010Y-286190D01*
X-560030D01*
G01X-556010D02*
X-553600Y-292330D01*
G01X-547400Y-290430D02*
X-546440Y-291480D01*
X-545310Y-292120D01*
X-543870Y-292330D01*
X-542420Y-291910D01*
X-541290Y-291060D01*
X-540490Y-289580D01*
X-540330Y-287890D01*
X-540650Y-286190D01*
X-541450Y-285130D01*
X-542580Y-284290D01*
X-543700Y-284080D01*
X-544830Y-284290D01*
X-546280Y-285130D01*
X-545800Y-279630D01*
X-541450D01*
G01X-533650Y-290850D02*
X-532520Y-291910D01*
X-531240Y-292330D01*
X-529950Y-291910D01*
X-528820Y-290640D01*
X-528020Y-288730D01*
X-527700Y-286830D01*
Y-284500D01*
X-528020Y-282590D01*
X-528820Y-280900D01*
X-529790Y-280050D01*
X-530920Y-279630D01*
X-532200Y-280050D01*
X-533170Y-280900D01*
X-533810Y-282170D01*
X-534130Y-283860D01*
X-533810Y-285340D01*
X-533010Y-286830D01*
X-532040Y-287670D01*
X-530920Y-287890D01*
X-529630Y-287460D01*
X-528660Y-286400D01*
X-527700Y-284500D01*
G01X-560030Y-190730D02*
Y-178030D01*
X-556010D01*
X-554720Y-178670D01*
X-553920Y-179510D01*
X-553600Y-181210D01*
X-553920Y-182900D01*
X-554880Y-183960D01*
X-556010Y-184590D01*
X-560030D01*
G01X-556010D02*
X-553600Y-190730D01*
G01X-541930D02*
Y-178030D01*
X-547890Y-187130D01*
X-539840D01*
G01X-533650Y-189250D02*
X-532520Y-190310D01*
X-531240Y-190730D01*
X-529950Y-190310D01*
X-528820Y-189040D01*
X-528020Y-187130D01*
X-527700Y-185230D01*
Y-182900D01*
X-528020Y-180990D01*
X-528820Y-179300D01*
X-529790Y-178450D01*
X-530920Y-178030D01*
X-532200Y-178450D01*
X-533170Y-179300D01*
X-533810Y-180570D01*
X-534130Y-182260D01*
X-533810Y-183740D01*
X-533010Y-185230D01*
X-532040Y-186070D01*
X-530920Y-186290D01*
X-529630Y-185860D01*
X-528660Y-184800D01*
X-527700Y-182900D01*
G01X-560030Y-89130D02*
Y-76430D01*
X-556010D01*
X-554720Y-77070D01*
X-553920Y-77910D01*
X-553600Y-79610D01*
X-553920Y-81300D01*
X-554880Y-82360D01*
X-556010Y-82990D01*
X-560030D01*
G01X-556010D02*
X-553600Y-89130D01*
G01X-547400Y-86590D02*
X-546440Y-88070D01*
X-545150Y-88920D01*
X-543700Y-89130D01*
X-542420Y-88920D01*
X-541130Y-87860D01*
X-540330Y-86590D01*
X-540170Y-85320D01*
X-540490Y-83840D01*
X-541610Y-82780D01*
X-542740Y-82360D01*
X-544190D01*
G01X-542740D02*
X-541770Y-81720D01*
X-540970Y-80660D01*
X-540650Y-79390D01*
X-540970Y-78120D01*
X-541770Y-77070D01*
X-543220Y-76430D01*
X-544670Y-76640D01*
X-546120Y-77490D01*
G01X-533650Y-87650D02*
X-532520Y-88710D01*
X-531240Y-89130D01*
X-529950Y-88710D01*
X-528820Y-87440D01*
X-528020Y-85530D01*
X-527700Y-83630D01*
Y-81300D01*
X-528020Y-79390D01*
X-528820Y-77700D01*
X-529790Y-76850D01*
X-530920Y-76430D01*
X-532200Y-76850D01*
X-533170Y-77700D01*
X-533810Y-78970D01*
X-534130Y-80660D01*
X-533810Y-82140D01*
X-533010Y-83630D01*
X-532040Y-84470D01*
X-530920Y-84690D01*
X-529630Y-84260D01*
X-528660Y-83200D01*
X-527700Y-81300D01*
G01X-560030Y12470D02*
Y25170D01*
X-556010D01*
X-554720Y24530D01*
X-553920Y23690D01*
X-553600Y21990D01*
X-553920Y20300D01*
X-554880Y19240D01*
X-556010Y18610D01*
X-560030D01*
G01X-556010D02*
X-553600Y12470D01*
G01X-546920Y23050D02*
X-545960Y24320D01*
X-544830Y24960D01*
X-543540Y25170D01*
X-541930Y24750D01*
X-540810Y23690D01*
X-540490Y22420D01*
X-540650Y21150D01*
X-541290Y20090D01*
X-544510Y17970D01*
X-545960Y16490D01*
X-546920Y14370D01*
X-547240Y12470D01*
X-540490D01*
G01X-533650Y13950D02*
X-532520Y12890D01*
X-531240Y12470D01*
X-529950Y12890D01*
X-528820Y14160D01*
X-528020Y16070D01*
X-527700Y17970D01*
Y20300D01*
X-528020Y22210D01*
X-528820Y23900D01*
X-529790Y24750D01*
X-530920Y25170D01*
X-532200Y24750D01*
X-533170Y23900D01*
X-533810Y22630D01*
X-534130Y20940D01*
X-533810Y19460D01*
X-533010Y17970D01*
X-532040Y17130D01*
X-530920Y16910D01*
X-529630Y17340D01*
X-528660Y18400D01*
X-527700Y20300D01*
G01X-542210Y356890D02*
X-538190Y369590D01*
X-534160Y356890D01*
G01X-535610Y361330D02*
X-540760D01*
G01X-529260Y369590D02*
X-525240Y356890D01*
X-521210Y369590D01*
G01X-512290Y356890D02*
Y369590D01*
X-514220Y367050D01*
G01Y356890D02*
X-510360D01*
G01X-588540Y418040D02*
X-589500Y418680D01*
X-590630Y419100D01*
X-591910D01*
X-593360Y418460D01*
X-594490Y417410D01*
X-595290Y416140D01*
X-595940Y414020D01*
X-596100Y412110D01*
X-595770Y410210D01*
X-595290Y408940D01*
X-594330Y407670D01*
X-593200Y406820D01*
X-592080Y406400D01*
X-590950D01*
X-589820Y406820D01*
X-588860Y407460D01*
X-588050Y408300D01*
G01X-582660D02*
X-581700Y407250D01*
X-580570Y406610D01*
X-579130Y406400D01*
X-577680Y406820D01*
X-576550Y407670D01*
X-575750Y409150D01*
X-575590Y410840D01*
X-575910Y412540D01*
X-576710Y413600D01*
X-577840Y414440D01*
X-578960Y414650D01*
X-580090Y414440D01*
X-581540Y413600D01*
X-581060Y419100D01*
X-576710D01*
G01X-566180D02*
X-567460Y418680D01*
X-568430Y417620D01*
X-569070Y416350D01*
X-569550Y414650D01*
X-569710Y412750D01*
X-569550Y410840D01*
X-569070Y409150D01*
X-568430Y407880D01*
X-567460Y406820D01*
X-566180Y406400D01*
X-564890Y406820D01*
X-563920Y407880D01*
X-563280Y409150D01*
X-562800Y410840D01*
X-562640Y412750D01*
X-562800Y414650D01*
X-563280Y416350D01*
X-563920Y417620D01*
X-564890Y418680D01*
X-566180Y419100D01*
G01X-537370Y516340D02*
Y529040D01*
X-533350D01*
X-532060Y528400D01*
X-531260Y527560D01*
X-530940Y525860D01*
X-531260Y524170D01*
X-532220Y523110D01*
X-533350Y522480D01*
X-537370D01*
G01X-533350D02*
X-530940Y516340D01*
G01X-521210D02*
Y529040D01*
X-523140Y526500D01*
G01Y516340D02*
X-519280D01*
G01X-508260D02*
Y529040D01*
X-510190Y526500D01*
G01Y516340D02*
X-506330D01*
G01X-609460Y579660D02*
Y570560D01*
X-608820Y568650D01*
X-607530Y567380D01*
X-605930Y566960D01*
X-604320Y567380D01*
X-603030Y568650D01*
X-602390Y570560D01*
Y579660D01*
G01X-592980Y566960D02*
Y579660D01*
X-594910Y577120D01*
G01Y566960D02*
X-591050D01*
G01X-597880Y613460D02*
Y626160D01*
X-593860D01*
X-592570Y625520D01*
X-591770Y624680D01*
X-591450Y622980D01*
X-591770Y621290D01*
X-592730Y620230D01*
X-593860Y619600D01*
X-597880D01*
G01X-593860D02*
X-591450Y613460D01*
G01X-584930D02*
Y626160D01*
X-580910D01*
X-579620Y625520D01*
X-578820Y624680D01*
X-578500Y622980D01*
X-578820Y621290D01*
X-579780Y620230D01*
X-580910Y619600D01*
X-584930D01*
G01X-580910D02*
X-578500Y613460D01*
G01X-571820Y624040D02*
X-570860Y625310D01*
X-569730Y625950D01*
X-568440Y626160D01*
X-566830Y625740D01*
X-565710Y624680D01*
X-565390Y623410D01*
X-565550Y622140D01*
X-566190Y621080D01*
X-569410Y618960D01*
X-570860Y617480D01*
X-571820Y615360D01*
X-572140Y613460D01*
X-565390D01*
G01X-595880Y745460D02*
Y758160D01*
X-591860D01*
X-590570Y757520D01*
X-589770Y756680D01*
X-589450Y754980D01*
X-589770Y753290D01*
X-590730Y752230D01*
X-591860Y751600D01*
X-595880D01*
G01X-591860D02*
X-589450Y745460D01*
G01X-582930D02*
Y758160D01*
X-578910D01*
X-577620Y757520D01*
X-576820Y756680D01*
X-576500Y754980D01*
X-576820Y753290D01*
X-577780Y752230D01*
X-578910Y751600D01*
X-582930D01*
G01X-578910D02*
X-576500Y745460D01*
G01X-566770D02*
Y758160D01*
X-568700Y755620D01*
G01Y745460D02*
X-564840D01*
G01X-483820Y-729000D02*
Y-721130D01*
X-481380D01*
X-480600Y-721520D01*
X-480120Y-722050D01*
X-479920Y-723100D01*
X-480120Y-724150D01*
X-480700Y-724800D01*
X-481380Y-725200D01*
X-483820D01*
G01X-481380D02*
X-479920Y-729000D01*
G01X-475650Y-728080D02*
X-474970Y-728740D01*
X-474190Y-729000D01*
X-473420Y-728740D01*
X-472730Y-727950D01*
X-472250Y-726770D01*
X-472050Y-725590D01*
Y-724150D01*
X-472250Y-722970D01*
X-472730Y-721920D01*
X-473320Y-721390D01*
X-474000Y-721130D01*
X-474780Y-721390D01*
X-475360Y-721920D01*
X-475750Y-722700D01*
X-475950Y-723750D01*
X-475750Y-724670D01*
X-475270Y-725590D01*
X-474680Y-726110D01*
X-474000Y-726250D01*
X-473220Y-725980D01*
X-472640Y-725330D01*
X-472050Y-724150D01*
G01X-467980Y-725720D02*
X-467300Y-724800D01*
X-466710Y-724280D01*
X-465940Y-724020D01*
X-465250Y-724280D01*
X-464770Y-724800D01*
X-464380Y-725590D01*
X-464280Y-726510D01*
X-464380Y-727290D01*
X-464770Y-728080D01*
X-465350Y-728740D01*
X-466030Y-729000D01*
X-466810Y-728740D01*
X-467490Y-727950D01*
X-467880Y-726770D01*
X-467980Y-725460D01*
X-467780Y-723750D01*
X-467490Y-722840D01*
X-467010Y-721920D01*
X-466320Y-721260D01*
X-465640Y-721130D01*
X-464960Y-721390D01*
X-464480Y-722050D01*
G01X-483820Y-628000D02*
Y-620130D01*
X-481380D01*
X-480600Y-620520D01*
X-480120Y-621050D01*
X-479920Y-622100D01*
X-480120Y-623150D01*
X-480700Y-623800D01*
X-481380Y-624200D01*
X-483820D01*
G01X-481380D02*
X-479920Y-628000D01*
G01X-474000D02*
X-473320Y-627870D01*
X-472540Y-627480D01*
X-472050Y-626820D01*
X-471860Y-625900D01*
X-472050Y-624980D01*
X-472640Y-624200D01*
X-473510Y-623800D01*
X-474490D01*
X-475070Y-623540D01*
X-475560Y-622880D01*
X-475750Y-621970D01*
X-475460Y-621050D01*
X-474780Y-620390D01*
X-474000Y-620130D01*
X-473220Y-620390D01*
X-472540Y-621050D01*
X-472250Y-621970D01*
X-472440Y-622880D01*
X-472930Y-623540D01*
X-473510Y-623800D01*
X-474490D01*
X-475360Y-624200D01*
X-475950Y-624980D01*
X-476140Y-625900D01*
X-475950Y-626820D01*
X-475460Y-627480D01*
X-474680Y-627870D01*
X-474000Y-628000D01*
G01X-467980Y-624720D02*
X-467300Y-623800D01*
X-466710Y-623280D01*
X-465940Y-623020D01*
X-465250Y-623280D01*
X-464770Y-623800D01*
X-464380Y-624590D01*
X-464280Y-625510D01*
X-464380Y-626290D01*
X-464770Y-627080D01*
X-465350Y-627740D01*
X-466030Y-628000D01*
X-466810Y-627740D01*
X-467490Y-626950D01*
X-467880Y-625770D01*
X-467980Y-624460D01*
X-467780Y-622750D01*
X-467490Y-621840D01*
X-467010Y-620920D01*
X-466320Y-620260D01*
X-465640Y-620130D01*
X-464960Y-620390D01*
X-464480Y-621050D01*
G01X-483820Y-681000D02*
Y-673130D01*
X-481380D01*
X-480600Y-673520D01*
X-480120Y-674050D01*
X-479920Y-675100D01*
X-480120Y-676150D01*
X-480700Y-676800D01*
X-481380Y-677200D01*
X-483820D01*
G01X-481380D02*
X-479920Y-681000D01*
G01X-475650Y-680080D02*
X-474970Y-680740D01*
X-474190Y-681000D01*
X-473420Y-680740D01*
X-472730Y-679950D01*
X-472250Y-678770D01*
X-472050Y-677590D01*
Y-676150D01*
X-472250Y-674970D01*
X-472730Y-673920D01*
X-473320Y-673390D01*
X-474000Y-673130D01*
X-474780Y-673390D01*
X-475360Y-673920D01*
X-475750Y-674700D01*
X-475950Y-675750D01*
X-475750Y-676670D01*
X-475270Y-677590D01*
X-474680Y-678110D01*
X-474000Y-678250D01*
X-473220Y-677980D01*
X-472640Y-677330D01*
X-472050Y-676150D01*
G01X-466130Y-681000D02*
X-465450Y-680870D01*
X-464670Y-680480D01*
X-464180Y-679820D01*
X-463990Y-678900D01*
X-464180Y-677980D01*
X-464770Y-677200D01*
X-465640Y-676800D01*
X-466620D01*
X-467200Y-676540D01*
X-467690Y-675880D01*
X-467880Y-674970D01*
X-467590Y-674050D01*
X-466910Y-673390D01*
X-466130Y-673130D01*
X-465350Y-673390D01*
X-464670Y-674050D01*
X-464380Y-674970D01*
X-464570Y-675880D01*
X-465060Y-676540D01*
X-465640Y-676800D01*
X-466620D01*
X-467490Y-677200D01*
X-468080Y-677980D01*
X-468270Y-678900D01*
X-468080Y-679820D01*
X-467590Y-680480D01*
X-466810Y-680870D01*
X-466130Y-681000D01*
G01X-483820Y-580000D02*
Y-572130D01*
X-481380D01*
X-480600Y-572520D01*
X-480120Y-573050D01*
X-479920Y-574100D01*
X-480120Y-575150D01*
X-480700Y-575800D01*
X-481380Y-576200D01*
X-483820D01*
G01X-481380D02*
X-479920Y-580000D01*
G01X-474000D02*
X-473320Y-579870D01*
X-472540Y-579480D01*
X-472050Y-578820D01*
X-471860Y-577900D01*
X-472050Y-576980D01*
X-472640Y-576200D01*
X-473510Y-575800D01*
X-474490D01*
X-475070Y-575540D01*
X-475560Y-574880D01*
X-475750Y-573970D01*
X-475460Y-573050D01*
X-474780Y-572390D01*
X-474000Y-572130D01*
X-473220Y-572390D01*
X-472540Y-573050D01*
X-472250Y-573970D01*
X-472440Y-574880D01*
X-472930Y-575540D01*
X-473510Y-575800D01*
X-474490D01*
X-475360Y-576200D01*
X-475950Y-576980D01*
X-476140Y-577900D01*
X-475950Y-578820D01*
X-475460Y-579480D01*
X-474680Y-579870D01*
X-474000Y-580000D01*
G01X-466130D02*
X-465450Y-579870D01*
X-464670Y-579480D01*
X-464180Y-578820D01*
X-463990Y-577900D01*
X-464180Y-576980D01*
X-464770Y-576200D01*
X-465640Y-575800D01*
X-466620D01*
X-467200Y-575540D01*
X-467690Y-574880D01*
X-467880Y-573970D01*
X-467590Y-573050D01*
X-466910Y-572390D01*
X-466130Y-572130D01*
X-465350Y-572390D01*
X-464670Y-573050D01*
X-464380Y-573970D01*
X-464570Y-574880D01*
X-465060Y-575540D01*
X-465640Y-575800D01*
X-466620D01*
X-467490Y-576200D01*
X-468080Y-576980D01*
X-468270Y-577900D01*
X-468080Y-578820D01*
X-467590Y-579480D01*
X-466810Y-579870D01*
X-466130Y-580000D01*
G01X-483820Y-527000D02*
Y-519130D01*
X-481380D01*
X-480600Y-519520D01*
X-480120Y-520050D01*
X-479920Y-521100D01*
X-480120Y-522150D01*
X-480700Y-522800D01*
X-481380Y-523200D01*
X-483820D01*
G01X-481380D02*
X-479920Y-527000D01*
G01X-474190D02*
X-474000Y-525290D01*
X-473710Y-523850D01*
X-473320Y-522540D01*
X-472830Y-521100D01*
X-472050Y-519130D01*
X-475950D01*
G01X-467980Y-523720D02*
X-467300Y-522800D01*
X-466710Y-522280D01*
X-465940Y-522020D01*
X-465250Y-522280D01*
X-464770Y-522800D01*
X-464380Y-523590D01*
X-464280Y-524510D01*
X-464380Y-525290D01*
X-464770Y-526080D01*
X-465350Y-526740D01*
X-466030Y-527000D01*
X-466810Y-526740D01*
X-467490Y-525950D01*
X-467880Y-524770D01*
X-467980Y-523460D01*
X-467780Y-521750D01*
X-467490Y-520840D01*
X-467010Y-519920D01*
X-466320Y-519260D01*
X-465640Y-519130D01*
X-464960Y-519390D01*
X-464480Y-520050D01*
G01X-483820Y-478000D02*
Y-470130D01*
X-481380D01*
X-480600Y-470520D01*
X-480120Y-471050D01*
X-479920Y-472100D01*
X-480120Y-473150D01*
X-480700Y-473800D01*
X-481380Y-474200D01*
X-483820D01*
G01X-481380D02*
X-479920Y-478000D01*
G01X-474190D02*
X-474000Y-476290D01*
X-473710Y-474850D01*
X-473320Y-473540D01*
X-472830Y-472100D01*
X-472050Y-470130D01*
X-475950D01*
G01X-466130Y-478000D02*
X-465450Y-477870D01*
X-464670Y-477480D01*
X-464180Y-476820D01*
X-463990Y-475900D01*
X-464180Y-474980D01*
X-464770Y-474200D01*
X-465640Y-473800D01*
X-466620D01*
X-467200Y-473540D01*
X-467690Y-472880D01*
X-467880Y-471970D01*
X-467590Y-471050D01*
X-466910Y-470390D01*
X-466130Y-470130D01*
X-465350Y-470390D01*
X-464670Y-471050D01*
X-464380Y-471970D01*
X-464570Y-472880D01*
X-465060Y-473540D01*
X-465640Y-473800D01*
X-466620D01*
X-467490Y-474200D01*
X-468080Y-474980D01*
X-468270Y-475900D01*
X-468080Y-476820D01*
X-467590Y-477480D01*
X-466810Y-477870D01*
X-466130Y-478000D01*
G01X-483820Y-425000D02*
Y-417130D01*
X-481380D01*
X-480600Y-417520D01*
X-480120Y-418050D01*
X-479920Y-419100D01*
X-480120Y-420150D01*
X-480700Y-420800D01*
X-481380Y-421200D01*
X-483820D01*
G01X-481380D02*
X-479920Y-425000D01*
G01X-475850Y-421720D02*
X-475170Y-420800D01*
X-474580Y-420280D01*
X-473810Y-420020D01*
X-473120Y-420280D01*
X-472640Y-420800D01*
X-472250Y-421590D01*
X-472150Y-422510D01*
X-472250Y-423290D01*
X-472640Y-424080D01*
X-473220Y-424740D01*
X-473900Y-425000D01*
X-474680Y-424740D01*
X-475360Y-423950D01*
X-475750Y-422770D01*
X-475850Y-421460D01*
X-475650Y-419750D01*
X-475360Y-418840D01*
X-474880Y-417920D01*
X-474190Y-417260D01*
X-473510Y-417130D01*
X-472830Y-417390D01*
X-472350Y-418050D01*
G01X-467980Y-421720D02*
X-467300Y-420800D01*
X-466710Y-420280D01*
X-465940Y-420020D01*
X-465250Y-420280D01*
X-464770Y-420800D01*
X-464380Y-421590D01*
X-464280Y-422510D01*
X-464380Y-423290D01*
X-464770Y-424080D01*
X-465350Y-424740D01*
X-466030Y-425000D01*
X-466810Y-424740D01*
X-467490Y-423950D01*
X-467880Y-422770D01*
X-467980Y-421460D01*
X-467780Y-419750D01*
X-467490Y-418840D01*
X-467010Y-417920D01*
X-466320Y-417260D01*
X-465640Y-417130D01*
X-464960Y-417390D01*
X-464480Y-418050D01*
G01X-483820Y-323000D02*
Y-315130D01*
X-481380D01*
X-480600Y-315520D01*
X-480120Y-316050D01*
X-479920Y-317100D01*
X-480120Y-318150D01*
X-480700Y-318800D01*
X-481380Y-319200D01*
X-483820D01*
G01X-481380D02*
X-479920Y-323000D01*
G01X-476140Y-321820D02*
X-475560Y-322480D01*
X-474880Y-322870D01*
X-474000Y-323000D01*
X-473120Y-322740D01*
X-472440Y-322210D01*
X-471960Y-321290D01*
X-471860Y-320250D01*
X-472050Y-319200D01*
X-472540Y-318540D01*
X-473220Y-318020D01*
X-473900Y-317880D01*
X-474580Y-318020D01*
X-475460Y-318540D01*
X-475170Y-315130D01*
X-472540D01*
G01X-467980Y-319720D02*
X-467300Y-318800D01*
X-466710Y-318280D01*
X-465940Y-318020D01*
X-465250Y-318280D01*
X-464770Y-318800D01*
X-464380Y-319590D01*
X-464280Y-320510D01*
X-464380Y-321290D01*
X-464770Y-322080D01*
X-465350Y-322740D01*
X-466030Y-323000D01*
X-466810Y-322740D01*
X-467490Y-321950D01*
X-467880Y-320770D01*
X-467980Y-319460D01*
X-467780Y-317750D01*
X-467490Y-316840D01*
X-467010Y-315920D01*
X-466320Y-315260D01*
X-465640Y-315130D01*
X-464960Y-315390D01*
X-464480Y-316050D01*
G01X-483820Y-377000D02*
Y-369130D01*
X-481380D01*
X-480600Y-369520D01*
X-480120Y-370050D01*
X-479920Y-371100D01*
X-480120Y-372150D01*
X-480700Y-372800D01*
X-481380Y-373200D01*
X-483820D01*
G01X-481380D02*
X-479920Y-377000D01*
G01X-475850Y-373720D02*
X-475170Y-372800D01*
X-474580Y-372280D01*
X-473810Y-372020D01*
X-473120Y-372280D01*
X-472640Y-372800D01*
X-472250Y-373590D01*
X-472150Y-374510D01*
X-472250Y-375290D01*
X-472640Y-376080D01*
X-473220Y-376740D01*
X-473900Y-377000D01*
X-474680Y-376740D01*
X-475360Y-375950D01*
X-475750Y-374770D01*
X-475850Y-373460D01*
X-475650Y-371750D01*
X-475360Y-370840D01*
X-474880Y-369920D01*
X-474190Y-369260D01*
X-473510Y-369130D01*
X-472830Y-369390D01*
X-472350Y-370050D01*
G01X-466130Y-377000D02*
X-465450Y-376870D01*
X-464670Y-376480D01*
X-464180Y-375820D01*
X-463990Y-374900D01*
X-464180Y-373980D01*
X-464770Y-373200D01*
X-465640Y-372800D01*
X-466620D01*
X-467200Y-372540D01*
X-467690Y-371880D01*
X-467880Y-370970D01*
X-467590Y-370050D01*
X-466910Y-369390D01*
X-466130Y-369130D01*
X-465350Y-369390D01*
X-464670Y-370050D01*
X-464380Y-370970D01*
X-464570Y-371880D01*
X-465060Y-372540D01*
X-465640Y-372800D01*
X-466620D01*
X-467490Y-373200D01*
X-468080Y-373980D01*
X-468270Y-374900D01*
X-468080Y-375820D01*
X-467590Y-376480D01*
X-466810Y-376870D01*
X-466130Y-377000D01*
G01X-483820Y-275000D02*
Y-267130D01*
X-481380D01*
X-480600Y-267520D01*
X-480120Y-268050D01*
X-479920Y-269100D01*
X-480120Y-270150D01*
X-480700Y-270800D01*
X-481380Y-271200D01*
X-483820D01*
G01X-481380D02*
X-479920Y-275000D01*
G01X-476140Y-273820D02*
X-475560Y-274480D01*
X-474880Y-274870D01*
X-474000Y-275000D01*
X-473120Y-274740D01*
X-472440Y-274210D01*
X-471960Y-273290D01*
X-471860Y-272250D01*
X-472050Y-271200D01*
X-472540Y-270540D01*
X-473220Y-270020D01*
X-473900Y-269880D01*
X-474580Y-270020D01*
X-475460Y-270540D01*
X-475170Y-267130D01*
X-472540D01*
G01X-466130Y-275000D02*
X-465450Y-274870D01*
X-464670Y-274480D01*
X-464180Y-273820D01*
X-463990Y-272900D01*
X-464180Y-271980D01*
X-464770Y-271200D01*
X-465640Y-270800D01*
X-466620D01*
X-467200Y-270540D01*
X-467690Y-269880D01*
X-467880Y-268970D01*
X-467590Y-268050D01*
X-466910Y-267390D01*
X-466130Y-267130D01*
X-465350Y-267390D01*
X-464670Y-268050D01*
X-464380Y-268970D01*
X-464570Y-269880D01*
X-465060Y-270540D01*
X-465640Y-270800D01*
X-466620D01*
X-467490Y-271200D01*
X-468080Y-271980D01*
X-468270Y-272900D01*
X-468080Y-273820D01*
X-467590Y-274480D01*
X-466810Y-274870D01*
X-466130Y-275000D01*
G01X-483820Y-222000D02*
Y-214130D01*
X-481380D01*
X-480600Y-214520D01*
X-480120Y-215050D01*
X-479920Y-216100D01*
X-480120Y-217150D01*
X-480700Y-217800D01*
X-481380Y-218200D01*
X-483820D01*
G01X-481380D02*
X-479920Y-222000D01*
G01X-472830D02*
Y-214130D01*
X-476430Y-219770D01*
X-471570D01*
G01X-467980Y-218720D02*
X-467300Y-217800D01*
X-466710Y-217280D01*
X-465940Y-217020D01*
X-465250Y-217280D01*
X-464770Y-217800D01*
X-464380Y-218590D01*
X-464280Y-219510D01*
X-464380Y-220290D01*
X-464770Y-221080D01*
X-465350Y-221740D01*
X-466030Y-222000D01*
X-466810Y-221740D01*
X-467490Y-220950D01*
X-467880Y-219770D01*
X-467980Y-218460D01*
X-467780Y-216750D01*
X-467490Y-215840D01*
X-467010Y-214920D01*
X-466320Y-214260D01*
X-465640Y-214130D01*
X-464960Y-214390D01*
X-464480Y-215050D01*
G01X-483820Y-173000D02*
Y-165130D01*
X-481380D01*
X-480600Y-165520D01*
X-480120Y-166050D01*
X-479920Y-167100D01*
X-480120Y-168150D01*
X-480700Y-168800D01*
X-481380Y-169200D01*
X-483820D01*
G01X-481380D02*
X-479920Y-173000D01*
G01X-472830D02*
Y-165130D01*
X-476430Y-170770D01*
X-471570D01*
G01X-466130Y-173000D02*
X-465450Y-172870D01*
X-464670Y-172480D01*
X-464180Y-171820D01*
X-463990Y-170900D01*
X-464180Y-169980D01*
X-464770Y-169200D01*
X-465640Y-168800D01*
X-466620D01*
X-467200Y-168540D01*
X-467690Y-167880D01*
X-467880Y-166970D01*
X-467590Y-166050D01*
X-466910Y-165390D01*
X-466130Y-165130D01*
X-465350Y-165390D01*
X-464670Y-166050D01*
X-464380Y-166970D01*
X-464570Y-167880D01*
X-465060Y-168540D01*
X-465640Y-168800D01*
X-466620D01*
X-467490Y-169200D01*
X-468080Y-169980D01*
X-468270Y-170900D01*
X-468080Y-171820D01*
X-467590Y-172480D01*
X-466810Y-172870D01*
X-466130Y-173000D01*
G01X-483820Y-120000D02*
Y-112130D01*
X-481380D01*
X-480600Y-112520D01*
X-480120Y-113050D01*
X-479920Y-114100D01*
X-480120Y-115150D01*
X-480700Y-115800D01*
X-481380Y-116200D01*
X-483820D01*
G01X-481380D02*
X-479920Y-120000D01*
G01X-476140Y-118430D02*
X-475560Y-119340D01*
X-474780Y-119870D01*
X-473900Y-120000D01*
X-473120Y-119870D01*
X-472350Y-119210D01*
X-471860Y-118430D01*
X-471760Y-117640D01*
X-471960Y-116720D01*
X-472640Y-116070D01*
X-473320Y-115800D01*
X-474190D01*
G01X-473320D02*
X-472730Y-115410D01*
X-472250Y-114750D01*
X-472050Y-113970D01*
X-472250Y-113180D01*
X-472730Y-112520D01*
X-473610Y-112130D01*
X-474490Y-112260D01*
X-475360Y-112790D01*
G01X-467980Y-116720D02*
X-467300Y-115800D01*
X-466710Y-115280D01*
X-465940Y-115020D01*
X-465250Y-115280D01*
X-464770Y-115800D01*
X-464380Y-116590D01*
X-464280Y-117510D01*
X-464380Y-118290D01*
X-464770Y-119080D01*
X-465350Y-119740D01*
X-466030Y-120000D01*
X-466810Y-119740D01*
X-467490Y-118950D01*
X-467880Y-117770D01*
X-467980Y-116460D01*
X-467780Y-114750D01*
X-467490Y-113840D01*
X-467010Y-112920D01*
X-466320Y-112260D01*
X-465640Y-112130D01*
X-464960Y-112390D01*
X-464480Y-113050D01*
G01X-483820Y-19000D02*
Y-11130D01*
X-481380D01*
X-480600Y-11520D01*
X-480120Y-12050D01*
X-479920Y-13100D01*
X-480120Y-14150D01*
X-480700Y-14800D01*
X-481380Y-15200D01*
X-483820D01*
G01X-481380D02*
X-479920Y-19000D01*
G01X-475850Y-12440D02*
X-475270Y-11650D01*
X-474580Y-11260D01*
X-473810Y-11130D01*
X-472830Y-11390D01*
X-472150Y-12050D01*
X-471960Y-12840D01*
X-472050Y-13620D01*
X-472440Y-14280D01*
X-474390Y-15590D01*
X-475270Y-16510D01*
X-475850Y-17820D01*
X-476040Y-19000D01*
X-471960D01*
G01X-467980Y-15720D02*
X-467300Y-14800D01*
X-466710Y-14280D01*
X-465940Y-14020D01*
X-465250Y-14280D01*
X-464770Y-14800D01*
X-464380Y-15590D01*
X-464280Y-16510D01*
X-464380Y-17290D01*
X-464770Y-18080D01*
X-465350Y-18740D01*
X-466030Y-19000D01*
X-466810Y-18740D01*
X-467490Y-17950D01*
X-467880Y-16770D01*
X-467980Y-15460D01*
X-467780Y-13750D01*
X-467490Y-12840D01*
X-467010Y-11920D01*
X-466320Y-11260D01*
X-465640Y-11130D01*
X-464960Y-11390D01*
X-464480Y-12050D01*
G01X-483820Y-72000D02*
Y-64130D01*
X-481380D01*
X-480600Y-64520D01*
X-480120Y-65050D01*
X-479920Y-66100D01*
X-480120Y-67150D01*
X-480700Y-67800D01*
X-481380Y-68200D01*
X-483820D01*
G01X-481380D02*
X-479920Y-72000D01*
G01X-476140Y-70430D02*
X-475560Y-71340D01*
X-474780Y-71870D01*
X-473900Y-72000D01*
X-473120Y-71870D01*
X-472350Y-71210D01*
X-471860Y-70430D01*
X-471760Y-69640D01*
X-471960Y-68720D01*
X-472640Y-68070D01*
X-473320Y-67800D01*
X-474190D01*
G01X-473320D02*
X-472730Y-67410D01*
X-472250Y-66750D01*
X-472050Y-65970D01*
X-472250Y-65180D01*
X-472730Y-64520D01*
X-473610Y-64130D01*
X-474490Y-64260D01*
X-475360Y-64790D01*
G01X-466130Y-72000D02*
X-465450Y-71870D01*
X-464670Y-71480D01*
X-464180Y-70820D01*
X-463990Y-69900D01*
X-464180Y-68980D01*
X-464770Y-68200D01*
X-465640Y-67800D01*
X-466620D01*
X-467200Y-67540D01*
X-467690Y-66880D01*
X-467880Y-65970D01*
X-467590Y-65050D01*
X-466910Y-64390D01*
X-466130Y-64130D01*
X-465350Y-64390D01*
X-464670Y-65050D01*
X-464380Y-65970D01*
X-464570Y-66880D01*
X-465060Y-67540D01*
X-465640Y-67800D01*
X-466620D01*
X-467490Y-68200D01*
X-468080Y-68980D01*
X-468270Y-69900D01*
X-468080Y-70820D01*
X-467590Y-71480D01*
X-466810Y-71870D01*
X-466130Y-72000D01*
G01X-483820Y29000D02*
Y36870D01*
X-481380D01*
X-480600Y36480D01*
X-480120Y35950D01*
X-479920Y34900D01*
X-480120Y33850D01*
X-480700Y33200D01*
X-481380Y32800D01*
X-483820D01*
G01X-481380D02*
X-479920Y29000D01*
G01X-475850Y35560D02*
X-475270Y36350D01*
X-474580Y36740D01*
X-473810Y36870D01*
X-472830Y36610D01*
X-472150Y35950D01*
X-471960Y35160D01*
X-472050Y34380D01*
X-472440Y33720D01*
X-474390Y32410D01*
X-475270Y31490D01*
X-475850Y30180D01*
X-476040Y29000D01*
X-471960D01*
G01X-466130D02*
X-465450Y29130D01*
X-464670Y29520D01*
X-464180Y30180D01*
X-463990Y31100D01*
X-464180Y32020D01*
X-464770Y32800D01*
X-465640Y33200D01*
X-466620D01*
X-467200Y33460D01*
X-467690Y34120D01*
X-467880Y35030D01*
X-467590Y35950D01*
X-466910Y36610D01*
X-466130Y36870D01*
X-465350Y36610D01*
X-464670Y35950D01*
X-464380Y35030D01*
X-464570Y34120D01*
X-465060Y33460D01*
X-465640Y33200D01*
X-466620D01*
X-467490Y32800D01*
X-468080Y32020D01*
X-468270Y31100D01*
X-468080Y30180D01*
X-467590Y29520D01*
X-466810Y29130D01*
X-466130Y29000D01*
G01X-490180Y466000D02*
Y478700D01*
X-486160D01*
X-484870Y478060D01*
X-484070Y477220D01*
X-483750Y475520D01*
X-484070Y473830D01*
X-485030Y472770D01*
X-486160Y472140D01*
X-490180D01*
G01X-486160D02*
X-483750Y466000D01*
G01X-474020D02*
Y478700D01*
X-475950Y476160D01*
G01Y466000D02*
X-472090D01*
G01X-464120Y476580D02*
X-463160Y477850D01*
X-462030Y478490D01*
X-460740Y478700D01*
X-459130Y478280D01*
X-458010Y477220D01*
X-457690Y475950D01*
X-457850Y474680D01*
X-458490Y473620D01*
X-461710Y471500D01*
X-463160Y470020D01*
X-464120Y467900D01*
X-464440Y466000D01*
X-457690D01*
G01X-527310Y597940D02*
X-528270Y598580D01*
X-529400Y599000D01*
X-530680D01*
X-532130Y598360D01*
X-533260Y597310D01*
X-534060Y596040D01*
X-534710Y593920D01*
X-534870Y592010D01*
X-534540Y590110D01*
X-534060Y588840D01*
X-533100Y587570D01*
X-531970Y586720D01*
X-530850Y586300D01*
X-529720D01*
X-528590Y586720D01*
X-527630Y587360D01*
X-526820Y588200D01*
G01X-518220Y586300D02*
X-517900Y589050D01*
X-517410Y591380D01*
X-516770Y593500D01*
X-515960Y595820D01*
X-514680Y599000D01*
X-521110D01*
G01X-492330Y607480D02*
X-493290Y608120D01*
X-494420Y608540D01*
X-495700D01*
X-497150Y607900D01*
X-498280Y606850D01*
X-499080Y605580D01*
X-499730Y603460D01*
X-499890Y601550D01*
X-499560Y599650D01*
X-499080Y598380D01*
X-498120Y597110D01*
X-496990Y596260D01*
X-495870Y595840D01*
X-494740D01*
X-493610Y596260D01*
X-492650Y596900D01*
X-491840Y597740D01*
G01X-485970Y601130D02*
X-484850Y602610D01*
X-483880Y603460D01*
X-482590Y603880D01*
X-481470Y603460D01*
X-480660Y602610D01*
X-480020Y601340D01*
X-479860Y599860D01*
X-480020Y598590D01*
X-480660Y597320D01*
X-481630Y596260D01*
X-482750Y595840D01*
X-484040Y596260D01*
X-485170Y597530D01*
X-485810Y599440D01*
X-485970Y601550D01*
X-485650Y604310D01*
X-485170Y605790D01*
X-484360Y607270D01*
X-483240Y608330D01*
X-482110Y608540D01*
X-480980Y608120D01*
X-480180Y607060D01*
G01X-520700Y744760D02*
Y757460D01*
X-517490D01*
X-516200Y756820D01*
X-515230Y755980D01*
X-514430Y754710D01*
X-513790Y753230D01*
X-513630Y751110D01*
X-513790Y748990D01*
X-514430Y747510D01*
X-515230Y746240D01*
X-516200Y745390D01*
X-517490Y744760D01*
X-520700D01*
G01X-507750D02*
Y757460D01*
X-504540D01*
X-503250Y756820D01*
X-502280Y755980D01*
X-501480Y754710D01*
X-500840Y753230D01*
X-500680Y751110D01*
X-500840Y748990D01*
X-501480Y747510D01*
X-502280Y746240D01*
X-503250Y745390D01*
X-504540Y744760D01*
X-507750D01*
G01X-494320Y755340D02*
X-493360Y756610D01*
X-492230Y757250D01*
X-490940Y757460D01*
X-489330Y757040D01*
X-488210Y755980D01*
X-487890Y754710D01*
X-488050Y753440D01*
X-488690Y752380D01*
X-491910Y750260D01*
X-493360Y748780D01*
X-494320Y746660D01*
X-494640Y744760D01*
X-487890D01*
G01X-384660Y330200D02*
Y342900D01*
G01X-378550D02*
X-384660Y335070D01*
G01X-377590Y330200D02*
X-381930Y338670D01*
G01X-368180Y330200D02*
X-367050Y330410D01*
X-365760Y331050D01*
X-364960Y332100D01*
X-364640Y333590D01*
X-364960Y335070D01*
X-365920Y336340D01*
X-367370Y336970D01*
X-368980D01*
X-369940Y337400D01*
X-370750Y338450D01*
X-371070Y339940D01*
X-370590Y341420D01*
X-369460Y342480D01*
X-368180Y342900D01*
X-366890Y342480D01*
X-365760Y341420D01*
X-365280Y339940D01*
X-365600Y338450D01*
X-366410Y337400D01*
X-367370Y336970D01*
X-368980D01*
X-370430Y336340D01*
X-371390Y335070D01*
X-371710Y333590D01*
X-371390Y332100D01*
X-370590Y331050D01*
X-369300Y330410D01*
X-368180Y330200D01*
G01X-432040Y435760D02*
X-433000Y436400D01*
X-434130Y436820D01*
X-435410D01*
X-436860Y436180D01*
X-437990Y435130D01*
X-438790Y433860D01*
X-439440Y431740D01*
X-439600Y429830D01*
X-439270Y427930D01*
X-438790Y426660D01*
X-437830Y425390D01*
X-436700Y424540D01*
X-435580Y424120D01*
X-434450D01*
X-433320Y424540D01*
X-432360Y425180D01*
X-431550Y426020D01*
G01X-422630Y424120D02*
Y436820D01*
X-424560Y434280D01*
G01Y424120D02*
X-420700D01*
G01X-409680Y436820D02*
X-410960Y436400D01*
X-411930Y435340D01*
X-412570Y434070D01*
X-413050Y432370D01*
X-413210Y430470D01*
X-413050Y428560D01*
X-412570Y426870D01*
X-411930Y425600D01*
X-410960Y424540D01*
X-409680Y424120D01*
X-408390Y424540D01*
X-407420Y425600D01*
X-406780Y426870D01*
X-406300Y428560D01*
X-406140Y430470D01*
X-406300Y432370D01*
X-406780Y434070D01*
X-407420Y435340D01*
X-408390Y436400D01*
X-409680Y436820D01*
G01X-384660Y431800D02*
Y444500D01*
G01X-378550D02*
X-384660Y436670D01*
G01X-377590Y431800D02*
X-381930Y440270D01*
G01X-368500Y431800D02*
X-368180Y434550D01*
X-367690Y436880D01*
X-367050Y439000D01*
X-366240Y441320D01*
X-364960Y444500D01*
X-371390D01*
G01X-407890Y607480D02*
X-408850Y608120D01*
X-409980Y608540D01*
X-411260D01*
X-412710Y607900D01*
X-413840Y606850D01*
X-414640Y605580D01*
X-415290Y603460D01*
X-415450Y601550D01*
X-415120Y599650D01*
X-414640Y598380D01*
X-413680Y597110D01*
X-412550Y596260D01*
X-411430Y595840D01*
X-410300D01*
X-409170Y596260D01*
X-408210Y596900D01*
X-407400Y597740D01*
G01X-398480Y595840D02*
Y608540D01*
X-400410Y606000D01*
G01Y595840D02*
X-396550D01*
G01X-385530D02*
Y608540D01*
X-387460Y606000D01*
G01Y595840D02*
X-383600D01*
G01X-384660Y533400D02*
Y546100D01*
G01X-378550D02*
X-384660Y538270D01*
G01X-377590Y533400D02*
X-381930Y541870D01*
G01X-371230Y538690D02*
X-370110Y540170D01*
X-369140Y541020D01*
X-367850Y541440D01*
X-366730Y541020D01*
X-365920Y540170D01*
X-365280Y538900D01*
X-365120Y537420D01*
X-365280Y536150D01*
X-365920Y534880D01*
X-366890Y533820D01*
X-368010Y533400D01*
X-369300Y533820D01*
X-370430Y535090D01*
X-371070Y537000D01*
X-371230Y539110D01*
X-370910Y541870D01*
X-370430Y543350D01*
X-369620Y544830D01*
X-368500Y545890D01*
X-367370Y546100D01*
X-366240Y545680D01*
X-365440Y544620D01*
G01X-445960Y551300D02*
X-441940Y538600D01*
X-437910Y551300D01*
G01X-432520Y538600D02*
Y551300D01*
X-429310D01*
X-428020Y550660D01*
X-427050Y549820D01*
X-426250Y548550D01*
X-425610Y547070D01*
X-425450Y544950D01*
X-425610Y542830D01*
X-426250Y541350D01*
X-427050Y540080D01*
X-428020Y539230D01*
X-429310Y538600D01*
X-432520D01*
G01X-419570Y541140D02*
X-418610Y539660D01*
X-417320Y538810D01*
X-415870Y538600D01*
X-414590Y538810D01*
X-413300Y539870D01*
X-412500Y541140D01*
X-412340Y542410D01*
X-412660Y543890D01*
X-413780Y544950D01*
X-414910Y545370D01*
X-416360D01*
G01X-414910D02*
X-413940Y546010D01*
X-413140Y547070D01*
X-412820Y548340D01*
X-413140Y549610D01*
X-413940Y550660D01*
X-415390Y551300D01*
X-416840Y551090D01*
X-418290Y550240D01*
G01X-384660Y635000D02*
Y647700D01*
G01X-378550D02*
X-384660Y639870D01*
G01X-377590Y635000D02*
X-381930Y643470D01*
G01X-371710Y636900D02*
X-370750Y635850D01*
X-369620Y635210D01*
X-368180Y635000D01*
X-366730Y635420D01*
X-365600Y636270D01*
X-364800Y637750D01*
X-364640Y639440D01*
X-364960Y641140D01*
X-365760Y642200D01*
X-366890Y643040D01*
X-368010Y643250D01*
X-369140Y643040D01*
X-370590Y642200D01*
X-370110Y647700D01*
X-365760D01*
G01X-384660Y736600D02*
Y749300D01*
G01X-378550D02*
X-384660Y741470D01*
G01X-377590Y736600D02*
X-381930Y745070D01*
G01X-366240Y736600D02*
Y749300D01*
X-372200Y740200D01*
X-364150D01*
G01X-384660Y838200D02*
Y850900D01*
G01X-378550D02*
X-384660Y843070D01*
G01X-377590Y838200D02*
X-381930Y846670D01*
G01X-371710Y840740D02*
X-370750Y839260D01*
X-369460Y838410D01*
X-368010Y838200D01*
X-366730Y838410D01*
X-365440Y839470D01*
X-364640Y840740D01*
X-364480Y842010D01*
X-364800Y843490D01*
X-365920Y844550D01*
X-367050Y844970D01*
X-368500D01*
G01X-367050D02*
X-366080Y845610D01*
X-365280Y846670D01*
X-364960Y847940D01*
X-365280Y849210D01*
X-366080Y850260D01*
X-367530Y850900D01*
X-368980Y850690D01*
X-370430Y849840D01*
G01X-384660Y946150D02*
Y958850D01*
G01X-378550D02*
X-384660Y951020D01*
G01X-377590Y946150D02*
X-381930Y954620D01*
G01X-371230Y956730D02*
X-370270Y958000D01*
X-369140Y958640D01*
X-367850Y958850D01*
X-366240Y958430D01*
X-365120Y957370D01*
X-364800Y956100D01*
X-364960Y954830D01*
X-365600Y953770D01*
X-368820Y951650D01*
X-370270Y950170D01*
X-371230Y948050D01*
X-371550Y946150D01*
X-364800D01*
G01X-384660Y1041400D02*
Y1054100D01*
G01X-378550D02*
X-384660Y1046270D01*
G01X-377590Y1041400D02*
X-381930Y1049870D01*
G01X-368180Y1041400D02*
Y1054100D01*
X-370110Y1051560D01*
G01Y1041400D02*
X-366250D01*
G01X-411640Y1137140D02*
X-412600Y1137780D01*
X-413730Y1138200D01*
X-415010D01*
X-416460Y1137560D01*
X-417590Y1136510D01*
X-418390Y1135240D01*
X-419040Y1133120D01*
X-419200Y1131210D01*
X-418870Y1129310D01*
X-418390Y1128040D01*
X-417430Y1126770D01*
X-416300Y1125920D01*
X-415180Y1125500D01*
X-414050D01*
X-412920Y1125920D01*
X-411960Y1126560D01*
X-411150Y1127400D01*
G01X-405760D02*
X-404800Y1126350D01*
X-403670Y1125710D01*
X-402230Y1125500D01*
X-400780Y1125920D01*
X-399650Y1126770D01*
X-398850Y1128250D01*
X-398690Y1129940D01*
X-399010Y1131640D01*
X-399810Y1132700D01*
X-400940Y1133540D01*
X-402060Y1133750D01*
X-403190Y1133540D01*
X-404640Y1132700D01*
X-404160Y1138200D01*
X-399810D01*
G01X-389280Y1125500D02*
Y1138200D01*
X-391210Y1135660D01*
G01Y1125500D02*
X-387350D01*
G01X-291130Y-785830D02*
X-290640Y-786610D01*
X-290060Y-787140D01*
X-289370Y-787400D01*
X-288600Y-787140D01*
X-288010Y-786610D01*
X-287430Y-785830D01*
X-287230Y-784780D01*
Y-779530D01*
G01X-283260Y-787400D02*
Y-779530D01*
X-280920D01*
X-280140Y-779920D01*
X-279560Y-780840D01*
X-279360Y-781890D01*
X-279560Y-782940D01*
X-280040Y-783730D01*
X-280920Y-784120D01*
X-283260D01*
G01X-273440Y-787400D02*
Y-779530D01*
X-274610Y-781100D01*
G01Y-787400D02*
X-272270D01*
G01X-267420Y-784120D02*
X-266740Y-783200D01*
X-266150Y-782680D01*
X-265380Y-782420D01*
X-264690Y-782680D01*
X-264210Y-783200D01*
X-263820Y-783990D01*
X-263720Y-784910D01*
X-263820Y-785690D01*
X-264210Y-786480D01*
X-264790Y-787140D01*
X-265470Y-787400D01*
X-266250Y-787140D01*
X-266930Y-786350D01*
X-267320Y-785170D01*
X-267420Y-783860D01*
X-267220Y-782150D01*
X-266930Y-781240D01*
X-266450Y-780320D01*
X-265760Y-779660D01*
X-265080Y-779530D01*
X-264400Y-779790D01*
X-263920Y-780450D01*
G01X-257470Y-768350D02*
Y-760480D01*
X-255030D01*
X-254250Y-760870D01*
X-253770Y-761400D01*
X-253570Y-762450D01*
X-253770Y-763500D01*
X-254350Y-764150D01*
X-255030Y-764550D01*
X-257470D01*
G01X-255030D02*
X-253570Y-768350D01*
G01X-249300Y-767430D02*
X-248620Y-768090D01*
X-247840Y-768350D01*
X-247070Y-768090D01*
X-246380Y-767300D01*
X-245900Y-766120D01*
X-245700Y-764940D01*
Y-763500D01*
X-245900Y-762320D01*
X-246380Y-761270D01*
X-246970Y-760740D01*
X-247650Y-760480D01*
X-248430Y-760740D01*
X-249010Y-761270D01*
X-249400Y-762050D01*
X-249600Y-763100D01*
X-249400Y-764020D01*
X-248920Y-764940D01*
X-248330Y-765460D01*
X-247650Y-765600D01*
X-246870Y-765330D01*
X-246290Y-764680D01*
X-245700Y-763500D01*
G01X-241920Y-767170D02*
X-241340Y-767830D01*
X-240660Y-768220D01*
X-239780Y-768350D01*
X-238900Y-768090D01*
X-238220Y-767560D01*
X-237740Y-766640D01*
X-237640Y-765600D01*
X-237830Y-764550D01*
X-238320Y-763890D01*
X-239000Y-763370D01*
X-239680Y-763230D01*
X-240360Y-763370D01*
X-241240Y-763890D01*
X-240950Y-760480D01*
X-238320D01*
G01X-293170Y-704850D02*
Y-696980D01*
X-290730D01*
X-289950Y-697370D01*
X-289470Y-697900D01*
X-289270Y-698950D01*
X-289470Y-700000D01*
X-290050Y-700650D01*
X-290730Y-701050D01*
X-293170D01*
G01X-290730D02*
X-289270Y-704850D01*
G01X-283350D02*
Y-696980D01*
X-284520Y-698550D01*
G01Y-704850D02*
X-282180D01*
G01X-275480Y-696980D02*
X-276260Y-697240D01*
X-276840Y-697900D01*
X-277230Y-698690D01*
X-277520Y-699730D01*
X-277620Y-700920D01*
X-277520Y-702100D01*
X-277230Y-703140D01*
X-276840Y-703930D01*
X-276260Y-704590D01*
X-275480Y-704850D01*
X-274700Y-704590D01*
X-274120Y-703930D01*
X-273730Y-703140D01*
X-273440Y-702100D01*
X-273340Y-700920D01*
X-273440Y-699730D01*
X-273730Y-698690D01*
X-274120Y-697900D01*
X-274700Y-697240D01*
X-275480Y-696980D01*
G01X-267610Y-704850D02*
Y-696980D01*
X-268780Y-698550D01*
G01Y-704850D02*
X-266440D01*
G01X-259380Y-747730D02*
X-258890Y-748510D01*
X-258310Y-749040D01*
X-257620Y-749300D01*
X-256850Y-749040D01*
X-256260Y-748510D01*
X-255680Y-747730D01*
X-255480Y-746680D01*
Y-741430D01*
G01X-251510Y-749300D02*
Y-741430D01*
X-249170D01*
X-248390Y-741820D01*
X-247810Y-742740D01*
X-247610Y-743790D01*
X-247810Y-744840D01*
X-248290Y-745630D01*
X-249170Y-746020D01*
X-251510D01*
G01X-241690Y-749300D02*
Y-741430D01*
X-242860Y-743000D01*
G01Y-749300D02*
X-240520D01*
G01X-235960Y-748120D02*
X-235380Y-748780D01*
X-234700Y-749170D01*
X-233820Y-749300D01*
X-232940Y-749040D01*
X-232260Y-748510D01*
X-231780Y-747590D01*
X-231680Y-746550D01*
X-231870Y-745500D01*
X-232360Y-744840D01*
X-233040Y-744320D01*
X-233720Y-744180D01*
X-234400Y-744320D01*
X-235280Y-744840D01*
X-234990Y-741430D01*
X-232360D01*
G01X-257470Y-666750D02*
Y-658880D01*
X-255030D01*
X-254250Y-659270D01*
X-253770Y-659800D01*
X-253570Y-660850D01*
X-253770Y-661900D01*
X-254350Y-662550D01*
X-255030Y-662950D01*
X-257470D01*
G01X-255030D02*
X-253570Y-666750D01*
G01X-247650D02*
X-246970Y-666620D01*
X-246190Y-666230D01*
X-245700Y-665570D01*
X-245510Y-664650D01*
X-245700Y-663730D01*
X-246290Y-662950D01*
X-247160Y-662550D01*
X-248140D01*
X-248720Y-662290D01*
X-249210Y-661630D01*
X-249400Y-660720D01*
X-249110Y-659800D01*
X-248430Y-659140D01*
X-247650Y-658880D01*
X-246870Y-659140D01*
X-246190Y-659800D01*
X-245900Y-660720D01*
X-246090Y-661630D01*
X-246580Y-662290D01*
X-247160Y-662550D01*
X-248140D01*
X-249010Y-662950D01*
X-249600Y-663730D01*
X-249790Y-664650D01*
X-249600Y-665570D01*
X-249110Y-666230D01*
X-248330Y-666620D01*
X-247650Y-666750D01*
G01X-241920Y-665570D02*
X-241340Y-666230D01*
X-240660Y-666620D01*
X-239780Y-666750D01*
X-238900Y-666490D01*
X-238220Y-665960D01*
X-237740Y-665040D01*
X-237640Y-664000D01*
X-237830Y-662950D01*
X-238320Y-662290D01*
X-239000Y-661770D01*
X-239680Y-661630D01*
X-240360Y-661770D01*
X-241240Y-662290D01*
X-240950Y-658880D01*
X-238320D01*
G01X-259380Y-646130D02*
X-258890Y-646910D01*
X-258310Y-647440D01*
X-257620Y-647700D01*
X-256850Y-647440D01*
X-256260Y-646910D01*
X-255680Y-646130D01*
X-255480Y-645080D01*
Y-639830D01*
G01X-251510Y-647700D02*
Y-639830D01*
X-249170D01*
X-248390Y-640220D01*
X-247810Y-641140D01*
X-247610Y-642190D01*
X-247810Y-643240D01*
X-248290Y-644030D01*
X-249170Y-644420D01*
X-251510D01*
G01X-241690Y-647700D02*
Y-639830D01*
X-242860Y-641400D01*
G01Y-647700D02*
X-240520D01*
G01X-235960Y-646130D02*
X-235380Y-647040D01*
X-234600Y-647570D01*
X-233720Y-647700D01*
X-232940Y-647570D01*
X-232170Y-646910D01*
X-231680Y-646130D01*
X-231580Y-645340D01*
X-231780Y-644420D01*
X-232460Y-643770D01*
X-233140Y-643500D01*
X-234010D01*
G01X-233140D02*
X-232550Y-643110D01*
X-232070Y-642450D01*
X-231870Y-641670D01*
X-232070Y-640880D01*
X-232550Y-640220D01*
X-233430Y-639830D01*
X-234310Y-639960D01*
X-235180Y-640490D01*
G01X-291130Y-684230D02*
X-290640Y-685010D01*
X-290060Y-685540D01*
X-289370Y-685800D01*
X-288600Y-685540D01*
X-288010Y-685010D01*
X-287430Y-684230D01*
X-287230Y-683180D01*
Y-677930D01*
G01X-283260Y-685800D02*
Y-677930D01*
X-280920D01*
X-280140Y-678320D01*
X-279560Y-679240D01*
X-279360Y-680290D01*
X-279560Y-681340D01*
X-280040Y-682130D01*
X-280920Y-682520D01*
X-283260D01*
G01X-273440Y-685800D02*
Y-677930D01*
X-274610Y-679500D01*
G01Y-685800D02*
X-272270D01*
G01X-264400D02*
Y-677930D01*
X-268000Y-683570D01*
X-263140D01*
G01X-257470Y-565150D02*
Y-557280D01*
X-255030D01*
X-254250Y-557670D01*
X-253770Y-558200D01*
X-253570Y-559250D01*
X-253770Y-560300D01*
X-254350Y-560950D01*
X-255030Y-561350D01*
X-257470D01*
G01X-255030D02*
X-253570Y-565150D01*
G01X-247840D02*
X-247650Y-563440D01*
X-247360Y-562000D01*
X-246970Y-560690D01*
X-246480Y-559250D01*
X-245700Y-557280D01*
X-249600D01*
G01X-241920Y-563970D02*
X-241340Y-564630D01*
X-240660Y-565020D01*
X-239780Y-565150D01*
X-238900Y-564890D01*
X-238220Y-564360D01*
X-237740Y-563440D01*
X-237640Y-562400D01*
X-237830Y-561350D01*
X-238320Y-560690D01*
X-239000Y-560170D01*
X-239680Y-560030D01*
X-240360Y-560170D01*
X-241240Y-560690D01*
X-240950Y-557280D01*
X-238320D01*
G01X-289220Y-603250D02*
Y-595380D01*
X-286780D01*
X-286000Y-595770D01*
X-285520Y-596300D01*
X-285320Y-597350D01*
X-285520Y-598400D01*
X-286100Y-599050D01*
X-286780Y-599450D01*
X-289220D01*
G01X-286780D02*
X-285320Y-603250D01*
G01X-281050Y-602330D02*
X-280370Y-602990D01*
X-279590Y-603250D01*
X-278820Y-602990D01*
X-278130Y-602200D01*
X-277650Y-601020D01*
X-277450Y-599840D01*
Y-598400D01*
X-277650Y-597220D01*
X-278130Y-596170D01*
X-278720Y-595640D01*
X-279400Y-595380D01*
X-280180Y-595640D01*
X-280760Y-596170D01*
X-281150Y-596950D01*
X-281350Y-598000D01*
X-281150Y-598920D01*
X-280670Y-599840D01*
X-280080Y-600360D01*
X-279400Y-600500D01*
X-278620Y-600230D01*
X-278040Y-599580D01*
X-277450Y-598400D01*
G01X-271530Y-603250D02*
Y-595380D01*
X-272700Y-596950D01*
G01Y-603250D02*
X-270360D01*
G01X-291130Y-582630D02*
X-290640Y-583410D01*
X-290060Y-583940D01*
X-289370Y-584200D01*
X-288600Y-583940D01*
X-288010Y-583410D01*
X-287430Y-582630D01*
X-287230Y-581580D01*
Y-576330D01*
G01X-283260Y-584200D02*
Y-576330D01*
X-280920D01*
X-280140Y-576720D01*
X-279560Y-577640D01*
X-279360Y-578690D01*
X-279560Y-579740D01*
X-280040Y-580530D01*
X-280920Y-580920D01*
X-283260D01*
G01X-273440Y-584200D02*
Y-576330D01*
X-274610Y-577900D01*
G01Y-584200D02*
X-272270D01*
G01X-267420Y-577640D02*
X-266840Y-576850D01*
X-266150Y-576460D01*
X-265380Y-576330D01*
X-264400Y-576590D01*
X-263720Y-577250D01*
X-263530Y-578040D01*
X-263620Y-578820D01*
X-264010Y-579480D01*
X-265960Y-580790D01*
X-266840Y-581710D01*
X-267420Y-583020D01*
X-267610Y-584200D01*
X-263530D01*
G01X-289220Y-501650D02*
Y-493780D01*
X-286780D01*
X-286000Y-494170D01*
X-285520Y-494700D01*
X-285320Y-495750D01*
X-285520Y-496800D01*
X-286100Y-497450D01*
X-286780Y-497850D01*
X-289220D01*
G01X-286780D02*
X-285320Y-501650D01*
G01X-279400D02*
X-278720Y-501520D01*
X-277940Y-501130D01*
X-277450Y-500470D01*
X-277260Y-499550D01*
X-277450Y-498630D01*
X-278040Y-497850D01*
X-278910Y-497450D01*
X-279890D01*
X-280470Y-497190D01*
X-280960Y-496530D01*
X-281150Y-495620D01*
X-280860Y-494700D01*
X-280180Y-494040D01*
X-279400Y-493780D01*
X-278620Y-494040D01*
X-277940Y-494700D01*
X-277650Y-495620D01*
X-277840Y-496530D01*
X-278330Y-497190D01*
X-278910Y-497450D01*
X-279890D01*
X-280760Y-497850D01*
X-281350Y-498630D01*
X-281540Y-499550D01*
X-281350Y-500470D01*
X-280860Y-501130D01*
X-280080Y-501520D01*
X-279400Y-501650D01*
G01X-271530D02*
Y-493780D01*
X-272700Y-495350D01*
G01Y-501650D02*
X-270360D01*
G01X-291130Y-481030D02*
X-290640Y-481810D01*
X-290060Y-482340D01*
X-289370Y-482600D01*
X-288600Y-482340D01*
X-288010Y-481810D01*
X-287430Y-481030D01*
X-287230Y-479980D01*
Y-474730D01*
G01X-283260Y-482600D02*
Y-474730D01*
X-280920D01*
X-280140Y-475120D01*
X-279560Y-476040D01*
X-279360Y-477090D01*
X-279560Y-478140D01*
X-280040Y-478930D01*
X-280920Y-479320D01*
X-283260D01*
G01X-273440Y-482600D02*
Y-474730D01*
X-274610Y-476300D01*
G01Y-482600D02*
X-272270D01*
G01X-265570Y-474730D02*
X-266350Y-474990D01*
X-266930Y-475650D01*
X-267320Y-476440D01*
X-267610Y-477480D01*
X-267710Y-478670D01*
X-267610Y-479850D01*
X-267320Y-480890D01*
X-266930Y-481680D01*
X-266350Y-482340D01*
X-265570Y-482600D01*
X-264790Y-482340D01*
X-264210Y-481680D01*
X-263820Y-480890D01*
X-263530Y-479850D01*
X-263430Y-478670D01*
X-263530Y-477480D01*
X-263820Y-476440D01*
X-264210Y-475650D01*
X-264790Y-474990D01*
X-265570Y-474730D01*
G01X-259380Y-544530D02*
X-258890Y-545310D01*
X-258310Y-545840D01*
X-257620Y-546100D01*
X-256850Y-545840D01*
X-256260Y-545310D01*
X-255680Y-544530D01*
X-255480Y-543480D01*
Y-538230D01*
G01X-251510Y-546100D02*
Y-538230D01*
X-249170D01*
X-248390Y-538620D01*
X-247810Y-539540D01*
X-247610Y-540590D01*
X-247810Y-541640D01*
X-248290Y-542430D01*
X-249170Y-542820D01*
X-251510D01*
G01X-241690Y-546100D02*
Y-538230D01*
X-242860Y-539800D01*
G01Y-546100D02*
X-240520D01*
G01X-233820D02*
Y-538230D01*
X-234990Y-539800D01*
G01Y-546100D02*
X-232650D01*
G01X-257470Y-463550D02*
Y-455680D01*
X-255030D01*
X-254250Y-456070D01*
X-253770Y-456600D01*
X-253570Y-457650D01*
X-253770Y-458700D01*
X-254350Y-459350D01*
X-255030Y-459750D01*
X-257470D01*
G01X-255030D02*
X-253570Y-463550D01*
G01X-249500Y-460270D02*
X-248820Y-459350D01*
X-248230Y-458830D01*
X-247460Y-458570D01*
X-246770Y-458830D01*
X-246290Y-459350D01*
X-245900Y-460140D01*
X-245800Y-461060D01*
X-245900Y-461840D01*
X-246290Y-462630D01*
X-246870Y-463290D01*
X-247550Y-463550D01*
X-248330Y-463290D01*
X-249010Y-462500D01*
X-249400Y-461320D01*
X-249500Y-460010D01*
X-249300Y-458300D01*
X-249010Y-457390D01*
X-248530Y-456470D01*
X-247840Y-455810D01*
X-247160Y-455680D01*
X-246480Y-455940D01*
X-246000Y-456600D01*
G01X-241920Y-462370D02*
X-241340Y-463030D01*
X-240660Y-463420D01*
X-239780Y-463550D01*
X-238900Y-463290D01*
X-238220Y-462760D01*
X-237740Y-461840D01*
X-237640Y-460800D01*
X-237830Y-459750D01*
X-238320Y-459090D01*
X-239000Y-458570D01*
X-239680Y-458430D01*
X-240360Y-458570D01*
X-241240Y-459090D01*
X-240950Y-455680D01*
X-238320D01*
G01X-289220Y-400050D02*
Y-392180D01*
X-286780D01*
X-286000Y-392570D01*
X-285520Y-393100D01*
X-285320Y-394150D01*
X-285520Y-395200D01*
X-286100Y-395850D01*
X-286780Y-396250D01*
X-289220D01*
G01X-286780D02*
X-285320Y-400050D01*
G01X-279590D02*
X-279400Y-398340D01*
X-279110Y-396900D01*
X-278720Y-395590D01*
X-278230Y-394150D01*
X-277450Y-392180D01*
X-281350D01*
G01X-271530Y-400050D02*
Y-392180D01*
X-272700Y-393750D01*
G01Y-400050D02*
X-270360D01*
G01X-259380Y-442930D02*
X-258890Y-443710D01*
X-258310Y-444240D01*
X-257620Y-444500D01*
X-256850Y-444240D01*
X-256260Y-443710D01*
X-255680Y-442930D01*
X-255480Y-441880D01*
Y-436630D01*
G01X-251510Y-444500D02*
Y-436630D01*
X-249170D01*
X-248390Y-437020D01*
X-247810Y-437940D01*
X-247610Y-438990D01*
X-247810Y-440040D01*
X-248290Y-440830D01*
X-249170Y-441220D01*
X-251510D01*
G01X-243340Y-443580D02*
X-242660Y-444240D01*
X-241880Y-444500D01*
X-241110Y-444240D01*
X-240420Y-443450D01*
X-239940Y-442270D01*
X-239740Y-441090D01*
Y-439650D01*
X-239940Y-438470D01*
X-240420Y-437420D01*
X-241010Y-436890D01*
X-241690Y-436630D01*
X-242470Y-436890D01*
X-243050Y-437420D01*
X-243440Y-438200D01*
X-243640Y-439250D01*
X-243440Y-440170D01*
X-242960Y-441090D01*
X-242370Y-441610D01*
X-241690Y-441750D01*
X-240910Y-441480D01*
X-240330Y-440830D01*
X-239740Y-439650D01*
G01X-257470Y-361950D02*
Y-354080D01*
X-255030D01*
X-254250Y-354470D01*
X-253770Y-355000D01*
X-253570Y-356050D01*
X-253770Y-357100D01*
X-254350Y-357750D01*
X-255030Y-358150D01*
X-257470D01*
G01X-255030D02*
X-253570Y-361950D01*
G01X-249790Y-360770D02*
X-249210Y-361430D01*
X-248530Y-361820D01*
X-247650Y-361950D01*
X-246770Y-361690D01*
X-246090Y-361160D01*
X-245610Y-360240D01*
X-245510Y-359200D01*
X-245700Y-358150D01*
X-246190Y-357490D01*
X-246870Y-356970D01*
X-247550Y-356830D01*
X-248230Y-356970D01*
X-249110Y-357490D01*
X-248820Y-354080D01*
X-246190D01*
G01X-241920Y-360770D02*
X-241340Y-361430D01*
X-240660Y-361820D01*
X-239780Y-361950D01*
X-238900Y-361690D01*
X-238220Y-361160D01*
X-237740Y-360240D01*
X-237640Y-359200D01*
X-237830Y-358150D01*
X-238320Y-357490D01*
X-239000Y-356970D01*
X-239680Y-356830D01*
X-240360Y-356970D01*
X-241240Y-357490D01*
X-240950Y-354080D01*
X-238320D01*
G01X-259380Y-341330D02*
X-258890Y-342110D01*
X-258310Y-342640D01*
X-257620Y-342900D01*
X-256850Y-342640D01*
X-256260Y-342110D01*
X-255680Y-341330D01*
X-255480Y-340280D01*
Y-335030D01*
G01X-251510Y-342900D02*
Y-335030D01*
X-249170D01*
X-248390Y-335420D01*
X-247810Y-336340D01*
X-247610Y-337390D01*
X-247810Y-338440D01*
X-248290Y-339230D01*
X-249170Y-339620D01*
X-251510D01*
G01X-241880Y-342900D02*
X-241690Y-341190D01*
X-241400Y-339750D01*
X-241010Y-338440D01*
X-240520Y-337000D01*
X-239740Y-335030D01*
X-243640D01*
G01X-291130Y-379430D02*
X-290640Y-380210D01*
X-290060Y-380740D01*
X-289370Y-381000D01*
X-288600Y-380740D01*
X-288010Y-380210D01*
X-287430Y-379430D01*
X-287230Y-378380D01*
Y-373130D01*
G01X-283260Y-381000D02*
Y-373130D01*
X-280920D01*
X-280140Y-373520D01*
X-279560Y-374440D01*
X-279360Y-375490D01*
X-279560Y-376540D01*
X-280040Y-377330D01*
X-280920Y-377720D01*
X-283260D01*
G01X-273440Y-381000D02*
X-272760Y-380870D01*
X-271980Y-380480D01*
X-271490Y-379820D01*
X-271300Y-378900D01*
X-271490Y-377980D01*
X-272080Y-377200D01*
X-272950Y-376800D01*
X-273930D01*
X-274510Y-376540D01*
X-275000Y-375880D01*
X-275190Y-374970D01*
X-274900Y-374050D01*
X-274220Y-373390D01*
X-273440Y-373130D01*
X-272660Y-373390D01*
X-271980Y-374050D01*
X-271690Y-374970D01*
X-271880Y-375880D01*
X-272370Y-376540D01*
X-272950Y-376800D01*
X-273930D01*
X-274800Y-377200D01*
X-275390Y-377980D01*
X-275580Y-378900D01*
X-275390Y-379820D01*
X-274900Y-380480D01*
X-274120Y-380870D01*
X-273440Y-381000D01*
G01X-257470Y-260350D02*
Y-252480D01*
X-255030D01*
X-254250Y-252870D01*
X-253770Y-253400D01*
X-253570Y-254450D01*
X-253770Y-255500D01*
X-254350Y-256150D01*
X-255030Y-256550D01*
X-257470D01*
G01X-255030D02*
X-253570Y-260350D01*
G01X-246480D02*
Y-252480D01*
X-250080Y-258120D01*
X-245220D01*
G01X-241920Y-259170D02*
X-241340Y-259830D01*
X-240660Y-260220D01*
X-239780Y-260350D01*
X-238900Y-260090D01*
X-238220Y-259560D01*
X-237740Y-258640D01*
X-237640Y-257600D01*
X-237830Y-256550D01*
X-238320Y-255890D01*
X-239000Y-255370D01*
X-239680Y-255230D01*
X-240360Y-255370D01*
X-241240Y-255890D01*
X-240950Y-252480D01*
X-238320D01*
G01X-289220Y-298450D02*
Y-290580D01*
X-286780D01*
X-286000Y-290970D01*
X-285520Y-291500D01*
X-285320Y-292550D01*
X-285520Y-293600D01*
X-286100Y-294250D01*
X-286780Y-294650D01*
X-289220D01*
G01X-286780D02*
X-285320Y-298450D01*
G01X-281250Y-295170D02*
X-280570Y-294250D01*
X-279980Y-293730D01*
X-279210Y-293470D01*
X-278520Y-293730D01*
X-278040Y-294250D01*
X-277650Y-295040D01*
X-277550Y-295960D01*
X-277650Y-296740D01*
X-278040Y-297530D01*
X-278620Y-298190D01*
X-279300Y-298450D01*
X-280080Y-298190D01*
X-280760Y-297400D01*
X-281150Y-296220D01*
X-281250Y-294910D01*
X-281050Y-293200D01*
X-280760Y-292290D01*
X-280280Y-291370D01*
X-279590Y-290710D01*
X-278910Y-290580D01*
X-278230Y-290840D01*
X-277750Y-291500D01*
G01X-271530Y-298450D02*
Y-290580D01*
X-272700Y-292150D01*
G01Y-298450D02*
X-270360D01*
G01X-291130Y-277830D02*
X-290640Y-278610D01*
X-290060Y-279140D01*
X-289370Y-279400D01*
X-288600Y-279140D01*
X-288010Y-278610D01*
X-287430Y-277830D01*
X-287230Y-276780D01*
Y-271530D01*
G01X-283260Y-279400D02*
Y-271530D01*
X-280920D01*
X-280140Y-271920D01*
X-279560Y-272840D01*
X-279360Y-273890D01*
X-279560Y-274940D01*
X-280040Y-275730D01*
X-280920Y-276120D01*
X-283260D01*
G01X-275290D02*
X-274610Y-275200D01*
X-274020Y-274680D01*
X-273250Y-274420D01*
X-272560Y-274680D01*
X-272080Y-275200D01*
X-271690Y-275990D01*
X-271590Y-276910D01*
X-271690Y-277690D01*
X-272080Y-278480D01*
X-272660Y-279140D01*
X-273340Y-279400D01*
X-274120Y-279140D01*
X-274800Y-278350D01*
X-275190Y-277170D01*
X-275290Y-275860D01*
X-275090Y-274150D01*
X-274800Y-273240D01*
X-274320Y-272320D01*
X-273630Y-271660D01*
X-272950Y-271530D01*
X-272270Y-271790D01*
X-271790Y-272450D01*
G01X-289220Y-196850D02*
Y-188980D01*
X-286780D01*
X-286000Y-189370D01*
X-285520Y-189900D01*
X-285320Y-190950D01*
X-285520Y-192000D01*
X-286100Y-192650D01*
X-286780Y-193050D01*
X-289220D01*
G01X-286780D02*
X-285320Y-196850D01*
G01X-281540Y-195670D02*
X-280960Y-196330D01*
X-280280Y-196720D01*
X-279400Y-196850D01*
X-278520Y-196590D01*
X-277840Y-196060D01*
X-277360Y-195140D01*
X-277260Y-194100D01*
X-277450Y-193050D01*
X-277940Y-192390D01*
X-278620Y-191870D01*
X-279300Y-191730D01*
X-279980Y-191870D01*
X-280860Y-192390D01*
X-280570Y-188980D01*
X-277940D01*
G01X-271530Y-196850D02*
Y-188980D01*
X-272700Y-190550D01*
G01Y-196850D02*
X-270360D01*
G01X-291130Y-176230D02*
X-290640Y-177010D01*
X-290060Y-177540D01*
X-289370Y-177800D01*
X-288600Y-177540D01*
X-288010Y-177010D01*
X-287430Y-176230D01*
X-287230Y-175180D01*
Y-169930D01*
G01X-283260Y-177800D02*
Y-169930D01*
X-280920D01*
X-280140Y-170320D01*
X-279560Y-171240D01*
X-279360Y-172290D01*
X-279560Y-173340D01*
X-280040Y-174130D01*
X-280920Y-174520D01*
X-283260D01*
G01X-272270Y-177800D02*
Y-169930D01*
X-275870Y-175570D01*
X-271010D01*
G01X-259380Y-239730D02*
X-258890Y-240510D01*
X-258310Y-241040D01*
X-257620Y-241300D01*
X-256850Y-241040D01*
X-256260Y-240510D01*
X-255680Y-239730D01*
X-255480Y-238680D01*
Y-233430D01*
G01X-251510Y-241300D02*
Y-233430D01*
X-249170D01*
X-248390Y-233820D01*
X-247810Y-234740D01*
X-247610Y-235790D01*
X-247810Y-236840D01*
X-248290Y-237630D01*
X-249170Y-238020D01*
X-251510D01*
G01X-243830Y-240120D02*
X-243250Y-240780D01*
X-242570Y-241170D01*
X-241690Y-241300D01*
X-240810Y-241040D01*
X-240130Y-240510D01*
X-239650Y-239590D01*
X-239550Y-238550D01*
X-239740Y-237500D01*
X-240230Y-236840D01*
X-240910Y-236320D01*
X-241590Y-236180D01*
X-242270Y-236320D01*
X-243150Y-236840D01*
X-242860Y-233430D01*
X-240230D01*
G01X-257470Y-158750D02*
Y-150880D01*
X-255030D01*
X-254250Y-151270D01*
X-253770Y-151800D01*
X-253570Y-152850D01*
X-253770Y-153900D01*
X-254350Y-154550D01*
X-255030Y-154950D01*
X-257470D01*
G01X-255030D02*
X-253570Y-158750D01*
G01X-249790Y-157180D02*
X-249210Y-158090D01*
X-248430Y-158620D01*
X-247550Y-158750D01*
X-246770Y-158620D01*
X-246000Y-157960D01*
X-245510Y-157180D01*
X-245410Y-156390D01*
X-245610Y-155470D01*
X-246290Y-154820D01*
X-246970Y-154550D01*
X-247840D01*
G01X-246970D02*
X-246380Y-154160D01*
X-245900Y-153500D01*
X-245700Y-152720D01*
X-245900Y-151930D01*
X-246380Y-151270D01*
X-247260Y-150880D01*
X-248140Y-151010D01*
X-249010Y-151540D01*
G01X-241920Y-157570D02*
X-241340Y-158230D01*
X-240660Y-158620D01*
X-239780Y-158750D01*
X-238900Y-158490D01*
X-238220Y-157960D01*
X-237740Y-157040D01*
X-237640Y-156000D01*
X-237830Y-154950D01*
X-238320Y-154290D01*
X-239000Y-153770D01*
X-239680Y-153630D01*
X-240360Y-153770D01*
X-241240Y-154290D01*
X-240950Y-150880D01*
X-238320D01*
G01X-289220Y-95250D02*
Y-87380D01*
X-286780D01*
X-286000Y-87770D01*
X-285520Y-88300D01*
X-285320Y-89350D01*
X-285520Y-90400D01*
X-286100Y-91050D01*
X-286780Y-91450D01*
X-289220D01*
G01X-286780D02*
X-285320Y-95250D01*
G01X-278230D02*
Y-87380D01*
X-281830Y-93020D01*
X-276970D01*
G01X-271530Y-95250D02*
Y-87380D01*
X-272700Y-88950D01*
G01Y-95250D02*
X-270360D01*
G01X-259380Y-138130D02*
X-258890Y-138910D01*
X-258310Y-139440D01*
X-257620Y-139700D01*
X-256850Y-139440D01*
X-256260Y-138910D01*
X-255680Y-138130D01*
X-255480Y-137080D01*
Y-131830D01*
G01X-251510Y-139700D02*
Y-131830D01*
X-249170D01*
X-248390Y-132220D01*
X-247810Y-133140D01*
X-247610Y-134190D01*
X-247810Y-135240D01*
X-248290Y-136030D01*
X-249170Y-136420D01*
X-251510D01*
G01X-243830Y-138130D02*
X-243250Y-139040D01*
X-242470Y-139570D01*
X-241590Y-139700D01*
X-240810Y-139570D01*
X-240040Y-138910D01*
X-239550Y-138130D01*
X-239450Y-137340D01*
X-239650Y-136420D01*
X-240330Y-135770D01*
X-241010Y-135500D01*
X-241880D01*
G01X-241010D02*
X-240420Y-135110D01*
X-239940Y-134450D01*
X-239740Y-133670D01*
X-239940Y-132880D01*
X-240420Y-132220D01*
X-241300Y-131830D01*
X-242180Y-131960D01*
X-243050Y-132490D01*
G01X-257470Y-57150D02*
Y-49280D01*
X-255030D01*
X-254250Y-49670D01*
X-253770Y-50200D01*
X-253570Y-51250D01*
X-253770Y-52300D01*
X-254350Y-52950D01*
X-255030Y-53350D01*
X-257470D01*
G01X-255030D02*
X-253570Y-57150D01*
G01X-249500Y-50590D02*
X-248920Y-49800D01*
X-248230Y-49410D01*
X-247460Y-49280D01*
X-246480Y-49540D01*
X-245800Y-50200D01*
X-245610Y-50990D01*
X-245700Y-51770D01*
X-246090Y-52430D01*
X-248040Y-53740D01*
X-248920Y-54660D01*
X-249500Y-55970D01*
X-249690Y-57150D01*
X-245610D01*
G01X-241920Y-55970D02*
X-241340Y-56630D01*
X-240660Y-57020D01*
X-239780Y-57150D01*
X-238900Y-56890D01*
X-238220Y-56360D01*
X-237740Y-55440D01*
X-237640Y-54400D01*
X-237830Y-53350D01*
X-238320Y-52690D01*
X-239000Y-52170D01*
X-239680Y-52030D01*
X-240360Y-52170D01*
X-241240Y-52690D01*
X-240950Y-49280D01*
X-238320D01*
G01X-259380Y-36530D02*
X-258890Y-37310D01*
X-258310Y-37840D01*
X-257620Y-38100D01*
X-256850Y-37840D01*
X-256260Y-37310D01*
X-255680Y-36530D01*
X-255480Y-35480D01*
Y-30230D01*
G01X-251510Y-38100D02*
Y-30230D01*
X-249170D01*
X-248390Y-30620D01*
X-247810Y-31540D01*
X-247610Y-32590D01*
X-247810Y-33640D01*
X-248290Y-34430D01*
X-249170Y-34820D01*
X-251510D01*
G01X-241690Y-38100D02*
Y-30230D01*
X-242860Y-31800D01*
G01Y-38100D02*
X-240520D01*
G01X-291130Y-74630D02*
X-290640Y-75410D01*
X-290060Y-75940D01*
X-289370Y-76200D01*
X-288600Y-75940D01*
X-288010Y-75410D01*
X-287430Y-74630D01*
X-287230Y-73580D01*
Y-68330D01*
G01X-283260Y-76200D02*
Y-68330D01*
X-280920D01*
X-280140Y-68720D01*
X-279560Y-69640D01*
X-279360Y-70690D01*
X-279560Y-71740D01*
X-280040Y-72530D01*
X-280920Y-72920D01*
X-283260D01*
G01X-275290Y-69640D02*
X-274710Y-68850D01*
X-274020Y-68460D01*
X-273250Y-68330D01*
X-272270Y-68590D01*
X-271590Y-69250D01*
X-271400Y-70040D01*
X-271490Y-70820D01*
X-271880Y-71480D01*
X-273830Y-72790D01*
X-274710Y-73710D01*
X-275290Y-75020D01*
X-275480Y-76200D01*
X-271400D01*
G01X-289220Y6350D02*
Y14220D01*
X-286780D01*
X-286000Y13830D01*
X-285520Y13300D01*
X-285320Y12250D01*
X-285520Y11200D01*
X-286100Y10550D01*
X-286780Y10150D01*
X-289220D01*
G01X-286780D02*
X-285320Y6350D01*
G01X-281540Y7920D02*
X-280960Y7010D01*
X-280180Y6480D01*
X-279300Y6350D01*
X-278520Y6480D01*
X-277750Y7140D01*
X-277260Y7920D01*
X-277160Y8710D01*
X-277360Y9630D01*
X-278040Y10280D01*
X-278720Y10550D01*
X-279590D01*
G01X-278720D02*
X-278130Y10940D01*
X-277650Y11600D01*
X-277450Y12380D01*
X-277650Y13170D01*
X-278130Y13830D01*
X-279010Y14220D01*
X-279890Y14090D01*
X-280760Y13560D01*
G01X-271530Y6350D02*
Y14220D01*
X-272700Y12650D01*
G01Y6350D02*
X-270360D01*
G01X-197450Y389160D02*
X-193430Y376460D01*
X-189400Y389160D01*
G01X-184010Y376460D02*
Y389160D01*
X-180800D01*
X-179510Y388520D01*
X-178540Y387680D01*
X-177740Y386410D01*
X-177100Y384930D01*
X-176940Y382810D01*
X-177100Y380690D01*
X-177740Y379210D01*
X-178540Y377940D01*
X-179510Y377090D01*
X-180800Y376460D01*
X-184010D01*
G01X-171060Y378360D02*
X-170100Y377310D01*
X-168970Y376670D01*
X-167530Y376460D01*
X-166080Y376880D01*
X-164950Y377730D01*
X-164150Y379210D01*
X-163990Y380900D01*
X-164310Y382600D01*
X-165110Y383660D01*
X-166240Y384500D01*
X-167360Y384710D01*
X-168490Y384500D01*
X-169940Y383660D01*
X-169460Y389160D01*
X-165110D01*
G01X-154900Y376460D02*
X-154580Y379210D01*
X-154090Y381540D01*
X-153450Y383660D01*
X-152640Y385980D01*
X-151360Y389160D01*
X-157790D01*
G01X-197450Y490760D02*
X-193430Y478060D01*
X-189400Y490760D01*
G01X-184010Y478060D02*
Y490760D01*
X-180800D01*
X-179510Y490120D01*
X-178540Y489280D01*
X-177740Y488010D01*
X-177100Y486530D01*
X-176940Y484410D01*
X-177100Y482290D01*
X-177740Y480810D01*
X-178540Y479540D01*
X-179510Y478690D01*
X-180800Y478060D01*
X-184010D01*
G01X-171060Y479960D02*
X-170100Y478910D01*
X-168970Y478270D01*
X-167530Y478060D01*
X-166080Y478480D01*
X-164950Y479330D01*
X-164150Y480810D01*
X-163990Y482500D01*
X-164310Y484200D01*
X-165110Y485260D01*
X-166240Y486100D01*
X-167360Y486310D01*
X-168490Y486100D01*
X-169940Y485260D01*
X-169460Y490760D01*
X-165110D01*
G01X-158110Y479960D02*
X-157150Y478910D01*
X-156020Y478270D01*
X-154580Y478060D01*
X-153130Y478480D01*
X-152000Y479330D01*
X-151200Y480810D01*
X-151040Y482500D01*
X-151360Y484200D01*
X-152160Y485260D01*
X-153290Y486100D01*
X-154410Y486310D01*
X-155540Y486100D01*
X-156990Y485260D01*
X-156510Y490760D01*
X-152160D01*
G01X-197450Y592360D02*
X-193430Y579660D01*
X-189400Y592360D01*
G01X-184010Y579660D02*
Y592360D01*
X-180800D01*
X-179510Y591720D01*
X-178540Y590880D01*
X-177740Y589610D01*
X-177100Y588130D01*
X-176940Y586010D01*
X-177100Y583890D01*
X-177740Y582410D01*
X-178540Y581140D01*
X-179510Y580290D01*
X-180800Y579660D01*
X-184010D01*
G01X-171060Y581560D02*
X-170100Y580510D01*
X-168970Y579870D01*
X-167530Y579660D01*
X-166080Y580080D01*
X-164950Y580930D01*
X-164150Y582410D01*
X-163990Y584100D01*
X-164310Y585800D01*
X-165110Y586860D01*
X-166240Y587700D01*
X-167360Y587910D01*
X-168490Y587700D01*
X-169940Y586860D01*
X-169460Y592360D01*
X-165110D01*
G01X-158110Y582200D02*
X-157150Y580720D01*
X-155860Y579870D01*
X-154410Y579660D01*
X-153130Y579870D01*
X-151840Y580930D01*
X-151040Y582200D01*
X-150880Y583470D01*
X-151200Y584950D01*
X-152320Y586010D01*
X-153450Y586430D01*
X-154900D01*
G01X-153450D02*
X-152480Y587070D01*
X-151680Y588130D01*
X-151360Y589400D01*
X-151680Y590670D01*
X-152480Y591720D01*
X-153930Y592360D01*
X-155380Y592150D01*
X-156830Y591300D01*
G01X-197450Y693960D02*
X-193430Y681260D01*
X-189400Y693960D01*
G01X-184010Y681260D02*
Y693960D01*
X-180800D01*
X-179510Y693320D01*
X-178540Y692480D01*
X-177740Y691210D01*
X-177100Y689730D01*
X-176940Y687610D01*
X-177100Y685490D01*
X-177740Y684010D01*
X-178540Y682740D01*
X-179510Y681890D01*
X-180800Y681260D01*
X-184010D01*
G01X-171060Y683160D02*
X-170100Y682110D01*
X-168970Y681470D01*
X-167530Y681260D01*
X-166080Y681680D01*
X-164950Y682530D01*
X-164150Y684010D01*
X-163990Y685700D01*
X-164310Y687400D01*
X-165110Y688460D01*
X-166240Y689300D01*
X-167360Y689510D01*
X-168490Y689300D01*
X-169940Y688460D01*
X-169460Y693960D01*
X-165110D01*
G01X-154580Y681260D02*
Y693960D01*
X-156510Y691420D01*
G01Y681260D02*
X-152650D01*
G01X-197450Y795560D02*
X-193430Y782860D01*
X-189400Y795560D01*
G01X-184010Y782860D02*
Y795560D01*
X-180800D01*
X-179510Y794920D01*
X-178540Y794080D01*
X-177740Y792810D01*
X-177100Y791330D01*
X-176940Y789210D01*
X-177100Y787090D01*
X-177740Y785610D01*
X-178540Y784340D01*
X-179510Y783490D01*
X-180800Y782860D01*
X-184010D01*
G01X-165590D02*
Y795560D01*
X-171550Y786460D01*
X-163500D01*
G01X-157310Y784340D02*
X-156180Y783280D01*
X-154900Y782860D01*
X-153610Y783280D01*
X-152480Y784550D01*
X-151680Y786460D01*
X-151360Y788360D01*
Y790690D01*
X-151680Y792600D01*
X-152480Y794290D01*
X-153450Y795140D01*
X-154580Y795560D01*
X-155860Y795140D01*
X-156830Y794290D01*
X-157470Y793020D01*
X-157790Y791330D01*
X-157470Y789850D01*
X-156670Y788360D01*
X-155700Y787520D01*
X-154580Y787300D01*
X-153290Y787730D01*
X-152320Y788790D01*
X-151360Y790690D01*
G01X-197450Y897160D02*
X-193430Y884460D01*
X-189400Y897160D01*
G01X-184010Y884460D02*
Y897160D01*
X-180800D01*
X-179510Y896520D01*
X-178540Y895680D01*
X-177740Y894410D01*
X-177100Y892930D01*
X-176940Y890810D01*
X-177100Y888690D01*
X-177740Y887210D01*
X-178540Y885940D01*
X-179510Y885090D01*
X-180800Y884460D01*
X-184010D01*
G01X-165590D02*
Y897160D01*
X-171550Y888060D01*
X-163500D01*
G01X-154900Y884460D02*
X-154580Y887210D01*
X-154090Y889540D01*
X-153450Y891660D01*
X-152640Y893980D01*
X-151360Y897160D01*
X-157790D01*
G01X-197450Y998760D02*
X-193430Y986060D01*
X-189400Y998760D01*
G01X-184010Y986060D02*
Y998760D01*
X-180800D01*
X-179510Y998120D01*
X-178540Y997280D01*
X-177740Y996010D01*
X-177100Y994530D01*
X-176940Y992410D01*
X-177100Y990290D01*
X-177740Y988810D01*
X-178540Y987540D01*
X-179510Y986690D01*
X-180800Y986060D01*
X-184010D01*
G01X-165590D02*
Y998760D01*
X-171550Y989660D01*
X-163500D01*
G01X-158110Y987960D02*
X-157150Y986910D01*
X-156020Y986270D01*
X-154580Y986060D01*
X-153130Y986480D01*
X-152000Y987330D01*
X-151200Y988810D01*
X-151040Y990500D01*
X-151360Y992200D01*
X-152160Y993260D01*
X-153290Y994100D01*
X-154410Y994310D01*
X-155540Y994100D01*
X-156990Y993260D01*
X-156510Y998760D01*
X-152160D01*
G01X-197450Y1100360D02*
X-193430Y1087660D01*
X-189400Y1100360D01*
G01X-184010Y1087660D02*
Y1100360D01*
X-180800D01*
X-179510Y1099720D01*
X-178540Y1098880D01*
X-177740Y1097610D01*
X-177100Y1096130D01*
X-176940Y1094010D01*
X-177100Y1091890D01*
X-177740Y1090410D01*
X-178540Y1089140D01*
X-179510Y1088290D01*
X-180800Y1087660D01*
X-184010D01*
G01X-165590D02*
Y1100360D01*
X-171550Y1091260D01*
X-163500D01*
G01X-158110Y1090200D02*
X-157150Y1088720D01*
X-155860Y1087870D01*
X-154410Y1087660D01*
X-153130Y1087870D01*
X-151840Y1088930D01*
X-151040Y1090200D01*
X-150880Y1091470D01*
X-151200Y1092950D01*
X-152320Y1094010D01*
X-153450Y1094430D01*
X-154900D01*
G01X-153450D02*
X-152480Y1095070D01*
X-151680Y1096130D01*
X-151360Y1097400D01*
X-151680Y1098670D01*
X-152480Y1099720D01*
X-153930Y1100360D01*
X-155380Y1100150D01*
X-156830Y1099300D01*
G01X-125940Y-836360D02*
X-126900Y-835720D01*
X-128030Y-835300D01*
X-129310D01*
X-130760Y-835940D01*
X-131890Y-836990D01*
X-132690Y-838260D01*
X-133340Y-840380D01*
X-133500Y-842290D01*
X-133170Y-844190D01*
X-132690Y-845460D01*
X-131730Y-846730D01*
X-130600Y-847580D01*
X-129480Y-848000D01*
X-128350D01*
X-127220Y-847580D01*
X-126260Y-846940D01*
X-125450Y-846100D01*
G01X-120060Y-845460D02*
X-119100Y-846940D01*
X-117810Y-847790D01*
X-116360Y-848000D01*
X-115080Y-847790D01*
X-113790Y-846730D01*
X-112990Y-845460D01*
X-112830Y-844190D01*
X-113150Y-842710D01*
X-114270Y-841650D01*
X-115400Y-841230D01*
X-116850D01*
G01X-115400D02*
X-114430Y-840590D01*
X-113630Y-839530D01*
X-113310Y-838260D01*
X-113630Y-836990D01*
X-114430Y-835940D01*
X-115880Y-835300D01*
X-117330Y-835510D01*
X-118780Y-836360D01*
G01X-136430Y170390D02*
X-137390Y171030D01*
X-138520Y171450D01*
X-139800D01*
X-141250Y170810D01*
X-142380Y169760D01*
X-143180Y168490D01*
X-143830Y166370D01*
X-143990Y164460D01*
X-143660Y162560D01*
X-143180Y161290D01*
X-142220Y160020D01*
X-141090Y159170D01*
X-139970Y158750D01*
X-138840D01*
X-137710Y159170D01*
X-136750Y159810D01*
X-135940Y160650D01*
G01X-125080Y158750D02*
Y171450D01*
X-131040Y162350D01*
X-122990D01*
G01X-116800Y160230D02*
X-115670Y159170D01*
X-114390Y158750D01*
X-113100Y159170D01*
X-111970Y160440D01*
X-111170Y162350D01*
X-110850Y164250D01*
Y166580D01*
X-111170Y168490D01*
X-111970Y170180D01*
X-112940Y171030D01*
X-114070Y171450D01*
X-115350Y171030D01*
X-116320Y170180D01*
X-116960Y168910D01*
X-117280Y167220D01*
X-116960Y165740D01*
X-116160Y164250D01*
X-115190Y163410D01*
X-114070Y163190D01*
X-112780Y163620D01*
X-111810Y164680D01*
X-110850Y166580D01*
G01X-82270Y208800D02*
X-82670Y209200D01*
X-83330Y209500D01*
X-84270Y209700D01*
X-85070Y209500D01*
X-85600Y209100D01*
X-86000Y208400D01*
Y205700D01*
X-78000D01*
Y209000D01*
X-78530Y209700D01*
X-79330Y210100D01*
X-80270Y210300D01*
X-81200Y210100D01*
X-82000Y209500D01*
X-82270Y208800D01*
Y205700D01*
G01X-78000Y216000D02*
X-86000D01*
X-84400Y214800D01*
G01X-78000D02*
Y217200D01*
G01X-98750Y1168400D02*
X-92000Y1181100D01*
G01X-98750D02*
X-92000Y1168400D01*
G01X-85480Y1178980D02*
X-84520Y1180250D01*
X-83390Y1180890D01*
X-82100Y1181100D01*
X-80490Y1180680D01*
X-79370Y1179620D01*
X-79050Y1178350D01*
X-79210Y1177080D01*
X-79850Y1176020D01*
X-83070Y1173900D01*
X-84520Y1172420D01*
X-85480Y1170300D01*
X-85800Y1168400D01*
X-79050D01*
G01X-9850Y90000D02*
X-3100Y102700D01*
G01X-9850D02*
X-3100Y90000D01*
G01X8410D02*
Y102700D01*
X2450Y93600D01*
X10500D01*
G01X-2000Y205500D02*
X-10000Y208000D01*
X-2000Y210500D01*
G01X-4800Y209600D02*
Y206400D01*
G01X-2000Y216000D02*
X-10000D01*
X-8400Y214800D01*
G01X-2000D02*
Y217200D01*
M02*
