G04 ================== begin FILE IDENTIFICATION RECORD ==================*
G04 Layout Name:  D:/docs/KSK_02v6/pcb/KSK_02v6.brd*
G04 Film Name:    TOP*
G04 File Format:  Gerber RS274X*
G04 File Origin:  Cadence Allegro 16.6-2015-S105*
G04 Origin Date:  Thu Aug 30 09:01:53 2018*
G04 *
G04 Layer:  ETCH/TOP*
G04 Layer:  PIN/TOP*
G04 Layer:  VIA CLASS/TOP*
G04 *
G04 Offset:    (0.000 0.000)*
G04 Mirror:    No*
G04 Mode:      Positive*
G04 Rotation:  0*
G04 FullContactRelief:  No*
G04 UndefLineWidth:     0.250*
G04 ================== end FILE IDENTIFICATION RECORD ====================*
%FSLAX34Y34*MOMM*%
%IR0*IPPOS*OFA0.00000B0.00000*MIA0B0*SFA1.00000B1.00000*%
%ADD24O,.6X1.1*%
%ADD29O,1.1X.6*%
%ADD14C,1.*%
%ADD30O,1.6X.6*%
%ADD25O,1.45X.3*%
%ADD10C,4.*%
%ADD49C,4.1*%
%ADD31R,1.6X.6*%
%ADD26R,1.45X.3*%
%ADD19R,1.4X.9*%
%ADD45C,2.4*%
%ADD44C,1.5*%
%ADD20R,.9X1.4*%
%ADD50C,3.4*%
%ADD33R,.55X1.05*%
%ADD34R,1.05X.55*%
%ADD12C,1.7*%
%ADD48C,7.2*%
%ADD39R,1.15X.55*%
%ADD46C,5.6*%
%ADD47R,2.4X2.4*%
%ADD38O,1.95X.55*%
%ADD11R,1.7X1.7*%
%ADD27O,1.6X1.*%
%ADD37R,2.X1.5*%
%ADD36R,1.3X1.5*%
%ADD21R,1.8X1.2*%
%ADD17R,2.7X1.2*%
%ADD40R,1.2X2.7*%
%ADD28R,1.2X1.8*%
%ADD35R,2.X3.8*%
%ADD16R,1.8X1.4*%
%ADD15R,2.3X1.8*%
%ADD22R,1.4X1.8*%
%ADD42R,1.7X1.7*%
%ADD18R,1.45X1.05*%
%ADD23R,1.05X1.45*%
%ADD43R,2.26X2.16*%
%ADD41R,1.62X2.18*%
%ADD13C,.8*%
%ADD32R,2.65X1.75*%
%ADD51C,.2*%
%ADD52C,.4*%
%ADD53C,.25*%
%ADD54C,.35*%
%ADD55C,.45*%
G75*
%LPD*%
G75*
G36*
G01X-935320Y-896750D02*
X-941820D01*
X-944310Y-895110D01*
X-944910Y-893740D01*
G02X-954900Y-845650I110748J48089D01*
G01Y-105650D01*
G02X-953440Y-102110I5002J8D01*
G02X-949900Y-100650I3532J-3542D01*
G01X-943740D01*
G02X-939600Y-102850I-2J-4999D01*
G01X-934250Y-110750D01*
X-933990Y-113210D01*
X-934460Y-114370D01*
G03X-932690Y-126340I11159J-4466D01*
G01X-932190Y-126970D01*
X-931640Y-128460D01*
X-931340Y-135990D01*
X-931780Y-137520D01*
X-932230Y-138190D01*
G03X-932440Y-149970I8931J-6051D01*
G01X-932070Y-150570D01*
X-931680Y-151910D01*
Y-154700D01*
X-934600Y-157620D01*
X-935320D01*
Y-179450D01*
X-934580Y-180200D01*
G02X-933110Y-183730I-3530J-3541D01*
G01Y-187320D01*
X-933440Y-188550D01*
X-933760Y-189120D01*
G03X-933120Y-201970I10460J-5920D01*
G01X-932670Y-202610D01*
X-932200Y-204080D01*
Y-211400D01*
X-932670Y-212870D01*
X-933120Y-213510D01*
G03Y-227370I9820J-6930D01*
G01X-932670Y-228010D01*
X-932200Y-229480D01*
Y-236800D01*
X-932670Y-238270D01*
X-933120Y-238910D01*
G03Y-252770I9820J-6930D01*
G01X-932670Y-253410D01*
X-932200Y-254880D01*
Y-262200D01*
X-932670Y-263670D01*
X-933120Y-264310D01*
G03Y-278170I9820J-6930D01*
G01X-932670Y-278810D01*
X-932200Y-280280D01*
Y-287600D01*
X-932670Y-289070D01*
X-933120Y-289710D01*
G03Y-303570I9820J-6930D01*
G01X-932670Y-304210D01*
X-932200Y-305680D01*
Y-313000D01*
X-932670Y-314470D01*
X-933120Y-315110D01*
G03Y-328970I9820J-6930D01*
G01X-932670Y-329610D01*
X-932200Y-331080D01*
Y-338400D01*
X-932670Y-339870D01*
X-933120Y-340510D01*
G03Y-354370I9820J-6930D01*
G01X-932670Y-355010D01*
X-932200Y-356480D01*
Y-363800D01*
X-932670Y-365270D01*
X-933120Y-365910D01*
G03Y-379770I9820J-6930D01*
G01X-932670Y-380410D01*
X-932200Y-381880D01*
Y-389200D01*
X-932670Y-390670D01*
X-933120Y-391310D01*
G03X-933760Y-404160I9820J-6930D01*
G01X-933440Y-404730D01*
X-933110Y-405960D01*
Y-409410D01*
X-933860Y-410160D01*
G03X-935320Y-413690I3540J-3531D01*
G01Y-433450D01*
X-934580Y-434200D01*
G02X-933110Y-437730I-3530J-3541D01*
G01Y-441320D01*
X-933440Y-442550D01*
X-933760Y-443120D01*
G03X-933120Y-455970I10460J-5920D01*
G01X-932670Y-456610D01*
X-932200Y-458080D01*
Y-465400D01*
X-932670Y-466870D01*
X-933120Y-467510D01*
G03Y-481370I9820J-6930D01*
G01X-932670Y-482010D01*
X-932200Y-483480D01*
Y-490800D01*
X-932670Y-492270D01*
X-933120Y-492910D01*
G03Y-506770I9820J-6930D01*
G01X-932670Y-507410D01*
X-932200Y-508880D01*
Y-516200D01*
X-932670Y-517670D01*
X-933120Y-518310D01*
G03Y-532170I9820J-6930D01*
G01X-932670Y-532810D01*
X-932200Y-534280D01*
Y-541600D01*
X-932670Y-543070D01*
X-933120Y-543710D01*
G03Y-557570I9820J-6930D01*
G01X-932670Y-558210D01*
X-932200Y-559680D01*
Y-567000D01*
X-932670Y-568470D01*
X-933120Y-569110D01*
G03Y-582970I9820J-6930D01*
G01X-932670Y-583610D01*
X-932200Y-585080D01*
Y-592400D01*
X-932670Y-593870D01*
X-933120Y-594510D01*
G03Y-608370I9820J-6930D01*
G01X-932670Y-609010D01*
X-932200Y-610480D01*
Y-617800D01*
X-932670Y-619270D01*
X-933120Y-619910D01*
G03Y-633770I9820J-6930D01*
G01X-932670Y-634410D01*
X-932200Y-635880D01*
Y-643200D01*
X-932670Y-644670D01*
X-933120Y-645310D01*
G03X-933760Y-658160I9820J-6930D01*
G01X-933440Y-658730D01*
X-933110Y-659960D01*
Y-663410D01*
X-933860Y-664160D01*
G03X-935320Y-667690I3540J-3531D01*
G01Y-687450D01*
X-934580Y-688200D01*
G02X-933110Y-691730I-3530J-3541D01*
G01Y-695320D01*
X-933440Y-696550D01*
X-933760Y-697120D01*
G03X-933120Y-709970I10460J-5920D01*
G01X-932670Y-710610D01*
X-932200Y-712080D01*
Y-719400D01*
X-932670Y-720870D01*
X-933120Y-721510D01*
G03Y-735370I9820J-6930D01*
G01X-932670Y-736010D01*
X-932200Y-737480D01*
Y-744800D01*
X-932670Y-746270D01*
X-933120Y-746910D01*
G03Y-760770I9820J-6930D01*
G01X-932670Y-761410D01*
X-932200Y-762880D01*
Y-770200D01*
X-932670Y-771670D01*
X-933120Y-772310D01*
G03Y-786170I9820J-6930D01*
G01X-932670Y-786810D01*
X-932200Y-788280D01*
Y-795600D01*
X-932670Y-797070D01*
X-933120Y-797710D01*
G03Y-811570I9820J-6930D01*
G01X-932670Y-812210D01*
X-932200Y-813680D01*
Y-821000D01*
X-932670Y-822470D01*
X-933120Y-823110D01*
G03Y-836970I9820J-6930D01*
G01X-932670Y-837610D01*
X-932200Y-839080D01*
Y-846400D01*
X-932670Y-847870D01*
X-933120Y-848510D01*
G03Y-862370I9820J-6930D01*
G01X-932670Y-863010D01*
X-932200Y-864480D01*
Y-871800D01*
X-932670Y-873270D01*
X-933120Y-873910D01*
G03X-933760Y-886760I9820J-6930D01*
G01X-933440Y-887330D01*
X-933110Y-888560D01*
Y-892010D01*
X-933860Y-892760D01*
G03X-935320Y-896290I3540J-3531D01*
G01Y-896750D01*
G37*
G36*
G01X-906870Y-110840D02*
G02X-914330I-3730J3331D01*
G03X-915440Y-109750I-8958J-8012D01*
G01X-916070Y-109200D01*
X-916890Y-107800D01*
X-918460Y-100200D01*
X-918260Y-98570D01*
X-917900Y-97830D01*
G03X-917400Y-95650I-4502J2180D01*
G01Y-40650D01*
G03X-922400Y-35650I-5000J0D01*
G01X-949900D01*
G02X-954900Y-30650I0J5000D01*
G01Y1176850D01*
G02X-904900Y1226850I50000J0D01*
G01X-392400D01*
G02X-342400Y1176850I0J-50000D01*
G01Y1090040D01*
G02X-343710Y1086670I-4998J3D01*
G01X-345760Y1084410D01*
G02X-348400Y1082900I-3685J3379D01*
G03Y1059400I2550J-11750D01*
G02X-345760Y1057890I-1045J-4889D01*
G01X-343710Y1055630D01*
G02X-342400Y1052260I-3688J-3373D01*
G01Y1037370D01*
G02X-347400Y1032370I-5000J0D01*
G01X-352870D01*
G03X-357870Y1027370I0J-5000D01*
G01X-360020Y1025220D01*
X-395410D01*
G03X-398940Y1023760I1J-5000D01*
G01X-419710Y1002990D01*
G03X-421170Y999460I3540J-3531D01*
G01Y742840D01*
G02X-422630Y739310I-4999J1D01*
G01X-423780Y738160D01*
X-426280Y737450D01*
X-427550Y737750D01*
G03X-429000Y737920I-1450J-6099D01*
G01X-442520D01*
X-442680Y738080D01*
Y808210D01*
G03X-444140Y811740I-5000J-1D01*
G01X-466870Y834470D01*
G03X-470400Y835930I-3531J-3540D01*
G01X-472880D01*
X-474480Y836490D01*
X-475150Y837030D01*
G03X-474040Y826390I-4701J-5868D01*
G01X-473360D01*
X-471530Y825630D01*
X-453680Y807780D01*
G02X-452220Y804250I-3540J-3531D01*
G01Y803420D01*
G02X-455300Y798800I-5001J-3D01*
G01X-456710Y798220D01*
X-459680Y798810D01*
X-469890Y809020D01*
G03X-473420Y810490I-3540J-3528D01*
G01X-473780D01*
X-475150Y811590D01*
G03X-477200Y798680I-4700J-5872D01*
G02X-471900Y797540I1766J-4678D01*
G01X-468290Y793930D01*
G02Y786850I-3531J-3540D01*
G02X-474770Y786350I-3532J3539D01*
G03X-480360Y772850I-4435J-6071D01*
G01X-479470Y772710D01*
X-477910Y771850D01*
X-476840Y770590D01*
G02X-477390Y763540I-3798J-3250D01*
G01X-478010Y763010D01*
X-479520Y762400D01*
X-480320Y762350D01*
G03X-485720Y750140I470J-7507D01*
G01X-485180Y749470D01*
X-484620Y747870D01*
Y716300D01*
G03X-483150Y712750I5001J-8D01*
G01X-482970Y712570D01*
G02X-481510Y708610I-3523J-3548D01*
G01X-482150Y701010D01*
G02X-484210Y697360I-4985J407D01*
G01X-484220D01*
G03X-485660Y686460I4369J-6122D01*
G01X-485110Y685790D01*
X-484520Y684160D01*
Y676060D01*
X-485110Y674430D01*
X-485660Y673760D01*
G03X-486070Y673220I5781J-4815D01*
G02X-487240Y672000I-4140J2799D01*
G02X-494960Y674480I-2965J4024D01*
G03X-504500Y679290I-7152J-2320D01*
G02X-507910Y679360I-1609J4736D01*
G01X-513860Y681670D01*
G02X-516420Y683900I1809J4661D01*
G03X-516710Y684370I-5477J-3055D01*
G02X-517210Y685290I4118J2834D01*
G02X-516720Y690020I4621J1912D01*
G03Y697080I-5180J3530D01*
G02Y702720I4131J2820D01*
G03Y709780I-5180J3530D01*
G02Y715420I4131J2820D01*
G03Y722480I-5180J3530D01*
G02Y728120I4131J2820D01*
G03X-521900Y737920I-5180J3531D01*
G01X-535920D01*
G03X-539030Y737090I8J-6273D01*
G01X-539590Y736760D01*
X-540860Y736420D01*
X-549830D01*
G02X-553360Y737880I1J5000D01*
G01X-556130Y740650D01*
Y741170D01*
X-569670D01*
G03X-574670Y736170I0J-5000D01*
G01Y628620D01*
G02X-579670Y623620I-5000J0D01*
G01X-583130D01*
G02X-588130Y628620I0J5000D01*
G01Y736170D01*
G03X-593130Y741170I-5000J0D01*
G01X-605170D01*
X-605210Y741130D01*
G02X-608740Y739670I-3531J3540D01*
G01X-830410D01*
G03X-833940Y738210I1J-5000D01*
G01X-855710Y716440D01*
G03X-857170Y712910I3540J-3531D01*
G01Y708330D01*
G02X-862170Y703330I-5000J0D01*
G01X-862560D01*
G02X-867560Y708330I0J5000D01*
G01Y724800D01*
G03X-872560Y729800I-5000J0D01*
G01X-885140D01*
G03X-890140Y724800I0J-5000D01*
G01Y703330D01*
X-891370D01*
Y685210D01*
X-888450Y682290D01*
X-888040D01*
X-887170Y678370D01*
G03X-870530I8320J1830D01*
G01X-870150Y680090D01*
X-867410Y682290D01*
X-862170D01*
G02X-857170Y677290I0J-5000D01*
G01Y228040D01*
G02X-862170Y223040I-5000J0D01*
G01X-890790D01*
G03X-895790Y218040I0J-5000D01*
G01Y211460D01*
G03X-890790Y206460I5000J0D01*
G01X-862170D01*
G02X-857170Y201460I0J-5000D01*
G01Y199770D01*
G02X-862170Y194770I-5000J0D01*
G01X-897020D01*
Y193770D01*
X-901470D01*
G02X-901580I-55J5000D01*
G03Y176730I-170J-8520D01*
G02X-901470I55J-5000D01*
G01X-897020D01*
Y175730D01*
X-893520D01*
G02X-888520Y170730I0J-5000D01*
G01Y157290D01*
X-891440Y154370D01*
X-892520D01*
X-894520Y152370D01*
X-899850D01*
G03Y135330I0J-8520D01*
G01X-894520D01*
X-892520Y133330D01*
X-891290D01*
Y111860D01*
G03X-886290Y106860I5000J0D01*
G01X-873710D01*
G03X-868710Y111860I0J5000D01*
G01Y133330D01*
X-867480D01*
Y151450D01*
X-870400Y154370D01*
X-871480D01*
Y170730D01*
G02X-866480Y175730I5000J0D01*
G01X-862170D01*
G02X-857170Y170730I0J-5000D01*
G01Y79310D01*
G02X-862170Y74310I-5000J0D01*
G01X-888790D01*
G03X-893790Y69310I0J-5000D01*
G01Y56730D01*
G03X-888790Y51730I5000J0D01*
G01X-862170D01*
G02X-857170Y46730I0J-5000D01*
G01Y34500D01*
G02X-862170Y29500I-5000J0D01*
G01X-892100D01*
X-895020Y26580D01*
Y25500D01*
X-900000D01*
G03Y8460I0J-8520D01*
G01X-897940D01*
X-895020Y5540D01*
Y4460D01*
X-893510D01*
G02X-888510Y-330I4J-5000D01*
G01Y-340D01*
G03X-871490I8510J340D01*
G01Y-330D01*
G02X-866490Y4460I4996J-210D01*
G01X-862170D01*
G02X-857170Y-540I0J-5000D01*
G01Y-97470D01*
G02X-859090Y-101410I-5000J-1D01*
G01X-865300Y-106270D01*
G02X-869590Y-107180I-3078J3941D01*
G03X-879430Y-109020I-2912J-11661D01*
G02X-882320Y-109940I-2890J4080D01*
G01X-888080D01*
G02X-890970Y-109020I0J5000D01*
G03X-906870Y-110840I-6930J-9820D01*
G37*
G36*
G01X-635780Y-936430D02*
Y-936730D01*
X-632860Y-939650D01*
X-586530D01*
G02X-581530Y-944650I0J-5000D01*
G01Y-945090D01*
G02X-586530Y-950090I-5000J0D01*
G01X-587780D01*
G03X-592780Y-955090I0J-5000D01*
G01Y-973150D01*
G02X-597780Y-978150I-5000J0D01*
G01X-598470D01*
G02X-603470Y-973150I0J5000D01*
G01Y-956320D01*
G03X-608470Y-951320I-5000J0D01*
G01X-629550D01*
G03X-634550Y-956320I0J-5000D01*
G01Y-973150D01*
G02X-639550Y-978150I-5000J0D01*
G01X-822410D01*
G02X-907760Y-942790I6J120701D01*
G01X-913050Y-937500D01*
G02X-914140Y-932060I3535J3537D01*
G01X-913560Y-930650D01*
X-911040Y-928970D01*
X-877840D01*
G03X-874310Y-927510I-1J5000D01*
G01X-866520Y-919720D01*
G02X-862990Y-918260I3531J-3540D01*
G01X-860480Y-915750D01*
Y-914880D01*
X-859720Y-913050D01*
X-846050Y-899380D01*
G02X-842520Y-897920I3531J-3540D01*
G01X-803940D01*
G02X-799500Y-900620I0J-5000D01*
G03X-795180Y-905180I10078J5221D01*
G01X-794030Y-905860D01*
X-792720Y-908150D01*
Y-910750D01*
X-791490D01*
Y-923520D01*
G03X-786490Y-928520I5000J0D01*
G01X-777410D01*
G03X-772410Y-923520I0J5000D01*
G01Y-910750D01*
X-771180D01*
Y-904900D01*
G02X-766180Y-899900I5000J0D01*
G01X-764940D01*
X-763840Y-900480D01*
G03X-761500Y-901060I2340J4430D01*
G01X-749950D01*
G03X-749830I60J5000D01*
G01X-748860Y-901040D01*
X-746970Y-901790D01*
X-745870Y-902890D01*
G03X-745470Y-903250I3540J3531D01*
G01X-744700Y-903870D01*
G03X-744230Y-904220I4723J5852D01*
G02X-742040Y-908360I-2810J-4136D01*
G01Y-949540D01*
G03X-737040Y-954540I5000J0D01*
G01X-724270D01*
Y-955770D01*
X-709650D01*
X-706730Y-952850D01*
X-705040Y-950350D01*
X-703590Y-949770D01*
G03X-702360Y-949180I-3924J9758D01*
G02X-699990Y-948550I2431J-4371D01*
G01X-696990Y-948510D01*
G02X-694890Y-948940I71J-4998D01*
G03X-689830Y-948500I2128J4841D01*
G02X-689810Y-948490I2247J-4470D01*
G02X-686800Y-947680I2739J-4182D01*
G01X-680020Y-948030D01*
X-678530Y-948610D01*
X-677910Y-949120D01*
G03X-668160Y-947450I4158J5021D01*
G01X-667840Y-946920D01*
X-665930Y-945010D01*
X-661810D01*
X-661760Y-945060D01*
Y-945740D01*
G03X-656760Y-950740I5000J0D01*
G01X-649740D01*
G03X-644740Y-945740I0J5000D01*
G01Y-938450D01*
X-641820Y-935530D01*
X-641390D01*
X-640820Y-935670D01*
G03X-640070Y-935810I1937J8296D01*
G01X-635780Y-936430D01*
G37*
G36*
G01X-559240Y-965920D02*
Y-955090D01*
G03X-564240Y-950090I-5000J0D01*
G01X-565490D01*
G02X-570490Y-945090I0J5000D01*
G01Y-944650D01*
G02X-565490Y-939650I5000J0D01*
G01X-564240D01*
G03X-559240Y-934650I0J5000D01*
G01Y-917900D01*
X-561330Y-915810D01*
G02X-562410Y-914190I3539J3529D01*
G01X-563310Y-912030D01*
G02X-562230Y-906580I4620J1916D01*
G01X-561250Y-905600D01*
G03X-555230Y-891080I-14514J14526D01*
G01Y-889900D01*
X-554440Y-888040D01*
X-553710Y-887330D01*
G03Y-877970I-4540J4680D01*
G02X-555230Y-874420I3480J3590D01*
G03X-566440Y-859070I-16269J-113D01*
G01X-567270Y-858800D01*
X-568630Y-857750D01*
X-572980Y-850970D01*
X-573370Y-849300D01*
X-573270Y-848430D01*
G03X-573250Y-848190I-6486J661D01*
G02X-566090Y-844070I4985J-382D01*
G03X-563250Y-844720I2840J5879D01*
G01X-558250D01*
G03X-555590Y-844150I-6J6519D01*
G01X-554620Y-843720D01*
X-552170D01*
X-550780Y-844130D01*
X-550180Y-844520D01*
G03Y-831880I4080J6320D01*
G01X-550780Y-832270D01*
X-552170Y-832680D01*
X-554620D01*
X-555590Y-832250D01*
G03X-558250Y-831680I-2666J-5949D01*
G01X-563250D01*
G03X-563850Y-831710I25J-6519D01*
G01X-564620Y-831780D01*
X-566130Y-831450D01*
X-572470Y-827800D01*
X-573510Y-826660D01*
X-573840Y-825960D01*
G03X-579750Y-822180I-5910J-2730D01*
G01X-584750D01*
G03X-587410Y-822750I6J-6519D01*
G01X-588380Y-823180D01*
X-595540D01*
X-595640Y-823280D01*
X-606300D01*
Y-822530D01*
X-639600D01*
G03X-644600Y-827530I0J-5000D01*
G01Y-840900D01*
X-646380Y-843470D01*
X-647850Y-844020D01*
G03X-652430Y-853160I2640J-7041D01*
G01X-652050Y-854480D01*
X-652730Y-857130D01*
X-661900Y-866310D01*
G02X-665440Y-867770I-3532J3542D01*
G01X-669670D01*
G02X-674670Y-862770I0J5000D01*
G01Y-817220D01*
G03X-676130Y-813690I-5001J-1D01*
G01X-692340Y-797480D01*
G03X-695870Y-796020I-3531J-3541D01*
G01X-757180D01*
G02X-762180Y-791020I0J5000D01*
G01Y-778580D01*
G03X-767180Y-773580I-5000J0D01*
G01X-784610D01*
X-785760Y-774730D01*
G02X-789290Y-776190I-3531J3539D01*
G01X-792970D01*
X-793680Y-775970D01*
G02X-794330Y-775770I10470J35185D01*
G02X-797780Y-771010I1551J4754D01*
G01Y-763210D01*
G03X-802780Y-758210I-5000J0D01*
G01X-822820D01*
G03X-827820Y-763210I0J-5000D01*
G01Y-778250D01*
G03X-822820Y-783250I5000J0D01*
G01X-806130D01*
G02X-803930Y-783760I0J-4999D01*
G03X-791340Y-787870I20970J42897D01*
G01X-789540Y-788200D01*
X-787220Y-790970D01*
X-785570Y-792620D01*
X-783030D01*
X-780290Y-794830D01*
X-779920Y-796560D01*
G03X-766910Y-807060I13010J2810D01*
G01X-737980D01*
G02X-732980Y-812060I0J-5000D01*
G01Y-812470D01*
X-733050Y-812870D01*
G03X-733070Y-812990I8398J-1461D01*
G01X-733340Y-814840D01*
X-736150Y-817250D01*
X-737230D01*
Y-826340D01*
G02X-742230Y-831340I-5000J0D01*
G01X-760800D01*
G03X-765800Y-836340I0J-5000D01*
G01Y-836560D01*
X-768720Y-839480D01*
X-786570D01*
G03X-791570Y-844480I0J-5000D01*
G01Y-879260D01*
G02X-796570Y-884260I-5000J0D01*
G01X-797670D01*
X-798660Y-883800D01*
G03X-799160Y-883580I-5392J-11577D01*
G01X-800580Y-883000D01*
X-802270Y-880480D01*
Y-879800D01*
X-805190Y-876880D01*
X-832810D01*
G03X-837810Y-881880I0J-5000D01*
G01X-842100D01*
G03X-845630Y-883340I1J-5001D01*
G01X-846260Y-883970D01*
X-858670Y-880730D01*
X-860570Y-878870D01*
X-860930Y-877580D01*
G03X-862680Y-873910I-11568J-3264D01*
G01X-863130Y-873270D01*
X-863600Y-871800D01*
Y-864480D01*
X-863130Y-863010D01*
X-862680Y-862370D01*
G03Y-848510I-9820J6930D01*
G01X-863130Y-847870D01*
X-863600Y-846400D01*
Y-839080D01*
X-863130Y-837610D01*
X-862680Y-836970D01*
G03Y-823110I-9820J6930D01*
G01X-863130Y-822470D01*
X-863600Y-821000D01*
Y-813680D01*
X-863130Y-812210D01*
X-862680Y-811570D01*
G03Y-797710I-9820J6930D01*
G01X-863130Y-797070D01*
X-863600Y-795600D01*
Y-788280D01*
X-863130Y-786810D01*
X-862680Y-786170D01*
G03Y-772310I-9820J6930D01*
G01X-863130Y-771670D01*
X-863600Y-770200D01*
Y-762880D01*
X-863130Y-761410D01*
X-862680Y-760770D01*
G03Y-746910I-9820J6930D01*
G01X-863130Y-746270D01*
X-863600Y-744800D01*
Y-737480D01*
X-863130Y-736010D01*
X-862680Y-735370D01*
G03Y-721510I-9820J6930D01*
G01X-863130Y-720870D01*
X-863600Y-719400D01*
Y-712080D01*
X-863130Y-710610D01*
X-862680Y-709970D01*
G03X-862040Y-697120I-9820J6930D01*
G01X-862360Y-696550D01*
X-862690Y-695320D01*
Y-691870D01*
X-861940Y-691120D01*
G03X-860480Y-687590I-3540J3531D01*
G01Y-667830D01*
X-861220Y-667080D01*
G02X-862690Y-663550I3530J3541D01*
G01Y-659960D01*
X-862360Y-658730D01*
X-862040Y-658160D01*
G03X-862680Y-645310I-10460J5920D01*
G01X-863130Y-644670D01*
X-863600Y-643200D01*
Y-635880D01*
X-863130Y-634410D01*
X-862680Y-633770D01*
G03X-862660Y-633740I-9987J6680D01*
G01X-861950Y-632730D01*
X-859790Y-631610D01*
X-856740D01*
G03X-853200Y-630150I9J5001D01*
G01X-779790Y-556730D01*
G02X-776250Y-555270I3532J-3541D01*
G01X-755360D01*
G02X-750360Y-560270I0J-5000D01*
G01Y-592580D01*
G02X-755360Y-597580I-5000J0D01*
G01X-755780D01*
G03X-766770Y-608570I0J-10990D01*
G01Y-617230D01*
G02X-771770Y-622230I-5000J0D01*
G01X-772520D01*
Y-660330D01*
X-774670Y-662480D01*
Y-663710D01*
X-796140D01*
G03X-801140Y-668710I0J-5000D01*
G01Y-681290D01*
G03X-796140Y-686290I5000J0D01*
G01X-774670D01*
Y-687520D01*
X-774540D01*
X-771850Y-689580D01*
X-771410Y-691220D01*
G03X-770660Y-693040I7268J1931D01*
G02X-772910Y-700090I-4328J-2503D01*
G03X-776520Y-702880I4167J-9123D01*
G01X-777240Y-703760D01*
X-779270Y-704730D01*
X-779520D01*
G03X-784520Y-709730I0J-5000D01*
G01Y-741380D01*
X-785760Y-742620D01*
G03X-787220Y-746150I3540J-3531D01*
G01Y-758120D01*
G03X-782220Y-763120I5000J0D01*
G01X-765100D01*
X-762180Y-760200D01*
X-760600Y-758440D01*
X-757740Y-758110D01*
G03X-749570Y-756350I-4532J40879D01*
G01X-748820Y-756100D01*
X-747260D01*
X-740210Y-758330D01*
X-738940Y-759230D01*
X-738470Y-759860D01*
G03X-731650Y-763270I6820J5115D01*
G01X-725650D01*
G03X-717610Y-757570I0J8520D01*
G01X-717280Y-756630D01*
X-715960Y-755160D01*
X-707800Y-751230D01*
X-705820Y-751120D01*
X-704880Y-751450D01*
G03X-701460Y-751810I2476J7100D01*
G01X-700560Y-751700D01*
X-698810Y-752110D01*
X-691870Y-756730D01*
X-690810Y-758180D01*
X-690570Y-759050D01*
G03X-642400Y-795650I48170J13399D01*
G01X-562400D01*
G02X-512400Y-845650I0J-50000D01*
G01Y-928150D01*
G02X-545950Y-975370I-50005J0D01*
G02X-550490Y-974720I-1640J4724D01*
G01X-557140Y-970000D01*
G02X-559240Y-965920I2901J4074D01*
G37*
G36*
G01X-864790Y-587790D02*
X-864880Y-586760D01*
X-864230Y-584820D01*
X-863540Y-584050D01*
G03X-862680Y-569110I-8961J8011D01*
G01X-863130Y-568470D01*
X-863600Y-567000D01*
Y-559680D01*
X-863130Y-558210D01*
X-862680Y-557570D01*
G03Y-543710I-9820J6930D01*
G01X-863130Y-543070D01*
X-863600Y-541600D01*
Y-534280D01*
X-863130Y-532810D01*
X-862680Y-532170D01*
G03Y-518310I-9820J6930D01*
G01X-863130Y-517670D01*
X-863600Y-516200D01*
Y-508880D01*
X-863130Y-507410D01*
X-862680Y-506770D01*
G03Y-492910I-9820J6930D01*
G01X-863130Y-492270D01*
X-863600Y-490800D01*
Y-483480D01*
X-863130Y-482010D01*
X-862680Y-481370D01*
G03Y-467510I-9820J6930D01*
G01X-863130Y-466870D01*
X-863600Y-465400D01*
Y-458080D01*
X-863130Y-456610D01*
X-862680Y-455970D01*
G03X-862040Y-443120I-9820J6930D01*
G01X-862360Y-442550D01*
X-862690Y-441320D01*
Y-437870D01*
X-861940Y-437120D01*
G03X-860480Y-433590I-3540J3531D01*
G01Y-413830D01*
X-861220Y-413080D01*
G02X-862690Y-409550I3530J3541D01*
G01Y-405960D01*
X-862360Y-404730D01*
X-862040Y-404160D01*
G03X-862680Y-391310I-10460J5920D01*
G01X-863130Y-390670D01*
X-863600Y-389200D01*
Y-381880D01*
X-863130Y-380410D01*
X-862680Y-379770D01*
G03X-860610Y-371090I-9821J6929D01*
G01X-860660Y-370730D01*
Y-370360D01*
G02X-855660Y-365360I5000J0D01*
G01X-855540D01*
X-803200Y-313010D01*
G02X-797750Y-311930I3533J-3540D01*
G01X-796350Y-312510D01*
X-794670Y-315030D01*
Y-530610D01*
G02X-796130Y-534150I-5001J-8D01*
G01X-852600Y-590610D01*
G02X-855730Y-592060I-3537J3532D01*
G01X-859400Y-592360D01*
G02X-864790Y-587790I-408J4982D01*
G37*
G36*
G01X-370810Y305140D02*
G03X-367290Y303680I3531J3541D01*
G01X-362870D01*
G02X-359340Y302220I-1J-5000D01*
G01X-358630Y301510D01*
X-357870Y299680D01*
Y298680D01*
X-357780Y298590D01*
G03X-354250Y297130I3531J3540D01*
G01X-347400D01*
G02X-343870Y295670I-1J-5000D01*
G01X-343860Y295660D01*
G02X-342400Y292130I-3540J-3531D01*
G01Y171850D01*
G02X-392400Y121850I-50000J0D01*
G01X-642400D01*
G03X-692400Y71850I0J-50000D01*
G01Y-21670D01*
G02X-697400Y-26670I-5000J0D01*
G01X-697420D01*
X-699380Y-26270D01*
X-699400Y-26260D01*
G03X-701570Y-25680I-3004J-6890D01*
G01X-701580D01*
X-702430Y-25580D01*
X-703180Y-25220D01*
G02X-704570Y-24240I2144J4517D01*
G01X-709130Y-19670D01*
X-709510Y-16180D01*
X-708560Y-14700D01*
G03X-709070Y-5900I-6339J4047D01*
G01X-709660Y-5180D01*
X-710240Y-3420D01*
X-709860Y4220D01*
G02X-708400Y7500I4995J-258D01*
G01X-708130Y7770D01*
Y26090D01*
G02X-706670Y29620I5000J-1D01*
G01X-705210Y31080D01*
X-704130D01*
Y75120D01*
G03X-709130Y80120I-5000J0D01*
G01X-721670D01*
Y78890D01*
X-734440D01*
G03X-739440Y73890I0J-5000D01*
G01Y52620D01*
X-740670D01*
Y48070D01*
G03X-743870Y34400I-4230J-6219D01*
G01X-742710Y34560D01*
X-740480Y33810D01*
X-739210Y32540D01*
G03X-735680Y31080I3531J3540D01*
G01X-722670D01*
G02X-719140Y29620I-1J-5000D01*
G01X-719130Y29610D01*
G02X-717670Y26080I-3540J-3531D01*
G01Y20440D01*
G02X-722670Y15440I-5000J0D01*
G01X-723240D01*
X-723780Y15560D01*
G03X-725650Y15770I-1880J-8309D01*
G01X-731650D01*
G03X-737540Y13410I0J-8530D01*
G01X-738240Y12740D01*
X-740030Y12020D01*
X-751250D01*
G03X-759800Y9550I0J-16033D01*
G02X-764880Y9400I-2667J4231D01*
G01X-772550Y13630D01*
G02X-775130Y18010I2422J4376D01*
G01Y372810D01*
G02X-775080Y373510I5000J-5D01*
G02X-774150Y375780I4951J-703D01*
G02X-773660Y376350I4026J-2965D01*
G01X-769090Y380910D01*
G03X-767740Y383400I-3541J3531D01*
G01Y383420D01*
X-767590Y384130D01*
X-766900Y385390D01*
X-766610Y385680D01*
G02X-763080Y387140I3531J-3540D01*
G01X-762360D01*
X-759440Y390060D01*
Y394320D01*
G02X-757980Y397850I5000J-1D01*
G01X-757710Y398120D01*
X-755880Y398880D01*
X-738120D01*
G03X-733120Y403880I0J5000D01*
G01Y418920D01*
G03X-738120Y423920I-5000J0D01*
G01X-754880D01*
G02X-759880Y428920I0J5000D01*
G01Y431120D01*
G03X-763700Y435980I-5002J0D01*
G02X-766070Y437310I1170J4861D01*
G01X-766170Y437410D01*
G02X-767630Y440940I3540J3531D01*
G01Y560660D01*
G02X-767580Y561360I5000J-5D01*
G02X-766510Y563810I4951J-704D01*
G02X-766160Y564200I3891J-3140D01*
G01X-754840Y575520D01*
G02X-747770I3535J-3539D01*
G01X-747130Y574880D01*
X-746760Y574070D01*
G03X-746730Y574000I6008J2533D01*
G01X-746250Y572990D01*
Y567820D01*
X-746720Y566810D01*
G03X-745800Y559860I5909J-2754D01*
G01X-745300Y559270D01*
X-744710Y557820D01*
X-744580Y556260D01*
X-744950Y554740D01*
X-745350Y554080D01*
G03X-740810Y546060I4540J-2725D01*
G01X-738520D01*
G02X-734990Y544600I-1J-5000D01*
G01X-734980Y544590D01*
G02X-733520Y541060I-3540J-3531D01*
G01Y540420D01*
G02X-738520Y535420I-5000J0D01*
G01X-746290D01*
G03X-751290Y530420I0J-5000D01*
G01Y521340D01*
G03X-746290Y516340I5000J0D01*
G01X-738510D01*
G02X-734980Y514880I-1J-5000D01*
G01X-733710Y513610D01*
G02X-733540Y513430I-3549J-3522D01*
G01X-728590Y507960D01*
G02X-727320Y504140I-3706J-3353D01*
G01Y504100D01*
G03X-726460Y500660I5261J-512D01*
G01Y500640D01*
X-726450D01*
G02X-725640Y497630I-4182J-2739D01*
G01X-725940Y491660D01*
G02X-727090Y488730I-4994J270D01*
G03X-722060Y478060I5030J-4149D01*
G01X-717060D01*
G03X-711160Y481830I0J6502D01*
G01X-711150Y481840D01*
X-710820Y482540D01*
X-710300Y483100D01*
G02X-709110Y484070I3716J-3343D01*
G01X-704110Y486950D01*
G02X-702690Y487500I2496J-4336D01*
G01X-701810Y487690D01*
G03X-700560Y487560I1296J6387D01*
G01X-695560D01*
G03X-691020Y498760I0J6520D01*
G01X-691030Y498770D01*
G02X-692540Y502350I3490J3580D01*
G01Y508370D01*
G02X-691080Y511900I5000J-1D01*
G01X-689620Y513360D01*
X-688600D01*
Y539830D01*
G02X-687140Y543360I5000J-1D01*
G01X-687130Y543370D01*
G02X-683600Y544830I3531J-3540D01*
G01X-683140D01*
G02X-679610Y543370I-1J-5000D01*
G01X-679600Y543360D01*
G02X-678140Y539830I-3540J-3531D01*
G01Y513360D01*
X-677790D01*
X-676960Y509380D01*
G03X-662200Y505540I8336J1753D01*
G01X-662190Y505550D01*
X-661470Y506370D01*
X-660490Y506820D01*
X-658930Y507160D01*
G02X-657880Y507270I1043J-4891D01*
G01X-657410D01*
X-655580Y506510D01*
X-654870Y505800D01*
G02X-653410Y502270I-3540J-3531D01*
G01Y495900D01*
G03X-646400Y486340I10024J0D01*
G01X-646390D01*
G02X-642910Y481570I-1521J-4764D01*
G01Y465530D01*
G03X-637910Y460530I5000J0D01*
G01X-616440D01*
Y459300D01*
X-615970D01*
G02X-613460Y458620I-7J-4998D01*
G01X-613450D01*
G03X-608410Y457260I5040J8659D01*
G01X-602510D01*
G03X-600990Y457380I-26J10018D01*
G01X-600960D01*
G02X-596950Y456240I763J-4940D01*
G01X-596120Y455530D01*
X-595210Y453550D01*
Y430550D01*
G03X-590210Y425550I5000J0D01*
G01X-568740D01*
Y424320D01*
X-560210D01*
G02X-556680Y422860I-1J-5000D01*
G01X-556670Y422850D01*
G02X-555210Y419320I-3540J-3531D01*
G02X-558520Y414610I-5000J-4D01*
G03X-568370Y408370I8974J-25060D01*
G01X-571300Y405440D01*
G02X-585000Y399770I-13700J13716D01*
G01X-637940D01*
G02X-646630Y403370I5J12301D01*
G03X-677520Y416170I-30896J-30888D01*
G01X-698620D01*
G02X-703620Y421170I0J5000D01*
G01X-704910Y422460D01*
G03X-708440Y423920I-3531J-3540D01*
G01X-717660D01*
G03X-722660Y418920I0J-5000D01*
G01Y403880D01*
G03X-717660Y398880I5000J0D01*
G01X-708620D01*
G03X-703760Y402700I0J5002D01*
G02X-702430Y405070I4861J-1170D01*
G01X-702330Y405170D01*
G02X-698800Y406630I3531J-3540D01*
G01X-677510D01*
G02X-653370Y396630I-6J-34151D01*
G03X-637930Y390230I15446J15439D01*
G01X-585000D01*
G03X-564560Y398700I0J28898D01*
G01X-561630Y401630D01*
G02X-549560Y406630I12075J-12081D01*
G01X-549090D01*
G02X-545560Y405170I-1J-5000D01*
G01X-545550Y405160D01*
G02X-544090Y401630I-3540J-3531D01*
G01Y379980D01*
G03X-539090Y374980I5000J0D01*
G01X-529050D01*
G03X-524050Y379980I0J5000D01*
G01Y426280D01*
G02X-522590Y429810I5000J-1D01*
G01X-522580Y429820D01*
G02X-519050Y431280I3531J-3540D01*
G01X-503090D01*
G02X-499560Y429820I-1J-5000D01*
G01X-499550Y429810D01*
G02X-498090Y426280I-3540J-3531D01*
G01Y401640D01*
G03X-496630Y398110I5001J1D01*
G01X-480460Y381940D01*
G03X-476930Y380480I3531J3541D01*
G01X-466090D01*
G02X-462560Y379020I-1J-5000D01*
G01X-462550Y379010D01*
G02X-461090Y375480I-3540J-3531D01*
G01Y374980D01*
X-446050D01*
G03X-441050Y379900I0J5001D01*
G02X-436050Y384820I4999J-80D01*
G01X-421250D01*
G03X-416250Y389820I0J5000D01*
G01Y402590D01*
X-415020D01*
Y415130D01*
G03X-417650Y419530I-4996J0D01*
G01X-417660D01*
X-418860Y420190D01*
X-420270Y422550D01*
Y469460D01*
G02X-419470Y472170I5000J-3D01*
G03Y480330I-6320J4080D01*
G02X-420270Y483040I4200J2713D01*
G01Y493740D01*
G02X-418810Y497270I5000J-1D01*
G01X-418800Y497280D01*
G02X-415270Y498740I3531J-3540D01*
G01X-414430D01*
Y517960D01*
G02X-411350Y522580I5001J3D01*
G01X-409940Y523160D01*
X-406970Y522570D01*
X-393870Y509480D01*
G02X-393520Y509090I-3541J-3530D01*
G02X-392400Y505930I-3881J-3154D01*
G01Y328810D01*
G03X-390940Y325270I5001J-9D01*
G01X-370810Y305140D01*
G37*
G36*
G01X-706480Y628590D02*
Y628030D01*
G02X-711480Y623030I-5000J0D01*
G01X-714230D01*
G03X-719230Y618030I0J-5000D01*
G01Y598890D01*
X-722150Y595970D01*
X-723550D01*
Y596710D01*
X-745580D01*
X-747310Y594980D01*
X-749140Y594220D01*
X-749630D01*
X-775710Y568140D01*
G03X-777170Y564610I3540J-3531D01*
G01Y441120D01*
G02X-782170Y436120I-5000J0D01*
G01X-784920Y433370D01*
Y421170D01*
G02X-789920Y416170I-5000J0D01*
G01X-790130D01*
G02X-795130Y421170I0J5000D01*
G01Y608830D01*
G02X-793670Y612360I5000J-1D01*
G01X-772960Y633070D01*
G02X-769430Y634530I3531J-3540D01*
G01X-709800D01*
X-706950Y631950D01*
X-706750Y630050D01*
G03X-706600Y629140I7481J766D01*
G01X-706480Y628590D01*
G37*
G36*
G01X-702400Y-650270D02*
G02X-698860Y-651730I8J-5002D01*
G01X-693860Y-656730D01*
G02X-692400Y-660270I-3542J-3532D01*
G01Y-732870D01*
G02X-697400Y-737870I-5000J0D01*
G01X-698440D01*
X-699400Y-737460D01*
G03X-701580Y-736880I-3001J-6892D01*
G01X-702430Y-736780D01*
X-703960Y-736050D01*
X-709130Y-730870D01*
X-709510Y-727390D01*
X-708560Y-725900D01*
G03X-711620Y-715080I-6338J4050D01*
G01X-712320Y-714740D01*
X-713440Y-713680D01*
X-716980Y-707230D01*
X-717280Y-705710D01*
X-717190Y-704930D01*
G03X-725650Y-695430I-8460J983D01*
G01X-731650D01*
G03X-734280Y-695850I12J-8518D01*
G01X-735030Y-696090D01*
X-735820D01*
G02X-740820Y-691090I0J5000D01*
G01Y-666010D01*
G02X-735820Y-661010I5000J0D01*
G01X-735030D01*
X-734280Y-661250D01*
G03X-731650Y-661670I2642J8098D01*
G01X-725650D01*
G03X-717610Y-655970I0J8520D01*
G01X-717280Y-655030D01*
X-715960Y-653560D01*
X-707800Y-649630D01*
X-705820Y-649520D01*
X-704880Y-649850D01*
G03X-702400Y-650270I2480J7112D01*
G37*
G36*
G01Y-548670D02*
G02X-698860Y-550130I8J-5002D01*
G01X-693860Y-555130D01*
G02X-692400Y-558670I-3542J-3532D01*
G01Y-631270D01*
G02X-697400Y-636270I-5000J0D01*
G01X-698440D01*
X-699400Y-635860D01*
G03X-701580Y-635280I-3001J-6892D01*
G01X-702430Y-635180D01*
X-703960Y-634450D01*
X-709130Y-629270D01*
X-709510Y-625790D01*
X-708560Y-624300D01*
G03X-711620Y-613480I-6338J4050D01*
G01X-712320Y-613140D01*
X-713440Y-612080D01*
X-716980Y-605630D01*
X-717280Y-604110D01*
X-717190Y-603330D01*
G03X-725650Y-593830I-8460J983D01*
G01X-731650D01*
G03X-734280Y-594250I12J-8518D01*
G01X-735030Y-594490D01*
X-735820D01*
G02X-740820Y-589490I0J5000D01*
G01Y-564410D01*
G02X-735820Y-559410I5000J0D01*
G01X-735030D01*
X-734280Y-559650D01*
G03X-731650Y-560070I2642J8098D01*
G01X-725650D01*
G03X-717610Y-554370I0J8520D01*
G01X-717280Y-553430D01*
X-715960Y-551960D01*
X-707800Y-548030D01*
X-705820Y-547920D01*
X-704880Y-548250D01*
G03X-702400Y-548670I2480J7112D01*
G37*
G36*
G01Y-447070D02*
G02X-698860Y-448530I8J-5002D01*
G01X-693860Y-453530D01*
G02X-692400Y-457070I-3542J-3532D01*
G01Y-529670D01*
G02X-697400Y-534670I-5000J0D01*
G01X-698440D01*
X-699400Y-534260D01*
G03X-701580Y-533680I-3001J-6892D01*
G01X-702430Y-533580D01*
X-703960Y-532850D01*
X-709130Y-527670D01*
X-709510Y-524190D01*
X-708560Y-522700D01*
G03X-711620Y-511880I-6338J4050D01*
G01X-712320Y-511540D01*
X-713440Y-510480D01*
X-716980Y-504030D01*
X-717280Y-502510D01*
X-717190Y-501730D01*
G03X-725650Y-492230I-8460J983D01*
G01X-731650D01*
G03X-734280Y-492650I12J-8518D01*
G01X-735030Y-492890D01*
X-735820D01*
G02X-740820Y-487890I0J5000D01*
G01Y-462810D01*
G02X-735820Y-457810I5000J0D01*
G01X-735030D01*
X-734280Y-458050D01*
G03X-731650Y-458470I2642J8098D01*
G01X-725650D01*
G03X-717610Y-452770I0J8520D01*
G01X-717280Y-451830D01*
X-715960Y-450360D01*
X-707800Y-446430D01*
X-705820Y-446320D01*
X-704880Y-446650D01*
G03X-702400Y-447070I2480J7112D01*
G37*
G36*
G01Y-345470D02*
G02X-698860Y-346930I8J-5002D01*
G01X-693860Y-351930D01*
G02X-692400Y-355470I-3542J-3532D01*
G01Y-428070D01*
G02X-697400Y-433070I-5000J0D01*
G01X-698440D01*
X-699400Y-432660D01*
G03X-701580Y-432080I-3001J-6892D01*
G01X-702430Y-431980D01*
X-703960Y-431250D01*
X-709130Y-426070D01*
X-709510Y-422590D01*
X-708560Y-421100D01*
G03X-711620Y-410280I-6338J4050D01*
G01X-712320Y-409940D01*
X-713440Y-408880D01*
X-716980Y-402430D01*
X-717280Y-400910D01*
X-717190Y-400130D01*
G03X-725650Y-390630I-8460J983D01*
G01X-731650D01*
G03X-734280Y-391050I12J-8518D01*
G01X-735030Y-391290D01*
X-735820D01*
G02X-740820Y-386290I0J5000D01*
G01Y-361210D01*
G02X-735820Y-356210I5000J0D01*
G01X-735030D01*
X-734280Y-356450D01*
G03X-731650Y-356870I2642J8098D01*
G01X-725650D01*
G03X-717610Y-351170I0J8520D01*
G01X-717280Y-350230D01*
X-715960Y-348760D01*
X-707800Y-344830D01*
X-705820Y-344720D01*
X-704880Y-345050D01*
G03X-702400Y-345470I2480J7112D01*
G37*
G36*
G01Y-243870D02*
G02X-698860Y-245330I8J-5002D01*
G01X-693860Y-250330D01*
G02X-692400Y-253870I-3542J-3532D01*
G01Y-326470D01*
G02X-697400Y-331470I-5000J0D01*
G01X-698440D01*
X-699400Y-331060D01*
G03X-701580Y-330480I-3001J-6892D01*
G01X-702430Y-330380D01*
X-703960Y-329650D01*
X-709130Y-324470D01*
X-709510Y-320990D01*
X-708560Y-319500D01*
G03X-711620Y-308680I-6338J4050D01*
G01X-712320Y-308340D01*
X-713440Y-307280D01*
X-716980Y-300830D01*
X-717280Y-299310D01*
X-717190Y-298530D01*
G03X-725650Y-289030I-8460J983D01*
G01X-731650D01*
G03X-734280Y-289450I12J-8518D01*
G01X-735030Y-289690D01*
X-735820D01*
G02X-740820Y-284690I0J5000D01*
G01Y-259610D01*
G02X-735820Y-254610I5000J0D01*
G01X-735030D01*
X-734280Y-254850D01*
G03X-731650Y-255270I2642J8098D01*
G01X-725650D01*
G03X-717610Y-249570I0J8520D01*
G01X-717280Y-248630D01*
X-715960Y-247160D01*
X-707800Y-243230D01*
X-705820Y-243120D01*
X-704880Y-243450D01*
G03X-702400Y-243870I2480J7112D01*
G37*
G36*
G01Y-142270D02*
G02X-698860Y-143730I8J-5002D01*
G01X-693860Y-148730D01*
G02X-692400Y-152270I-3542J-3532D01*
G01Y-224870D01*
G02X-697400Y-229870I-5000J0D01*
G01X-698440D01*
X-699400Y-229460D01*
G03X-701580Y-228880I-3001J-6892D01*
G01X-702430Y-228780D01*
X-703960Y-228050D01*
X-709130Y-222870D01*
X-709510Y-219390D01*
X-708560Y-217900D01*
G03X-711620Y-207080I-6338J4050D01*
G01X-712320Y-206740D01*
X-713440Y-205680D01*
X-716980Y-199230D01*
X-717280Y-197710D01*
X-717190Y-196930D01*
G03X-725650Y-187430I-8460J983D01*
G01X-731650D01*
G03X-734280Y-187850I12J-8518D01*
G01X-735030Y-188090D01*
X-735820D01*
G02X-740820Y-183090I0J5000D01*
G01Y-158010D01*
G02X-735820Y-153010I5000J0D01*
G01X-735030D01*
X-734280Y-153250D01*
G03X-731650Y-153670I2642J8098D01*
G01X-725650D01*
G03X-717610Y-147970I0J8520D01*
G01X-717280Y-147030D01*
X-715960Y-145560D01*
X-707800Y-141630D01*
X-705820Y-141520D01*
X-704880Y-141850D01*
G03X-702400Y-142270I2480J7112D01*
G37*
G36*
G01Y-40670D02*
G02X-698860Y-42130I8J-5002D01*
G01X-693860Y-47130D01*
G02X-692400Y-50670I-3542J-3532D01*
G01Y-123270D01*
G02X-697400Y-128270I-5000J0D01*
G01X-698440D01*
X-699400Y-127860D01*
G03X-701580Y-127280I-3001J-6892D01*
G01X-702430Y-127180D01*
X-703960Y-126450D01*
X-709130Y-121270D01*
X-709510Y-117790D01*
X-708560Y-116300D01*
G03X-711620Y-105480I-6338J4050D01*
G01X-712320Y-105140D01*
X-713440Y-104080D01*
X-716980Y-97630D01*
X-717280Y-96110D01*
X-717190Y-95330D01*
G03X-725650Y-85830I-8460J983D01*
G01X-731650D01*
G03X-734280Y-86250I12J-8518D01*
G01X-735030Y-86490D01*
X-735820D01*
G02X-740820Y-81490I0J5000D01*
G01Y-56410D01*
G02X-735820Y-51410I5000J0D01*
G01X-735030D01*
X-734280Y-51650D01*
G03X-731650Y-52070I2642J8098D01*
G01X-725650D01*
G03X-717610Y-46370I0J8520D01*
G01X-717280Y-45430D01*
X-715960Y-43960D01*
X-707800Y-40030D01*
X-705820Y-39920D01*
X-704880Y-40250D01*
G03X-702400Y-40670I2480J7112D01*
G37*
G36*
G01X-598510Y482110D02*
X-612410D01*
G02X-613410Y483110I0J1000D01*
G01Y485900D01*
G03X-618410Y490900I-5000J0D01*
G01X-643390D01*
G02X-648390Y495900I0J5000D01*
G01Y555860D01*
G02X-643390Y560860I5000J0D01*
G01X-602510D01*
G02X-597510Y555860I0J-5000D01*
G01Y537240D01*
G03X-592510Y532240I5000J0D01*
G01X-582190D01*
G02X-581190Y531240I0J-1000D01*
G01Y520520D01*
G02X-582190Y519520I-1000J0D01*
G01X-592510D01*
G03X-597510Y514520I0J-5000D01*
G01Y483110D01*
G02X-598510Y482110I-1000J0D01*
G37*
G36*
G01X-524050Y447320D02*
Y447820D01*
X-524450D01*
Y453900D01*
X-523570Y455860D01*
X-522750Y456570D01*
G03X-520820Y458880I-6638J7507D01*
G01X-520130Y460000D01*
X-517870Y461270D01*
X-511550D01*
Y460530D01*
X-499970D01*
G03X-494970Y465530I0J5000D01*
G01Y480880D01*
G02X-489970Y485880I5000J0D01*
G01X-468950D01*
G03X-459030Y494460I0J10025D01*
G01X-458480Y498260D01*
G03X-458430Y498980I-4951J706D01*
G01Y526850D01*
G03X-458760Y528630I-4999J-6D01*
G01X-459580Y530800D01*
G03X-459810Y531340I-9330J-3655D01*
G02X-460180Y534200I4563J2044D01*
G01X-459660Y537400D01*
G02X-458400Y539990I4935J-799D01*
G03X-455750Y546780I-7374J6790D01*
G01Y562220D01*
G03X-465770Y572240I-10020J0D01*
G01X-468490D01*
X-468560D01*
X-472120Y575770D01*
G02X-473600Y579320I3520J3551D01*
G01Y585260D01*
G03X-478600Y590260I-5000J0D01*
G01X-500180D01*
G03X-505180Y585260I0J-5000D01*
G01Y584000D01*
X-508100Y581080D01*
X-528910D01*
G03X-533910Y576080I0J-5000D01*
G01Y570880D01*
G02X-538910Y565880I-5000J0D01*
G01X-576610D01*
G03X-583090Y563500I0J-10012D01*
G01X-583770Y562920D01*
X-585430Y562310D01*
X-593690D01*
X-595350Y562920D01*
X-596030Y563500D01*
G03X-602510Y565880I-6480J-7632D01*
G01X-642580D01*
G02X-647200Y568970I0J4999D01*
G01X-647780Y570360D01*
X-647190Y573330D01*
X-609410Y611120D01*
G02X-605870Y612580I3532J-3542D01*
G01X-489160D01*
G03X-485630Y614040I-1J5001D01*
G01X-476610Y623070D01*
G02X-473070Y624530I3532J-3542D01*
G01X-446110D01*
X-445250Y624200D01*
G03X-444970Y624100I2248J5852D01*
G01X-443430Y623590D01*
X-441540Y620970D01*
Y618490D01*
G02X-446540Y613490I-5000J0D01*
G01X-463010D01*
G03X-468010Y608490I0J-5000D01*
G01Y595910D01*
G03X-463010Y590910I5000J0D01*
G01X-441540D01*
Y589680D01*
X-440660D01*
G02X-437120Y588220I8J-5002D01*
G01X-433030Y584130D01*
G02X-431570Y580590I-3542J-3532D01*
G01Y532580D01*
G02X-436570Y527580I-5000J0D01*
G01X-437670D01*
Y503740D01*
G03X-432670Y498740I5000J0D01*
G01X-431310D01*
Y482320D01*
X-431720Y480930D01*
X-432110Y480330D01*
G03Y472170I6320J-4080D01*
G01X-431720Y471570D01*
X-431310Y470180D01*
Y452820D01*
G02X-436310Y447820I-5000J0D01*
G01X-456090D01*
G03X-461090Y442820I0J-5000D01*
G01Y442320D01*
X-519050D01*
G02X-524050Y447320I0J5000D01*
G37*
G36*
G01X-541050Y460060D02*
X-541230D01*
X-541560Y460180D01*
X-541700Y460300D01*
G02X-543450Y464100I3251J3800D01*
G01Y485900D01*
G03X-548450Y490900I-5000J0D01*
G01X-576610D01*
G02X-580130Y492350I0J4998D01*
G01X-580280Y492500D01*
X-580430Y492850D01*
Y493060D01*
G02X-579430Y494060I1000J0D01*
G01X-559610D01*
G03X-558610Y495060I0J1000D01*
G01Y512160D01*
G02X-557610Y513160I1000J0D01*
G01X-540440D01*
G02X-539440Y512160I0J-1000D01*
G01Y492560D01*
G03X-538440Y491560I1000J0D01*
G01X-525370D01*
G02X-524370Y490560I0J-1000D01*
G01Y483110D01*
G02X-525370Y482110I-1000J0D01*
G01X-539050D01*
G03X-540050Y481110I0J-1000D01*
G01Y461060D01*
G02X-541050Y460060I-1000J0D01*
G37*
G36*
G01X-468950Y490900D02*
X-494360D01*
G02X-495360Y491900I0J1000D01*
G01Y511140D01*
G03X-496360Y512140I-1000J0D01*
G01X-507470D01*
G02X-508470Y513140I0J1000D01*
G01Y514520D01*
G03X-513470Y519520I-5000J0D01*
G01X-557610D01*
G02X-558610Y520520I0J1000D01*
G01Y531240D01*
G02X-557610Y532240I1000J0D01*
G01X-468950D01*
G02X-463950Y527240I0J-5000D01*
G01Y526350D01*
G02X-464950Y525350I-1000J0D01*
G01X-478440D01*
G03X-479440Y524350I0J-1000D01*
G01Y501970D01*
G03X-478440Y500970I1000J0D01*
G01X-464950D01*
G02X-463950Y499970I0J-1000D01*
G01Y495900D01*
G02X-468950Y490900I-5000J0D01*
G37*
G36*
G01X-558610Y542780D02*
Y556640D01*
G03X-559610Y557640I-1000J0D01*
G01X-579490D01*
G02X-580490Y558640I0J1000D01*
G01Y558840D01*
X-580350Y559190D01*
X-580210Y559330D01*
G02X-576610Y560860I3600J-3470D01*
G01X-533910D01*
G02X-532910Y559860I0J-1000D01*
G01Y549000D01*
G03X-531910Y548000I1000J0D01*
G01X-516830D01*
G03X-515830Y549000I0J1000D01*
G01Y559860D01*
G02X-514830Y560860I1000J0D01*
G01X-505180D01*
G02X-504180Y559860I0J-1000D01*
G01Y546180D01*
G03X-503180Y545180I1000J0D01*
G01X-475600D01*
G03X-474600Y546180I0J1000D01*
G01Y559860D01*
G02X-473600Y560860I1000J0D01*
G01X-473490D01*
Y562220D01*
G02X-468490Y567220I5000J0D01*
G01X-465770D01*
G02X-460770Y562220I0J-5000D01*
G01Y546780D01*
G02X-465770Y541780I-5000J0D01*
G01X-557610D01*
G02X-558610Y542780I0J1000D01*
G37*
G36*
G01X-418700Y-757740D02*
G02X-423700Y-752740I0J5000D01*
G01Y-692740D01*
G02X-418700Y-687740I5000J0D01*
G01X-274700D01*
G02X-269700Y-692740I0J-5000D01*
G01Y-736740D01*
G02X-274700Y-741740I-5000J0D01*
G01X-282700D01*
G02X-287700Y-736740I0J5000D01*
G01Y-704740D01*
G03X-292700Y-699740I-5000J0D01*
G01X-362700D01*
G03X-367700Y-704740I0J-5000D01*
G01Y-742740D01*
G02X-372700Y-747740I-5000J0D01*
G01X-378700D01*
G03X-383700Y-752740I0J-5000D01*
G02X-388700Y-757740I-5000J0D01*
G01X-418700D01*
G37*
G36*
G01Y-656140D02*
G02X-423700Y-651140I0J5000D01*
G01Y-591140D01*
G02X-418700Y-586140I5000J0D01*
G01X-274700D01*
G02X-269700Y-591140I0J-5000D01*
G01Y-635140D01*
G02X-274700Y-640140I-5000J0D01*
G01X-282700D01*
G02X-287700Y-635140I0J5000D01*
G01Y-603140D01*
G03X-292700Y-598140I-5000J0D01*
G01X-362700D01*
G03X-367700Y-603140I0J-5000D01*
G01Y-641140D01*
G02X-372700Y-646140I-5000J0D01*
G01X-378700D01*
G03X-383700Y-651140I0J-5000D01*
G02X-388700Y-656140I-5000J0D01*
G01X-418700D01*
G37*
G36*
G01Y-554540D02*
G02X-423700Y-549540I0J5000D01*
G01Y-489540D01*
G02X-418700Y-484540I5000J0D01*
G01X-274700D01*
G02X-269700Y-489540I0J-5000D01*
G01Y-533540D01*
G02X-274700Y-538540I-5000J0D01*
G01X-282700D01*
G02X-287700Y-533540I0J5000D01*
G01Y-501540D01*
G03X-292700Y-496540I-5000J0D01*
G01X-362700D01*
G03X-367700Y-501540I0J-5000D01*
G01Y-539540D01*
G02X-372700Y-544540I-5000J0D01*
G01X-378700D01*
G03X-383700Y-549540I0J-5000D01*
G02X-388700Y-554540I-5000J0D01*
G01X-418700D01*
G37*
G36*
G01Y-452940D02*
G02X-423700Y-447940I0J5000D01*
G01Y-387940D01*
G02X-418700Y-382940I5000J0D01*
G01X-274700D01*
G02X-269700Y-387940I0J-5000D01*
G01Y-431940D01*
G02X-274700Y-436940I-5000J0D01*
G01X-282700D01*
G02X-287700Y-431940I0J5000D01*
G01Y-399940D01*
G03X-292700Y-394940I-5000J0D01*
G01X-362700D01*
G03X-367700Y-399940I0J-5000D01*
G01Y-437940D01*
G02X-372700Y-442940I-5000J0D01*
G01X-378700D01*
G03X-383700Y-447940I0J-5000D01*
G02X-388700Y-452940I-5000J0D01*
G01X-418700D01*
G37*
G36*
G01Y-351340D02*
G02X-423700Y-346340I0J5000D01*
G01Y-286340D01*
G02X-418700Y-281340I5000J0D01*
G01X-274700D01*
G02X-269700Y-286340I0J-5000D01*
G01Y-330340D01*
G02X-274700Y-335340I-5000J0D01*
G01X-282700D01*
G02X-287700Y-330340I0J5000D01*
G01Y-298340D01*
G03X-292700Y-293340I-5000J0D01*
G01X-362700D01*
G03X-367700Y-298340I0J-5000D01*
G01Y-336340D01*
G02X-372700Y-341340I-5000J0D01*
G01X-378700D01*
G03X-383700Y-346340I0J-5000D01*
G02X-388700Y-351340I-5000J0D01*
G01X-418700D01*
G37*
G36*
G01Y-249740D02*
G02X-423700Y-244740I0J5000D01*
G01Y-184740D01*
G02X-418700Y-179740I5000J0D01*
G01X-274700D01*
G02X-269700Y-184740I0J-5000D01*
G01Y-228740D01*
G02X-274700Y-233740I-5000J0D01*
G01X-282700D01*
G02X-287700Y-228740I0J5000D01*
G01Y-196740D01*
G03X-292700Y-191740I-5000J0D01*
G01X-362700D01*
G03X-367700Y-196740I0J-5000D01*
G01Y-234740D01*
G02X-372700Y-239740I-5000J0D01*
G01X-378700D01*
G03X-383700Y-244740I0J-5000D01*
G02X-388700Y-249740I-5000J0D01*
G01X-418700D01*
G37*
G36*
G01Y-148140D02*
G02X-423700Y-143140I0J5000D01*
G01Y-83140D01*
G02X-418700Y-78140I5000J0D01*
G01X-274700D01*
G02X-269700Y-83140I0J-5000D01*
G01Y-127140D01*
G02X-274700Y-132140I-5000J0D01*
G01X-282700D01*
G02X-287700Y-127140I0J5000D01*
G01Y-95140D01*
G03X-292700Y-90140I-5000J0D01*
G01X-362700D01*
G03X-367700Y-95140I0J-5000D01*
G01Y-133140D01*
G02X-372700Y-138140I-5000J0D01*
G01X-378700D01*
G03X-383700Y-143140I0J-5000D01*
G02X-388700Y-148140I-5000J0D01*
G01X-418700D01*
G37*
G36*
G01Y-46540D02*
G02X-423700Y-41540I0J5000D01*
G01Y18460D01*
G02X-418700Y23460I5000J0D01*
G01X-274700D01*
G02X-269700Y18460I0J-5000D01*
G01Y-25540D01*
G02X-274700Y-30540I-5000J0D01*
G01X-282700D01*
G02X-287700Y-25540I0J5000D01*
G01Y6460D01*
G03X-292700Y11460I-5000J0D01*
G01X-362700D01*
G03X-367700Y6460I0J-5000D01*
G01Y-31540D01*
G02X-372700Y-36540I-5000J0D01*
G01X-378700D01*
G03X-383700Y-41540I0J-5000D01*
G02X-388700Y-46540I-5000J0D01*
G01X-418700D01*
G37*
G36*
G01X-404510Y705770D02*
X-376690Y733590D01*
G03X-375230Y737130I-3541J3531D01*
G01Y799770D01*
G02X-373770Y803310I5001J8D01*
G01X-366400Y810680D01*
G02X-360950Y811760I3533J-3540D01*
G01X-359550Y811180D01*
X-357870Y808660D01*
Y808050D01*
X-354950Y805130D01*
X-347400D01*
G02X-342400Y800130I0J-5000D01*
G01Y785240D01*
G02X-343710Y781870I-4999J3D01*
G01X-345760Y779610D01*
G02X-348400Y778100I-3685J3380D01*
G03Y754600I2550J-11750D01*
G02X-345760Y753090I-1045J-4890D01*
G01X-343710Y750830D01*
G02X-342400Y747460I-3689J-3373D01*
G01Y732570D01*
G02X-347400Y727570I-5000J0D01*
G01X-352870D01*
G03X-357870Y722570I0J-5000D01*
G01X-360120Y720320D01*
X-363230D01*
G03X-366770Y718860I-9J-5001D01*
G01X-385840Y699780D01*
G02X-389380Y698320I-3532J3541D01*
G01X-399900D01*
G02X-404520Y701410I0J4999D01*
G01X-405100Y702800D01*
X-404510Y705770D01*
G37*
G36*
G01X-395580Y738740D02*
Y890720D01*
G02X-394120Y894260I5001J8D01*
G01X-375860Y912520D01*
G02X-372320Y913980I3532J-3541D01*
G01X-362870D01*
G02X-357870Y908980I0J-5000D01*
G01X-355620Y906730D01*
X-347400D01*
G02X-342400Y901730I0J-5000D01*
G01Y886840D01*
G02X-343710Y883470I-4999J3D01*
G01X-345760Y881210D01*
G02X-348400Y879700I-3685J3380D01*
G03Y856200I2550J-11750D01*
G02X-345760Y854690I-1045J-4890D01*
G01X-343710Y852430D01*
G02X-342400Y849060I-3689J-3373D01*
G01Y834170D01*
G02X-347400Y829170I-5000J0D01*
G01X-352870D01*
G03X-357870Y824170I0J-5000D01*
G01X-360120Y821920D01*
X-366570D01*
G03X-370110Y820460I-9J-5001D01*
G01X-383310Y807260D01*
G03X-384770Y803720I3541J-3531D01*
G01Y741080D01*
G02X-386230Y737540I-5001J-8D01*
G01X-387050Y736720D01*
G02X-392500Y735640I-3533J3540D01*
G01X-393900Y736220D01*
X-395580Y738740D01*
G37*
G36*
G01X-411630Y900780D02*
Y995500D01*
G02X-410170Y999040I5001J8D01*
G01X-394990Y1014220D01*
G02X-391450Y1015680I3532J-3541D01*
G01X-362870D01*
G02X-357870Y1010680I0J-5000D01*
G01X-355520Y1008330D01*
X-347400D01*
G02X-342400Y1003330I0J-5000D01*
G01Y988440D01*
G02X-343710Y985070I-4999J3D01*
G01X-345760Y982810D01*
G02X-348400Y981300I-3685J3380D01*
G03Y957800I2550J-11750D01*
G02X-345760Y956290I-1045J-4890D01*
G01X-343710Y954030D01*
G02X-342400Y950660I-3689J-3373D01*
G01Y935770D01*
G02X-347400Y930770I-5000J0D01*
G01X-352870D01*
G03X-357870Y925770I0J-5000D01*
G01X-360120Y923520D01*
X-376270D01*
G03X-379810Y922060I-9J-5001D01*
G01X-403100Y898760D01*
G02X-408550Y897680I-3533J3540D01*
G01X-409950Y898260D01*
X-411630Y900780D01*
G37*
G36*
G01X-14290Y-751490D02*
Y-772200D01*
G02X-15290Y-773200I-1000J0D01*
G01X-329000Y-773230D01*
G02X-334000Y-768210I27J5026D01*
G01Y-752200D01*
G03X-339000Y-747200I-5000J0D01*
G01X-345000D01*
G02X-350000Y-742200I0J5000D01*
G01Y-720200D01*
G02X-345000Y-715200I5000J0D01*
G01X-307000D01*
G02X-302000Y-720200I0J-5000D01*
G01Y-752210D01*
G03X-297000Y-757200I4997J7D01*
G01X-21000Y-757070D01*
G03X-20000Y-756070I0J1000D01*
G01Y-754200D01*
G02X-17150Y-749690I4993J0D01*
G02X-16190Y-749740I434J-899D01*
G01X-14760Y-750650D01*
G02X-14290Y-751490I-528J-847D01*
G37*
G36*
G01X-10500Y-650700D02*
X-10700Y-650930D01*
G03X-11790Y-668470I10701J-9469D01*
G01X-11630Y-668710D01*
X-11600Y-669250D01*
X-12560Y-671070D01*
G02X-13440Y-671600I-882J469D01*
G01X-329000Y-671630D01*
G02X-334000Y-666610I27J5026D01*
G01Y-650600D01*
G03X-339000Y-645600I-5000J0D01*
G01X-345000D01*
G02X-350000Y-640600I0J5000D01*
G01Y-618600D01*
G02X-345000Y-613600I5000J0D01*
G01X-307000D01*
G02X-302000Y-618600I0J-5000D01*
G01Y-650610D01*
G03X-297000Y-655600I4997J7D01*
G01X-21000Y-655470D01*
G03X-20000Y-654470I0J1000D01*
G01Y-652600D01*
G02X-15000Y-647600I5000J0D01*
G01X-12190D01*
G02X-11280Y-648190I-3J-1001D01*
G01X-10410Y-650120D01*
X-10500Y-650700D01*
G37*
G36*
G01Y-549100D02*
X-10700Y-549330D01*
G03X-11790Y-566870I10701J-9469D01*
G01X-11630Y-567110D01*
X-11600Y-567650D01*
X-12560Y-569470D01*
G02X-13440Y-570000I-882J469D01*
G01X-329000Y-570030D01*
G02X-334000Y-565010I27J5026D01*
G01Y-549000D01*
G03X-339000Y-544000I-5000J0D01*
G01X-345000D01*
G02X-350000Y-539000I0J5000D01*
G01Y-517000D01*
G02X-345000Y-512000I5000J0D01*
G01X-307000D01*
G02X-302000Y-517000I0J-5000D01*
G01Y-549010D01*
G03X-297000Y-554000I4997J7D01*
G01X-21000Y-553870D01*
G03X-20000Y-552870I0J1000D01*
G01Y-551000D01*
G02X-15000Y-546000I5000J0D01*
G01X-12190D01*
G02X-11280Y-546590I-3J-1001D01*
G01X-10410Y-548520D01*
X-10500Y-549100D01*
G37*
G36*
G01Y-447500D02*
X-10700Y-447730D01*
G03X-11790Y-465270I10701J-9469D01*
G01X-11630Y-465510D01*
X-11600Y-466050D01*
X-12560Y-467870D01*
G02X-13440Y-468400I-882J469D01*
G01X-329000Y-468430D01*
G02X-334000Y-463410I27J5026D01*
G01Y-447400D01*
G03X-339000Y-442400I-5000J0D01*
G01X-345000D01*
G02X-350000Y-437400I0J5000D01*
G01Y-415400D01*
G02X-345000Y-410400I5000J0D01*
G01X-307000D01*
G02X-302000Y-415400I0J-5000D01*
G01Y-447410D01*
G03X-297000Y-452400I4997J7D01*
G01X-21000Y-452270D01*
G03X-20000Y-451270I0J1000D01*
G01Y-449400D01*
G02X-15000Y-444400I5000J0D01*
G01X-12190D01*
G02X-11280Y-444990I-3J-1001D01*
G01X-10410Y-446920D01*
X-10500Y-447500D01*
G37*
G36*
G01Y-345900D02*
X-10700Y-346130D01*
G03X-11790Y-363670I10701J-9469D01*
G01X-11630Y-363910D01*
X-11600Y-364450D01*
X-12560Y-366270D01*
G02X-13440Y-366800I-882J469D01*
G01X-329000Y-366830D01*
G02X-334000Y-361810I27J5026D01*
G01Y-345800D01*
G03X-339000Y-340800I-5000J0D01*
G01X-345000D01*
G02X-350000Y-335800I0J5000D01*
G01Y-313800D01*
G02X-345000Y-308800I5000J0D01*
G01X-307000D01*
G02X-302000Y-313800I0J-5000D01*
G01Y-345810D01*
G03X-297000Y-350800I4997J7D01*
G01X-21000Y-350670D01*
G03X-20000Y-349670I0J1000D01*
G01Y-347800D01*
G02X-15000Y-342800I5000J0D01*
G01X-12190D01*
G02X-11280Y-343390I-3J-1001D01*
G01X-10410Y-345320D01*
X-10500Y-345900D01*
G37*
G36*
G01Y-244300D02*
X-10700Y-244530D01*
G03X-11790Y-262070I10701J-9469D01*
G01X-11630Y-262310D01*
X-11600Y-262850D01*
X-12560Y-264670D01*
G02X-13440Y-265200I-882J469D01*
G01X-329000Y-265230D01*
G02X-334000Y-260210I27J5026D01*
G01Y-244200D01*
G03X-339000Y-239200I-5000J0D01*
G01X-345000D01*
G02X-350000Y-234200I0J5000D01*
G01Y-212200D01*
G02X-345000Y-207200I5000J0D01*
G01X-307000D01*
G02X-302000Y-212200I0J-5000D01*
G01Y-244210D01*
G03X-297000Y-249200I4997J7D01*
G01X-21000Y-249070D01*
G03X-20000Y-248070I0J1000D01*
G01Y-246200D01*
G02X-15000Y-241200I5000J0D01*
G01X-12190D01*
G02X-11280Y-241790I-3J-1001D01*
G01X-10410Y-243720D01*
X-10500Y-244300D01*
G37*
G36*
G01Y-142700D02*
X-10700Y-142930D01*
G03X-11790Y-160470I10701J-9469D01*
G01X-11630Y-160710D01*
X-11600Y-161250D01*
X-12560Y-163070D01*
G02X-13440Y-163600I-882J469D01*
G01X-329000Y-163630D01*
G02X-334000Y-158610I27J5026D01*
G01Y-142600D01*
G03X-339000Y-137600I-5000J0D01*
G01X-345000D01*
G02X-350000Y-132600I0J5000D01*
G01Y-110600D01*
G02X-345000Y-105600I5000J0D01*
G01X-307000D01*
G02X-302000Y-110600I0J-5000D01*
G01Y-142610D01*
G03X-297000Y-147600I4997J7D01*
G01X-21000Y-147470D01*
G03X-20000Y-146470I0J1000D01*
G01Y-144600D01*
G02X-15000Y-139600I5000J0D01*
G01X-12190D01*
G02X-11280Y-140190I-3J-1001D01*
G01X-10410Y-142120D01*
X-10500Y-142700D01*
G37*
G36*
G01Y-41100D02*
X-10700Y-41330D01*
G03X-11790Y-58870I10701J-9469D01*
G01X-11630Y-59110D01*
X-11600Y-59650D01*
X-12560Y-61470D01*
G02X-13440Y-62000I-882J469D01*
G01X-329000Y-62030D01*
G02X-334000Y-57010I27J5026D01*
G01Y-41000D01*
G03X-339000Y-36000I-5000J0D01*
G01X-345000D01*
G02X-350000Y-31000I0J5000D01*
G01Y-9000D01*
G02X-345000Y-4000I5000J0D01*
G01X-307000D01*
G02X-302000Y-9000I0J-5000D01*
G01Y-41010D01*
G03X-297000Y-46000I4997J7D01*
G01X-21000Y-45870D01*
G03X-20000Y-44870I0J1000D01*
G01Y-43000D01*
G02X-15000Y-38000I5000J0D01*
G01X-12190D01*
G02X-11280Y-38590I-3J-1001D01*
G01X-10410Y-40520D01*
X-10500Y-41100D01*
G37*
G36*
G01X-366860Y314680D02*
X-381400Y329220D01*
G02X-382860Y332760I3541J3532D01*
G01Y410090D01*
G02X-379770Y414710I4999J0D01*
G01X-378380Y415290D01*
X-375410Y414700D01*
X-367930Y407220D01*
G03X-364390Y405760I3531J3541D01*
G01X-362870D01*
G02X-357870Y400760I0J-5000D01*
G01X-355840Y398730D01*
X-347400D01*
G02X-342400Y393730I0J-5000D01*
G01Y378840D01*
G02X-343710Y375470I-4999J3D01*
G01X-345760Y373210D01*
G02X-348400Y371700I-3685J3380D01*
G03Y348200I2550J-11750D01*
G02X-345760Y346690I-1045J-4890D01*
G01X-343710Y344430D01*
G02X-342400Y341060I-3689J-3373D01*
G01Y326170D01*
G02X-347400Y321170I-5000J0D01*
G01X-352870D01*
G03X-357870Y316170I0J-5000D01*
G01Y316140D01*
X-360790Y313220D01*
X-363320D01*
G02X-366860Y314680I-8J5001D01*
G37*
G36*
G01X-366400Y520920D02*
X-375040Y529560D01*
G02X-376500Y533100I3541J3532D01*
G01Y610430D01*
G02X-373410Y615050I4999J0D01*
G01X-372020Y615630D01*
X-369050Y615040D01*
X-364650Y610640D01*
G03X-361110Y609180I3531J3541D01*
G01X-360790D01*
X-357870Y606260D01*
Y604850D01*
X-354950Y601930D01*
X-347400D01*
G02X-342400Y596930I0J-5000D01*
G01Y582040D01*
G02X-343710Y578670I-4999J3D01*
G01X-345760Y576410D01*
G02X-348400Y574900I-3685J3380D01*
G03Y551400I2550J-11750D01*
G02X-345760Y549890I-1045J-4890D01*
G01X-343710Y547630D01*
G02X-342400Y544260I-3689J-3373D01*
G01Y529370D01*
G02X-347400Y524370I-5000J0D01*
G01X-354950D01*
X-357870Y521450D01*
Y521120D01*
X-360950Y519840D01*
G02X-366400Y520920I-1917J4620D01*
G37*
G36*
G01X-155390Y-741460D02*
G02X-160390Y-736460I0J5000D01*
G01Y-710460D01*
G03X-165390Y-705460I-5000J0D01*
G01X-255390D01*
G02X-260390Y-700460I0J5000D01*
G01Y-692460D01*
G02X-255390Y-687460I5000J0D01*
G01X-101390D01*
G02X-96390Y-692460I0J-5000D01*
G03X-91390Y-697460I5000J0D01*
G01X-11290D01*
G02X-10360Y-698090I0J-1001D01*
G01X-9550Y-700100D01*
X-9680Y-700680D01*
X-9910Y-700900D01*
G03X-11100Y-720200I9909J-10298D01*
G01X-10920Y-720430D01*
X-10850Y-721000D01*
X-11750Y-722890D01*
G02X-12650Y-723460I-903J430D01*
G01X-93390D01*
G03X-98390Y-728460I0J-5000D01*
G01Y-736460D01*
G02X-103390Y-741460I-5000J0D01*
G01X-155390D01*
G37*
G36*
G01Y-639860D02*
G02X-160390Y-634860I0J5000D01*
G01Y-608860D01*
G03X-165390Y-603860I-5000J0D01*
G01X-255390D01*
G02X-260390Y-598860I0J5000D01*
G01Y-590860D01*
G02X-255390Y-585860I5000J0D01*
G01X-101390D01*
G02X-96390Y-590860I0J-5000D01*
G03X-91390Y-595860I5000J0D01*
G01X-11290D01*
G02X-10360Y-596490I0J-1001D01*
G01X-9550Y-598500D01*
X-9680Y-599080D01*
X-9910Y-599300D01*
G03X-11100Y-618600I9909J-10298D01*
G01X-10920Y-618830D01*
X-10850Y-619400D01*
X-11750Y-621290D01*
G02X-12650Y-621860I-903J430D01*
G01X-93390D01*
G03X-98390Y-626860I0J-5000D01*
G01Y-634860D01*
G02X-103390Y-639860I-5000J0D01*
G01X-155390D01*
G37*
G36*
G01Y-538260D02*
G02X-160390Y-533260I0J5000D01*
G01Y-507260D01*
G03X-165390Y-502260I-5000J0D01*
G01X-255390D01*
G02X-260390Y-497260I0J5000D01*
G01Y-489260D01*
G02X-255390Y-484260I5000J0D01*
G01X-101390D01*
G02X-96390Y-489260I0J-5000D01*
G03X-91390Y-494260I5000J0D01*
G01X-11290D01*
G02X-10360Y-494890I0J-1001D01*
G01X-9550Y-496900D01*
X-9680Y-497480D01*
X-9910Y-497700D01*
G03X-11100Y-517000I9909J-10298D01*
G01X-10920Y-517230D01*
X-10850Y-517800D01*
X-11750Y-519690D01*
G02X-12650Y-520260I-903J430D01*
G01X-93390D01*
G03X-98390Y-525260I0J-5000D01*
G01Y-533260D01*
G02X-103390Y-538260I-5000J0D01*
G01X-155390D01*
G37*
G36*
G01Y-436660D02*
G02X-160390Y-431660I0J5000D01*
G01Y-405660D01*
G03X-165390Y-400660I-5000J0D01*
G01X-255390D01*
G02X-260390Y-395660I0J5000D01*
G01Y-387660D01*
G02X-255390Y-382660I5000J0D01*
G01X-101390D01*
G02X-96390Y-387660I0J-5000D01*
G03X-91390Y-392660I5000J0D01*
G01X-11290D01*
G02X-10360Y-393290I0J-1001D01*
G01X-9550Y-395300D01*
X-9680Y-395880D01*
X-9910Y-396100D01*
G03X-11100Y-415400I9909J-10298D01*
G01X-10920Y-415630D01*
X-10850Y-416200D01*
X-11750Y-418090D01*
G02X-12650Y-418660I-903J430D01*
G01X-93390D01*
G03X-98390Y-423660I0J-5000D01*
G01Y-431660D01*
G02X-103390Y-436660I-5000J0D01*
G01X-155390D01*
G37*
G36*
G01Y-335060D02*
G02X-160390Y-330060I0J5000D01*
G01Y-304060D01*
G03X-165390Y-299060I-5000J0D01*
G01X-255390D01*
G02X-260390Y-294060I0J5000D01*
G01Y-286060D01*
G02X-255390Y-281060I5000J0D01*
G01X-101390D01*
G02X-96390Y-286060I0J-5000D01*
G03X-91390Y-291060I5000J0D01*
G01X-11290D01*
G02X-10360Y-291690I0J-1001D01*
G01X-9550Y-293700D01*
X-9680Y-294280D01*
X-9910Y-294500D01*
G03X-11100Y-313800I9909J-10298D01*
G01X-10920Y-314030D01*
X-10850Y-314600D01*
X-11750Y-316490D01*
G02X-12650Y-317060I-903J430D01*
G01X-93390D01*
G03X-98390Y-322060I0J-5000D01*
G01Y-330060D01*
G02X-103390Y-335060I-5000J0D01*
G01X-155390D01*
G37*
G36*
G01Y-233460D02*
G02X-160390Y-228460I0J5000D01*
G01Y-202460D01*
G03X-165390Y-197460I-5000J0D01*
G01X-255390D01*
G02X-260390Y-192460I0J5000D01*
G01Y-184460D01*
G02X-255390Y-179460I5000J0D01*
G01X-101390D01*
G02X-96390Y-184460I0J-5000D01*
G03X-91390Y-189460I5000J0D01*
G01X-11290D01*
G02X-10360Y-190090I0J-1001D01*
G01X-9550Y-192100D01*
X-9680Y-192680D01*
X-9910Y-192900D01*
G03X-11100Y-212200I9909J-10298D01*
G01X-10920Y-212430D01*
X-10850Y-213000D01*
X-11750Y-214890D01*
G02X-12650Y-215460I-903J430D01*
G01X-93390D01*
G03X-98390Y-220460I0J-5000D01*
G01Y-228460D01*
G02X-103390Y-233460I-5000J0D01*
G01X-155390D01*
G37*
G36*
G01Y-131860D02*
G02X-160390Y-126860I0J5000D01*
G01Y-100860D01*
G03X-165390Y-95860I-5000J0D01*
G01X-255390D01*
G02X-260390Y-90860I0J5000D01*
G01Y-82860D01*
G02X-255390Y-77860I5000J0D01*
G01X-101390D01*
G02X-96390Y-82860I0J-5000D01*
G03X-91390Y-87860I5000J0D01*
G01X-11290D01*
G02X-10360Y-88490I0J-1001D01*
G01X-9550Y-90500D01*
X-9680Y-91080D01*
X-9910Y-91300D01*
G03X-11100Y-110600I9909J-10298D01*
G01X-10920Y-110830D01*
X-10850Y-111400D01*
X-11750Y-113290D01*
G02X-12650Y-113860I-903J430D01*
G01X-93390D01*
G03X-98390Y-118860I0J-5000D01*
G01Y-126860D01*
G02X-103390Y-131860I-5000J0D01*
G01X-155390D01*
G37*
G36*
G01Y-30260D02*
G02X-160390Y-25260I0J5000D01*
G01Y740D01*
G03X-165390Y5740I-5000J0D01*
G01X-255390D01*
G02X-260390Y10740I0J5000D01*
G01Y18740D01*
G02X-255390Y23740I5000J0D01*
G01X-101390D01*
G02X-96390Y18740I0J-5000D01*
G03X-91390Y13740I5000J0D01*
G01X-11290D01*
G02X-10360Y13110I0J-1001D01*
G01X-9550Y11100D01*
X-9680Y10520D01*
X-9910Y10300D01*
G03X-11100Y-9000I9909J-10298D01*
G01X-10920Y-9230D01*
X-10850Y-9800D01*
X-11750Y-11690D01*
G02X-12650Y-12260I-903J430D01*
G01X-93390D01*
G03X-98390Y-17260I0J-5000D01*
G01Y-25260D01*
G02X-103390Y-30260I-5000J0D01*
G01X-155390D01*
G37*
G36*
G01X-182700Y-723740D02*
G02X-177700Y-728740I0J-5000D01*
G01Y-736740D01*
G02X-182700Y-741740I-5000J0D01*
G01X-222700D01*
G02X-227700Y-736740I0J5000D01*
G01Y-728740D01*
G02X-222700Y-723740I5000J0D01*
G01X-182700D01*
G37*
G36*
G01Y-622140D02*
G02X-177700Y-627140I0J-5000D01*
G01Y-635140D01*
G02X-182700Y-640140I-5000J0D01*
G01X-222700D01*
G02X-227700Y-635140I0J5000D01*
G01Y-627140D01*
G02X-222700Y-622140I5000J0D01*
G01X-182700D01*
G37*
G36*
G01Y-520540D02*
G02X-177700Y-525540I0J-5000D01*
G01Y-533540D01*
G02X-182700Y-538540I-5000J0D01*
G01X-222700D01*
G02X-227700Y-533540I0J5000D01*
G01Y-525540D01*
G02X-222700Y-520540I5000J0D01*
G01X-182700D01*
G37*
G36*
G01Y-418940D02*
G02X-177700Y-423940I0J-5000D01*
G01Y-431940D01*
G02X-182700Y-436940I-5000J0D01*
G01X-222700D01*
G02X-227700Y-431940I0J5000D01*
G01Y-423940D01*
G02X-222700Y-418940I5000J0D01*
G01X-182700D01*
G37*
G36*
G01Y-317340D02*
G02X-177700Y-322340I0J-5000D01*
G01Y-330340D01*
G02X-182700Y-335340I-5000J0D01*
G01X-222700D01*
G02X-227700Y-330340I0J5000D01*
G01Y-322340D01*
G02X-222700Y-317340I5000J0D01*
G01X-182700D01*
G37*
G36*
G01Y-215740D02*
G02X-177700Y-220740I0J-5000D01*
G01Y-228740D01*
G02X-182700Y-233740I-5000J0D01*
G01X-222700D01*
G02X-227700Y-228740I0J5000D01*
G01Y-220740D01*
G02X-222700Y-215740I5000J0D01*
G01X-182700D01*
G37*
G36*
G01Y-114140D02*
G02X-177700Y-119140I0J-5000D01*
G01Y-127140D01*
G02X-182700Y-132140I-5000J0D01*
G01X-222700D01*
G02X-227700Y-127140I0J5000D01*
G01Y-119140D01*
G02X-222700Y-114140I5000J0D01*
G01X-182700D01*
G37*
G36*
G01Y-12540D02*
G02X-177700Y-17540I0J-5000D01*
G01Y-25540D01*
G02X-182700Y-30540I-5000J0D01*
G01X-222700D01*
G02X-227700Y-25540I0J5000D01*
G01Y-17540D01*
G02X-222700Y-12540I5000J0D01*
G01X-182700D01*
G37*
%LPC*%
G75*
G36*
G01X-431640Y1117680D02*
X-429790Y1117950D01*
X-427370Y1120760D01*
Y1121770D01*
X-406330D01*
Y1120540D01*
X-384860D01*
G02X-379860Y1115540I0J-5000D01*
G01Y1102960D01*
G02X-384860Y1097960I-5000J0D01*
G01X-406330D01*
Y1096730D01*
X-424450D01*
X-427370Y1099650D01*
Y1100190D01*
X-431640Y1100820D01*
G02Y1117680I1240J8430D01*
G37*
G36*
G01X-821590Y-805480D02*
X-804010D01*
G02X-799010Y-810480I0J-5000D01*
G01Y-823060D01*
G02X-804010Y-828060I-5000J0D01*
G01X-821590D01*
G02X-826590Y-823060I0J5000D01*
G01Y-810480D01*
G02X-821590Y-805480I5000J0D01*
G37*
G36*
G01X-704230Y320190D02*
X-707680D01*
X-708910Y319860D01*
X-709480Y319540D01*
G02X-722900Y320610I-5919J10461D01*
G01X-723530Y321110D01*
X-725020Y321660D01*
X-732550Y321960D01*
X-734080Y321520D01*
X-734750Y321070D01*
G02Y338930I-6050J8930D01*
G01X-734080Y338480D01*
X-732550Y338040D01*
X-725020Y338340D01*
X-723530Y338890D01*
X-722900Y339390D01*
G02X-709480Y340460I7501J-9391D01*
G01X-708910Y340140D01*
X-707680Y339810D01*
X-704230D01*
X-703480Y340560D01*
G02X-699950Y342020I3531J-3540D01*
G01X-682980D01*
G02X-677980Y337020I0J-5000D01*
G01Y322980D01*
G02X-682980Y317980I-5000J0D01*
G01X-702020D01*
X-704230Y320190D01*
G37*
%LPD*%
G75*
G54D10*
X-948700Y-957040D03*
Y-68040D03*
G54D11*
X-923300Y-906240D03*
Y-677640D03*
Y-423640D03*
Y-169640D03*
X-897900Y-906240D03*
X-872500D03*
X-897900Y-677640D03*
X-872500D03*
X-897900Y-423640D03*
X-872500D03*
X-897900Y-169640D03*
X-872500D03*
X-690000Y330000D03*
X-247650Y-698500D03*
X-279400Y-762000D03*
Y-660400D03*
Y-558800D03*
X-247650Y-596900D03*
Y-495300D03*
Y-393700D03*
X-279400Y-457200D03*
Y-355600D03*
Y-254000D03*
X-247650Y-292100D03*
Y-190500D03*
Y-88900D03*
X-279400Y-152400D03*
Y-50800D03*
X-247650Y12700D03*
G54D20*
X-829790Y-887400D03*
X-810290D03*
X-613200Y-851060D03*
X-632700D03*
X-613200Y-895580D03*
X-632700D03*
G54D21*
X-774700Y-783100D03*
Y-753600D03*
X-772400Y426600D03*
Y397100D03*
X-724710Y-856270D03*
Y-826770D03*
G54D12*
X-923300Y-880840D03*
Y-855440D03*
Y-830040D03*
Y-804640D03*
Y-779240D03*
Y-753840D03*
Y-728440D03*
Y-703040D03*
Y-652240D03*
Y-626840D03*
Y-601440D03*
Y-576040D03*
Y-550640D03*
Y-525240D03*
Y-499840D03*
Y-474440D03*
Y-449040D03*
Y-398240D03*
Y-372840D03*
Y-347440D03*
Y-322040D03*
Y-296640D03*
Y-271240D03*
Y-245840D03*
Y-220440D03*
Y-195040D03*
Y-144240D03*
Y-118840D03*
X-897900Y-880840D03*
Y-855440D03*
X-872500Y-880840D03*
Y-855440D03*
X-897900Y-830040D03*
Y-804640D03*
Y-779240D03*
X-872500Y-830040D03*
Y-804640D03*
Y-779240D03*
X-897900Y-753840D03*
Y-728440D03*
Y-703040D03*
X-872500Y-753840D03*
Y-728440D03*
Y-703040D03*
X-897900Y-652240D03*
Y-626840D03*
X-872500Y-652240D03*
Y-626840D03*
X-897900Y-601440D03*
Y-576040D03*
Y-550640D03*
X-872500Y-601440D03*
Y-576040D03*
Y-550640D03*
X-897900Y-525240D03*
Y-499840D03*
Y-474440D03*
X-872500Y-525240D03*
Y-499840D03*
Y-474440D03*
X-897900Y-449040D03*
Y-398240D03*
X-872500Y-449040D03*
Y-398240D03*
X-897900Y-372840D03*
Y-347440D03*
Y-322040D03*
X-872500Y-372840D03*
Y-347440D03*
Y-322040D03*
X-897900Y-296640D03*
Y-271240D03*
Y-245840D03*
X-872500Y-296640D03*
Y-271240D03*
Y-245840D03*
X-897900Y-220440D03*
Y-195040D03*
X-872500Y-220440D03*
Y-195040D03*
X-897900Y-144240D03*
Y-118840D03*
X-872500Y-144240D03*
Y-118840D03*
X-740800Y330000D03*
X-715400D03*
X-387400Y-731850D03*
Y-630250D03*
Y-528650D03*
Y-427050D03*
Y-325450D03*
Y-223850D03*
Y-122250D03*
Y-20650D03*
X-337400Y-731850D03*
Y-630250D03*
Y-528650D03*
Y-427050D03*
Y-325450D03*
Y-223850D03*
Y-122250D03*
Y-20650D03*
X-345850Y359950D03*
Y461550D03*
Y563150D03*
Y664750D03*
Y766350D03*
Y867950D03*
Y969550D03*
Y1071150D03*
X-247650Y-723900D03*
X-279400Y-736600D03*
X-247650Y-622300D03*
X-279400Y-635000D03*
X-247650Y-520700D03*
X-279400Y-533400D03*
X-247650Y-419100D03*
X-279400Y-431800D03*
X-247650Y-317500D03*
X-279400Y-330200D03*
X-247650Y-215900D03*
X-279400Y-228600D03*
X-247650Y-114300D03*
X-279400Y-127000D03*
X-247650Y-12700D03*
X-279400Y-25400D03*
X-295050Y359950D03*
X-269650D03*
X-244250D03*
Y309150D03*
X-269650D03*
X-295050D03*
X-244250Y410750D03*
X-269650D03*
X-295050D03*
X-244250Y512350D03*
X-269650D03*
X-295050D03*
Y461550D03*
X-269650D03*
X-244250D03*
X-295050Y563150D03*
X-269650D03*
X-244250D03*
X-295050Y664750D03*
X-269650D03*
X-244250D03*
Y613950D03*
X-269650D03*
X-295050D03*
X-244250Y715550D03*
X-269650D03*
X-295050D03*
X-244250Y817150D03*
X-269650D03*
X-295050D03*
Y766350D03*
X-269650D03*
X-244250D03*
X-295050Y867950D03*
X-269650D03*
X-244250D03*
X-295050Y969550D03*
X-269650D03*
X-244250D03*
Y918750D03*
X-269650D03*
X-295050D03*
X-244250Y1020350D03*
X-269650D03*
X-295050D03*
Y1071150D03*
X-269650D03*
X-244250D03*
X-186700Y-732250D03*
Y-630650D03*
Y-529050D03*
Y-427450D03*
Y-325850D03*
Y-224250D03*
Y-122650D03*
Y-21050D03*
X-136700Y-732250D03*
Y-630650D03*
Y-529050D03*
Y-427450D03*
Y-325850D03*
Y-224250D03*
Y-122650D03*
Y-21050D03*
G54D30*
X-681810Y589450D03*
Y576750D03*
Y564050D03*
Y551350D03*
X-735810D03*
Y564050D03*
Y576750D03*
G54D13*
G01X-764150Y-675000D02*
Y-689270D01*
X-950000Y-850000D03*
Y-740000D03*
Y-630000D03*
Y-520000D03*
Y-410000D03*
Y-300000D03*
Y-190000D03*
Y-110000D03*
Y-30000D03*
Y80000D03*
Y190000D03*
Y300000D03*
Y410000D03*
Y520000D03*
Y630000D03*
X-948980Y739070D03*
Y849070D03*
Y959070D03*
Y1069070D03*
Y1179070D03*
X-900000Y-940000D03*
X-840000Y-970000D03*
X-850000Y-850000D03*
Y-790000D03*
X-840000Y-560000D03*
X-850000Y-410000D03*
X-870000Y-30000D03*
X-910000Y-90000D03*
X-870000D03*
X-880000Y45000D03*
X-900000Y16980D03*
X-880000Y0D03*
X-900000Y115000D03*
X-880000Y100000D03*
X-900000Y62500D03*
X-880000Y82500D03*
X-899850Y143850D03*
X-901750Y185250D03*
X-880000Y164000D03*
X-902500Y215000D03*
X-880000Y230000D03*
X-870000Y300000D03*
Y410000D03*
Y520000D03*
Y630000D03*
Y735000D03*
X-895000Y730000D03*
X-878850Y680200D03*
X-870000Y850000D03*
Y960000D03*
Y1070000D03*
Y1140000D03*
Y1220000D03*
X-781950Y-933740D03*
X-766000Y-914000D03*
X-810000Y-860000D03*
X-800000Y-914000D03*
X-835000Y-817500D03*
X-792500D03*
X-800000Y-740000D03*
X-780000Y-650000D03*
X-790000Y-630000D03*
X-764150Y-689270D03*
X-830000Y-520000D03*
X-790000Y422500D03*
X-747500Y-952500D03*
Y-932500D03*
X-735000Y-970000D03*
X-692750Y-960000D03*
X-740000Y-898000D03*
X-747500Y-912500D03*
X-740000Y-886000D03*
X-696090Y-886040D03*
X-690000Y-780000D03*
X-750000D03*
X-756440Y-826980D03*
X-724640Y-814260D03*
X-744900Y-733850D03*
Y-714350D03*
X-714900Y-721850D03*
X-702400Y-744350D03*
X-735000Y-677500D03*
X-700000Y-699450D03*
X-744900Y-632250D03*
X-702400Y-642750D03*
X-735000Y-575000D03*
X-700000Y-595000D03*
X-744900Y-612750D03*
X-714900Y-620250D03*
X-735000Y-475000D03*
X-697500Y-492500D03*
X-744900Y-530650D03*
Y-511150D03*
X-714900Y-518650D03*
X-702400Y-541150D03*
X-744900Y-429050D03*
Y-409550D03*
X-714900Y-417050D03*
X-702400Y-439550D03*
X-735000Y-372500D03*
X-700000Y-390000D03*
X-744900Y-327450D03*
X-702400Y-337950D03*
X-735000Y-270000D03*
X-700000Y-290000D03*
X-744900Y-307950D03*
X-714900Y-315450D03*
X-735000Y-170000D03*
X-700000Y-187500D03*
X-744900Y-225850D03*
Y-206350D03*
X-714900Y-213850D03*
X-702400Y-236350D03*
X-744900Y-124250D03*
Y-104750D03*
X-714900Y-112250D03*
X-702400Y-134750D03*
X-735000Y-67500D03*
X-700000Y-87500D03*
X-744900Y-22650D03*
X-702400Y-33150D03*
X-700000Y15000D03*
X-760000Y30000D03*
X-744900Y41850D03*
Y-3150D03*
X-714900Y-10650D03*
X-730000Y85000D03*
X-760000Y130000D03*
X-744900Y69350D03*
X-760000Y240000D03*
Y310000D03*
X-750000Y380000D03*
Y450000D03*
X-735000Y505000D03*
X-756510Y525880D03*
X-750120Y551350D03*
X-717500Y630000D03*
X-724710Y611740D03*
X-699270Y630820D03*
X-760000Y850000D03*
Y960000D03*
Y1070000D03*
Y1140000D03*
Y1220000D03*
X-642500Y-962500D03*
X-654750Y-895580D03*
X-638850Y-927380D03*
X-660000Y-830000D03*
X-630000Y-800000D03*
X-645210Y-851060D03*
X-670000Y130000D03*
Y240000D03*
Y310000D03*
Y390000D03*
X-640000Y430000D03*
X-652400Y476850D03*
X-680000Y490000D03*
X-633620Y455920D03*
X-638850Y497260D03*
X-668620Y511130D03*
X-638850Y554500D03*
X-644630Y630820D03*
X-664290Y605380D03*
X-661110Y688060D03*
X-650000Y850000D03*
Y960000D03*
Y1070000D03*
Y1140000D03*
Y1220000D03*
X-550000Y-910000D03*
Y-860000D03*
X-589180Y-900730D03*
X-570000Y-800000D03*
X-546100Y-838200D03*
X-591700Y-751740D03*
X-597510Y-735250D03*
X-591700Y-650140D03*
X-597510Y-633650D03*
X-599700Y-691740D03*
X-591700Y-548540D03*
X-599700Y-590140D03*
X-597510Y-532050D03*
X-599700Y-488540D03*
X-591700Y-446940D03*
X-597510Y-430450D03*
X-591700Y-345340D03*
X-597510Y-328850D03*
X-599700Y-386940D03*
X-591700Y-243740D03*
X-599700Y-285340D03*
X-597510Y-227250D03*
X-599700Y-183740D03*
X-597510Y-125650D03*
X-591700Y-142140D03*
Y-40540D03*
X-597510Y-24050D03*
X-599700Y-82140D03*
Y19460D03*
X-560000Y130000D03*
Y240000D03*
Y310000D03*
X-575000Y415000D03*
X-560000Y390000D03*
X-600690Y436840D03*
X-603870Y497260D03*
X-558220Y452740D03*
X-542400Y571850D03*
X-603870Y525880D03*
Y554500D03*
X-580000Y630000D03*
X-581610Y675340D03*
X-550000Y860000D03*
X-540000Y960000D03*
Y1070000D03*
Y1140000D03*
Y1220000D03*
X-520000Y-930000D03*
Y-840000D03*
X-461700Y-701740D03*
X-513700Y-713740D03*
X-501700Y-773740D03*
Y-672140D03*
X-461700Y-600140D03*
X-513700Y-612140D03*
X-501700Y-570540D03*
X-461700Y-498540D03*
X-513700Y-510540D03*
X-461700Y-396940D03*
X-513700Y-408940D03*
X-501700Y-468940D03*
Y-367340D03*
X-461700Y-295340D03*
X-513700Y-307340D03*
X-501700Y-265740D03*
X-461700Y-193740D03*
X-513700Y-205740D03*
X-461700Y-92140D03*
X-513700Y-104140D03*
X-501700Y-164140D03*
Y-62540D03*
X-513700Y-2540D03*
X-461700Y9460D03*
X-512400Y451850D03*
X-489390Y471820D03*
X-458720Y585170D03*
X-524370Y586300D03*
X-467130Y548140D03*
Y560860D03*
X-477400Y611850D03*
X-482400Y596850D03*
X-497400D03*
X-508000Y630050D03*
X-479850Y668980D03*
X-502110Y653080D03*
X-479850Y691240D03*
X-502110Y672160D03*
X-479200Y780280D03*
X-479850Y754840D03*
Y805720D03*
Y831160D03*
X-450000Y130000D03*
Y240000D03*
Y360000D03*
Y310000D03*
X-425790Y379600D03*
Y476250D03*
X-392500Y705000D03*
X-390000Y770000D03*
X-430000Y820000D03*
Y930000D03*
X-390000Y980000D03*
X-430000Y1040000D03*
X-430400Y1109250D03*
X-430000Y1140000D03*
Y1220000D03*
X-361700Y-763740D03*
Y-662140D03*
Y-560540D03*
Y-458940D03*
Y-357340D03*
Y-255740D03*
Y-154140D03*
Y-52540D03*
X-350000Y170000D03*
Y277500D03*
X-352400Y331850D03*
X-370000Y390000D03*
X-352400Y536850D03*
Y586850D03*
Y741850D03*
Y791850D03*
X-380000Y870000D03*
X-352400Y841850D03*
Y941850D03*
Y1041850D03*
X-374910Y1109250D03*
X-352400Y1141850D03*
X-22800Y135660D03*
X-3000Y127460D03*
X-31000Y155460D03*
X-22800Y175260D03*
X-3000Y183460D03*
X16800Y135660D03*
Y175260D03*
X25000Y155460D03*
G54D22*
X-791850Y-675000D03*
X-764150D03*
X-709940Y611740D03*
X-682240D03*
X-633620Y471820D03*
X-605920D03*
X-585920Y436840D03*
X-558220D03*
X-458720Y602200D03*
X-431020D03*
X-389150Y1109250D03*
X-416850D03*
G54D40*
X-497450Y-749740D03*
Y-701740D03*
Y-648140D03*
Y-546540D03*
Y-600140D03*
Y-498540D03*
Y-444940D03*
Y-396940D03*
Y-343340D03*
Y-241740D03*
Y-295340D03*
Y-193740D03*
Y-140140D03*
Y-92140D03*
Y-38540D03*
Y9460D03*
X-449950Y-749740D03*
Y-701740D03*
Y-648140D03*
Y-546540D03*
Y-600140D03*
Y-498540D03*
Y-444940D03*
Y-396940D03*
Y-343340D03*
Y-241740D03*
Y-295340D03*
Y-193740D03*
Y-140140D03*
Y-92140D03*
Y-38540D03*
Y9460D03*
G54D31*
X-735810Y589450D03*
G54D32*
X-619010Y-927380D03*
Y-962360D03*
X-576010Y-927380D03*
Y-962360D03*
G54D41*
X-470050Y513160D03*
X-426050D03*
G54D23*
X-734500Y-945000D03*
X-715500D03*
X-734500Y-920000D03*
X-715500D03*
X-731900Y41850D03*
X-712900D03*
X-731900Y69350D03*
X-712900D03*
X-743750Y525880D03*
X-724750D03*
G54D50*
X25000Y-812800D03*
Y50800D03*
G54D14*
G01X-880000Y16980D02*
Y0D01*
G01Y16980D02*
X-900000D01*
G01X-880000Y143850D02*
Y164000D01*
G01Y185250D02*
Y164000D01*
G01Y185250D02*
X-901750D01*
G01X-880000Y143850D02*
X-899850D01*
G01X-878850Y692810D02*
Y680200D01*
G01X-724710Y-826770D02*
X-724640Y-814260D01*
G01X-619010Y-927380D02*
X-638850D01*
G01X-668620Y525880D02*
Y511130D01*
G01X-558220Y436840D02*
X-534110D01*
X-534070Y436800D01*
G01X-416850Y1109250D02*
X-430400D01*
G01X-269650Y359950D02*
G03X-260900Y338830I29864J0D01*
G03X-251100Y334770I9800J9797D01*
G01X-221970D01*
G02X-208330Y329120I-10J-19313D01*
G01X-196000Y316800D01*
G03X-179700Y310050I16297J16300D01*
G01X-168050D01*
G01X-244250Y359950D02*
X-186530D01*
X-185630Y359050D01*
X-168050D01*
G01X-269650Y461550D02*
G03X-260900Y440430I29864J0D01*
G03X-251100Y436370I9800J9797D01*
G01X-221970D01*
G02X-208330Y430720I-10J-19313D01*
G01X-196000Y418400D01*
G03X-179700Y411650I16297J16300D01*
G01X-168050D01*
G01X-244250Y461550D02*
X-186530D01*
X-185630Y460650D01*
X-168050D01*
G01X-269650Y563150D02*
G03X-260900Y542030I29864J0D01*
G03X-251100Y537970I9800J9797D01*
G01X-221970D01*
G02X-208330Y532320I-10J-19313D01*
G01X-196000Y520000D01*
G03X-179700Y513250I16297J16300D01*
G01X-168050D01*
G01X-244250Y563150D02*
X-186530D01*
X-185630Y562250D01*
X-168050D01*
G01X-269650Y664750D02*
G03X-260900Y643630I29864J0D01*
G03X-251100Y639570I9800J9797D01*
G01X-221970D01*
G02X-208330Y633920I-10J-19313D01*
G01X-196000Y621600D01*
G03X-179700Y614850I16297J16300D01*
G01X-168050D01*
G01X-244250Y664750D02*
X-186530D01*
X-185630Y663850D01*
X-168050D01*
G01X-269650Y766350D02*
G03X-260900Y745230I29864J0D01*
G03X-251100Y741170I9800J9797D01*
G01X-221970D01*
G02X-208330Y735520I-10J-19313D01*
G01X-196000Y723200D01*
G03X-179700Y716450I16297J16300D01*
G01X-168050D01*
G01X-244250Y766350D02*
X-186530D01*
X-185630Y765450D01*
X-168050D01*
G01X-269650Y867950D02*
G03X-260900Y846830I29864J0D01*
G03X-251100Y842770I9800J9797D01*
G01X-221970D01*
G02X-208330Y837120I-10J-19313D01*
G01X-196000Y824800D01*
G03X-179700Y818050I16297J16300D01*
G01X-168050D01*
G01X-244250Y867950D02*
X-186530D01*
X-185630Y867050D01*
X-168050D01*
G01X-269650Y969550D02*
G03X-260900Y948430I29864J0D01*
G03X-251100Y944370I9800J9797D01*
G01X-221970D01*
G02X-208330Y938720I-10J-19313D01*
G01X-196000Y926400D01*
G03X-179700Y919650I16297J16300D01*
G01X-168050D01*
G01X-244250Y969550D02*
X-186530D01*
X-185630Y968650D01*
X-168050D01*
G01X-269650Y1071150D02*
G03X-260900Y1050030I29864J0D01*
G03X-251100Y1045970I9800J9797D01*
G01X-221970D01*
G02X-208330Y1040320I-10J-19313D01*
G01X-196000Y1028000D01*
G03X-179700Y1021250I16297J16300D01*
G01X-168050D01*
G01X-244250Y1071150D02*
X-186530D01*
X-185630Y1070250D01*
X-168050D01*
G01X0Y360800D02*
G02X-63370Y334550I-63372J63370D01*
G01X-98800D01*
G03X-132000Y320800I-3J-46950D01*
G02X-157950Y310050I-25952J25950D01*
G01X-168050D01*
G01X-100000Y360800D02*
X-148720D01*
X-150470Y359050D01*
X-168050D01*
G01X0Y462400D02*
G02X-63370Y436150I-63372J63370D01*
G01X-98800D01*
G03X-132000Y422400I-3J-46950D01*
G02X-157950Y411650I-25952J25950D01*
G01X-168050D01*
G01X0Y564000D02*
G02X-63370Y537750I-63372J63370D01*
G01X-98800D01*
G03X-132000Y524000I-3J-46950D01*
G02X-157950Y513250I-25952J25950D01*
G01X-168050D01*
G01X-100000Y462400D02*
X-148720D01*
X-150470Y460650D01*
X-168050D01*
G01X-100000Y564000D02*
X-148720D01*
X-150470Y562250D01*
X-168050D01*
G01X0Y665600D02*
G02X-63370Y639350I-63372J63370D01*
G01X-98800D01*
G03X-132000Y625600I-3J-46950D01*
G02X-157950Y614850I-25952J25950D01*
G01X-168050D01*
G01X-100000Y665600D02*
X-148720D01*
X-150470Y663850D01*
X-168050D01*
G01X0Y767200D02*
G02X-63370Y740950I-63372J63370D01*
G01X-98800D01*
G03X-132000Y727200I-3J-46950D01*
G02X-157950Y716450I-25952J25950D01*
G01X-168050D01*
G01X0Y868800D02*
G02X-63370Y842550I-63372J63370D01*
G01X-98800D01*
G03X-132000Y828800I-3J-46950D01*
G02X-157950Y818050I-25952J25950D01*
G01X-168050D01*
G01X-100000Y767200D02*
X-148720D01*
X-150470Y765450D01*
X-168050D01*
G01X-100000Y868800D02*
X-148720D01*
X-150470Y867050D01*
X-168050D01*
G01X0Y970400D02*
G02X-63370Y944150I-63372J63370D01*
G01X-98800D01*
G03X-132000Y930400I-3J-46950D01*
G02X-157950Y919650I-25952J25950D01*
G01X-168050D01*
G01X-100000Y970400D02*
X-148720D01*
X-150470Y968650D01*
X-168050D01*
G01X0Y1072000D02*
G02X-63370Y1045750I-63372J63370D01*
G01X-98800D01*
G03X-132000Y1032000I-3J-46950D01*
G02X-157950Y1021250I-25952J25950D01*
G01X-168050D01*
G01X-100000Y1072000D02*
X-148720D01*
X-150470Y1070250D01*
X-168050D01*
X-895350Y-971550D03*
Y1276350D03*
X-63500Y-971550D03*
Y1276350D03*
G54D51*
G01X-745980Y-896040D02*
X-755750D01*
G01X-712750Y-891040D02*
X-702980D01*
G01X-703200Y-886040D02*
X-712750D01*
G01Y-881040D02*
X-702980D01*
G54D42*
X-345850Y309150D03*
Y410750D03*
Y512350D03*
Y613950D03*
Y715550D03*
Y817150D03*
Y918750D03*
Y1020350D03*
G54D15*
X-880000Y63020D03*
Y16980D03*
X-812800Y-816770D03*
Y-770730D03*
G54D33*
X-653250Y-939730D03*
Y-913970D03*
G54D24*
X-692750Y-941600D03*
X-673750D03*
X-683250Y-920100D03*
G54D52*
G01X-829790Y-887400D02*
X-841880D01*
X-860720Y-906240D01*
X-872500D01*
G01X-774700Y-783100D02*
X-782940D01*
G02X-812800Y-770730I2J42230D01*
G01X-680190Y-876540D02*
Y-817440D01*
X-696090Y-801540D01*
X-766910D01*
G02X-774700Y-793750I0J7790D01*
G01Y-783100D01*
G01X-715500Y-945000D02*
Y-920000D01*
G01X-683250Y-920100D02*
X-691710D01*
G03X-697500Y-922500I2J-8190D01*
G01X-698970Y-923960D01*
G03X-702500Y-932500I8542J-8531D01*
G01X-702490Y-940000D01*
G02X-707490Y-945000I-5000J0D01*
G01X-715500D01*
G01X-744900Y41850D02*
X-731900D01*
G01X-698060Y494080D02*
Y513540D01*
X-698120Y513600D01*
Y525880D01*
G01X-735810Y576750D02*
X-710510D01*
X-697810Y564050D01*
X-681810D01*
G01Y551350D02*
X-699270D01*
G01D02*
X-711830D01*
X-724530Y564050D01*
X-735810D01*
G01X-698120Y525880D02*
Y550200D01*
X-699270Y551350D01*
G01X-724750Y525880D02*
X-698120D01*
G01X-653250Y-939730D02*
X-659280D01*
X-663250Y-935760D01*
Y-924850D01*
X-668000Y-920100D01*
X-683250D01*
G01X-632700Y-895580D02*
X-654750D01*
G01X-632650Y-873320D02*
Y-885250D01*
X-632700Y-885300D01*
Y-895580D01*
G01X-613200D02*
X-606890Y-889270D01*
Y-873320D01*
G01X-653250Y-913970D02*
X-659760D01*
X-678190Y-895540D01*
X-680190D01*
G01X-596900Y-863780D02*
X-651570D01*
X-664330Y-876540D01*
X-680190D01*
G01X-632700Y-851060D02*
X-645210D01*
G01X-635830Y-828800D02*
Y-834830D01*
X-632700Y-837960D01*
Y-851060D01*
G01X-610070Y-828800D02*
Y-834830D01*
X-613200Y-837960D01*
Y-851060D01*
G01X-599700Y-691740D02*
X-607220D01*
X-611150Y-695670D01*
Y-703950D01*
G01X-599700Y-590140D02*
X-607220D01*
X-611150Y-594070D01*
Y-602350D01*
G01X-599700Y-488540D02*
X-607220D01*
X-611150Y-492470D01*
Y-500750D01*
G01X-599700Y-386940D02*
X-607220D01*
X-611150Y-390870D01*
Y-399150D01*
G01X-599700Y-285340D02*
X-607220D01*
X-611150Y-289270D01*
Y-297550D01*
G01X-599700Y-183740D02*
X-607220D01*
X-611150Y-187670D01*
Y-195950D01*
G01X-599700Y-82140D02*
X-607220D01*
X-611150Y-86070D01*
Y-94350D01*
G01X-599700Y19460D02*
X-607220D01*
X-611150Y15530D01*
Y7250D01*
G01X-681810Y564050D02*
X-664280D01*
X-610230Y618100D01*
X-489380D01*
X-477430Y630050D01*
X-436000D01*
G01X-682240Y611740D02*
Y596160D01*
X-681810Y595730D01*
Y589450D01*
G01X-664290Y605380D02*
X-667580Y608660D01*
G03X-675000Y611740I-7428J-7417D01*
G01X-682240D01*
G01X-576010Y-927380D02*
Y-962360D01*
G01X-606890Y-873320D02*
X-598360D01*
X-598190Y-873150D01*
X-582250D01*
G01Y-892150D02*
Y-893800D01*
G02X-589180Y-900730I-6930J0D01*
G01X-576010Y-927380D02*
Y-918940D01*
G02X-571500Y-908050I15400J1D01*
G01X-565150Y-901700D01*
G03X-560750Y-891080I-10616J10620D01*
G01Y-882650D01*
G01D02*
Y-874530D01*
G03X-571500Y-863780I-10750J0D01*
G01X-596900D01*
G01X-582250Y-847700D02*
Y-849130D01*
G02X-596900Y-863780I-14650J0D01*
G01X-560750Y-838200D02*
X-546100D01*
G01X-582250Y-828700D02*
X-593250D01*
X-593350Y-828800D01*
X-610070D01*
G01X-611150Y-754750D02*
X-594710D01*
X-591700Y-751740D01*
G01X-513700Y-713740D02*
X-520980D01*
X-521230Y-713990D01*
X-539700D01*
G01X-597510Y-735250D02*
X-582720D01*
X-556480Y-761490D01*
X-539700D01*
G01X-611150Y-729350D02*
X-603410D01*
X-597510Y-735250D01*
G01X-611150Y-653150D02*
X-594710D01*
X-591700Y-650140D01*
G01X-597510Y-633650D02*
X-582720D01*
X-556480Y-659890D01*
X-539700D01*
G01X-611150Y-627750D02*
X-603410D01*
X-597510Y-633650D01*
G01X-611150Y-551550D02*
X-594710D01*
X-591700Y-548540D01*
G01X-513700Y-612140D02*
X-520980D01*
X-521230Y-612390D01*
X-539700D01*
G01X-597510Y-532050D02*
X-582720D01*
X-556480Y-558290D01*
X-539700D01*
G01X-513700Y-510540D02*
X-520980D01*
X-521230Y-510790D01*
X-539700D01*
G01X-611150Y-526150D02*
X-603410D01*
X-597510Y-532050D01*
G01X-611150Y-449950D02*
X-594710D01*
X-591700Y-446940D01*
G01X-513700Y-408940D02*
X-520980D01*
X-521230Y-409190D01*
X-539700D01*
G01X-597510Y-430450D02*
X-582720D01*
X-556480Y-456690D01*
X-539700D01*
G01X-611150Y-424550D02*
X-603410D01*
X-597510Y-430450D01*
G01X-611150Y-348350D02*
X-594710D01*
X-591700Y-345340D01*
G01X-597510Y-328850D02*
X-582720D01*
X-556480Y-355090D01*
X-539700D01*
G01X-611150Y-322950D02*
X-603410D01*
X-597510Y-328850D01*
G01X-611150Y-246750D02*
X-594710D01*
X-591700Y-243740D01*
G01X-513700Y-307340D02*
X-520980D01*
X-521230Y-307590D01*
X-539700D01*
G01X-597510Y-227250D02*
X-582720D01*
X-556480Y-253490D01*
X-539700D01*
G01X-513700Y-205740D02*
X-520980D01*
X-521230Y-205990D01*
X-539700D01*
G01X-611150Y-221350D02*
X-603410D01*
X-597510Y-227250D01*
G01X-513700Y-104140D02*
X-520980D01*
X-521230Y-104390D01*
X-539700D01*
G01X-597510Y-125650D02*
X-582720D01*
X-556480Y-151890D01*
X-539700D01*
G01X-611150Y-119750D02*
X-603410D01*
X-597510Y-125650D01*
G01X-611150Y-145150D02*
X-594710D01*
X-591700Y-142140D01*
G01X-611150Y-43550D02*
X-594710D01*
X-591700Y-40540D01*
G01X-611150Y-18150D02*
X-603410D01*
X-597510Y-24050D01*
G01D02*
X-582720D01*
X-556480Y-50290D01*
X-539700D01*
G01X-513700Y-2540D02*
X-520980D01*
X-521230Y-2790D01*
X-539700D01*
G01X-558220Y452740D02*
Y436840D01*
G01X-455700Y-773740D02*
X-501700D01*
G01X-497450Y-749740D02*
Y-701740D01*
G01X-449950D02*
X-461700D01*
G01X-455700Y-672140D02*
X-501700D01*
G01X-497450Y-648140D02*
Y-600140D01*
G01X-449950D02*
X-461700D01*
G01X-455700Y-570540D02*
X-501700D01*
G01X-449950Y-498540D02*
X-461700D01*
G01X-497450Y-546540D02*
Y-498540D01*
G01X-455700Y-468940D02*
X-501700D01*
G01X-497450Y-444940D02*
Y-396940D01*
G01X-449950D02*
X-461700D01*
G01X-455700Y-367340D02*
X-501700D01*
G01X-497450Y-343340D02*
Y-295340D01*
G01X-449950D02*
X-461700D01*
G01X-455700Y-265740D02*
X-501700D01*
G01X-449950Y-193740D02*
X-461700D01*
G01X-497450Y-241740D02*
Y-193740D01*
G01X-455700Y-164140D02*
X-501700D01*
G01X-497450Y-140140D02*
Y-92140D01*
G01X-449950D02*
X-461700D01*
G01X-501700Y-62540D02*
X-455700D01*
G01X-497450Y-38540D02*
Y9460D01*
G01X-449950D02*
X-461700D01*
G01X-492570Y436800D02*
Y401860D01*
X-476710Y386000D01*
X-451070D01*
G01X-492570Y436800D02*
X-451070D01*
G01X-534070D02*
X-492570D01*
G01X-528900Y630050D02*
X-508000D01*
G01X-449950Y-749740D02*
Y-767990D01*
X-455700Y-773740D01*
G01D02*
X-365700D01*
X-361700Y-769740D01*
Y-763740D01*
G01X-449950Y-648140D02*
Y-666390D01*
X-455700Y-672140D01*
G01D02*
X-365700D01*
X-361700Y-668140D01*
Y-662140D01*
G01X-449950Y-546540D02*
Y-564790D01*
X-455700Y-570540D01*
G01D02*
X-365700D01*
X-361700Y-566540D01*
Y-560540D01*
G01X-449950Y-444940D02*
Y-463190D01*
X-455700Y-468940D01*
G01D02*
X-365700D01*
X-361700Y-464940D01*
Y-458940D01*
G01X-449950Y-343340D02*
Y-361590D01*
X-455700Y-367340D01*
G01D02*
X-365700D01*
X-361700Y-363340D01*
Y-357340D01*
G01X-449950Y-241740D02*
Y-259990D01*
X-455700Y-265740D01*
G01D02*
X-365700D01*
X-361700Y-261740D01*
Y-255740D01*
G01X-449950Y-140140D02*
Y-158390D01*
X-455700Y-164140D01*
G01D02*
X-365700D01*
X-361700Y-160140D01*
Y-154140D01*
G01X-455700Y-62540D02*
X-365700D01*
X-361700Y-58540D01*
Y-52540D01*
G01X-449950Y-38540D02*
Y-56790D01*
X-455700Y-62540D01*
G01X-425790Y476250D02*
Y411360D01*
G01X-451070Y411400D02*
X-436360D01*
X-436320Y411360D01*
X-425790D01*
G01X-431020Y602200D02*
Y589920D01*
X-426050Y584950D01*
Y513160D01*
G01D02*
Y498980D01*
X-425790Y498720D01*
Y476250D01*
G01X-431020Y602200D02*
Y619040D01*
X-436000Y624020D01*
Y630050D01*
G54D43*
X-168050Y359050D03*
Y310050D03*
Y411650D03*
Y513250D03*
Y460650D03*
Y562250D03*
Y663850D03*
Y614850D03*
Y716450D03*
Y818050D03*
Y765450D03*
Y867050D03*
Y968650D03*
Y919650D03*
Y1021250D03*
Y1070250D03*
G54D16*
X-880000Y116150D03*
Y143850D03*
X-878850Y720510D03*
Y692810D03*
G54D34*
X-632650Y-873320D03*
X-610070Y-828800D03*
X-635830D03*
X-606890Y-873320D03*
G54D25*
X-755750Y-896040D03*
Y-891040D03*
Y-886040D03*
Y-881040D03*
Y-876040D03*
X-712750D03*
Y-881040D03*
Y-886040D03*
Y-891040D03*
G54D53*
G01X-923300Y-906240D02*
Y-917260D01*
X-916360Y-924200D01*
X-877750D01*
X-872500Y-918950D01*
Y-906240D01*
G01X-923300Y-322040D02*
X-911050Y-309790D01*
X-857600D01*
X-814900Y-267090D01*
Y636030D01*
X-786230Y664700D01*
X-597400D01*
G01X-923300Y-347440D02*
X-911050Y-335190D01*
X-857560D01*
X-807400Y-285030D01*
Y624450D01*
X-779850Y652000D01*
X-597400D01*
G01X-923300Y-372840D02*
X-911050Y-360590D01*
X-857520D01*
X-799900Y-302970D01*
Y612880D01*
X-773480Y639300D01*
X-597400D01*
G01X-923300Y-245840D02*
X-910610Y-233150D01*
X-857280D01*
X-837400Y-213270D01*
Y683480D01*
X-811380Y709500D01*
X-597400D01*
G01X-923300Y-271240D02*
X-910210Y-258150D01*
X-856840D01*
X-829900Y-231210D01*
Y665540D01*
X-798640Y696800D01*
X-597400D01*
G01X-923300Y-296640D02*
X-910150Y-283490D01*
X-856740D01*
X-822400Y-249150D01*
Y650790D01*
X-795790Y677400D01*
X-597400D01*
G01X-923300Y-195040D02*
X-911050Y-182790D01*
X-857800D01*
X-852400Y-177390D01*
Y713000D01*
X-830500Y734900D01*
X-597400D01*
G01X-923300Y-220440D02*
X-911010Y-208150D01*
X-857720D01*
X-844900Y-195330D01*
Y701420D01*
X-824120Y722200D01*
X-597400D01*
G01X-872500Y-626840D02*
X-856640D01*
X-779900Y-550100D01*
Y376850D01*
X-772400Y384350D01*
Y397100D01*
G01X-872500Y-601440D02*
X-856680D01*
X-789900Y-534660D01*
Y408900D01*
X-787400Y411400D01*
X-742640D01*
G01X-781950Y-901980D02*
Y-895990D01*
G02X-772000Y-886040I9950J0D01*
G01X-755750D01*
G01X-781950Y-901980D02*
X-789420D01*
G02X-796000Y-895400I0J6580D01*
G03X-804000Y-887400I-8000J0D01*
G01X-810290D01*
G01X-755750Y-881040D02*
X-773480D01*
G02X-781050Y-873470I0J7570D01*
G01Y-867000D01*
G01Y-847500D02*
X-752860D01*
G02X-742000Y-852000I-2J-15360D01*
G03X-731690Y-856270I10309J10310D01*
G01X-724710D01*
G01X-741330Y-703950D02*
X-768740D01*
G03X-774000Y-709210I0J-5260D01*
G01Y-712750D01*
G01X-728650Y-729350D02*
G02X-732640Y-739000I-13642J-9D01*
G01X-736600Y-742950D01*
G02X-762310Y-753600I-25711J25710D01*
G01X-774000D01*
G01D02*
X-774700D01*
G01X-774000Y-732250D02*
Y-753600D01*
G01X-772400Y426600D02*
Y564700D01*
X-747650Y589450D01*
X-735810D01*
G01X-756510Y-857630D02*
Y-871260D01*
X-755750Y-872020D01*
Y-876040D01*
G01X-740000Y-898000D02*
X-744020D01*
X-745980Y-896040D01*
G01X-712750D02*
Y-913360D01*
G02X-715500Y-920000I-9390J-1D01*
G01X-724710Y-856270D02*
Y-866890D01*
G02X-726000Y-870000I-4400J3D01*
G03X-728000Y-874830I4830J-4829D01*
G01Y-890040D01*
G03X-722000Y-896040I6000J0D01*
G01X-712750D01*
G01X-755750Y-891040D02*
X-752170D01*
G03X-740000Y-886000I1J17210D01*
G01X-702980Y-891040D02*
X-698480Y-895540D01*
X-680190D01*
G01X-696090Y-886040D02*
X-703200D01*
G01X-702980Y-881040D02*
X-698480Y-876540D01*
X-680190D01*
G01X-728650Y-703950D02*
X-741330D01*
G01D02*
X-745590Y-699690D01*
Y-649750D01*
G01X-714900Y-721850D02*
Y-731850D01*
X-702400Y-744350D01*
G01X-745590Y-649750D02*
Y-645940D01*
X-742400Y-642750D01*
X-731150D01*
X-728650Y-640250D01*
Y-627750D01*
G01X-762000Y-649750D02*
X-745590D01*
G01X-741330Y-602350D02*
X-755780D01*
G03X-762000Y-608570I0J-6220D01*
G01Y-630250D01*
G01X-714900Y-620250D02*
Y-630250D01*
X-702400Y-642750D01*
G01X-728650Y-602350D02*
X-741330D01*
G01D02*
X-745590Y-598090D01*
Y-547250D01*
G01X-714900Y-518650D02*
Y-528650D01*
X-702400Y-541150D01*
G01X-745590Y-547250D02*
Y-544340D01*
X-742400Y-541150D01*
X-731150D01*
X-728650Y-538650D01*
Y-526150D01*
G01X-762000Y-547250D02*
X-745590D01*
G01X-728650Y-500750D02*
X-741330D01*
G01D02*
X-745590Y-496490D01*
Y-447250D01*
G01X-741330Y-500750D02*
X-754260D01*
G03X-762000Y-508490I0J-7740D01*
G01Y-527750D01*
G01X-714900Y-417050D02*
Y-427050D01*
X-702400Y-439550D01*
G01X-728650Y-399150D02*
X-741330D01*
G01D02*
X-757180D01*
G03X-762000Y-403970I0J-4820D01*
G01Y-427750D01*
G01X-741330Y-399150D02*
X-745590Y-394890D01*
Y-344750D01*
G01Y-447250D02*
Y-442740D01*
X-742400Y-439550D01*
X-731150D01*
X-728650Y-437050D01*
Y-424550D01*
G01X-762000Y-447250D02*
X-745590D01*
G01X-741330Y-297550D02*
X-755390D01*
G03X-762000Y-304160I0J-6610D01*
G01Y-325250D01*
G01X-714900Y-315450D02*
Y-325450D01*
X-702400Y-337950D01*
G01X-745590Y-344750D02*
Y-341140D01*
X-742400Y-337950D01*
X-731150D01*
X-728650Y-335450D01*
Y-322950D01*
G01X-762000Y-344750D02*
X-745590D01*
G01X-728650Y-297550D02*
X-741330D01*
G01D02*
X-745590Y-293290D01*
Y-242250D01*
G01X-728650Y-195950D02*
X-741330D01*
G01D02*
X-745590Y-191690D01*
Y-142250D01*
G01X-741330Y-195950D02*
X-755990D01*
G03X-762000Y-201960I0J-6010D01*
G01Y-222750D01*
G01X-745590Y-242250D02*
Y-239540D01*
X-742400Y-236350D01*
X-731150D01*
X-728650Y-233850D01*
Y-221350D01*
G01X-762000Y-242250D02*
X-745590D01*
G01X-714900Y-213850D02*
Y-223850D01*
X-702400Y-236350D01*
G01X-728650Y-94350D02*
X-741330D01*
G01D02*
X-757160D01*
G03X-762000Y-99190I0J-4840D01*
G01Y-122750D01*
G01X-741330Y-94350D02*
X-745590Y-90090D01*
Y-39750D01*
G01Y-142250D02*
Y-137940D01*
X-742400Y-134750D01*
X-731150D01*
X-728650Y-132250D01*
Y-119750D01*
G01X-762000Y-142250D02*
X-745590D01*
G01X-714900Y-112250D02*
Y-122250D01*
X-702400Y-134750D01*
G01X-745590Y-39750D02*
Y-36340D01*
X-742400Y-33150D01*
X-731150D01*
X-728650Y-30650D01*
Y-18150D01*
G01X-762500Y-39750D02*
X-745590D01*
G01X-762500Y-20250D02*
Y-4000D01*
G02X-751250Y7250I11250J0D01*
G01X-728650D01*
G01X-714900Y-10650D02*
Y-20650D01*
X-702400Y-33150D01*
G01X-712900Y41850D02*
Y69350D01*
G01Y41850D02*
Y9750D01*
X-715400Y7250D01*
X-728650D01*
G01X-713140Y411400D02*
X-677520D01*
G02X-650000Y400000I-1J-38920D01*
G03X-637930Y395000I12071J12070D01*
G01X-585000D01*
G03X-567930Y402070I0J24142D01*
G01X-565000Y405000D01*
G02X-549550Y411400I15451J-15450D01*
G01X-534070D01*
G01X-565400Y652000D02*
X-557130D01*
X-553680Y655450D01*
X-528900D01*
G01X-565400Y664700D02*
X-557130D01*
X-553680Y668150D01*
X-528900D01*
G01X-565400Y639300D02*
X-557130D01*
X-553680Y642750D01*
X-528900D01*
G01X-565400Y696800D02*
X-557130D01*
X-553880Y693550D01*
X-528900D01*
G01X-565400Y734900D02*
X-557130D01*
X-553880Y731650D01*
X-528900D01*
G01X-565400Y677400D02*
X-557130D01*
X-553680Y680850D01*
X-528900D01*
G01X-565400Y722200D02*
X-557130D01*
X-553880Y718950D01*
X-528900D01*
G01X-565400Y709500D02*
X-557130D01*
X-553880Y706250D01*
X-528900D01*
G01X-436000Y668150D02*
X-479020D01*
X-479850Y668980D01*
G01X-436000Y655450D02*
X-485400D01*
X-502110Y672160D01*
G01X-436000Y642750D02*
X-491780D01*
X-502110Y653080D01*
G01X-479200Y780280D02*
X-472680D01*
X-467130Y774730D01*
Y716180D01*
X-457200Y706250D01*
X-436000D01*
G01X-479850Y754840D02*
Y716200D01*
X-457200Y693550D01*
X-436000D01*
G01Y680850D02*
X-469460D01*
X-479850Y691240D01*
G01Y805720D02*
X-473330D01*
X-457590Y789980D01*
Y725690D01*
X-450850Y718950D01*
X-436000D01*
G01X-479850Y831160D02*
X-470310D01*
X-447450Y808300D01*
Y736100D01*
X-443000Y731650D01*
X-436000D01*
G01X-345850Y309150D02*
X-356870D01*
X-357570Y308450D01*
X-367370D01*
X-387630Y328710D01*
Y509980D01*
X-400350Y522700D01*
Y624450D01*
X-418650Y642750D01*
X-436000D01*
G01X-345850Y410750D02*
X-356870D01*
X-357090Y410530D01*
X-364490D01*
X-374910Y420950D01*
Y509980D01*
X-390810Y525880D01*
Y633990D01*
X-412270Y655450D01*
X-436000D01*
G01X-345850Y512350D02*
X-364570D01*
X-381270Y529050D01*
Y643530D01*
X-405890Y668150D01*
X-436000D01*
G01X-345850Y613950D02*
X-361210D01*
X-368550Y621290D01*
Y649910D01*
X-399490Y680850D01*
X-436000D01*
G01X-345850Y817150D02*
X-366670D01*
X-380000Y803820D01*
Y737030D01*
X-410780Y706250D01*
X-436000D01*
G01X-345850Y715550D02*
X-363330D01*
X-385330Y693550D01*
X-436000D01*
G01X-345850Y918750D02*
X-376370D01*
X-400350Y894770D01*
Y738930D01*
X-420330Y718950D01*
X-436000D01*
G01Y731650D02*
X-423540D01*
X-416400Y738790D01*
Y999550D01*
X-395500Y1020450D01*
X-356970D01*
X-356870Y1020350D01*
X-345850D01*
G54D35*
X-632900Y525850D03*
G54D17*
X-880000Y214750D03*
Y185250D03*
X-539700Y-713990D03*
Y-761490D03*
Y-659890D03*
Y-558290D03*
Y-612390D03*
Y-510790D03*
Y-409190D03*
Y-456690D03*
Y-355090D03*
Y-253490D03*
Y-307590D03*
Y-205990D03*
Y-104390D03*
Y-151890D03*
Y-50290D03*
Y-2790D03*
X-489390Y581970D03*
Y552470D03*
G54D44*
G01X-15290Y-711200D02*
X0D01*
G01X-15290Y-762000D02*
X0D01*
G01X-15290Y-660400D02*
X0D01*
G01X-15290Y-609600D02*
X0D01*
G01X-15290Y-558800D02*
X0D01*
G01X-15290Y-508000D02*
X0D01*
G01X-15290Y-406400D02*
X0D01*
G01X-15290Y-457200D02*
X0D01*
G01X-15290Y-355600D02*
X0D01*
G01X-15290Y-304800D02*
X0D01*
G01X-15290Y-254000D02*
X0D01*
G01X-15290Y-203200D02*
X0D01*
G01X-15290Y-152400D02*
X0D01*
G01X-15290Y-101600D02*
X0D01*
G01X-15290Y-50800D02*
X0D01*
G01X-15290Y0D02*
X0D01*
X-78000Y-927040D03*
Y-827040D03*
Y72960D03*
Y172960D03*
G54D26*
X-712750Y-896040D03*
G54D54*
G01X-880000Y230000D02*
Y232040D01*
G01X-605920Y471820D02*
Y483110D01*
G01Y471820D02*
X-601520Y483110D01*
G01X-569900Y493060D02*
Y502850D01*
G01D02*
X-557610D01*
G01X-541050Y471820D02*
X-532760D01*
G01X-540440Y501850D02*
X-532150D01*
G01X-582190Y525850D02*
X-569900D01*
G01D02*
X-557610D01*
G01X-569900Y548850D02*
Y558640D01*
G01Y548850D02*
X-557610D01*
G01X-479860Y499970D02*
X-470050Y513160D01*
G01X-479860Y526350D02*
X-470050Y513160D01*
G01X-502650Y501850D02*
Y513140D01*
G01Y501850D02*
X-494360D01*
G01X-532760Y471820D02*
Y483110D01*
G01X-532150Y490560D02*
Y501850D01*
G01X-489390Y544180D02*
Y552470D01*
G01X-505180D02*
X-489390D01*
G01D02*
X-473600D01*
G01X-524370Y547000D02*
Y554540D01*
G01X-533910D02*
X-524370D01*
G01D02*
X-514830D01*
G54D18*
X-781950Y-901980D03*
Y-920980D03*
X-680190Y-895540D03*
Y-876540D03*
X-524370Y573540D03*
Y554540D03*
X-425790Y392360D03*
Y411360D03*
G54D36*
X-534070Y386000D03*
Y411400D03*
Y436800D03*
X-451070D03*
Y411400D03*
Y386000D03*
G54D27*
X-728650Y-754750D03*
Y-729350D03*
Y-703950D03*
Y-653150D03*
Y-627750D03*
Y-551550D03*
Y-602350D03*
Y-526150D03*
Y-500750D03*
Y-449950D03*
Y-424550D03*
Y-399150D03*
Y-348350D03*
Y-322950D03*
Y-246750D03*
Y-297550D03*
Y-221350D03*
Y-195950D03*
Y-145150D03*
Y-119750D03*
Y-94350D03*
Y-43550D03*
Y-18150D03*
Y7250D03*
X-611150Y-703950D03*
Y-729350D03*
Y-754750D03*
Y-627750D03*
Y-653150D03*
Y-551550D03*
Y-602350D03*
Y-500750D03*
Y-526150D03*
Y-399150D03*
Y-424550D03*
Y-449950D03*
Y-322950D03*
Y-348350D03*
Y-246750D03*
Y-297550D03*
Y-195950D03*
Y-221350D03*
Y-94350D03*
Y-119750D03*
Y-145150D03*
Y-18150D03*
Y-43550D03*
Y7250D03*
G54D45*
X-100000Y360800D03*
Y310000D03*
Y411600D03*
Y513200D03*
Y462400D03*
Y564000D03*
Y665600D03*
Y614800D03*
Y716400D03*
Y818000D03*
Y767200D03*
Y868800D03*
Y970400D03*
Y919600D03*
Y1021200D03*
Y1072000D03*
X0Y-711200D03*
Y-660400D03*
Y-558800D03*
Y-609600D03*
Y-508000D03*
Y-406400D03*
Y-457200D03*
Y-355600D03*
Y-254000D03*
Y-304800D03*
Y-203200D03*
Y-101600D03*
Y-152400D03*
Y-50800D03*
Y0D03*
Y360800D03*
Y411600D03*
Y513200D03*
Y462400D03*
Y564000D03*
Y665600D03*
Y614800D03*
Y716400D03*
Y818000D03*
Y767200D03*
Y868800D03*
Y970400D03*
Y919600D03*
Y1021200D03*
Y1072000D03*
G54D55*
G01X-939090Y-144240D02*
X-923300D01*
G01X-939470Y-160410D02*
X-923300Y-144240D01*
G01X-880000Y46730D02*
Y63020D01*
G01Y101860D02*
Y116150D01*
G01X-896290D02*
X-880000D01*
G01D02*
X-863710D01*
G01X-880000Y63020D02*
Y79310D01*
G01X-898790Y63020D02*
X-880000D01*
G01Y201460D02*
Y214750D01*
G01D02*
Y228040D01*
G01X-900790Y214750D02*
X-880000D01*
G01X-878850Y720510D02*
Y734800D01*
G01X-895140Y720510D02*
X-878850D01*
G01D02*
X-862560D01*
G01X-781950Y-933520D02*
Y-920980D01*
G01X-796490D02*
X-781950D01*
G01D02*
X-767410D01*
G01X-770800Y-838130D02*
X-756510D01*
G01X-812800Y-833060D02*
Y-816770D01*
G01D02*
Y-800480D01*
G01X-831590Y-816770D02*
X-812800D01*
G01D02*
X-794010D01*
G01X-791850Y-691290D02*
Y-675000D01*
G01D02*
Y-658710D01*
G01X-806140Y-675000D02*
X-791850D01*
G01X-692750Y-954390D02*
Y-941600D01*
G01X-734500Y-959540D02*
Y-945000D01*
G01X-747040D02*
X-734500D01*
G01X-747040Y-920000D02*
X-734500D01*
G01X-756510Y-838130D02*
Y-826340D01*
G01X-731900Y69350D02*
Y83890D01*
G01X-744440Y69350D02*
X-731900D01*
G01X-740800Y314210D02*
Y330000D01*
G01D02*
Y345790D01*
G01X-756590Y330000D02*
X-740800D01*
G01X-743750Y511340D02*
Y525880D01*
G01X-732350Y503580D02*
X-719560D01*
G01X-735810Y541060D02*
Y551350D01*
G01X-743750Y525880D02*
Y540420D01*
G01X-756290Y525880D02*
X-743750D01*
G01X-709940Y611740D02*
Y628030D01*
G01X-724230Y611740D02*
X-709940D01*
G01X-619010Y-962360D02*
Y-946320D01*
G01X-639550Y-962360D02*
X-619010D01*
G01D02*
X-598470D01*
G01X-647910Y471820D02*
X-633620D01*
G01X-585920Y420550D02*
Y436840D01*
G01X-600210D02*
X-585920D01*
G01X-538910Y573540D02*
X-524370D01*
G01X-503260Y455530D02*
Y471820D01*
G01D02*
X-489970D01*
G01X-458720Y585910D02*
Y602200D01*
G01X-489390Y581970D02*
Y595260D01*
G01X-510180Y581970D02*
X-489390D01*
G01D02*
X-468600D01*
G01X-524370Y573540D02*
Y586080D01*
G01X-458720Y602200D02*
Y618490D01*
G01X-473010Y602200D02*
X-458720D01*
G01X-425790Y379820D02*
Y392360D01*
G01D02*
X-411250D01*
G01X-389150Y1092960D02*
Y1109250D01*
G01D02*
Y1125540D01*
G54D28*
X-713140Y411400D03*
X-742640D03*
X-698120Y525880D03*
X-668620D03*
X-532150Y501850D03*
X-532760Y471820D03*
X-502650Y501850D03*
X-503260Y471820D03*
G54D37*
X-569900Y502850D03*
Y548850D03*
Y525850D03*
G54D46*
X16300Y-957040D03*
G54D19*
X-781050Y-867000D03*
Y-847500D03*
X-774000Y-732250D03*
Y-712750D03*
X-762000Y-649750D03*
Y-630250D03*
Y-547250D03*
Y-527750D03*
Y-447250D03*
Y-427750D03*
Y-344750D03*
Y-325250D03*
Y-242250D03*
Y-222750D03*
Y-142250D03*
Y-122750D03*
X-762500Y-39750D03*
Y-20250D03*
X-756510Y-857630D03*
Y-838130D03*
G54D38*
X-528900Y630050D03*
Y642750D03*
Y655450D03*
Y668150D03*
Y680850D03*
Y693550D03*
Y706250D03*
Y718950D03*
Y731650D03*
X-436000Y668150D03*
Y655450D03*
Y642750D03*
Y630050D03*
Y731650D03*
Y718950D03*
Y706250D03*
Y693550D03*
Y680850D03*
G54D47*
X0Y-762000D03*
Y310000D03*
G54D29*
X-698060Y494080D03*
X-719560Y484580D03*
Y503580D03*
X-560750Y-882650D03*
X-582250Y-892150D03*
Y-873150D03*
X-560750Y-838200D03*
X-582250Y-847700D03*
Y-828700D03*
G54D39*
X-565400Y664700D03*
Y652000D03*
Y639300D03*
X-597400D03*
Y652000D03*
Y664700D03*
X-565400Y734900D03*
Y722200D03*
Y709500D03*
Y696800D03*
X-597400D03*
Y709500D03*
Y722200D03*
Y734900D03*
X-565400Y677400D03*
X-597400D03*
G54D48*
X-3000Y155460D03*
G54D49*
X16300Y1265460D03*
M02*
